%TF.GenerationSoftware,KiCad,Pcbnew,8.0.2*%
%TF.CreationDate,2025-03-06T23:30:15+01:00*%
%TF.ProjectId,meas,6d656173-2e6b-4696-9361-645f70636258,2.0.0*%
%TF.SameCoordinates,Original*%
%TF.FileFunction,Soldermask,Bot*%
%TF.FilePolarity,Negative*%
%FSLAX46Y46*%
G04 Gerber Fmt 4.6, Leading zero omitted, Abs format (unit mm)*
G04 Created by KiCad (PCBNEW 8.0.2) date 2025-03-06 23:30:15*
%MOMM*%
%LPD*%
G01*
G04 APERTURE LIST*
G04 Aperture macros list*
%AMRoundRect*
0 Rectangle with rounded corners*
0 $1 Rounding radius*
0 $2 $3 $4 $5 $6 $7 $8 $9 X,Y pos of 4 corners*
0 Add a 4 corners polygon primitive as box body*
4,1,4,$2,$3,$4,$5,$6,$7,$8,$9,$2,$3,0*
0 Add four circle primitives for the rounded corners*
1,1,$1+$1,$2,$3*
1,1,$1+$1,$4,$5*
1,1,$1+$1,$6,$7*
1,1,$1+$1,$8,$9*
0 Add four rect primitives between the rounded corners*
20,1,$1+$1,$2,$3,$4,$5,0*
20,1,$1+$1,$4,$5,$6,$7,0*
20,1,$1+$1,$6,$7,$8,$9,0*
20,1,$1+$1,$8,$9,$2,$3,0*%
G04 Aperture macros list end*
%ADD10C,2.400000*%
%ADD11C,2.200000*%
%ADD12C,2.800000*%
%ADD13C,2.162000*%
%ADD14RoundRect,0.150000X-0.150000X0.825000X-0.150000X-0.825000X0.150000X-0.825000X0.150000X0.825000X0*%
%ADD15RoundRect,0.250000X0.475000X-0.337500X0.475000X0.337500X-0.475000X0.337500X-0.475000X-0.337500X0*%
%ADD16RoundRect,0.250000X-0.337500X-0.475000X0.337500X-0.475000X0.337500X0.475000X-0.337500X0.475000X0*%
G04 APERTURE END LIST*
D10*
%TO.C,F1002*%
X188500000Y-55000000D03*
D11*
X187250000Y-61400000D03*
X189750000Y-61400000D03*
X187250000Y-57900000D03*
X189750000Y-57900000D03*
X187250000Y-52100000D03*
X189750000Y-52100000D03*
X187250000Y-48600000D03*
X189750000Y-48600000D03*
%TD*%
D12*
%TO.C,REF\u002A\u002A*%
X155550000Y-171430000D03*
%TD*%
D10*
%TO.C,F101*%
X220000000Y-55000000D03*
D11*
X221250000Y-48600000D03*
X218750000Y-48600000D03*
X221250000Y-52100000D03*
X218750000Y-52100000D03*
X221250000Y-57900000D03*
X218750000Y-57900000D03*
X221250000Y-61400000D03*
X218750000Y-61400000D03*
%TD*%
D13*
%TO.C,J105*%
X212750000Y-61200000D03*
X212750000Y-52500000D03*
X207670000Y-61200000D03*
X207670000Y-52500000D03*
%TD*%
D12*
%TO.C,REF\u002A\u002A*%
X244450000Y-171430000D03*
%TD*%
D13*
%TO.C,J101*%
X181500000Y-61200000D03*
X181500000Y-52500000D03*
X176420000Y-61200000D03*
X176420000Y-52500000D03*
X171340000Y-61200000D03*
X171340000Y-52500000D03*
X166260000Y-61200000D03*
X166260000Y-52500000D03*
X161180000Y-61200000D03*
X161180000Y-52500000D03*
X156100000Y-61200000D03*
X156100000Y-52500000D03*
%TD*%
%TO.C,J104*%
X232500000Y-61200000D03*
X232500000Y-52500000D03*
X227420000Y-61200000D03*
X227420000Y-52500000D03*
%TD*%
%TO.C,J103*%
X244250000Y-61200000D03*
X244250000Y-52500000D03*
X239170000Y-61200000D03*
X239170000Y-52500000D03*
%TD*%
%TO.C,J102*%
X201000000Y-61200000D03*
X201000000Y-52500000D03*
X195920000Y-61200000D03*
X195920000Y-52500000D03*
%TD*%
D14*
%TO.C,U901*%
X222860000Y-64485000D03*
X224130000Y-64485000D03*
X225400000Y-64485000D03*
X226670000Y-64485000D03*
X226670000Y-69435000D03*
X225400000Y-69435000D03*
X224130000Y-69435000D03*
X222860000Y-69435000D03*
%TD*%
D15*
%TO.C,C901*%
X229210000Y-69775500D03*
X229210000Y-67700500D03*
%TD*%
D16*
%TO.C,C902*%
X225532500Y-72675000D03*
X227607500Y-72675000D03*
%TD*%
M02*
