%TF.GenerationSoftware,KiCad,Pcbnew,8.0.2*%
%TF.CreationDate,2025-02-23T04:32:59+01:00*%
%TF.ProjectId,meas,6d656173-2e6b-4696-9361-645f70636258,1.0.0*%
%TF.SameCoordinates,Original*%
%TF.FileFunction,Drillmap*%
%TF.FilePolarity,Positive*%
%FSLAX45Y45*%
G04 Gerber Fmt 4.5, Leading zero omitted, Abs format (unit mm)*
G04 Created by KiCad (PCBNEW 8.0.2) date 2025-02-23 04:32:59*
%MOMM*%
%LPD*%
G01*
G04 APERTURE LIST*
%ADD10C,0.050000*%
%ADD11C,0.200000*%
%ADD12C,0.100000*%
%ADD13C,0.140000*%
G04 APERTURE END LIST*
D10*
X15000000Y-4000000D02*
X25000000Y-4000000D01*
X25000000Y-17500000D01*
X15000000Y-17500000D01*
X15000000Y-4000000D01*
D11*
D12*
X15286000Y-11849900D02*
X15316000Y-11879900D01*
X15316000Y-11849900D02*
X15286000Y-11879900D01*
X15286000Y-14351800D02*
X15316000Y-14381800D01*
X15316000Y-14351800D02*
X15286000Y-14381800D01*
X15362200Y-11888000D02*
X15392200Y-11918000D01*
X15392200Y-11888000D02*
X15362200Y-11918000D01*
X15362200Y-13780300D02*
X15392200Y-13810300D01*
X15392200Y-13780300D02*
X15362200Y-13810300D01*
X15438400Y-11747680D02*
X15468400Y-11777680D01*
X15468400Y-11747680D02*
X15438400Y-11777680D01*
X15438400Y-13208800D02*
X15468400Y-13238800D01*
X15468400Y-13208800D02*
X15438400Y-13238800D01*
X15514600Y-11938800D02*
X15544600Y-11968800D01*
X15544600Y-11938800D02*
X15514600Y-11968800D01*
X15514600Y-12662700D02*
X15544600Y-12692700D01*
X15544600Y-12662700D02*
X15514600Y-12692700D01*
X15654300Y-11456200D02*
X15684300Y-11486200D01*
X15684300Y-11456200D02*
X15654300Y-11486200D01*
X15667000Y-10491000D02*
X15697000Y-10521000D01*
X15697000Y-10491000D02*
X15667000Y-10521000D01*
X15857500Y-8535200D02*
X15887500Y-8565200D01*
X15887500Y-8535200D02*
X15857500Y-8565200D01*
X15857500Y-9805200D02*
X15887500Y-9835200D01*
X15887500Y-9805200D02*
X15857500Y-9835200D01*
X15921000Y-10491000D02*
X15951000Y-10521000D01*
X15951000Y-10491000D02*
X15921000Y-10521000D01*
X15921000Y-13208800D02*
X15951000Y-13238800D01*
X15951000Y-13208800D02*
X15921000Y-13238800D01*
X16060700Y-12256300D02*
X16090700Y-12286300D01*
X16090700Y-12256300D02*
X16060700Y-12286300D01*
X16111500Y-13424700D02*
X16141500Y-13454700D01*
X16141500Y-13424700D02*
X16111500Y-13454700D01*
X16111500Y-15075700D02*
X16141500Y-15105700D01*
X16141500Y-15075700D02*
X16111500Y-15105700D01*
X16111500Y-15710700D02*
X16141500Y-15740700D01*
X16141500Y-15710700D02*
X16111500Y-15740700D01*
X16111500Y-16218700D02*
X16141500Y-16248700D01*
X16141500Y-16218700D02*
X16111500Y-16248700D01*
X16124200Y-14567700D02*
X16154200Y-14597700D01*
X16154200Y-14567700D02*
X16124200Y-14597700D01*
X16175000Y-10491000D02*
X16205000Y-10521000D01*
X16205000Y-10491000D02*
X16175000Y-10521000D01*
X16251200Y-11456200D02*
X16281200Y-11486200D01*
X16281200Y-11456200D02*
X16251200Y-11486200D01*
X16365500Y-8535200D02*
X16395500Y-8565200D01*
X16395500Y-8535200D02*
X16365500Y-8565200D01*
X16365500Y-9805200D02*
X16395500Y-9835200D01*
X16395500Y-9805200D02*
X16365500Y-9835200D01*
X16429000Y-10491000D02*
X16459000Y-10521000D01*
X16459000Y-10491000D02*
X16429000Y-10521000D01*
X16517900Y-12434100D02*
X16547900Y-12464100D01*
X16547900Y-12434100D02*
X16517900Y-12464100D01*
X16683000Y-10491000D02*
X16713000Y-10521000D01*
X16713000Y-10491000D02*
X16683000Y-10521000D01*
X16711050Y-12256300D02*
X16741050Y-12286300D01*
X16741050Y-12256300D02*
X16711050Y-12286300D01*
X16810000Y-12662700D02*
X16840000Y-12692700D01*
X16840000Y-12662700D02*
X16810000Y-12692700D01*
X16937000Y-10491000D02*
X16967000Y-10521000D01*
X16967000Y-10491000D02*
X16937000Y-10521000D01*
X17000500Y-8535200D02*
X17030500Y-8565200D01*
X17030500Y-8535200D02*
X17000500Y-8565200D01*
X17000500Y-9805200D02*
X17030500Y-9835200D01*
X17030500Y-9805200D02*
X17000500Y-9835200D01*
X17000500Y-12662700D02*
X17030500Y-12692700D01*
X17030500Y-12662700D02*
X17000500Y-12692700D01*
X17368800Y-14567700D02*
X17398800Y-14597700D01*
X17398800Y-14567700D02*
X17368800Y-14597700D01*
X17381500Y-10821200D02*
X17411500Y-10851200D01*
X17411500Y-10821200D02*
X17381500Y-10851200D01*
X17381500Y-13424700D02*
X17411500Y-13454700D01*
X17411500Y-13424700D02*
X17381500Y-13454700D01*
X17381500Y-15075700D02*
X17411500Y-15105700D01*
X17411500Y-15075700D02*
X17381500Y-15105700D01*
X17381500Y-15710700D02*
X17411500Y-15740700D01*
X17411500Y-15710700D02*
X17381500Y-15740700D01*
X17381500Y-16218700D02*
X17411500Y-16248700D01*
X17411500Y-16218700D02*
X17381500Y-16248700D01*
X17699000Y-10999000D02*
X17729000Y-11029000D01*
X17729000Y-10999000D02*
X17699000Y-11029000D01*
X17699000Y-11253000D02*
X17729000Y-11283000D01*
X17729000Y-11253000D02*
X17699000Y-11283000D01*
X17699000Y-11507000D02*
X17729000Y-11537000D01*
X17729000Y-11507000D02*
X17699000Y-11537000D01*
X17699000Y-11761000D02*
X17729000Y-11791000D01*
X17729000Y-11761000D02*
X17699000Y-11791000D01*
X17699000Y-12015000D02*
X17729000Y-12045000D01*
X17729000Y-12015000D02*
X17699000Y-12045000D01*
X17699000Y-12269000D02*
X17729000Y-12299000D01*
X17729000Y-12269000D02*
X17699000Y-12299000D01*
X17699000Y-13869200D02*
X17729000Y-13899200D01*
X17729000Y-13869200D02*
X17699000Y-13899200D01*
X17699000Y-14250200D02*
X17729000Y-14280200D01*
X17729000Y-14250200D02*
X17699000Y-14280200D01*
X17699000Y-14631200D02*
X17729000Y-14661200D01*
X17729000Y-14631200D02*
X17699000Y-14661200D01*
X17800600Y-9995700D02*
X17830600Y-10025700D01*
X17830600Y-9995700D02*
X17800600Y-10025700D01*
X18014500Y-13678700D02*
X18044500Y-13708700D01*
X18044500Y-13678700D02*
X18014500Y-13708700D01*
X18016500Y-8535200D02*
X18046500Y-8565200D01*
X18046500Y-8535200D02*
X18016500Y-8565200D01*
X18016500Y-9805200D02*
X18046500Y-9835200D01*
X18046500Y-9805200D02*
X18016500Y-9835200D01*
X18080000Y-12523000D02*
X18110000Y-12553000D01*
X18110000Y-12523000D02*
X18080000Y-12553000D01*
X18156200Y-12789700D02*
X18186200Y-12819700D01*
X18186200Y-12789700D02*
X18156200Y-12819700D01*
X18232400Y-12878600D02*
X18262400Y-12908600D01*
X18262400Y-12878600D02*
X18232400Y-12908600D01*
X18397500Y-11570500D02*
X18427500Y-11600500D01*
X18427500Y-11570500D02*
X18397500Y-11600500D01*
X18397500Y-11747680D02*
X18427500Y-11777680D01*
X18427500Y-11747680D02*
X18397500Y-11777680D01*
X18405009Y-11933609D02*
X18435009Y-11963609D01*
X18435009Y-11933609D02*
X18405009Y-11963609D01*
X18461000Y-8217700D02*
X18491000Y-8247700D01*
X18491000Y-8217700D02*
X18461000Y-8247700D01*
X18524500Y-11646700D02*
X18554500Y-11676700D01*
X18554500Y-11646700D02*
X18524500Y-11676700D01*
X18524500Y-12307100D02*
X18554500Y-12337100D01*
X18554500Y-12307100D02*
X18524500Y-12337100D01*
X18842000Y-8217700D02*
X18872000Y-8247700D01*
X18872000Y-8217700D02*
X18842000Y-8247700D01*
X18842000Y-11253000D02*
X18872000Y-11283000D01*
X18872000Y-11253000D02*
X18842000Y-11283000D01*
X18892800Y-11456200D02*
X18922800Y-11486200D01*
X18922800Y-11456200D02*
X18892800Y-11486200D01*
X19159500Y-8547900D02*
X19189500Y-8577900D01*
X19189500Y-8547900D02*
X19159500Y-8577900D01*
X19159500Y-9792500D02*
X19189500Y-9822500D01*
X19189500Y-9792500D02*
X19159500Y-9822500D01*
X19159500Y-13208800D02*
X19189500Y-13238800D01*
X19189500Y-13208800D02*
X19159500Y-13238800D01*
X19223000Y-8217700D02*
X19253000Y-8247700D01*
X19253000Y-8217700D02*
X19223000Y-8247700D01*
X19299200Y-12256300D02*
X19329200Y-12286300D01*
X19329200Y-12256300D02*
X19299200Y-12286300D01*
X19350000Y-9284500D02*
X19380000Y-9314500D01*
X19380000Y-9284500D02*
X19350000Y-9314500D01*
X19350000Y-9411500D02*
X19380000Y-9441500D01*
X19380000Y-9411500D02*
X19350000Y-9441500D01*
X19350000Y-13424700D02*
X19380000Y-13454700D01*
X19380000Y-13424700D02*
X19350000Y-13454700D01*
X19350000Y-15075700D02*
X19380000Y-15105700D01*
X19380000Y-15075700D02*
X19350000Y-15105700D01*
X19350000Y-15710700D02*
X19380000Y-15740700D01*
X19380000Y-15710700D02*
X19350000Y-15740700D01*
X19350000Y-16218700D02*
X19380000Y-16248700D01*
X19380000Y-16218700D02*
X19350000Y-16248700D01*
X19362700Y-14567700D02*
X19392700Y-14597700D01*
X19392700Y-14567700D02*
X19362700Y-14597700D01*
X19489700Y-11456200D02*
X19519700Y-11486200D01*
X19519700Y-11456200D02*
X19489700Y-11486200D01*
X19604000Y-8776500D02*
X19634000Y-8806500D01*
X19634000Y-8776500D02*
X19604000Y-8806500D01*
X19731000Y-8573300D02*
X19761000Y-8603300D01*
X19761000Y-8573300D02*
X19731000Y-8603300D01*
X19807200Y-8649500D02*
X19837200Y-8679500D01*
X19837200Y-8649500D02*
X19807200Y-8679500D01*
X19883400Y-8497100D02*
X19913400Y-8527100D01*
X19913400Y-8497100D02*
X19883400Y-8527100D01*
X19883400Y-10821200D02*
X19913400Y-10851200D01*
X19913400Y-10821200D02*
X19883400Y-10851200D01*
X19949550Y-12256300D02*
X19979550Y-12286300D01*
X19979550Y-12256300D02*
X19949550Y-12286300D01*
X19972300Y-8420900D02*
X20002300Y-8450900D01*
X20002300Y-8420900D02*
X19972300Y-8450900D01*
X19985000Y-15075700D02*
X20015000Y-15105700D01*
X20015000Y-15075700D02*
X19985000Y-15105700D01*
X20048500Y-8344700D02*
X20078500Y-8374700D01*
X20078500Y-8344700D02*
X20048500Y-8374700D01*
X20112000Y-12662700D02*
X20142000Y-12692700D01*
X20142000Y-12662700D02*
X20112000Y-12692700D01*
X20239000Y-12662700D02*
X20269000Y-12692700D01*
X20269000Y-12662700D02*
X20239000Y-12692700D01*
X20607300Y-14567700D02*
X20637300Y-14597700D01*
X20637300Y-14567700D02*
X20607300Y-14597700D01*
X20620000Y-13424700D02*
X20650000Y-13454700D01*
X20650000Y-13424700D02*
X20620000Y-13454700D01*
X20620000Y-15075700D02*
X20650000Y-15105700D01*
X20650000Y-15075700D02*
X20620000Y-15105700D01*
X20620000Y-15710700D02*
X20650000Y-15740700D01*
X20650000Y-15710700D02*
X20620000Y-15740700D01*
X20620000Y-16218700D02*
X20650000Y-16248700D01*
X20650000Y-16218700D02*
X20620000Y-16248700D01*
X20747000Y-9983000D02*
X20777000Y-10013000D01*
X20777000Y-9983000D02*
X20747000Y-10013000D01*
X20747000Y-10237000D02*
X20777000Y-10267000D01*
X20777000Y-10237000D02*
X20747000Y-10267000D01*
X20747000Y-10491000D02*
X20777000Y-10521000D01*
X20777000Y-10491000D02*
X20747000Y-10521000D01*
X20797800Y-12434100D02*
X20827800Y-12464100D01*
X20827800Y-12434100D02*
X20797800Y-12464100D01*
X20937500Y-9157500D02*
X20967500Y-9187500D01*
X20967500Y-9157500D02*
X20937500Y-9187500D01*
X20937500Y-12662700D02*
X20967500Y-12692700D01*
X20967500Y-12662700D02*
X20937500Y-12692700D01*
X20937500Y-13869200D02*
X20967500Y-13899200D01*
X20967500Y-13869200D02*
X20937500Y-13899200D01*
X20937500Y-14250200D02*
X20967500Y-14280200D01*
X20967500Y-14250200D02*
X20937500Y-14280200D01*
X20937500Y-14631200D02*
X20967500Y-14661200D01*
X20967500Y-14631200D02*
X20937500Y-14661200D01*
X21064500Y-9157500D02*
X21094500Y-9187500D01*
X21094500Y-9157500D02*
X21064500Y-9187500D01*
X21064500Y-12662700D02*
X21094500Y-12692700D01*
X21094500Y-12662700D02*
X21064500Y-12692700D01*
X21092500Y-13285000D02*
X21122500Y-13315000D01*
X21122500Y-13285000D02*
X21092500Y-13315000D01*
X21191500Y-9157500D02*
X21221500Y-9187500D01*
X21221500Y-9157500D02*
X21191500Y-9187500D01*
X21191500Y-12662700D02*
X21221500Y-12692700D01*
X21221500Y-12662700D02*
X21191500Y-12692700D01*
X21253000Y-13678700D02*
X21283000Y-13708700D01*
X21283000Y-13678700D02*
X21253000Y-13708700D01*
X21255000Y-9983000D02*
X21285000Y-10013000D01*
X21285000Y-9983000D02*
X21255000Y-10013000D01*
X21255000Y-10237000D02*
X21285000Y-10267000D01*
X21285000Y-10237000D02*
X21255000Y-10267000D01*
X21255000Y-10491000D02*
X21285000Y-10521000D01*
X21285000Y-10491000D02*
X21255000Y-10521000D01*
X21343900Y-8344700D02*
X21373900Y-8374700D01*
X21373900Y-8344700D02*
X21343900Y-8374700D01*
X21382000Y-8776500D02*
X21412000Y-8806500D01*
X21412000Y-8776500D02*
X21382000Y-8806500D01*
X21382000Y-12789700D02*
X21412000Y-12819700D01*
X21412000Y-12789700D02*
X21382000Y-12819700D01*
X21420100Y-8420900D02*
X21450100Y-8450900D01*
X21450100Y-8420900D02*
X21420100Y-8450900D01*
X21458200Y-12878600D02*
X21488200Y-12908600D01*
X21488200Y-12878600D02*
X21458200Y-12908600D01*
X21661400Y-11951500D02*
X21691400Y-11981500D01*
X21691400Y-11951500D02*
X21661400Y-11981500D01*
X21674100Y-11738200D02*
X21704100Y-11768200D01*
X21704100Y-11738200D02*
X21674100Y-11768200D01*
X21763000Y-4141000D02*
X21793000Y-4171000D01*
X21793000Y-4141000D02*
X21763000Y-4171000D01*
X21763000Y-4395000D02*
X21793000Y-4425000D01*
X21793000Y-4395000D02*
X21763000Y-4425000D01*
X21763000Y-4649000D02*
X21793000Y-4679000D01*
X21793000Y-4649000D02*
X21763000Y-4679000D01*
X21763000Y-5411000D02*
X21793000Y-5441000D01*
X21793000Y-5411000D02*
X21763000Y-5441000D01*
X21763000Y-5919000D02*
X21793000Y-5949000D01*
X21793000Y-5919000D02*
X21763000Y-5949000D01*
X21763000Y-6427000D02*
X21793000Y-6457000D01*
X21793000Y-6427000D02*
X21763000Y-6457000D01*
X21826500Y-12396000D02*
X21856500Y-12426000D01*
X21856500Y-12396000D02*
X21826500Y-12426000D01*
X22017000Y-4141000D02*
X22047000Y-4171000D01*
X22047000Y-4141000D02*
X22017000Y-4171000D01*
X22017000Y-4395000D02*
X22047000Y-4425000D01*
X22047000Y-4395000D02*
X22017000Y-4425000D01*
X22017000Y-4649000D02*
X22047000Y-4679000D01*
X22047000Y-4649000D02*
X22017000Y-4679000D01*
X22017000Y-6427000D02*
X22047000Y-6457000D01*
X22047000Y-6427000D02*
X22017000Y-6457000D01*
X22080500Y-6363500D02*
X22110500Y-6393500D01*
X22110500Y-6363500D02*
X22080500Y-6393500D01*
X22080500Y-6427000D02*
X22110500Y-6457000D01*
X22110500Y-6427000D02*
X22080500Y-6457000D01*
X22080500Y-6490500D02*
X22110500Y-6520500D01*
X22110500Y-6490500D02*
X22080500Y-6520500D01*
X22131300Y-11456200D02*
X22161300Y-11486200D01*
X22161300Y-11456200D02*
X22131300Y-11486200D01*
X22144000Y-6300000D02*
X22174000Y-6330000D01*
X22174000Y-6300000D02*
X22144000Y-6330000D01*
X22144000Y-6363500D02*
X22174000Y-6393500D01*
X22174000Y-6363500D02*
X22144000Y-6393500D01*
X22144000Y-6427000D02*
X22174000Y-6457000D01*
X22174000Y-6427000D02*
X22144000Y-6457000D01*
X22144000Y-6490500D02*
X22174000Y-6520500D01*
X22174000Y-6490500D02*
X22144000Y-6520500D01*
X22194800Y-8497100D02*
X22224800Y-8527100D01*
X22224800Y-8497100D02*
X22194800Y-8527100D01*
X22207500Y-6300000D02*
X22237500Y-6330000D01*
X22237500Y-6300000D02*
X22207500Y-6330000D01*
X22271000Y-4141000D02*
X22301000Y-4171000D01*
X22301000Y-4141000D02*
X22271000Y-4171000D01*
X22271000Y-4395000D02*
X22301000Y-4425000D01*
X22301000Y-4395000D02*
X22271000Y-4425000D01*
X22271000Y-4649000D02*
X22301000Y-4679000D01*
X22301000Y-4649000D02*
X22271000Y-4679000D01*
X22271000Y-4903000D02*
X22301000Y-4933000D01*
X22301000Y-4903000D02*
X22271000Y-4933000D01*
X22271000Y-5157000D02*
X22301000Y-5187000D01*
X22301000Y-5157000D02*
X22271000Y-5187000D01*
X22271000Y-5411000D02*
X22301000Y-5441000D01*
X22301000Y-5411000D02*
X22271000Y-5441000D01*
X22271000Y-5665000D02*
X22301000Y-5695000D01*
X22301000Y-5665000D02*
X22271000Y-5695000D01*
X22271000Y-5919000D02*
X22301000Y-5949000D01*
X22301000Y-5919000D02*
X22271000Y-5949000D01*
X22271000Y-6173000D02*
X22301000Y-6203000D01*
X22301000Y-6173000D02*
X22271000Y-6203000D01*
X22271000Y-6300000D02*
X22301000Y-6330000D01*
X22301000Y-6300000D02*
X22271000Y-6330000D01*
X22271000Y-6617500D02*
X22301000Y-6647500D01*
X22301000Y-6617500D02*
X22271000Y-6647500D01*
X22271000Y-7189000D02*
X22301000Y-7219000D01*
X22301000Y-7189000D02*
X22271000Y-7219000D01*
X22271000Y-8649500D02*
X22301000Y-8679500D01*
X22301000Y-8649500D02*
X22271000Y-8679500D01*
X22334500Y-6617500D02*
X22364500Y-6647500D01*
X22364500Y-6617500D02*
X22334500Y-6647500D01*
X22347200Y-7443000D02*
X22377200Y-7473000D01*
X22377200Y-7443000D02*
X22347200Y-7473000D01*
X22347200Y-8573300D02*
X22377200Y-8603300D01*
X22377200Y-8573300D02*
X22347200Y-8603300D01*
X22398000Y-6300000D02*
X22428000Y-6330000D01*
X22428000Y-6300000D02*
X22398000Y-6330000D01*
X22398000Y-6617500D02*
X22428000Y-6647500D01*
X22428000Y-6617500D02*
X22398000Y-6647500D01*
X22398000Y-7125500D02*
X22428000Y-7155500D01*
X22428000Y-7125500D02*
X22398000Y-7155500D01*
X22398000Y-13208800D02*
X22428000Y-13238800D01*
X22428000Y-13208800D02*
X22398000Y-13238800D01*
X22525000Y-4141000D02*
X22555000Y-4171000D01*
X22555000Y-4141000D02*
X22525000Y-4171000D01*
X22525000Y-4395000D02*
X22555000Y-4425000D01*
X22555000Y-4395000D02*
X22525000Y-4425000D01*
X22525000Y-4649000D02*
X22555000Y-4679000D01*
X22555000Y-4649000D02*
X22525000Y-4679000D01*
X22525000Y-4903000D02*
X22555000Y-4933000D01*
X22555000Y-4903000D02*
X22525000Y-4933000D01*
X22525000Y-5157000D02*
X22555000Y-5187000D01*
X22555000Y-5157000D02*
X22525000Y-5187000D01*
X22525000Y-5411000D02*
X22555000Y-5441000D01*
X22555000Y-5411000D02*
X22525000Y-5441000D01*
X22525000Y-5665000D02*
X22555000Y-5695000D01*
X22555000Y-5665000D02*
X22525000Y-5695000D01*
X22525000Y-5919000D02*
X22555000Y-5949000D01*
X22555000Y-5919000D02*
X22525000Y-5949000D01*
X22525000Y-6300000D02*
X22555000Y-6330000D01*
X22555000Y-6300000D02*
X22525000Y-6330000D01*
X22525000Y-6617500D02*
X22555000Y-6647500D01*
X22555000Y-6617500D02*
X22525000Y-6647500D01*
X22537700Y-12256300D02*
X22567700Y-12286300D01*
X22567700Y-12256300D02*
X22537700Y-12286300D01*
X22538250Y-7100650D02*
X22568250Y-7130650D01*
X22568250Y-7100650D02*
X22538250Y-7130650D01*
X22588500Y-6617500D02*
X22618500Y-6647500D01*
X22618500Y-6617500D02*
X22588500Y-6647500D01*
X22588500Y-13424700D02*
X22618500Y-13454700D01*
X22618500Y-13424700D02*
X22588500Y-13454700D01*
X22588500Y-15075700D02*
X22618500Y-15105700D01*
X22618500Y-15075700D02*
X22588500Y-15105700D01*
X22588500Y-15710700D02*
X22618500Y-15740700D01*
X22618500Y-15710700D02*
X22588500Y-15740700D01*
X22588500Y-16218700D02*
X22618500Y-16248700D01*
X22618500Y-16218700D02*
X22588500Y-16248700D01*
X22601200Y-14567700D02*
X22631200Y-14597700D01*
X22631200Y-14567700D02*
X22601200Y-14597700D01*
X22652000Y-6300000D02*
X22682000Y-6330000D01*
X22682000Y-6300000D02*
X22652000Y-6330000D01*
X22652000Y-6617500D02*
X22682000Y-6647500D01*
X22682000Y-6617500D02*
X22652000Y-6647500D01*
X22715500Y-6300000D02*
X22745500Y-6330000D01*
X22745500Y-6300000D02*
X22715500Y-6330000D01*
X22728200Y-11456200D02*
X22758200Y-11486200D01*
X22758200Y-11456200D02*
X22728200Y-11486200D01*
X22779000Y-4141000D02*
X22809000Y-4171000D01*
X22809000Y-4141000D02*
X22779000Y-4171000D01*
X22779000Y-4395000D02*
X22809000Y-4425000D01*
X22809000Y-4395000D02*
X22779000Y-4425000D01*
X22779000Y-4649000D02*
X22809000Y-4679000D01*
X22809000Y-4649000D02*
X22779000Y-4679000D01*
X22779000Y-4903000D02*
X22809000Y-4933000D01*
X22809000Y-4903000D02*
X22779000Y-4933000D01*
X22779000Y-5411000D02*
X22809000Y-5441000D01*
X22809000Y-5411000D02*
X22779000Y-5441000D01*
X22779000Y-5665000D02*
X22809000Y-5695000D01*
X22809000Y-5665000D02*
X22779000Y-5695000D01*
X22779000Y-5919000D02*
X22809000Y-5949000D01*
X22809000Y-5919000D02*
X22779000Y-5949000D01*
X22779000Y-6300000D02*
X22809000Y-6330000D01*
X22809000Y-6300000D02*
X22779000Y-6330000D01*
X22779000Y-6363500D02*
X22809000Y-6393500D01*
X22809000Y-6363500D02*
X22779000Y-6393500D01*
X22779000Y-6427000D02*
X22809000Y-6457000D01*
X22809000Y-6427000D02*
X22779000Y-6457000D01*
X22779000Y-6490500D02*
X22809000Y-6520500D01*
X22809000Y-6490500D02*
X22779000Y-6520500D01*
X22842500Y-6363500D02*
X22872500Y-6393500D01*
X22872500Y-6363500D02*
X22842500Y-6393500D01*
X22842500Y-6427000D02*
X22872500Y-6457000D01*
X22872500Y-6427000D02*
X22842500Y-6457000D01*
X22842500Y-6490500D02*
X22872500Y-6520500D01*
X22872500Y-6490500D02*
X22842500Y-6520500D01*
X22906000Y-6427000D02*
X22936000Y-6457000D01*
X22936000Y-6427000D02*
X22906000Y-6457000D01*
X23033000Y-4141000D02*
X23063000Y-4171000D01*
X23063000Y-4141000D02*
X23033000Y-4171000D01*
X23033000Y-4395000D02*
X23063000Y-4425000D01*
X23063000Y-4395000D02*
X23033000Y-4425000D01*
X23033000Y-4649000D02*
X23063000Y-4679000D01*
X23063000Y-4649000D02*
X23033000Y-4679000D01*
X23033000Y-4903000D02*
X23063000Y-4933000D01*
X23063000Y-4903000D02*
X23033000Y-4933000D01*
X23033000Y-5157000D02*
X23063000Y-5187000D01*
X23063000Y-5157000D02*
X23033000Y-5187000D01*
X23033000Y-5411000D02*
X23063000Y-5441000D01*
X23063000Y-5411000D02*
X23033000Y-5441000D01*
X23033000Y-5665000D02*
X23063000Y-5695000D01*
X23063000Y-5665000D02*
X23033000Y-5695000D01*
X23033000Y-5919000D02*
X23063000Y-5949000D01*
X23063000Y-5919000D02*
X23033000Y-5949000D01*
X23033000Y-6173000D02*
X23063000Y-6203000D01*
X23063000Y-6173000D02*
X23033000Y-6203000D01*
X23033000Y-6427000D02*
X23063000Y-6457000D01*
X23063000Y-6427000D02*
X23033000Y-6457000D01*
X23033000Y-11011700D02*
X23063000Y-11041700D01*
X23063000Y-11011700D02*
X23033000Y-11041700D01*
X23096500Y-8776500D02*
X23126500Y-8806500D01*
X23126500Y-8776500D02*
X23096500Y-8806500D01*
X23096500Y-9538500D02*
X23126500Y-9568500D01*
X23126500Y-9538500D02*
X23096500Y-9568500D01*
X23160000Y-8713000D02*
X23190000Y-8743000D01*
X23190000Y-8713000D02*
X23160000Y-8743000D01*
X23160000Y-9602000D02*
X23190000Y-9632000D01*
X23190000Y-9602000D02*
X23160000Y-9632000D01*
X23188050Y-12256300D02*
X23218050Y-12286300D01*
X23218050Y-12256300D02*
X23188050Y-12286300D01*
X23223500Y-8776500D02*
X23253500Y-8806500D01*
X23253500Y-8776500D02*
X23223500Y-8806500D01*
X23223500Y-9538500D02*
X23253500Y-9568500D01*
X23253500Y-9538500D02*
X23223500Y-9568500D01*
X23287000Y-4141000D02*
X23317000Y-4171000D01*
X23317000Y-4141000D02*
X23287000Y-4171000D01*
X23287000Y-4395000D02*
X23317000Y-4425000D01*
X23317000Y-4395000D02*
X23287000Y-4425000D01*
X23287000Y-4649000D02*
X23317000Y-4679000D01*
X23317000Y-4649000D02*
X23287000Y-4679000D01*
X23287000Y-4903000D02*
X23317000Y-4933000D01*
X23317000Y-4903000D02*
X23287000Y-4933000D01*
X23287000Y-5411000D02*
X23317000Y-5441000D01*
X23317000Y-5411000D02*
X23287000Y-5441000D01*
X23287000Y-5665000D02*
X23317000Y-5695000D01*
X23317000Y-5665000D02*
X23287000Y-5695000D01*
X23287000Y-5919000D02*
X23317000Y-5949000D01*
X23317000Y-5919000D02*
X23287000Y-5949000D01*
X23287000Y-6427000D02*
X23317000Y-6457000D01*
X23317000Y-6427000D02*
X23287000Y-6457000D01*
X23287000Y-8713000D02*
X23317000Y-8743000D01*
X23317000Y-8713000D02*
X23287000Y-8743000D01*
X23287000Y-9602000D02*
X23317000Y-9632000D01*
X23317000Y-9602000D02*
X23287000Y-9632000D01*
X23287000Y-12662700D02*
X23317000Y-12692700D01*
X23317000Y-12662700D02*
X23287000Y-12692700D01*
X23350500Y-8776500D02*
X23380500Y-8806500D01*
X23380500Y-8776500D02*
X23350500Y-8806500D01*
X23350500Y-9538500D02*
X23380500Y-9568500D01*
X23380500Y-9538500D02*
X23350500Y-9568500D01*
X23414000Y-8713000D02*
X23444000Y-8743000D01*
X23444000Y-8713000D02*
X23414000Y-8743000D01*
X23414000Y-9602000D02*
X23444000Y-9632000D01*
X23444000Y-9602000D02*
X23414000Y-9632000D01*
X23477500Y-8776500D02*
X23507500Y-8806500D01*
X23507500Y-8776500D02*
X23477500Y-8806500D01*
X23477500Y-9538500D02*
X23507500Y-9568500D01*
X23507500Y-9538500D02*
X23477500Y-9568500D01*
X23477500Y-12662700D02*
X23507500Y-12692700D01*
X23507500Y-12662700D02*
X23477500Y-12692700D01*
X23541000Y-10745000D02*
X23571000Y-10775000D01*
X23571000Y-10745000D02*
X23541000Y-10775000D01*
X23604500Y-8840000D02*
X23634500Y-8870000D01*
X23634500Y-8840000D02*
X23604500Y-8870000D01*
X23604500Y-8967000D02*
X23634500Y-8997000D01*
X23634500Y-8967000D02*
X23604500Y-8997000D01*
X23604500Y-9094000D02*
X23634500Y-9124000D01*
X23634500Y-9094000D02*
X23604500Y-9124000D01*
X23604500Y-9221000D02*
X23634500Y-9251000D01*
X23634500Y-9221000D02*
X23604500Y-9251000D01*
X23604500Y-9348000D02*
X23634500Y-9378000D01*
X23634500Y-9348000D02*
X23604500Y-9378000D01*
X23604500Y-9475000D02*
X23634500Y-9505000D01*
X23634500Y-9475000D02*
X23604500Y-9505000D01*
X23668000Y-8903500D02*
X23698000Y-8933500D01*
X23698000Y-8903500D02*
X23668000Y-8933500D01*
X23668000Y-9030500D02*
X23698000Y-9060500D01*
X23698000Y-9030500D02*
X23668000Y-9060500D01*
X23668000Y-9157500D02*
X23698000Y-9187500D01*
X23698000Y-9157500D02*
X23668000Y-9187500D01*
X23668000Y-9284500D02*
X23698000Y-9314500D01*
X23698000Y-9284500D02*
X23668000Y-9314500D01*
X23668000Y-9411500D02*
X23698000Y-9441500D01*
X23698000Y-9411500D02*
X23668000Y-9441500D01*
X23795000Y-4141000D02*
X23825000Y-4171000D01*
X23825000Y-4141000D02*
X23795000Y-4171000D01*
X23795000Y-10745000D02*
X23825000Y-10775000D01*
X23825000Y-10745000D02*
X23795000Y-10775000D01*
X23845800Y-14567700D02*
X23875800Y-14597700D01*
X23875800Y-14567700D02*
X23845800Y-14597700D01*
X23858500Y-13424700D02*
X23888500Y-13454700D01*
X23888500Y-13424700D02*
X23858500Y-13454700D01*
X23858500Y-15075700D02*
X23888500Y-15105700D01*
X23888500Y-15075700D02*
X23858500Y-15105700D01*
X23858500Y-15710700D02*
X23888500Y-15740700D01*
X23888500Y-15710700D02*
X23858500Y-15740700D01*
X23858500Y-16218700D02*
X23888500Y-16248700D01*
X23888500Y-16218700D02*
X23858500Y-16248700D01*
X23871200Y-11087900D02*
X23901200Y-11117900D01*
X23901200Y-11087900D02*
X23871200Y-11117900D01*
X24049000Y-4141000D02*
X24079000Y-4171000D01*
X24079000Y-4141000D02*
X24049000Y-4171000D01*
X24049000Y-10745000D02*
X24079000Y-10775000D01*
X24079000Y-10745000D02*
X24049000Y-10775000D01*
X24049000Y-11253000D02*
X24079000Y-11283000D01*
X24079000Y-11253000D02*
X24049000Y-11283000D01*
X24176000Y-13869200D02*
X24206000Y-13899200D01*
X24206000Y-13869200D02*
X24176000Y-13899200D01*
X24176000Y-14250200D02*
X24206000Y-14280200D01*
X24206000Y-14250200D02*
X24176000Y-14280200D01*
X24176000Y-14631200D02*
X24206000Y-14661200D01*
X24206000Y-14631200D02*
X24176000Y-14661200D01*
X24303000Y-4141000D02*
X24333000Y-4171000D01*
X24333000Y-4141000D02*
X24303000Y-4171000D01*
X24303000Y-10745000D02*
X24333000Y-10775000D01*
X24333000Y-10745000D02*
X24303000Y-10775000D01*
X24303000Y-11253000D02*
X24333000Y-11283000D01*
X24333000Y-11253000D02*
X24303000Y-11283000D01*
X24331000Y-13285000D02*
X24361000Y-13315000D01*
X24361000Y-13285000D02*
X24331000Y-13315000D01*
X24491500Y-14059700D02*
X24521500Y-14089700D01*
X24521500Y-14059700D02*
X24491500Y-14089700D01*
X24493500Y-14440700D02*
X24523500Y-14470700D01*
X24523500Y-14440700D02*
X24493500Y-14470700D01*
X24557000Y-4141000D02*
X24587000Y-4171000D01*
X24587000Y-4141000D02*
X24557000Y-4171000D01*
X24557000Y-11253000D02*
X24587000Y-11283000D01*
X24587000Y-11253000D02*
X24557000Y-11283000D01*
X24595100Y-11087900D02*
X24625100Y-11117900D01*
X24625100Y-11087900D02*
X24595100Y-11117900D01*
X24620500Y-13678700D02*
X24650500Y-13708700D01*
X24650500Y-13678700D02*
X24620500Y-13708700D01*
X24684000Y-11011700D02*
X24714000Y-11041700D01*
X24714000Y-11011700D02*
X24684000Y-11041700D01*
D13*
X15680000Y-5250000D02*
G75*
G02*
X15540000Y-5250000I-70000J0D01*
G01*
X15540000Y-5250000D02*
G75*
G02*
X15680000Y-5250000I70000J0D01*
G01*
X15680000Y-6120000D02*
G75*
G02*
X15540000Y-6120000I-70000J0D01*
G01*
X15540000Y-6120000D02*
G75*
G02*
X15680000Y-6120000I70000J0D01*
G01*
X16188000Y-5250000D02*
G75*
G02*
X16048000Y-5250000I-70000J0D01*
G01*
X16048000Y-5250000D02*
G75*
G02*
X16188000Y-5250000I70000J0D01*
G01*
X16188000Y-6120000D02*
G75*
G02*
X16048000Y-6120000I-70000J0D01*
G01*
X16048000Y-6120000D02*
G75*
G02*
X16188000Y-6120000I70000J0D01*
G01*
X16696000Y-5250000D02*
G75*
G02*
X16556000Y-5250000I-70000J0D01*
G01*
X16556000Y-5250000D02*
G75*
G02*
X16696000Y-5250000I70000J0D01*
G01*
X16696000Y-6120000D02*
G75*
G02*
X16556000Y-6120000I-70000J0D01*
G01*
X16556000Y-6120000D02*
G75*
G02*
X16696000Y-6120000I70000J0D01*
G01*
X17204000Y-5250000D02*
G75*
G02*
X17064000Y-5250000I-70000J0D01*
G01*
X17064000Y-5250000D02*
G75*
G02*
X17204000Y-5250000I70000J0D01*
G01*
X17204000Y-6120000D02*
G75*
G02*
X17064000Y-6120000I-70000J0D01*
G01*
X17064000Y-6120000D02*
G75*
G02*
X17204000Y-6120000I70000J0D01*
G01*
X17712000Y-5250000D02*
G75*
G02*
X17572000Y-5250000I-70000J0D01*
G01*
X17572000Y-5250000D02*
G75*
G02*
X17712000Y-5250000I70000J0D01*
G01*
X17712000Y-6120000D02*
G75*
G02*
X17572000Y-6120000I-70000J0D01*
G01*
X17572000Y-6120000D02*
G75*
G02*
X17712000Y-6120000I70000J0D01*
G01*
X18220000Y-5250000D02*
G75*
G02*
X18080000Y-5250000I-70000J0D01*
G01*
X18080000Y-5250000D02*
G75*
G02*
X18220000Y-5250000I70000J0D01*
G01*
X18220000Y-6120000D02*
G75*
G02*
X18080000Y-6120000I-70000J0D01*
G01*
X18080000Y-6120000D02*
G75*
G02*
X18220000Y-6120000I70000J0D01*
G01*
X18795000Y-4860000D02*
G75*
G02*
X18655000Y-4860000I-70000J0D01*
G01*
X18655000Y-4860000D02*
G75*
G02*
X18795000Y-4860000I70000J0D01*
G01*
X18795000Y-5210000D02*
G75*
G02*
X18655000Y-5210000I-70000J0D01*
G01*
X18655000Y-5210000D02*
G75*
G02*
X18795000Y-5210000I70000J0D01*
G01*
X18795000Y-5790000D02*
G75*
G02*
X18655000Y-5790000I-70000J0D01*
G01*
X18655000Y-5790000D02*
G75*
G02*
X18795000Y-5790000I70000J0D01*
G01*
X18795000Y-6140000D02*
G75*
G02*
X18655000Y-6140000I-70000J0D01*
G01*
X18655000Y-6140000D02*
G75*
G02*
X18795000Y-6140000I70000J0D01*
G01*
X19045000Y-4860000D02*
G75*
G02*
X18905000Y-4860000I-70000J0D01*
G01*
X18905000Y-4860000D02*
G75*
G02*
X19045000Y-4860000I70000J0D01*
G01*
X19045000Y-5210000D02*
G75*
G02*
X18905000Y-5210000I-70000J0D01*
G01*
X18905000Y-5210000D02*
G75*
G02*
X19045000Y-5210000I70000J0D01*
G01*
X19045000Y-5790000D02*
G75*
G02*
X18905000Y-5790000I-70000J0D01*
G01*
X18905000Y-5790000D02*
G75*
G02*
X19045000Y-5790000I70000J0D01*
G01*
X19045000Y-6140000D02*
G75*
G02*
X18905000Y-6140000I-70000J0D01*
G01*
X18905000Y-6140000D02*
G75*
G02*
X19045000Y-6140000I70000J0D01*
G01*
X19662000Y-5250000D02*
G75*
G02*
X19522000Y-5250000I-70000J0D01*
G01*
X19522000Y-5250000D02*
G75*
G02*
X19662000Y-5250000I70000J0D01*
G01*
X19662000Y-6120000D02*
G75*
G02*
X19522000Y-6120000I-70000J0D01*
G01*
X19522000Y-6120000D02*
G75*
G02*
X19662000Y-6120000I70000J0D01*
G01*
X20170000Y-5250000D02*
G75*
G02*
X20030000Y-5250000I-70000J0D01*
G01*
X20030000Y-5250000D02*
G75*
G02*
X20170000Y-5250000I70000J0D01*
G01*
X20170000Y-6120000D02*
G75*
G02*
X20030000Y-6120000I-70000J0D01*
G01*
X20030000Y-6120000D02*
G75*
G02*
X20170000Y-6120000I70000J0D01*
G01*
X20837000Y-5250000D02*
G75*
G02*
X20697000Y-5250000I-70000J0D01*
G01*
X20697000Y-5250000D02*
G75*
G02*
X20837000Y-5250000I70000J0D01*
G01*
X20837000Y-6120000D02*
G75*
G02*
X20697000Y-6120000I-70000J0D01*
G01*
X20697000Y-6120000D02*
G75*
G02*
X20837000Y-6120000I70000J0D01*
G01*
X21345000Y-5250000D02*
G75*
G02*
X21205000Y-5250000I-70000J0D01*
G01*
X21205000Y-5250000D02*
G75*
G02*
X21345000Y-5250000I70000J0D01*
G01*
X21345000Y-6120000D02*
G75*
G02*
X21205000Y-6120000I-70000J0D01*
G01*
X21205000Y-6120000D02*
G75*
G02*
X21345000Y-6120000I70000J0D01*
G01*
X21945000Y-4860000D02*
G75*
G02*
X21805000Y-4860000I-70000J0D01*
G01*
X21805000Y-4860000D02*
G75*
G02*
X21945000Y-4860000I70000J0D01*
G01*
X21945000Y-5210000D02*
G75*
G02*
X21805000Y-5210000I-70000J0D01*
G01*
X21805000Y-5210000D02*
G75*
G02*
X21945000Y-5210000I70000J0D01*
G01*
X21945000Y-5790000D02*
G75*
G02*
X21805000Y-5790000I-70000J0D01*
G01*
X21805000Y-5790000D02*
G75*
G02*
X21945000Y-5790000I70000J0D01*
G01*
X21945000Y-6140000D02*
G75*
G02*
X21805000Y-6140000I-70000J0D01*
G01*
X21805000Y-6140000D02*
G75*
G02*
X21945000Y-6140000I70000J0D01*
G01*
X22195000Y-4860000D02*
G75*
G02*
X22055000Y-4860000I-70000J0D01*
G01*
X22055000Y-4860000D02*
G75*
G02*
X22195000Y-4860000I70000J0D01*
G01*
X22195000Y-5210000D02*
G75*
G02*
X22055000Y-5210000I-70000J0D01*
G01*
X22055000Y-5210000D02*
G75*
G02*
X22195000Y-5210000I70000J0D01*
G01*
X22195000Y-5790000D02*
G75*
G02*
X22055000Y-5790000I-70000J0D01*
G01*
X22055000Y-5790000D02*
G75*
G02*
X22195000Y-5790000I70000J0D01*
G01*
X22195000Y-6140000D02*
G75*
G02*
X22055000Y-6140000I-70000J0D01*
G01*
X22055000Y-6140000D02*
G75*
G02*
X22195000Y-6140000I70000J0D01*
G01*
X22812000Y-5250000D02*
G75*
G02*
X22672000Y-5250000I-70000J0D01*
G01*
X22672000Y-5250000D02*
G75*
G02*
X22812000Y-5250000I70000J0D01*
G01*
X22812000Y-6120000D02*
G75*
G02*
X22672000Y-6120000I-70000J0D01*
G01*
X22672000Y-6120000D02*
G75*
G02*
X22812000Y-6120000I70000J0D01*
G01*
X23320000Y-5250000D02*
G75*
G02*
X23180000Y-5250000I-70000J0D01*
G01*
X23180000Y-5250000D02*
G75*
G02*
X23320000Y-5250000I70000J0D01*
G01*
X23320000Y-6120000D02*
G75*
G02*
X23180000Y-6120000I-70000J0D01*
G01*
X23180000Y-6120000D02*
G75*
G02*
X23320000Y-6120000I70000J0D01*
G01*
X23987000Y-5250000D02*
G75*
G02*
X23847000Y-5250000I-70000J0D01*
G01*
X23847000Y-5250000D02*
G75*
G02*
X23987000Y-5250000I70000J0D01*
G01*
X23987000Y-6120000D02*
G75*
G02*
X23847000Y-6120000I-70000J0D01*
G01*
X23847000Y-6120000D02*
G75*
G02*
X23987000Y-6120000I70000J0D01*
G01*
X24495000Y-5250000D02*
G75*
G02*
X24355000Y-5250000I-70000J0D01*
G01*
X24355000Y-5250000D02*
G75*
G02*
X24495000Y-5250000I70000J0D01*
G01*
X24495000Y-6120000D02*
G75*
G02*
X24355000Y-6120000I-70000J0D01*
G01*
X24355000Y-6120000D02*
G75*
G02*
X24495000Y-6120000I70000J0D01*
G01*
D11*
X15258277Y-17813984D02*
X15258277Y-17613984D01*
X15258277Y-17613984D02*
X15305896Y-17613984D01*
X15305896Y-17613984D02*
X15334467Y-17623508D01*
X15334467Y-17623508D02*
X15353515Y-17642555D01*
X15353515Y-17642555D02*
X15363039Y-17661603D01*
X15363039Y-17661603D02*
X15372562Y-17699698D01*
X15372562Y-17699698D02*
X15372562Y-17728270D01*
X15372562Y-17728270D02*
X15363039Y-17766365D01*
X15363039Y-17766365D02*
X15353515Y-17785412D01*
X15353515Y-17785412D02*
X15334467Y-17804460D01*
X15334467Y-17804460D02*
X15305896Y-17813984D01*
X15305896Y-17813984D02*
X15258277Y-17813984D01*
X15458277Y-17813984D02*
X15458277Y-17680650D01*
X15458277Y-17718746D02*
X15467801Y-17699698D01*
X15467801Y-17699698D02*
X15477324Y-17690174D01*
X15477324Y-17690174D02*
X15496372Y-17680650D01*
X15496372Y-17680650D02*
X15515420Y-17680650D01*
X15582086Y-17813984D02*
X15582086Y-17680650D01*
X15582086Y-17613984D02*
X15572562Y-17623508D01*
X15572562Y-17623508D02*
X15582086Y-17633031D01*
X15582086Y-17633031D02*
X15591610Y-17623508D01*
X15591610Y-17623508D02*
X15582086Y-17613984D01*
X15582086Y-17613984D02*
X15582086Y-17633031D01*
X15705896Y-17813984D02*
X15686848Y-17804460D01*
X15686848Y-17804460D02*
X15677324Y-17785412D01*
X15677324Y-17785412D02*
X15677324Y-17613984D01*
X15810658Y-17813984D02*
X15791610Y-17804460D01*
X15791610Y-17804460D02*
X15782086Y-17785412D01*
X15782086Y-17785412D02*
X15782086Y-17613984D01*
X16039229Y-17813984D02*
X16039229Y-17613984D01*
X16039229Y-17613984D02*
X16105896Y-17756841D01*
X16105896Y-17756841D02*
X16172562Y-17613984D01*
X16172562Y-17613984D02*
X16172562Y-17813984D01*
X16353515Y-17813984D02*
X16353515Y-17709222D01*
X16353515Y-17709222D02*
X16343991Y-17690174D01*
X16343991Y-17690174D02*
X16324943Y-17680650D01*
X16324943Y-17680650D02*
X16286848Y-17680650D01*
X16286848Y-17680650D02*
X16267801Y-17690174D01*
X16353515Y-17804460D02*
X16334467Y-17813984D01*
X16334467Y-17813984D02*
X16286848Y-17813984D01*
X16286848Y-17813984D02*
X16267801Y-17804460D01*
X16267801Y-17804460D02*
X16258277Y-17785412D01*
X16258277Y-17785412D02*
X16258277Y-17766365D01*
X16258277Y-17766365D02*
X16267801Y-17747317D01*
X16267801Y-17747317D02*
X16286848Y-17737793D01*
X16286848Y-17737793D02*
X16334467Y-17737793D01*
X16334467Y-17737793D02*
X16353515Y-17728270D01*
X16448753Y-17680650D02*
X16448753Y-17880650D01*
X16448753Y-17690174D02*
X16467801Y-17680650D01*
X16467801Y-17680650D02*
X16505896Y-17680650D01*
X16505896Y-17680650D02*
X16524943Y-17690174D01*
X16524943Y-17690174D02*
X16534467Y-17699698D01*
X16534467Y-17699698D02*
X16543991Y-17718746D01*
X16543991Y-17718746D02*
X16543991Y-17775889D01*
X16543991Y-17775889D02*
X16534467Y-17794936D01*
X16534467Y-17794936D02*
X16524943Y-17804460D01*
X16524943Y-17804460D02*
X16505896Y-17813984D01*
X16505896Y-17813984D02*
X16467801Y-17813984D01*
X16467801Y-17813984D02*
X16448753Y-17804460D01*
X16629705Y-17794936D02*
X16639229Y-17804460D01*
X16639229Y-17804460D02*
X16629705Y-17813984D01*
X16629705Y-17813984D02*
X16620182Y-17804460D01*
X16620182Y-17804460D02*
X16629705Y-17794936D01*
X16629705Y-17794936D02*
X16629705Y-17813984D01*
X16629705Y-17690174D02*
X16639229Y-17699698D01*
X16639229Y-17699698D02*
X16629705Y-17709222D01*
X16629705Y-17709222D02*
X16620182Y-17699698D01*
X16620182Y-17699698D02*
X16629705Y-17690174D01*
X16629705Y-17690174D02*
X16629705Y-17709222D01*
D12*
X14967500Y-18127500D02*
X14997500Y-18157500D01*
X14997500Y-18127500D02*
X14967500Y-18157500D01*
D11*
X15296372Y-18033984D02*
X15315420Y-18033984D01*
X15315420Y-18033984D02*
X15334467Y-18043508D01*
X15334467Y-18043508D02*
X15343991Y-18053031D01*
X15343991Y-18053031D02*
X15353515Y-18072079D01*
X15353515Y-18072079D02*
X15363039Y-18110174D01*
X15363039Y-18110174D02*
X15363039Y-18157793D01*
X15363039Y-18157793D02*
X15353515Y-18195889D01*
X15353515Y-18195889D02*
X15343991Y-18214936D01*
X15343991Y-18214936D02*
X15334467Y-18224460D01*
X15334467Y-18224460D02*
X15315420Y-18233984D01*
X15315420Y-18233984D02*
X15296372Y-18233984D01*
X15296372Y-18233984D02*
X15277324Y-18224460D01*
X15277324Y-18224460D02*
X15267801Y-18214936D01*
X15267801Y-18214936D02*
X15258277Y-18195889D01*
X15258277Y-18195889D02*
X15248753Y-18157793D01*
X15248753Y-18157793D02*
X15248753Y-18110174D01*
X15248753Y-18110174D02*
X15258277Y-18072079D01*
X15258277Y-18072079D02*
X15267801Y-18053031D01*
X15267801Y-18053031D02*
X15277324Y-18043508D01*
X15277324Y-18043508D02*
X15296372Y-18033984D01*
X15448753Y-18214936D02*
X15458277Y-18224460D01*
X15458277Y-18224460D02*
X15448753Y-18233984D01*
X15448753Y-18233984D02*
X15439229Y-18224460D01*
X15439229Y-18224460D02*
X15448753Y-18214936D01*
X15448753Y-18214936D02*
X15448753Y-18233984D01*
X15524943Y-18033984D02*
X15648753Y-18033984D01*
X15648753Y-18033984D02*
X15582086Y-18110174D01*
X15582086Y-18110174D02*
X15610658Y-18110174D01*
X15610658Y-18110174D02*
X15629705Y-18119698D01*
X15629705Y-18119698D02*
X15639229Y-18129222D01*
X15639229Y-18129222D02*
X15648753Y-18148270D01*
X15648753Y-18148270D02*
X15648753Y-18195889D01*
X15648753Y-18195889D02*
X15639229Y-18214936D01*
X15639229Y-18214936D02*
X15629705Y-18224460D01*
X15629705Y-18224460D02*
X15610658Y-18233984D01*
X15610658Y-18233984D02*
X15553515Y-18233984D01*
X15553515Y-18233984D02*
X15534467Y-18224460D01*
X15534467Y-18224460D02*
X15524943Y-18214936D01*
X15772562Y-18033984D02*
X15791610Y-18033984D01*
X15791610Y-18033984D02*
X15810658Y-18043508D01*
X15810658Y-18043508D02*
X15820182Y-18053031D01*
X15820182Y-18053031D02*
X15829705Y-18072079D01*
X15829705Y-18072079D02*
X15839229Y-18110174D01*
X15839229Y-18110174D02*
X15839229Y-18157793D01*
X15839229Y-18157793D02*
X15829705Y-18195889D01*
X15829705Y-18195889D02*
X15820182Y-18214936D01*
X15820182Y-18214936D02*
X15810658Y-18224460D01*
X15810658Y-18224460D02*
X15791610Y-18233984D01*
X15791610Y-18233984D02*
X15772562Y-18233984D01*
X15772562Y-18233984D02*
X15753515Y-18224460D01*
X15753515Y-18224460D02*
X15743991Y-18214936D01*
X15743991Y-18214936D02*
X15734467Y-18195889D01*
X15734467Y-18195889D02*
X15724943Y-18157793D01*
X15724943Y-18157793D02*
X15724943Y-18110174D01*
X15724943Y-18110174D02*
X15734467Y-18072079D01*
X15734467Y-18072079D02*
X15743991Y-18053031D01*
X15743991Y-18053031D02*
X15753515Y-18043508D01*
X15753515Y-18043508D02*
X15772562Y-18033984D01*
X15963039Y-18033984D02*
X15982086Y-18033984D01*
X15982086Y-18033984D02*
X16001134Y-18043508D01*
X16001134Y-18043508D02*
X16010658Y-18053031D01*
X16010658Y-18053031D02*
X16020182Y-18072079D01*
X16020182Y-18072079D02*
X16029705Y-18110174D01*
X16029705Y-18110174D02*
X16029705Y-18157793D01*
X16029705Y-18157793D02*
X16020182Y-18195889D01*
X16020182Y-18195889D02*
X16010658Y-18214936D01*
X16010658Y-18214936D02*
X16001134Y-18224460D01*
X16001134Y-18224460D02*
X15982086Y-18233984D01*
X15982086Y-18233984D02*
X15963039Y-18233984D01*
X15963039Y-18233984D02*
X15943991Y-18224460D01*
X15943991Y-18224460D02*
X15934467Y-18214936D01*
X15934467Y-18214936D02*
X15924943Y-18195889D01*
X15924943Y-18195889D02*
X15915420Y-18157793D01*
X15915420Y-18157793D02*
X15915420Y-18110174D01*
X15915420Y-18110174D02*
X15924943Y-18072079D01*
X15924943Y-18072079D02*
X15934467Y-18053031D01*
X15934467Y-18053031D02*
X15943991Y-18043508D01*
X15943991Y-18043508D02*
X15963039Y-18033984D01*
X16115420Y-18233984D02*
X16115420Y-18100650D01*
X16115420Y-18119698D02*
X16124943Y-18110174D01*
X16124943Y-18110174D02*
X16143991Y-18100650D01*
X16143991Y-18100650D02*
X16172563Y-18100650D01*
X16172563Y-18100650D02*
X16191610Y-18110174D01*
X16191610Y-18110174D02*
X16201134Y-18129222D01*
X16201134Y-18129222D02*
X16201134Y-18233984D01*
X16201134Y-18129222D02*
X16210658Y-18110174D01*
X16210658Y-18110174D02*
X16229705Y-18100650D01*
X16229705Y-18100650D02*
X16258277Y-18100650D01*
X16258277Y-18100650D02*
X16277324Y-18110174D01*
X16277324Y-18110174D02*
X16286848Y-18129222D01*
X16286848Y-18129222D02*
X16286848Y-18233984D01*
X16382086Y-18233984D02*
X16382086Y-18100650D01*
X16382086Y-18119698D02*
X16391610Y-18110174D01*
X16391610Y-18110174D02*
X16410658Y-18100650D01*
X16410658Y-18100650D02*
X16439229Y-18100650D01*
X16439229Y-18100650D02*
X16458277Y-18110174D01*
X16458277Y-18110174D02*
X16467801Y-18129222D01*
X16467801Y-18129222D02*
X16467801Y-18233984D01*
X16467801Y-18129222D02*
X16477324Y-18110174D01*
X16477324Y-18110174D02*
X16496372Y-18100650D01*
X16496372Y-18100650D02*
X16524943Y-18100650D01*
X16524943Y-18100650D02*
X16543991Y-18110174D01*
X16543991Y-18110174D02*
X16553515Y-18129222D01*
X16553515Y-18129222D02*
X16553515Y-18233984D01*
X16943991Y-18024460D02*
X16772563Y-18281603D01*
X17201134Y-18033984D02*
X17220182Y-18033984D01*
X17220182Y-18033984D02*
X17239229Y-18043508D01*
X17239229Y-18043508D02*
X17248753Y-18053031D01*
X17248753Y-18053031D02*
X17258277Y-18072079D01*
X17258277Y-18072079D02*
X17267801Y-18110174D01*
X17267801Y-18110174D02*
X17267801Y-18157793D01*
X17267801Y-18157793D02*
X17258277Y-18195889D01*
X17258277Y-18195889D02*
X17248753Y-18214936D01*
X17248753Y-18214936D02*
X17239229Y-18224460D01*
X17239229Y-18224460D02*
X17220182Y-18233984D01*
X17220182Y-18233984D02*
X17201134Y-18233984D01*
X17201134Y-18233984D02*
X17182087Y-18224460D01*
X17182087Y-18224460D02*
X17172563Y-18214936D01*
X17172563Y-18214936D02*
X17163039Y-18195889D01*
X17163039Y-18195889D02*
X17153515Y-18157793D01*
X17153515Y-18157793D02*
X17153515Y-18110174D01*
X17153515Y-18110174D02*
X17163039Y-18072079D01*
X17163039Y-18072079D02*
X17172563Y-18053031D01*
X17172563Y-18053031D02*
X17182087Y-18043508D01*
X17182087Y-18043508D02*
X17201134Y-18033984D01*
X17353515Y-18214936D02*
X17363039Y-18224460D01*
X17363039Y-18224460D02*
X17353515Y-18233984D01*
X17353515Y-18233984D02*
X17343991Y-18224460D01*
X17343991Y-18224460D02*
X17353515Y-18214936D01*
X17353515Y-18214936D02*
X17353515Y-18233984D01*
X17486848Y-18033984D02*
X17505896Y-18033984D01*
X17505896Y-18033984D02*
X17524944Y-18043508D01*
X17524944Y-18043508D02*
X17534468Y-18053031D01*
X17534468Y-18053031D02*
X17543991Y-18072079D01*
X17543991Y-18072079D02*
X17553515Y-18110174D01*
X17553515Y-18110174D02*
X17553515Y-18157793D01*
X17553515Y-18157793D02*
X17543991Y-18195889D01*
X17543991Y-18195889D02*
X17534468Y-18214936D01*
X17534468Y-18214936D02*
X17524944Y-18224460D01*
X17524944Y-18224460D02*
X17505896Y-18233984D01*
X17505896Y-18233984D02*
X17486848Y-18233984D01*
X17486848Y-18233984D02*
X17467801Y-18224460D01*
X17467801Y-18224460D02*
X17458277Y-18214936D01*
X17458277Y-18214936D02*
X17448753Y-18195889D01*
X17448753Y-18195889D02*
X17439229Y-18157793D01*
X17439229Y-18157793D02*
X17439229Y-18110174D01*
X17439229Y-18110174D02*
X17448753Y-18072079D01*
X17448753Y-18072079D02*
X17458277Y-18053031D01*
X17458277Y-18053031D02*
X17467801Y-18043508D01*
X17467801Y-18043508D02*
X17486848Y-18033984D01*
X17743991Y-18233984D02*
X17629706Y-18233984D01*
X17686848Y-18233984D02*
X17686848Y-18033984D01*
X17686848Y-18033984D02*
X17667801Y-18062555D01*
X17667801Y-18062555D02*
X17648753Y-18081603D01*
X17648753Y-18081603D02*
X17629706Y-18091127D01*
X17934468Y-18233984D02*
X17820182Y-18233984D01*
X17877325Y-18233984D02*
X17877325Y-18033984D01*
X17877325Y-18033984D02*
X17858277Y-18062555D01*
X17858277Y-18062555D02*
X17839229Y-18081603D01*
X17839229Y-18081603D02*
X17820182Y-18091127D01*
X18048753Y-18119698D02*
X18029706Y-18110174D01*
X18029706Y-18110174D02*
X18020182Y-18100650D01*
X18020182Y-18100650D02*
X18010658Y-18081603D01*
X18010658Y-18081603D02*
X18010658Y-18072079D01*
X18010658Y-18072079D02*
X18020182Y-18053031D01*
X18020182Y-18053031D02*
X18029706Y-18043508D01*
X18029706Y-18043508D02*
X18048753Y-18033984D01*
X18048753Y-18033984D02*
X18086849Y-18033984D01*
X18086849Y-18033984D02*
X18105896Y-18043508D01*
X18105896Y-18043508D02*
X18115420Y-18053031D01*
X18115420Y-18053031D02*
X18124944Y-18072079D01*
X18124944Y-18072079D02*
X18124944Y-18081603D01*
X18124944Y-18081603D02*
X18115420Y-18100650D01*
X18115420Y-18100650D02*
X18105896Y-18110174D01*
X18105896Y-18110174D02*
X18086849Y-18119698D01*
X18086849Y-18119698D02*
X18048753Y-18119698D01*
X18048753Y-18119698D02*
X18029706Y-18129222D01*
X18029706Y-18129222D02*
X18020182Y-18138746D01*
X18020182Y-18138746D02*
X18010658Y-18157793D01*
X18010658Y-18157793D02*
X18010658Y-18195889D01*
X18010658Y-18195889D02*
X18020182Y-18214936D01*
X18020182Y-18214936D02*
X18029706Y-18224460D01*
X18029706Y-18224460D02*
X18048753Y-18233984D01*
X18048753Y-18233984D02*
X18086849Y-18233984D01*
X18086849Y-18233984D02*
X18105896Y-18224460D01*
X18105896Y-18224460D02*
X18115420Y-18214936D01*
X18115420Y-18214936D02*
X18124944Y-18195889D01*
X18124944Y-18195889D02*
X18124944Y-18157793D01*
X18124944Y-18157793D02*
X18115420Y-18138746D01*
X18115420Y-18138746D02*
X18105896Y-18129222D01*
X18105896Y-18129222D02*
X18086849Y-18119698D01*
X18201134Y-18033984D02*
X18201134Y-18072079D01*
X18277325Y-18033984D02*
X18277325Y-18072079D01*
X18572563Y-18310174D02*
X18563039Y-18300650D01*
X18563039Y-18300650D02*
X18543991Y-18272079D01*
X18543991Y-18272079D02*
X18534468Y-18253031D01*
X18534468Y-18253031D02*
X18524944Y-18224460D01*
X18524944Y-18224460D02*
X18515420Y-18176841D01*
X18515420Y-18176841D02*
X18515420Y-18138746D01*
X18515420Y-18138746D02*
X18524944Y-18091127D01*
X18524944Y-18091127D02*
X18534468Y-18062555D01*
X18534468Y-18062555D02*
X18543991Y-18043508D01*
X18543991Y-18043508D02*
X18563039Y-18014936D01*
X18563039Y-18014936D02*
X18572563Y-18005412D01*
X18639230Y-18053031D02*
X18648753Y-18043508D01*
X18648753Y-18043508D02*
X18667801Y-18033984D01*
X18667801Y-18033984D02*
X18715420Y-18033984D01*
X18715420Y-18033984D02*
X18734468Y-18043508D01*
X18734468Y-18043508D02*
X18743991Y-18053031D01*
X18743991Y-18053031D02*
X18753515Y-18072079D01*
X18753515Y-18072079D02*
X18753515Y-18091127D01*
X18753515Y-18091127D02*
X18743991Y-18119698D01*
X18743991Y-18119698D02*
X18629706Y-18233984D01*
X18629706Y-18233984D02*
X18753515Y-18233984D01*
X18924944Y-18033984D02*
X18886849Y-18033984D01*
X18886849Y-18033984D02*
X18867801Y-18043508D01*
X18867801Y-18043508D02*
X18858277Y-18053031D01*
X18858277Y-18053031D02*
X18839230Y-18081603D01*
X18839230Y-18081603D02*
X18829706Y-18119698D01*
X18829706Y-18119698D02*
X18829706Y-18195889D01*
X18829706Y-18195889D02*
X18839230Y-18214936D01*
X18839230Y-18214936D02*
X18848753Y-18224460D01*
X18848753Y-18224460D02*
X18867801Y-18233984D01*
X18867801Y-18233984D02*
X18905896Y-18233984D01*
X18905896Y-18233984D02*
X18924944Y-18224460D01*
X18924944Y-18224460D02*
X18934468Y-18214936D01*
X18934468Y-18214936D02*
X18943991Y-18195889D01*
X18943991Y-18195889D02*
X18943991Y-18148270D01*
X18943991Y-18148270D02*
X18934468Y-18129222D01*
X18934468Y-18129222D02*
X18924944Y-18119698D01*
X18924944Y-18119698D02*
X18905896Y-18110174D01*
X18905896Y-18110174D02*
X18867801Y-18110174D01*
X18867801Y-18110174D02*
X18848753Y-18119698D01*
X18848753Y-18119698D02*
X18839230Y-18129222D01*
X18839230Y-18129222D02*
X18829706Y-18148270D01*
X19039230Y-18233984D02*
X19077325Y-18233984D01*
X19077325Y-18233984D02*
X19096372Y-18224460D01*
X19096372Y-18224460D02*
X19105896Y-18214936D01*
X19105896Y-18214936D02*
X19124944Y-18186365D01*
X19124944Y-18186365D02*
X19134468Y-18148270D01*
X19134468Y-18148270D02*
X19134468Y-18072079D01*
X19134468Y-18072079D02*
X19124944Y-18053031D01*
X19124944Y-18053031D02*
X19115420Y-18043508D01*
X19115420Y-18043508D02*
X19096372Y-18033984D01*
X19096372Y-18033984D02*
X19058277Y-18033984D01*
X19058277Y-18033984D02*
X19039230Y-18043508D01*
X19039230Y-18043508D02*
X19029706Y-18053031D01*
X19029706Y-18053031D02*
X19020182Y-18072079D01*
X19020182Y-18072079D02*
X19020182Y-18119698D01*
X19020182Y-18119698D02*
X19029706Y-18138746D01*
X19029706Y-18138746D02*
X19039230Y-18148270D01*
X19039230Y-18148270D02*
X19058277Y-18157793D01*
X19058277Y-18157793D02*
X19096372Y-18157793D01*
X19096372Y-18157793D02*
X19115420Y-18148270D01*
X19115420Y-18148270D02*
X19124944Y-18138746D01*
X19124944Y-18138746D02*
X19134468Y-18119698D01*
X19372563Y-18233984D02*
X19372563Y-18033984D01*
X19458277Y-18233984D02*
X19458277Y-18129222D01*
X19458277Y-18129222D02*
X19448753Y-18110174D01*
X19448753Y-18110174D02*
X19429706Y-18100650D01*
X19429706Y-18100650D02*
X19401134Y-18100650D01*
X19401134Y-18100650D02*
X19382087Y-18110174D01*
X19382087Y-18110174D02*
X19372563Y-18119698D01*
X19582087Y-18233984D02*
X19563039Y-18224460D01*
X19563039Y-18224460D02*
X19553515Y-18214936D01*
X19553515Y-18214936D02*
X19543992Y-18195889D01*
X19543992Y-18195889D02*
X19543992Y-18138746D01*
X19543992Y-18138746D02*
X19553515Y-18119698D01*
X19553515Y-18119698D02*
X19563039Y-18110174D01*
X19563039Y-18110174D02*
X19582087Y-18100650D01*
X19582087Y-18100650D02*
X19610658Y-18100650D01*
X19610658Y-18100650D02*
X19629706Y-18110174D01*
X19629706Y-18110174D02*
X19639230Y-18119698D01*
X19639230Y-18119698D02*
X19648753Y-18138746D01*
X19648753Y-18138746D02*
X19648753Y-18195889D01*
X19648753Y-18195889D02*
X19639230Y-18214936D01*
X19639230Y-18214936D02*
X19629706Y-18224460D01*
X19629706Y-18224460D02*
X19610658Y-18233984D01*
X19610658Y-18233984D02*
X19582087Y-18233984D01*
X19763039Y-18233984D02*
X19743992Y-18224460D01*
X19743992Y-18224460D02*
X19734468Y-18205412D01*
X19734468Y-18205412D02*
X19734468Y-18033984D01*
X19915420Y-18224460D02*
X19896373Y-18233984D01*
X19896373Y-18233984D02*
X19858277Y-18233984D01*
X19858277Y-18233984D02*
X19839230Y-18224460D01*
X19839230Y-18224460D02*
X19829706Y-18205412D01*
X19829706Y-18205412D02*
X19829706Y-18129222D01*
X19829706Y-18129222D02*
X19839230Y-18110174D01*
X19839230Y-18110174D02*
X19858277Y-18100650D01*
X19858277Y-18100650D02*
X19896373Y-18100650D01*
X19896373Y-18100650D02*
X19915420Y-18110174D01*
X19915420Y-18110174D02*
X19924944Y-18129222D01*
X19924944Y-18129222D02*
X19924944Y-18148270D01*
X19924944Y-18148270D02*
X19829706Y-18167317D01*
X20001134Y-18224460D02*
X20020182Y-18233984D01*
X20020182Y-18233984D02*
X20058277Y-18233984D01*
X20058277Y-18233984D02*
X20077325Y-18224460D01*
X20077325Y-18224460D02*
X20086849Y-18205412D01*
X20086849Y-18205412D02*
X20086849Y-18195889D01*
X20086849Y-18195889D02*
X20077325Y-18176841D01*
X20077325Y-18176841D02*
X20058277Y-18167317D01*
X20058277Y-18167317D02*
X20029706Y-18167317D01*
X20029706Y-18167317D02*
X20010658Y-18157793D01*
X20010658Y-18157793D02*
X20001134Y-18138746D01*
X20001134Y-18138746D02*
X20001134Y-18129222D01*
X20001134Y-18129222D02*
X20010658Y-18110174D01*
X20010658Y-18110174D02*
X20029706Y-18100650D01*
X20029706Y-18100650D02*
X20058277Y-18100650D01*
X20058277Y-18100650D02*
X20077325Y-18110174D01*
X20153515Y-18310174D02*
X20163039Y-18300650D01*
X20163039Y-18300650D02*
X20182087Y-18272079D01*
X20182087Y-18272079D02*
X20191611Y-18253031D01*
X20191611Y-18253031D02*
X20201134Y-18224460D01*
X20201134Y-18224460D02*
X20210658Y-18176841D01*
X20210658Y-18176841D02*
X20210658Y-18138746D01*
X20210658Y-18138746D02*
X20201134Y-18091127D01*
X20201134Y-18091127D02*
X20191611Y-18062555D01*
X20191611Y-18062555D02*
X20182087Y-18043508D01*
X20182087Y-18043508D02*
X20163039Y-18014936D01*
X20163039Y-18014936D02*
X20153515Y-18005412D01*
D13*
X14997500Y-18406500D02*
G75*
G02*
X14857500Y-18406500I-70000J0D01*
G01*
X14857500Y-18406500D02*
G75*
G02*
X14997500Y-18406500I70000J0D01*
G01*
D11*
X15363039Y-18497984D02*
X15248753Y-18497984D01*
X15305896Y-18497984D02*
X15305896Y-18297984D01*
X15305896Y-18297984D02*
X15286848Y-18326555D01*
X15286848Y-18326555D02*
X15267801Y-18345603D01*
X15267801Y-18345603D02*
X15248753Y-18355127D01*
X15448753Y-18478936D02*
X15458277Y-18488460D01*
X15458277Y-18488460D02*
X15448753Y-18497984D01*
X15448753Y-18497984D02*
X15439229Y-18488460D01*
X15439229Y-18488460D02*
X15448753Y-18478936D01*
X15448753Y-18478936D02*
X15448753Y-18497984D01*
X15629705Y-18364650D02*
X15629705Y-18497984D01*
X15582086Y-18288460D02*
X15534467Y-18431317D01*
X15534467Y-18431317D02*
X15658277Y-18431317D01*
X15772562Y-18297984D02*
X15791610Y-18297984D01*
X15791610Y-18297984D02*
X15810658Y-18307508D01*
X15810658Y-18307508D02*
X15820182Y-18317031D01*
X15820182Y-18317031D02*
X15829705Y-18336079D01*
X15829705Y-18336079D02*
X15839229Y-18374174D01*
X15839229Y-18374174D02*
X15839229Y-18421793D01*
X15839229Y-18421793D02*
X15829705Y-18459889D01*
X15829705Y-18459889D02*
X15820182Y-18478936D01*
X15820182Y-18478936D02*
X15810658Y-18488460D01*
X15810658Y-18488460D02*
X15791610Y-18497984D01*
X15791610Y-18497984D02*
X15772562Y-18497984D01*
X15772562Y-18497984D02*
X15753515Y-18488460D01*
X15753515Y-18488460D02*
X15743991Y-18478936D01*
X15743991Y-18478936D02*
X15734467Y-18459889D01*
X15734467Y-18459889D02*
X15724943Y-18421793D01*
X15724943Y-18421793D02*
X15724943Y-18374174D01*
X15724943Y-18374174D02*
X15734467Y-18336079D01*
X15734467Y-18336079D02*
X15743991Y-18317031D01*
X15743991Y-18317031D02*
X15753515Y-18307508D01*
X15753515Y-18307508D02*
X15772562Y-18297984D01*
X15963039Y-18297984D02*
X15982086Y-18297984D01*
X15982086Y-18297984D02*
X16001134Y-18307508D01*
X16001134Y-18307508D02*
X16010658Y-18317031D01*
X16010658Y-18317031D02*
X16020182Y-18336079D01*
X16020182Y-18336079D02*
X16029705Y-18374174D01*
X16029705Y-18374174D02*
X16029705Y-18421793D01*
X16029705Y-18421793D02*
X16020182Y-18459889D01*
X16020182Y-18459889D02*
X16010658Y-18478936D01*
X16010658Y-18478936D02*
X16001134Y-18488460D01*
X16001134Y-18488460D02*
X15982086Y-18497984D01*
X15982086Y-18497984D02*
X15963039Y-18497984D01*
X15963039Y-18497984D02*
X15943991Y-18488460D01*
X15943991Y-18488460D02*
X15934467Y-18478936D01*
X15934467Y-18478936D02*
X15924943Y-18459889D01*
X15924943Y-18459889D02*
X15915420Y-18421793D01*
X15915420Y-18421793D02*
X15915420Y-18374174D01*
X15915420Y-18374174D02*
X15924943Y-18336079D01*
X15924943Y-18336079D02*
X15934467Y-18317031D01*
X15934467Y-18317031D02*
X15943991Y-18307508D01*
X15943991Y-18307508D02*
X15963039Y-18297984D01*
X16115420Y-18497984D02*
X16115420Y-18364650D01*
X16115420Y-18383698D02*
X16124943Y-18374174D01*
X16124943Y-18374174D02*
X16143991Y-18364650D01*
X16143991Y-18364650D02*
X16172563Y-18364650D01*
X16172563Y-18364650D02*
X16191610Y-18374174D01*
X16191610Y-18374174D02*
X16201134Y-18393222D01*
X16201134Y-18393222D02*
X16201134Y-18497984D01*
X16201134Y-18393222D02*
X16210658Y-18374174D01*
X16210658Y-18374174D02*
X16229705Y-18364650D01*
X16229705Y-18364650D02*
X16258277Y-18364650D01*
X16258277Y-18364650D02*
X16277324Y-18374174D01*
X16277324Y-18374174D02*
X16286848Y-18393222D01*
X16286848Y-18393222D02*
X16286848Y-18497984D01*
X16382086Y-18497984D02*
X16382086Y-18364650D01*
X16382086Y-18383698D02*
X16391610Y-18374174D01*
X16391610Y-18374174D02*
X16410658Y-18364650D01*
X16410658Y-18364650D02*
X16439229Y-18364650D01*
X16439229Y-18364650D02*
X16458277Y-18374174D01*
X16458277Y-18374174D02*
X16467801Y-18393222D01*
X16467801Y-18393222D02*
X16467801Y-18497984D01*
X16467801Y-18393222D02*
X16477324Y-18374174D01*
X16477324Y-18374174D02*
X16496372Y-18364650D01*
X16496372Y-18364650D02*
X16524943Y-18364650D01*
X16524943Y-18364650D02*
X16543991Y-18374174D01*
X16543991Y-18374174D02*
X16553515Y-18393222D01*
X16553515Y-18393222D02*
X16553515Y-18497984D01*
X16943991Y-18288460D02*
X16772563Y-18545603D01*
X17201134Y-18297984D02*
X17220182Y-18297984D01*
X17220182Y-18297984D02*
X17239229Y-18307508D01*
X17239229Y-18307508D02*
X17248753Y-18317031D01*
X17248753Y-18317031D02*
X17258277Y-18336079D01*
X17258277Y-18336079D02*
X17267801Y-18374174D01*
X17267801Y-18374174D02*
X17267801Y-18421793D01*
X17267801Y-18421793D02*
X17258277Y-18459889D01*
X17258277Y-18459889D02*
X17248753Y-18478936D01*
X17248753Y-18478936D02*
X17239229Y-18488460D01*
X17239229Y-18488460D02*
X17220182Y-18497984D01*
X17220182Y-18497984D02*
X17201134Y-18497984D01*
X17201134Y-18497984D02*
X17182087Y-18488460D01*
X17182087Y-18488460D02*
X17172563Y-18478936D01*
X17172563Y-18478936D02*
X17163039Y-18459889D01*
X17163039Y-18459889D02*
X17153515Y-18421793D01*
X17153515Y-18421793D02*
X17153515Y-18374174D01*
X17153515Y-18374174D02*
X17163039Y-18336079D01*
X17163039Y-18336079D02*
X17172563Y-18317031D01*
X17172563Y-18317031D02*
X17182087Y-18307508D01*
X17182087Y-18307508D02*
X17201134Y-18297984D01*
X17353515Y-18478936D02*
X17363039Y-18488460D01*
X17363039Y-18488460D02*
X17353515Y-18497984D01*
X17353515Y-18497984D02*
X17343991Y-18488460D01*
X17343991Y-18488460D02*
X17353515Y-18478936D01*
X17353515Y-18478936D02*
X17353515Y-18497984D01*
X17486848Y-18297984D02*
X17505896Y-18297984D01*
X17505896Y-18297984D02*
X17524944Y-18307508D01*
X17524944Y-18307508D02*
X17534468Y-18317031D01*
X17534468Y-18317031D02*
X17543991Y-18336079D01*
X17543991Y-18336079D02*
X17553515Y-18374174D01*
X17553515Y-18374174D02*
X17553515Y-18421793D01*
X17553515Y-18421793D02*
X17543991Y-18459889D01*
X17543991Y-18459889D02*
X17534468Y-18478936D01*
X17534468Y-18478936D02*
X17524944Y-18488460D01*
X17524944Y-18488460D02*
X17505896Y-18497984D01*
X17505896Y-18497984D02*
X17486848Y-18497984D01*
X17486848Y-18497984D02*
X17467801Y-18488460D01*
X17467801Y-18488460D02*
X17458277Y-18478936D01*
X17458277Y-18478936D02*
X17448753Y-18459889D01*
X17448753Y-18459889D02*
X17439229Y-18421793D01*
X17439229Y-18421793D02*
X17439229Y-18374174D01*
X17439229Y-18374174D02*
X17448753Y-18336079D01*
X17448753Y-18336079D02*
X17458277Y-18317031D01*
X17458277Y-18317031D02*
X17467801Y-18307508D01*
X17467801Y-18307508D02*
X17486848Y-18297984D01*
X17734468Y-18297984D02*
X17639229Y-18297984D01*
X17639229Y-18297984D02*
X17629706Y-18393222D01*
X17629706Y-18393222D02*
X17639229Y-18383698D01*
X17639229Y-18383698D02*
X17658277Y-18374174D01*
X17658277Y-18374174D02*
X17705896Y-18374174D01*
X17705896Y-18374174D02*
X17724944Y-18383698D01*
X17724944Y-18383698D02*
X17734468Y-18393222D01*
X17734468Y-18393222D02*
X17743991Y-18412270D01*
X17743991Y-18412270D02*
X17743991Y-18459889D01*
X17743991Y-18459889D02*
X17734468Y-18478936D01*
X17734468Y-18478936D02*
X17724944Y-18488460D01*
X17724944Y-18488460D02*
X17705896Y-18497984D01*
X17705896Y-18497984D02*
X17658277Y-18497984D01*
X17658277Y-18497984D02*
X17639229Y-18488460D01*
X17639229Y-18488460D02*
X17629706Y-18478936D01*
X17924944Y-18297984D02*
X17829706Y-18297984D01*
X17829706Y-18297984D02*
X17820182Y-18393222D01*
X17820182Y-18393222D02*
X17829706Y-18383698D01*
X17829706Y-18383698D02*
X17848753Y-18374174D01*
X17848753Y-18374174D02*
X17896372Y-18374174D01*
X17896372Y-18374174D02*
X17915420Y-18383698D01*
X17915420Y-18383698D02*
X17924944Y-18393222D01*
X17924944Y-18393222D02*
X17934468Y-18412270D01*
X17934468Y-18412270D02*
X17934468Y-18459889D01*
X17934468Y-18459889D02*
X17924944Y-18478936D01*
X17924944Y-18478936D02*
X17915420Y-18488460D01*
X17915420Y-18488460D02*
X17896372Y-18497984D01*
X17896372Y-18497984D02*
X17848753Y-18497984D01*
X17848753Y-18497984D02*
X17829706Y-18488460D01*
X17829706Y-18488460D02*
X17820182Y-18478936D01*
X18124944Y-18497984D02*
X18010658Y-18497984D01*
X18067801Y-18497984D02*
X18067801Y-18297984D01*
X18067801Y-18297984D02*
X18048753Y-18326555D01*
X18048753Y-18326555D02*
X18029706Y-18345603D01*
X18029706Y-18345603D02*
X18010658Y-18355127D01*
X18201134Y-18297984D02*
X18201134Y-18336079D01*
X18277325Y-18297984D02*
X18277325Y-18336079D01*
X18572563Y-18574174D02*
X18563039Y-18564650D01*
X18563039Y-18564650D02*
X18543991Y-18536079D01*
X18543991Y-18536079D02*
X18534468Y-18517031D01*
X18534468Y-18517031D02*
X18524944Y-18488460D01*
X18524944Y-18488460D02*
X18515420Y-18440841D01*
X18515420Y-18440841D02*
X18515420Y-18402746D01*
X18515420Y-18402746D02*
X18524944Y-18355127D01*
X18524944Y-18355127D02*
X18534468Y-18326555D01*
X18534468Y-18326555D02*
X18543991Y-18307508D01*
X18543991Y-18307508D02*
X18563039Y-18278936D01*
X18563039Y-18278936D02*
X18572563Y-18269412D01*
X18734468Y-18364650D02*
X18734468Y-18497984D01*
X18686849Y-18288460D02*
X18639230Y-18431317D01*
X18639230Y-18431317D02*
X18763039Y-18431317D01*
X18924944Y-18364650D02*
X18924944Y-18497984D01*
X18877325Y-18288460D02*
X18829706Y-18431317D01*
X18829706Y-18431317D02*
X18953515Y-18431317D01*
X19182087Y-18497984D02*
X19182087Y-18297984D01*
X19267801Y-18497984D02*
X19267801Y-18393222D01*
X19267801Y-18393222D02*
X19258277Y-18374174D01*
X19258277Y-18374174D02*
X19239230Y-18364650D01*
X19239230Y-18364650D02*
X19210658Y-18364650D01*
X19210658Y-18364650D02*
X19191611Y-18374174D01*
X19191611Y-18374174D02*
X19182087Y-18383698D01*
X19391611Y-18497984D02*
X19372563Y-18488460D01*
X19372563Y-18488460D02*
X19363039Y-18478936D01*
X19363039Y-18478936D02*
X19353515Y-18459889D01*
X19353515Y-18459889D02*
X19353515Y-18402746D01*
X19353515Y-18402746D02*
X19363039Y-18383698D01*
X19363039Y-18383698D02*
X19372563Y-18374174D01*
X19372563Y-18374174D02*
X19391611Y-18364650D01*
X19391611Y-18364650D02*
X19420182Y-18364650D01*
X19420182Y-18364650D02*
X19439230Y-18374174D01*
X19439230Y-18374174D02*
X19448753Y-18383698D01*
X19448753Y-18383698D02*
X19458277Y-18402746D01*
X19458277Y-18402746D02*
X19458277Y-18459889D01*
X19458277Y-18459889D02*
X19448753Y-18478936D01*
X19448753Y-18478936D02*
X19439230Y-18488460D01*
X19439230Y-18488460D02*
X19420182Y-18497984D01*
X19420182Y-18497984D02*
X19391611Y-18497984D01*
X19572563Y-18497984D02*
X19553515Y-18488460D01*
X19553515Y-18488460D02*
X19543992Y-18469412D01*
X19543992Y-18469412D02*
X19543992Y-18297984D01*
X19724944Y-18488460D02*
X19705896Y-18497984D01*
X19705896Y-18497984D02*
X19667801Y-18497984D01*
X19667801Y-18497984D02*
X19648753Y-18488460D01*
X19648753Y-18488460D02*
X19639230Y-18469412D01*
X19639230Y-18469412D02*
X19639230Y-18393222D01*
X19639230Y-18393222D02*
X19648753Y-18374174D01*
X19648753Y-18374174D02*
X19667801Y-18364650D01*
X19667801Y-18364650D02*
X19705896Y-18364650D01*
X19705896Y-18364650D02*
X19724944Y-18374174D01*
X19724944Y-18374174D02*
X19734468Y-18393222D01*
X19734468Y-18393222D02*
X19734468Y-18412270D01*
X19734468Y-18412270D02*
X19639230Y-18431317D01*
X19810658Y-18488460D02*
X19829706Y-18497984D01*
X19829706Y-18497984D02*
X19867801Y-18497984D01*
X19867801Y-18497984D02*
X19886849Y-18488460D01*
X19886849Y-18488460D02*
X19896373Y-18469412D01*
X19896373Y-18469412D02*
X19896373Y-18459889D01*
X19896373Y-18459889D02*
X19886849Y-18440841D01*
X19886849Y-18440841D02*
X19867801Y-18431317D01*
X19867801Y-18431317D02*
X19839230Y-18431317D01*
X19839230Y-18431317D02*
X19820182Y-18421793D01*
X19820182Y-18421793D02*
X19810658Y-18402746D01*
X19810658Y-18402746D02*
X19810658Y-18393222D01*
X19810658Y-18393222D02*
X19820182Y-18374174D01*
X19820182Y-18374174D02*
X19839230Y-18364650D01*
X19839230Y-18364650D02*
X19867801Y-18364650D01*
X19867801Y-18364650D02*
X19886849Y-18374174D01*
X19963039Y-18574174D02*
X19972563Y-18564650D01*
X19972563Y-18564650D02*
X19991611Y-18536079D01*
X19991611Y-18536079D02*
X20001134Y-18517031D01*
X20001134Y-18517031D02*
X20010658Y-18488460D01*
X20010658Y-18488460D02*
X20020182Y-18440841D01*
X20020182Y-18440841D02*
X20020182Y-18402746D01*
X20020182Y-18402746D02*
X20010658Y-18355127D01*
X20010658Y-18355127D02*
X20001134Y-18326555D01*
X20001134Y-18326555D02*
X19991611Y-18307508D01*
X19991611Y-18307508D02*
X19972563Y-18278936D01*
X19972563Y-18278936D02*
X19963039Y-18269412D01*
M02*
