%TF.GenerationSoftware,KiCad,Pcbnew,8.0.2*%
%TF.CreationDate,2025-02-23T04:32:59+01:00*%
%TF.ProjectId,meas,6d656173-2e6b-4696-9361-645f70636258,1.0.0*%
%TF.SameCoordinates,Original*%
%TF.FileFunction,Drillmap*%
%TF.FilePolarity,Positive*%
%FSLAX45Y45*%
G04 Gerber Fmt 4.5, Leading zero omitted, Abs format (unit mm)*
G04 Created by KiCad (PCBNEW 8.0.2) date 2025-02-23 04:32:59*
%MOMM*%
%LPD*%
G01*
G04 APERTURE LIST*
%ADD10C,0.050000*%
%ADD11C,0.200000*%
%ADD12C,0.240000*%
%ADD13C,0.280000*%
G04 APERTURE END LIST*
D10*
X15000000Y-4000000D02*
X25000000Y-4000000D01*
X25000000Y-17500000D01*
X15000000Y-17500000D01*
X15000000Y-4000000D01*
D11*
D12*
X18730000Y-5380000D02*
X18970000Y-5620000D01*
X18970000Y-5380000D02*
X18730000Y-5620000D01*
X21880000Y-5380000D02*
X22120000Y-5620000D01*
X22120000Y-5380000D02*
X21880000Y-5620000D01*
D13*
X15695000Y-17143000D02*
G75*
G02*
X15415000Y-17143000I-140000J0D01*
G01*
X15415000Y-17143000D02*
G75*
G02*
X15695000Y-17143000I140000J0D01*
G01*
X24585000Y-17143000D02*
G75*
G02*
X24305000Y-17143000I-140000J0D01*
G01*
X24305000Y-17143000D02*
G75*
G02*
X24585000Y-17143000I140000J0D01*
G01*
D11*
X15258277Y-17813984D02*
X15258277Y-17613984D01*
X15258277Y-17613984D02*
X15305896Y-17613984D01*
X15305896Y-17613984D02*
X15334467Y-17623508D01*
X15334467Y-17623508D02*
X15353515Y-17642555D01*
X15353515Y-17642555D02*
X15363039Y-17661603D01*
X15363039Y-17661603D02*
X15372562Y-17699698D01*
X15372562Y-17699698D02*
X15372562Y-17728270D01*
X15372562Y-17728270D02*
X15363039Y-17766365D01*
X15363039Y-17766365D02*
X15353515Y-17785412D01*
X15353515Y-17785412D02*
X15334467Y-17804460D01*
X15334467Y-17804460D02*
X15305896Y-17813984D01*
X15305896Y-17813984D02*
X15258277Y-17813984D01*
X15458277Y-17813984D02*
X15458277Y-17680650D01*
X15458277Y-17718746D02*
X15467801Y-17699698D01*
X15467801Y-17699698D02*
X15477324Y-17690174D01*
X15477324Y-17690174D02*
X15496372Y-17680650D01*
X15496372Y-17680650D02*
X15515420Y-17680650D01*
X15582086Y-17813984D02*
X15582086Y-17680650D01*
X15582086Y-17613984D02*
X15572562Y-17623508D01*
X15572562Y-17623508D02*
X15582086Y-17633031D01*
X15582086Y-17633031D02*
X15591610Y-17623508D01*
X15591610Y-17623508D02*
X15582086Y-17613984D01*
X15582086Y-17613984D02*
X15582086Y-17633031D01*
X15705896Y-17813984D02*
X15686848Y-17804460D01*
X15686848Y-17804460D02*
X15677324Y-17785412D01*
X15677324Y-17785412D02*
X15677324Y-17613984D01*
X15810658Y-17813984D02*
X15791610Y-17804460D01*
X15791610Y-17804460D02*
X15782086Y-17785412D01*
X15782086Y-17785412D02*
X15782086Y-17613984D01*
X16039229Y-17813984D02*
X16039229Y-17613984D01*
X16039229Y-17613984D02*
X16105896Y-17756841D01*
X16105896Y-17756841D02*
X16172562Y-17613984D01*
X16172562Y-17613984D02*
X16172562Y-17813984D01*
X16353515Y-17813984D02*
X16353515Y-17709222D01*
X16353515Y-17709222D02*
X16343991Y-17690174D01*
X16343991Y-17690174D02*
X16324943Y-17680650D01*
X16324943Y-17680650D02*
X16286848Y-17680650D01*
X16286848Y-17680650D02*
X16267801Y-17690174D01*
X16353515Y-17804460D02*
X16334467Y-17813984D01*
X16334467Y-17813984D02*
X16286848Y-17813984D01*
X16286848Y-17813984D02*
X16267801Y-17804460D01*
X16267801Y-17804460D02*
X16258277Y-17785412D01*
X16258277Y-17785412D02*
X16258277Y-17766365D01*
X16258277Y-17766365D02*
X16267801Y-17747317D01*
X16267801Y-17747317D02*
X16286848Y-17737793D01*
X16286848Y-17737793D02*
X16334467Y-17737793D01*
X16334467Y-17737793D02*
X16353515Y-17728270D01*
X16448753Y-17680650D02*
X16448753Y-17880650D01*
X16448753Y-17690174D02*
X16467801Y-17680650D01*
X16467801Y-17680650D02*
X16505896Y-17680650D01*
X16505896Y-17680650D02*
X16524943Y-17690174D01*
X16524943Y-17690174D02*
X16534467Y-17699698D01*
X16534467Y-17699698D02*
X16543991Y-17718746D01*
X16543991Y-17718746D02*
X16543991Y-17775889D01*
X16543991Y-17775889D02*
X16534467Y-17794936D01*
X16534467Y-17794936D02*
X16524943Y-17804460D01*
X16524943Y-17804460D02*
X16505896Y-17813984D01*
X16505896Y-17813984D02*
X16467801Y-17813984D01*
X16467801Y-17813984D02*
X16448753Y-17804460D01*
X16629705Y-17794936D02*
X16639229Y-17804460D01*
X16639229Y-17804460D02*
X16629705Y-17813984D01*
X16629705Y-17813984D02*
X16620182Y-17804460D01*
X16620182Y-17804460D02*
X16629705Y-17794936D01*
X16629705Y-17794936D02*
X16629705Y-17813984D01*
X16629705Y-17690174D02*
X16639229Y-17699698D01*
X16639229Y-17699698D02*
X16629705Y-17709222D01*
X16629705Y-17709222D02*
X16620182Y-17699698D01*
X16620182Y-17699698D02*
X16629705Y-17690174D01*
X16629705Y-17690174D02*
X16629705Y-17709222D01*
X14797500Y-18042500D02*
X14997500Y-18242500D01*
X14997500Y-18042500D02*
X14797500Y-18242500D01*
X15248753Y-18053031D02*
X15258277Y-18043508D01*
X15258277Y-18043508D02*
X15277324Y-18033984D01*
X15277324Y-18033984D02*
X15324943Y-18033984D01*
X15324943Y-18033984D02*
X15343991Y-18043508D01*
X15343991Y-18043508D02*
X15353515Y-18053031D01*
X15353515Y-18053031D02*
X15363039Y-18072079D01*
X15363039Y-18072079D02*
X15363039Y-18091127D01*
X15363039Y-18091127D02*
X15353515Y-18119698D01*
X15353515Y-18119698D02*
X15239229Y-18233984D01*
X15239229Y-18233984D02*
X15363039Y-18233984D01*
X15448753Y-18214936D02*
X15458277Y-18224460D01*
X15458277Y-18224460D02*
X15448753Y-18233984D01*
X15448753Y-18233984D02*
X15439229Y-18224460D01*
X15439229Y-18224460D02*
X15448753Y-18214936D01*
X15448753Y-18214936D02*
X15448753Y-18233984D01*
X15629705Y-18100650D02*
X15629705Y-18233984D01*
X15582086Y-18024460D02*
X15534467Y-18167317D01*
X15534467Y-18167317D02*
X15658277Y-18167317D01*
X15772562Y-18033984D02*
X15791610Y-18033984D01*
X15791610Y-18033984D02*
X15810658Y-18043508D01*
X15810658Y-18043508D02*
X15820182Y-18053031D01*
X15820182Y-18053031D02*
X15829705Y-18072079D01*
X15829705Y-18072079D02*
X15839229Y-18110174D01*
X15839229Y-18110174D02*
X15839229Y-18157793D01*
X15839229Y-18157793D02*
X15829705Y-18195889D01*
X15829705Y-18195889D02*
X15820182Y-18214936D01*
X15820182Y-18214936D02*
X15810658Y-18224460D01*
X15810658Y-18224460D02*
X15791610Y-18233984D01*
X15791610Y-18233984D02*
X15772562Y-18233984D01*
X15772562Y-18233984D02*
X15753515Y-18224460D01*
X15753515Y-18224460D02*
X15743991Y-18214936D01*
X15743991Y-18214936D02*
X15734467Y-18195889D01*
X15734467Y-18195889D02*
X15724943Y-18157793D01*
X15724943Y-18157793D02*
X15724943Y-18110174D01*
X15724943Y-18110174D02*
X15734467Y-18072079D01*
X15734467Y-18072079D02*
X15743991Y-18053031D01*
X15743991Y-18053031D02*
X15753515Y-18043508D01*
X15753515Y-18043508D02*
X15772562Y-18033984D01*
X15963039Y-18033984D02*
X15982086Y-18033984D01*
X15982086Y-18033984D02*
X16001134Y-18043508D01*
X16001134Y-18043508D02*
X16010658Y-18053031D01*
X16010658Y-18053031D02*
X16020182Y-18072079D01*
X16020182Y-18072079D02*
X16029705Y-18110174D01*
X16029705Y-18110174D02*
X16029705Y-18157793D01*
X16029705Y-18157793D02*
X16020182Y-18195889D01*
X16020182Y-18195889D02*
X16010658Y-18214936D01*
X16010658Y-18214936D02*
X16001134Y-18224460D01*
X16001134Y-18224460D02*
X15982086Y-18233984D01*
X15982086Y-18233984D02*
X15963039Y-18233984D01*
X15963039Y-18233984D02*
X15943991Y-18224460D01*
X15943991Y-18224460D02*
X15934467Y-18214936D01*
X15934467Y-18214936D02*
X15924943Y-18195889D01*
X15924943Y-18195889D02*
X15915420Y-18157793D01*
X15915420Y-18157793D02*
X15915420Y-18110174D01*
X15915420Y-18110174D02*
X15924943Y-18072079D01*
X15924943Y-18072079D02*
X15934467Y-18053031D01*
X15934467Y-18053031D02*
X15943991Y-18043508D01*
X15943991Y-18043508D02*
X15963039Y-18033984D01*
X16115420Y-18233984D02*
X16115420Y-18100650D01*
X16115420Y-18119698D02*
X16124943Y-18110174D01*
X16124943Y-18110174D02*
X16143991Y-18100650D01*
X16143991Y-18100650D02*
X16172563Y-18100650D01*
X16172563Y-18100650D02*
X16191610Y-18110174D01*
X16191610Y-18110174D02*
X16201134Y-18129222D01*
X16201134Y-18129222D02*
X16201134Y-18233984D01*
X16201134Y-18129222D02*
X16210658Y-18110174D01*
X16210658Y-18110174D02*
X16229705Y-18100650D01*
X16229705Y-18100650D02*
X16258277Y-18100650D01*
X16258277Y-18100650D02*
X16277324Y-18110174D01*
X16277324Y-18110174D02*
X16286848Y-18129222D01*
X16286848Y-18129222D02*
X16286848Y-18233984D01*
X16382086Y-18233984D02*
X16382086Y-18100650D01*
X16382086Y-18119698D02*
X16391610Y-18110174D01*
X16391610Y-18110174D02*
X16410658Y-18100650D01*
X16410658Y-18100650D02*
X16439229Y-18100650D01*
X16439229Y-18100650D02*
X16458277Y-18110174D01*
X16458277Y-18110174D02*
X16467801Y-18129222D01*
X16467801Y-18129222D02*
X16467801Y-18233984D01*
X16467801Y-18129222D02*
X16477324Y-18110174D01*
X16477324Y-18110174D02*
X16496372Y-18100650D01*
X16496372Y-18100650D02*
X16524943Y-18100650D01*
X16524943Y-18100650D02*
X16543991Y-18110174D01*
X16543991Y-18110174D02*
X16553515Y-18129222D01*
X16553515Y-18129222D02*
X16553515Y-18233984D01*
X16943991Y-18024460D02*
X16772563Y-18281603D01*
X17201134Y-18033984D02*
X17220182Y-18033984D01*
X17220182Y-18033984D02*
X17239229Y-18043508D01*
X17239229Y-18043508D02*
X17248753Y-18053031D01*
X17248753Y-18053031D02*
X17258277Y-18072079D01*
X17258277Y-18072079D02*
X17267801Y-18110174D01*
X17267801Y-18110174D02*
X17267801Y-18157793D01*
X17267801Y-18157793D02*
X17258277Y-18195889D01*
X17258277Y-18195889D02*
X17248753Y-18214936D01*
X17248753Y-18214936D02*
X17239229Y-18224460D01*
X17239229Y-18224460D02*
X17220182Y-18233984D01*
X17220182Y-18233984D02*
X17201134Y-18233984D01*
X17201134Y-18233984D02*
X17182087Y-18224460D01*
X17182087Y-18224460D02*
X17172563Y-18214936D01*
X17172563Y-18214936D02*
X17163039Y-18195889D01*
X17163039Y-18195889D02*
X17153515Y-18157793D01*
X17153515Y-18157793D02*
X17153515Y-18110174D01*
X17153515Y-18110174D02*
X17163039Y-18072079D01*
X17163039Y-18072079D02*
X17172563Y-18053031D01*
X17172563Y-18053031D02*
X17182087Y-18043508D01*
X17182087Y-18043508D02*
X17201134Y-18033984D01*
X17353515Y-18214936D02*
X17363039Y-18224460D01*
X17363039Y-18224460D02*
X17353515Y-18233984D01*
X17353515Y-18233984D02*
X17343991Y-18224460D01*
X17343991Y-18224460D02*
X17353515Y-18214936D01*
X17353515Y-18214936D02*
X17353515Y-18233984D01*
X17486848Y-18033984D02*
X17505896Y-18033984D01*
X17505896Y-18033984D02*
X17524944Y-18043508D01*
X17524944Y-18043508D02*
X17534468Y-18053031D01*
X17534468Y-18053031D02*
X17543991Y-18072079D01*
X17543991Y-18072079D02*
X17553515Y-18110174D01*
X17553515Y-18110174D02*
X17553515Y-18157793D01*
X17553515Y-18157793D02*
X17543991Y-18195889D01*
X17543991Y-18195889D02*
X17534468Y-18214936D01*
X17534468Y-18214936D02*
X17524944Y-18224460D01*
X17524944Y-18224460D02*
X17505896Y-18233984D01*
X17505896Y-18233984D02*
X17486848Y-18233984D01*
X17486848Y-18233984D02*
X17467801Y-18224460D01*
X17467801Y-18224460D02*
X17458277Y-18214936D01*
X17458277Y-18214936D02*
X17448753Y-18195889D01*
X17448753Y-18195889D02*
X17439229Y-18157793D01*
X17439229Y-18157793D02*
X17439229Y-18110174D01*
X17439229Y-18110174D02*
X17448753Y-18072079D01*
X17448753Y-18072079D02*
X17458277Y-18053031D01*
X17458277Y-18053031D02*
X17467801Y-18043508D01*
X17467801Y-18043508D02*
X17486848Y-18033984D01*
X17648753Y-18233984D02*
X17686848Y-18233984D01*
X17686848Y-18233984D02*
X17705896Y-18224460D01*
X17705896Y-18224460D02*
X17715420Y-18214936D01*
X17715420Y-18214936D02*
X17734468Y-18186365D01*
X17734468Y-18186365D02*
X17743991Y-18148270D01*
X17743991Y-18148270D02*
X17743991Y-18072079D01*
X17743991Y-18072079D02*
X17734468Y-18053031D01*
X17734468Y-18053031D02*
X17724944Y-18043508D01*
X17724944Y-18043508D02*
X17705896Y-18033984D01*
X17705896Y-18033984D02*
X17667801Y-18033984D01*
X17667801Y-18033984D02*
X17648753Y-18043508D01*
X17648753Y-18043508D02*
X17639229Y-18053031D01*
X17639229Y-18053031D02*
X17629706Y-18072079D01*
X17629706Y-18072079D02*
X17629706Y-18119698D01*
X17629706Y-18119698D02*
X17639229Y-18138746D01*
X17639229Y-18138746D02*
X17648753Y-18148270D01*
X17648753Y-18148270D02*
X17667801Y-18157793D01*
X17667801Y-18157793D02*
X17705896Y-18157793D01*
X17705896Y-18157793D02*
X17724944Y-18148270D01*
X17724944Y-18148270D02*
X17734468Y-18138746D01*
X17734468Y-18138746D02*
X17743991Y-18119698D01*
X17915420Y-18100650D02*
X17915420Y-18233984D01*
X17867801Y-18024460D02*
X17820182Y-18167317D01*
X17820182Y-18167317D02*
X17943991Y-18167317D01*
X18115420Y-18033984D02*
X18020182Y-18033984D01*
X18020182Y-18033984D02*
X18010658Y-18129222D01*
X18010658Y-18129222D02*
X18020182Y-18119698D01*
X18020182Y-18119698D02*
X18039229Y-18110174D01*
X18039229Y-18110174D02*
X18086849Y-18110174D01*
X18086849Y-18110174D02*
X18105896Y-18119698D01*
X18105896Y-18119698D02*
X18115420Y-18129222D01*
X18115420Y-18129222D02*
X18124944Y-18148270D01*
X18124944Y-18148270D02*
X18124944Y-18195889D01*
X18124944Y-18195889D02*
X18115420Y-18214936D01*
X18115420Y-18214936D02*
X18105896Y-18224460D01*
X18105896Y-18224460D02*
X18086849Y-18233984D01*
X18086849Y-18233984D02*
X18039229Y-18233984D01*
X18039229Y-18233984D02*
X18020182Y-18224460D01*
X18020182Y-18224460D02*
X18010658Y-18214936D01*
X18201134Y-18033984D02*
X18201134Y-18072079D01*
X18277325Y-18033984D02*
X18277325Y-18072079D01*
X18572563Y-18310174D02*
X18563039Y-18300650D01*
X18563039Y-18300650D02*
X18543991Y-18272079D01*
X18543991Y-18272079D02*
X18534468Y-18253031D01*
X18534468Y-18253031D02*
X18524944Y-18224460D01*
X18524944Y-18224460D02*
X18515420Y-18176841D01*
X18515420Y-18176841D02*
X18515420Y-18138746D01*
X18515420Y-18138746D02*
X18524944Y-18091127D01*
X18524944Y-18091127D02*
X18534468Y-18062555D01*
X18534468Y-18062555D02*
X18543991Y-18043508D01*
X18543991Y-18043508D02*
X18563039Y-18014936D01*
X18563039Y-18014936D02*
X18572563Y-18005412D01*
X18639230Y-18053031D02*
X18648753Y-18043508D01*
X18648753Y-18043508D02*
X18667801Y-18033984D01*
X18667801Y-18033984D02*
X18715420Y-18033984D01*
X18715420Y-18033984D02*
X18734468Y-18043508D01*
X18734468Y-18043508D02*
X18743991Y-18053031D01*
X18743991Y-18053031D02*
X18753515Y-18072079D01*
X18753515Y-18072079D02*
X18753515Y-18091127D01*
X18753515Y-18091127D02*
X18743991Y-18119698D01*
X18743991Y-18119698D02*
X18629706Y-18233984D01*
X18629706Y-18233984D02*
X18753515Y-18233984D01*
X18991611Y-18233984D02*
X18991611Y-18033984D01*
X19077325Y-18233984D02*
X19077325Y-18129222D01*
X19077325Y-18129222D02*
X19067801Y-18110174D01*
X19067801Y-18110174D02*
X19048753Y-18100650D01*
X19048753Y-18100650D02*
X19020182Y-18100650D01*
X19020182Y-18100650D02*
X19001134Y-18110174D01*
X19001134Y-18110174D02*
X18991611Y-18119698D01*
X19201134Y-18233984D02*
X19182087Y-18224460D01*
X19182087Y-18224460D02*
X19172563Y-18214936D01*
X19172563Y-18214936D02*
X19163039Y-18195889D01*
X19163039Y-18195889D02*
X19163039Y-18138746D01*
X19163039Y-18138746D02*
X19172563Y-18119698D01*
X19172563Y-18119698D02*
X19182087Y-18110174D01*
X19182087Y-18110174D02*
X19201134Y-18100650D01*
X19201134Y-18100650D02*
X19229706Y-18100650D01*
X19229706Y-18100650D02*
X19248753Y-18110174D01*
X19248753Y-18110174D02*
X19258277Y-18119698D01*
X19258277Y-18119698D02*
X19267801Y-18138746D01*
X19267801Y-18138746D02*
X19267801Y-18195889D01*
X19267801Y-18195889D02*
X19258277Y-18214936D01*
X19258277Y-18214936D02*
X19248753Y-18224460D01*
X19248753Y-18224460D02*
X19229706Y-18233984D01*
X19229706Y-18233984D02*
X19201134Y-18233984D01*
X19382087Y-18233984D02*
X19363039Y-18224460D01*
X19363039Y-18224460D02*
X19353515Y-18205412D01*
X19353515Y-18205412D02*
X19353515Y-18033984D01*
X19534468Y-18224460D02*
X19515420Y-18233984D01*
X19515420Y-18233984D02*
X19477325Y-18233984D01*
X19477325Y-18233984D02*
X19458277Y-18224460D01*
X19458277Y-18224460D02*
X19448753Y-18205412D01*
X19448753Y-18205412D02*
X19448753Y-18129222D01*
X19448753Y-18129222D02*
X19458277Y-18110174D01*
X19458277Y-18110174D02*
X19477325Y-18100650D01*
X19477325Y-18100650D02*
X19515420Y-18100650D01*
X19515420Y-18100650D02*
X19534468Y-18110174D01*
X19534468Y-18110174D02*
X19543992Y-18129222D01*
X19543992Y-18129222D02*
X19543992Y-18148270D01*
X19543992Y-18148270D02*
X19448753Y-18167317D01*
X19620182Y-18224460D02*
X19639230Y-18233984D01*
X19639230Y-18233984D02*
X19677325Y-18233984D01*
X19677325Y-18233984D02*
X19696373Y-18224460D01*
X19696373Y-18224460D02*
X19705896Y-18205412D01*
X19705896Y-18205412D02*
X19705896Y-18195889D01*
X19705896Y-18195889D02*
X19696373Y-18176841D01*
X19696373Y-18176841D02*
X19677325Y-18167317D01*
X19677325Y-18167317D02*
X19648753Y-18167317D01*
X19648753Y-18167317D02*
X19629706Y-18157793D01*
X19629706Y-18157793D02*
X19620182Y-18138746D01*
X19620182Y-18138746D02*
X19620182Y-18129222D01*
X19620182Y-18129222D02*
X19629706Y-18110174D01*
X19629706Y-18110174D02*
X19648753Y-18100650D01*
X19648753Y-18100650D02*
X19677325Y-18100650D01*
X19677325Y-18100650D02*
X19696373Y-18110174D01*
X19772563Y-18310174D02*
X19782087Y-18300650D01*
X19782087Y-18300650D02*
X19801134Y-18272079D01*
X19801134Y-18272079D02*
X19810658Y-18253031D01*
X19810658Y-18253031D02*
X19820182Y-18224460D01*
X19820182Y-18224460D02*
X19829706Y-18176841D01*
X19829706Y-18176841D02*
X19829706Y-18138746D01*
X19829706Y-18138746D02*
X19820182Y-18091127D01*
X19820182Y-18091127D02*
X19810658Y-18062555D01*
X19810658Y-18062555D02*
X19801134Y-18043508D01*
X19801134Y-18043508D02*
X19782087Y-18014936D01*
X19782087Y-18014936D02*
X19772563Y-18005412D01*
X20134468Y-18310174D02*
X20124944Y-18300650D01*
X20124944Y-18300650D02*
X20105896Y-18272079D01*
X20105896Y-18272079D02*
X20096373Y-18253031D01*
X20096373Y-18253031D02*
X20086849Y-18224460D01*
X20086849Y-18224460D02*
X20077325Y-18176841D01*
X20077325Y-18176841D02*
X20077325Y-18138746D01*
X20077325Y-18138746D02*
X20086849Y-18091127D01*
X20086849Y-18091127D02*
X20096373Y-18062555D01*
X20096373Y-18062555D02*
X20105896Y-18043508D01*
X20105896Y-18043508D02*
X20124944Y-18014936D01*
X20124944Y-18014936D02*
X20134468Y-18005412D01*
X20210658Y-18100650D02*
X20210658Y-18233984D01*
X20210658Y-18119698D02*
X20220182Y-18110174D01*
X20220182Y-18110174D02*
X20239230Y-18100650D01*
X20239230Y-18100650D02*
X20267801Y-18100650D01*
X20267801Y-18100650D02*
X20286849Y-18110174D01*
X20286849Y-18110174D02*
X20296373Y-18129222D01*
X20296373Y-18129222D02*
X20296373Y-18233984D01*
X20420182Y-18233984D02*
X20401134Y-18224460D01*
X20401134Y-18224460D02*
X20391611Y-18214936D01*
X20391611Y-18214936D02*
X20382087Y-18195889D01*
X20382087Y-18195889D02*
X20382087Y-18138746D01*
X20382087Y-18138746D02*
X20391611Y-18119698D01*
X20391611Y-18119698D02*
X20401134Y-18110174D01*
X20401134Y-18110174D02*
X20420182Y-18100650D01*
X20420182Y-18100650D02*
X20448754Y-18100650D01*
X20448754Y-18100650D02*
X20467801Y-18110174D01*
X20467801Y-18110174D02*
X20477325Y-18119698D01*
X20477325Y-18119698D02*
X20486849Y-18138746D01*
X20486849Y-18138746D02*
X20486849Y-18195889D01*
X20486849Y-18195889D02*
X20477325Y-18214936D01*
X20477325Y-18214936D02*
X20467801Y-18224460D01*
X20467801Y-18224460D02*
X20448754Y-18233984D01*
X20448754Y-18233984D02*
X20420182Y-18233984D01*
X20543992Y-18100650D02*
X20620182Y-18100650D01*
X20572563Y-18033984D02*
X20572563Y-18205412D01*
X20572563Y-18205412D02*
X20582087Y-18224460D01*
X20582087Y-18224460D02*
X20601134Y-18233984D01*
X20601134Y-18233984D02*
X20620182Y-18233984D01*
X20839230Y-18100650D02*
X20839230Y-18300650D01*
X20839230Y-18110174D02*
X20858277Y-18100650D01*
X20858277Y-18100650D02*
X20896373Y-18100650D01*
X20896373Y-18100650D02*
X20915420Y-18110174D01*
X20915420Y-18110174D02*
X20924944Y-18119698D01*
X20924944Y-18119698D02*
X20934468Y-18138746D01*
X20934468Y-18138746D02*
X20934468Y-18195889D01*
X20934468Y-18195889D02*
X20924944Y-18214936D01*
X20924944Y-18214936D02*
X20915420Y-18224460D01*
X20915420Y-18224460D02*
X20896373Y-18233984D01*
X20896373Y-18233984D02*
X20858277Y-18233984D01*
X20858277Y-18233984D02*
X20839230Y-18224460D01*
X21048754Y-18233984D02*
X21029706Y-18224460D01*
X21029706Y-18224460D02*
X21020182Y-18205412D01*
X21020182Y-18205412D02*
X21020182Y-18033984D01*
X21210658Y-18233984D02*
X21210658Y-18129222D01*
X21210658Y-18129222D02*
X21201135Y-18110174D01*
X21201135Y-18110174D02*
X21182087Y-18100650D01*
X21182087Y-18100650D02*
X21143992Y-18100650D01*
X21143992Y-18100650D02*
X21124944Y-18110174D01*
X21210658Y-18224460D02*
X21191611Y-18233984D01*
X21191611Y-18233984D02*
X21143992Y-18233984D01*
X21143992Y-18233984D02*
X21124944Y-18224460D01*
X21124944Y-18224460D02*
X21115420Y-18205412D01*
X21115420Y-18205412D02*
X21115420Y-18186365D01*
X21115420Y-18186365D02*
X21124944Y-18167317D01*
X21124944Y-18167317D02*
X21143992Y-18157793D01*
X21143992Y-18157793D02*
X21191611Y-18157793D01*
X21191611Y-18157793D02*
X21210658Y-18148270D01*
X21277325Y-18100650D02*
X21353515Y-18100650D01*
X21305896Y-18033984D02*
X21305896Y-18205412D01*
X21305896Y-18205412D02*
X21315420Y-18224460D01*
X21315420Y-18224460D02*
X21334468Y-18233984D01*
X21334468Y-18233984D02*
X21353515Y-18233984D01*
X21496373Y-18224460D02*
X21477325Y-18233984D01*
X21477325Y-18233984D02*
X21439230Y-18233984D01*
X21439230Y-18233984D02*
X21420182Y-18224460D01*
X21420182Y-18224460D02*
X21410658Y-18205412D01*
X21410658Y-18205412D02*
X21410658Y-18129222D01*
X21410658Y-18129222D02*
X21420182Y-18110174D01*
X21420182Y-18110174D02*
X21439230Y-18100650D01*
X21439230Y-18100650D02*
X21477325Y-18100650D01*
X21477325Y-18100650D02*
X21496373Y-18110174D01*
X21496373Y-18110174D02*
X21505896Y-18129222D01*
X21505896Y-18129222D02*
X21505896Y-18148270D01*
X21505896Y-18148270D02*
X21410658Y-18167317D01*
X21677325Y-18233984D02*
X21677325Y-18033984D01*
X21677325Y-18224460D02*
X21658277Y-18233984D01*
X21658277Y-18233984D02*
X21620182Y-18233984D01*
X21620182Y-18233984D02*
X21601135Y-18224460D01*
X21601135Y-18224460D02*
X21591611Y-18214936D01*
X21591611Y-18214936D02*
X21582087Y-18195889D01*
X21582087Y-18195889D02*
X21582087Y-18138746D01*
X21582087Y-18138746D02*
X21591611Y-18119698D01*
X21591611Y-18119698D02*
X21601135Y-18110174D01*
X21601135Y-18110174D02*
X21620182Y-18100650D01*
X21620182Y-18100650D02*
X21658277Y-18100650D01*
X21658277Y-18100650D02*
X21677325Y-18110174D01*
X21753516Y-18310174D02*
X21763039Y-18300650D01*
X21763039Y-18300650D02*
X21782087Y-18272079D01*
X21782087Y-18272079D02*
X21791611Y-18253031D01*
X21791611Y-18253031D02*
X21801135Y-18224460D01*
X21801135Y-18224460D02*
X21810658Y-18176841D01*
X21810658Y-18176841D02*
X21810658Y-18138746D01*
X21810658Y-18138746D02*
X21801135Y-18091127D01*
X21801135Y-18091127D02*
X21791611Y-18062555D01*
X21791611Y-18062555D02*
X21782087Y-18043508D01*
X21782087Y-18043508D02*
X21763039Y-18014936D01*
X21763039Y-18014936D02*
X21753516Y-18005412D01*
X14997500Y-18462500D02*
G75*
G02*
X14797500Y-18462500I-100000J0D01*
G01*
X14797500Y-18462500D02*
G75*
G02*
X14997500Y-18462500I100000J0D01*
G01*
X15248753Y-18373031D02*
X15258277Y-18363508D01*
X15258277Y-18363508D02*
X15277324Y-18353984D01*
X15277324Y-18353984D02*
X15324943Y-18353984D01*
X15324943Y-18353984D02*
X15343991Y-18363508D01*
X15343991Y-18363508D02*
X15353515Y-18373031D01*
X15353515Y-18373031D02*
X15363039Y-18392079D01*
X15363039Y-18392079D02*
X15363039Y-18411127D01*
X15363039Y-18411127D02*
X15353515Y-18439698D01*
X15353515Y-18439698D02*
X15239229Y-18553984D01*
X15239229Y-18553984D02*
X15363039Y-18553984D01*
X15448753Y-18534936D02*
X15458277Y-18544460D01*
X15458277Y-18544460D02*
X15448753Y-18553984D01*
X15448753Y-18553984D02*
X15439229Y-18544460D01*
X15439229Y-18544460D02*
X15448753Y-18534936D01*
X15448753Y-18534936D02*
X15448753Y-18553984D01*
X15572562Y-18439698D02*
X15553515Y-18430174D01*
X15553515Y-18430174D02*
X15543991Y-18420650D01*
X15543991Y-18420650D02*
X15534467Y-18401603D01*
X15534467Y-18401603D02*
X15534467Y-18392079D01*
X15534467Y-18392079D02*
X15543991Y-18373031D01*
X15543991Y-18373031D02*
X15553515Y-18363508D01*
X15553515Y-18363508D02*
X15572562Y-18353984D01*
X15572562Y-18353984D02*
X15610658Y-18353984D01*
X15610658Y-18353984D02*
X15629705Y-18363508D01*
X15629705Y-18363508D02*
X15639229Y-18373031D01*
X15639229Y-18373031D02*
X15648753Y-18392079D01*
X15648753Y-18392079D02*
X15648753Y-18401603D01*
X15648753Y-18401603D02*
X15639229Y-18420650D01*
X15639229Y-18420650D02*
X15629705Y-18430174D01*
X15629705Y-18430174D02*
X15610658Y-18439698D01*
X15610658Y-18439698D02*
X15572562Y-18439698D01*
X15572562Y-18439698D02*
X15553515Y-18449222D01*
X15553515Y-18449222D02*
X15543991Y-18458746D01*
X15543991Y-18458746D02*
X15534467Y-18477793D01*
X15534467Y-18477793D02*
X15534467Y-18515889D01*
X15534467Y-18515889D02*
X15543991Y-18534936D01*
X15543991Y-18534936D02*
X15553515Y-18544460D01*
X15553515Y-18544460D02*
X15572562Y-18553984D01*
X15572562Y-18553984D02*
X15610658Y-18553984D01*
X15610658Y-18553984D02*
X15629705Y-18544460D01*
X15629705Y-18544460D02*
X15639229Y-18534936D01*
X15639229Y-18534936D02*
X15648753Y-18515889D01*
X15648753Y-18515889D02*
X15648753Y-18477793D01*
X15648753Y-18477793D02*
X15639229Y-18458746D01*
X15639229Y-18458746D02*
X15629705Y-18449222D01*
X15629705Y-18449222D02*
X15610658Y-18439698D01*
X15772562Y-18353984D02*
X15791610Y-18353984D01*
X15791610Y-18353984D02*
X15810658Y-18363508D01*
X15810658Y-18363508D02*
X15820182Y-18373031D01*
X15820182Y-18373031D02*
X15829705Y-18392079D01*
X15829705Y-18392079D02*
X15839229Y-18430174D01*
X15839229Y-18430174D02*
X15839229Y-18477793D01*
X15839229Y-18477793D02*
X15829705Y-18515889D01*
X15829705Y-18515889D02*
X15820182Y-18534936D01*
X15820182Y-18534936D02*
X15810658Y-18544460D01*
X15810658Y-18544460D02*
X15791610Y-18553984D01*
X15791610Y-18553984D02*
X15772562Y-18553984D01*
X15772562Y-18553984D02*
X15753515Y-18544460D01*
X15753515Y-18544460D02*
X15743991Y-18534936D01*
X15743991Y-18534936D02*
X15734467Y-18515889D01*
X15734467Y-18515889D02*
X15724943Y-18477793D01*
X15724943Y-18477793D02*
X15724943Y-18430174D01*
X15724943Y-18430174D02*
X15734467Y-18392079D01*
X15734467Y-18392079D02*
X15743991Y-18373031D01*
X15743991Y-18373031D02*
X15753515Y-18363508D01*
X15753515Y-18363508D02*
X15772562Y-18353984D01*
X15963039Y-18353984D02*
X15982086Y-18353984D01*
X15982086Y-18353984D02*
X16001134Y-18363508D01*
X16001134Y-18363508D02*
X16010658Y-18373031D01*
X16010658Y-18373031D02*
X16020182Y-18392079D01*
X16020182Y-18392079D02*
X16029705Y-18430174D01*
X16029705Y-18430174D02*
X16029705Y-18477793D01*
X16029705Y-18477793D02*
X16020182Y-18515889D01*
X16020182Y-18515889D02*
X16010658Y-18534936D01*
X16010658Y-18534936D02*
X16001134Y-18544460D01*
X16001134Y-18544460D02*
X15982086Y-18553984D01*
X15982086Y-18553984D02*
X15963039Y-18553984D01*
X15963039Y-18553984D02*
X15943991Y-18544460D01*
X15943991Y-18544460D02*
X15934467Y-18534936D01*
X15934467Y-18534936D02*
X15924943Y-18515889D01*
X15924943Y-18515889D02*
X15915420Y-18477793D01*
X15915420Y-18477793D02*
X15915420Y-18430174D01*
X15915420Y-18430174D02*
X15924943Y-18392079D01*
X15924943Y-18392079D02*
X15934467Y-18373031D01*
X15934467Y-18373031D02*
X15943991Y-18363508D01*
X15943991Y-18363508D02*
X15963039Y-18353984D01*
X16115420Y-18553984D02*
X16115420Y-18420650D01*
X16115420Y-18439698D02*
X16124943Y-18430174D01*
X16124943Y-18430174D02*
X16143991Y-18420650D01*
X16143991Y-18420650D02*
X16172563Y-18420650D01*
X16172563Y-18420650D02*
X16191610Y-18430174D01*
X16191610Y-18430174D02*
X16201134Y-18449222D01*
X16201134Y-18449222D02*
X16201134Y-18553984D01*
X16201134Y-18449222D02*
X16210658Y-18430174D01*
X16210658Y-18430174D02*
X16229705Y-18420650D01*
X16229705Y-18420650D02*
X16258277Y-18420650D01*
X16258277Y-18420650D02*
X16277324Y-18430174D01*
X16277324Y-18430174D02*
X16286848Y-18449222D01*
X16286848Y-18449222D02*
X16286848Y-18553984D01*
X16382086Y-18553984D02*
X16382086Y-18420650D01*
X16382086Y-18439698D02*
X16391610Y-18430174D01*
X16391610Y-18430174D02*
X16410658Y-18420650D01*
X16410658Y-18420650D02*
X16439229Y-18420650D01*
X16439229Y-18420650D02*
X16458277Y-18430174D01*
X16458277Y-18430174D02*
X16467801Y-18449222D01*
X16467801Y-18449222D02*
X16467801Y-18553984D01*
X16467801Y-18449222D02*
X16477324Y-18430174D01*
X16477324Y-18430174D02*
X16496372Y-18420650D01*
X16496372Y-18420650D02*
X16524943Y-18420650D01*
X16524943Y-18420650D02*
X16543991Y-18430174D01*
X16543991Y-18430174D02*
X16553515Y-18449222D01*
X16553515Y-18449222D02*
X16553515Y-18553984D01*
X16943991Y-18344460D02*
X16772563Y-18601603D01*
X17201134Y-18353984D02*
X17220182Y-18353984D01*
X17220182Y-18353984D02*
X17239229Y-18363508D01*
X17239229Y-18363508D02*
X17248753Y-18373031D01*
X17248753Y-18373031D02*
X17258277Y-18392079D01*
X17258277Y-18392079D02*
X17267801Y-18430174D01*
X17267801Y-18430174D02*
X17267801Y-18477793D01*
X17267801Y-18477793D02*
X17258277Y-18515889D01*
X17258277Y-18515889D02*
X17248753Y-18534936D01*
X17248753Y-18534936D02*
X17239229Y-18544460D01*
X17239229Y-18544460D02*
X17220182Y-18553984D01*
X17220182Y-18553984D02*
X17201134Y-18553984D01*
X17201134Y-18553984D02*
X17182087Y-18544460D01*
X17182087Y-18544460D02*
X17172563Y-18534936D01*
X17172563Y-18534936D02*
X17163039Y-18515889D01*
X17163039Y-18515889D02*
X17153515Y-18477793D01*
X17153515Y-18477793D02*
X17153515Y-18430174D01*
X17153515Y-18430174D02*
X17163039Y-18392079D01*
X17163039Y-18392079D02*
X17172563Y-18373031D01*
X17172563Y-18373031D02*
X17182087Y-18363508D01*
X17182087Y-18363508D02*
X17201134Y-18353984D01*
X17353515Y-18534936D02*
X17363039Y-18544460D01*
X17363039Y-18544460D02*
X17353515Y-18553984D01*
X17353515Y-18553984D02*
X17343991Y-18544460D01*
X17343991Y-18544460D02*
X17353515Y-18534936D01*
X17353515Y-18534936D02*
X17353515Y-18553984D01*
X17553515Y-18553984D02*
X17439229Y-18553984D01*
X17496372Y-18553984D02*
X17496372Y-18353984D01*
X17496372Y-18353984D02*
X17477325Y-18382555D01*
X17477325Y-18382555D02*
X17458277Y-18401603D01*
X17458277Y-18401603D02*
X17439229Y-18411127D01*
X17743991Y-18553984D02*
X17629706Y-18553984D01*
X17686848Y-18553984D02*
X17686848Y-18353984D01*
X17686848Y-18353984D02*
X17667801Y-18382555D01*
X17667801Y-18382555D02*
X17648753Y-18401603D01*
X17648753Y-18401603D02*
X17629706Y-18411127D01*
X17867801Y-18353984D02*
X17886849Y-18353984D01*
X17886849Y-18353984D02*
X17905896Y-18363508D01*
X17905896Y-18363508D02*
X17915420Y-18373031D01*
X17915420Y-18373031D02*
X17924944Y-18392079D01*
X17924944Y-18392079D02*
X17934468Y-18430174D01*
X17934468Y-18430174D02*
X17934468Y-18477793D01*
X17934468Y-18477793D02*
X17924944Y-18515889D01*
X17924944Y-18515889D02*
X17915420Y-18534936D01*
X17915420Y-18534936D02*
X17905896Y-18544460D01*
X17905896Y-18544460D02*
X17886849Y-18553984D01*
X17886849Y-18553984D02*
X17867801Y-18553984D01*
X17867801Y-18553984D02*
X17848753Y-18544460D01*
X17848753Y-18544460D02*
X17839229Y-18534936D01*
X17839229Y-18534936D02*
X17829706Y-18515889D01*
X17829706Y-18515889D02*
X17820182Y-18477793D01*
X17820182Y-18477793D02*
X17820182Y-18430174D01*
X17820182Y-18430174D02*
X17829706Y-18392079D01*
X17829706Y-18392079D02*
X17839229Y-18373031D01*
X17839229Y-18373031D02*
X17848753Y-18363508D01*
X17848753Y-18363508D02*
X17867801Y-18353984D01*
X18010658Y-18373031D02*
X18020182Y-18363508D01*
X18020182Y-18363508D02*
X18039229Y-18353984D01*
X18039229Y-18353984D02*
X18086849Y-18353984D01*
X18086849Y-18353984D02*
X18105896Y-18363508D01*
X18105896Y-18363508D02*
X18115420Y-18373031D01*
X18115420Y-18373031D02*
X18124944Y-18392079D01*
X18124944Y-18392079D02*
X18124944Y-18411127D01*
X18124944Y-18411127D02*
X18115420Y-18439698D01*
X18115420Y-18439698D02*
X18001134Y-18553984D01*
X18001134Y-18553984D02*
X18124944Y-18553984D01*
X18201134Y-18353984D02*
X18201134Y-18392079D01*
X18277325Y-18353984D02*
X18277325Y-18392079D01*
X18572563Y-18630174D02*
X18563039Y-18620650D01*
X18563039Y-18620650D02*
X18543991Y-18592079D01*
X18543991Y-18592079D02*
X18534468Y-18573031D01*
X18534468Y-18573031D02*
X18524944Y-18544460D01*
X18524944Y-18544460D02*
X18515420Y-18496841D01*
X18515420Y-18496841D02*
X18515420Y-18458746D01*
X18515420Y-18458746D02*
X18524944Y-18411127D01*
X18524944Y-18411127D02*
X18534468Y-18382555D01*
X18534468Y-18382555D02*
X18543991Y-18363508D01*
X18543991Y-18363508D02*
X18563039Y-18334936D01*
X18563039Y-18334936D02*
X18572563Y-18325412D01*
X18639230Y-18373031D02*
X18648753Y-18363508D01*
X18648753Y-18363508D02*
X18667801Y-18353984D01*
X18667801Y-18353984D02*
X18715420Y-18353984D01*
X18715420Y-18353984D02*
X18734468Y-18363508D01*
X18734468Y-18363508D02*
X18743991Y-18373031D01*
X18743991Y-18373031D02*
X18753515Y-18392079D01*
X18753515Y-18392079D02*
X18753515Y-18411127D01*
X18753515Y-18411127D02*
X18743991Y-18439698D01*
X18743991Y-18439698D02*
X18629706Y-18553984D01*
X18629706Y-18553984D02*
X18753515Y-18553984D01*
X18991611Y-18553984D02*
X18991611Y-18353984D01*
X19077325Y-18553984D02*
X19077325Y-18449222D01*
X19077325Y-18449222D02*
X19067801Y-18430174D01*
X19067801Y-18430174D02*
X19048753Y-18420650D01*
X19048753Y-18420650D02*
X19020182Y-18420650D01*
X19020182Y-18420650D02*
X19001134Y-18430174D01*
X19001134Y-18430174D02*
X18991611Y-18439698D01*
X19201134Y-18553984D02*
X19182087Y-18544460D01*
X19182087Y-18544460D02*
X19172563Y-18534936D01*
X19172563Y-18534936D02*
X19163039Y-18515889D01*
X19163039Y-18515889D02*
X19163039Y-18458746D01*
X19163039Y-18458746D02*
X19172563Y-18439698D01*
X19172563Y-18439698D02*
X19182087Y-18430174D01*
X19182087Y-18430174D02*
X19201134Y-18420650D01*
X19201134Y-18420650D02*
X19229706Y-18420650D01*
X19229706Y-18420650D02*
X19248753Y-18430174D01*
X19248753Y-18430174D02*
X19258277Y-18439698D01*
X19258277Y-18439698D02*
X19267801Y-18458746D01*
X19267801Y-18458746D02*
X19267801Y-18515889D01*
X19267801Y-18515889D02*
X19258277Y-18534936D01*
X19258277Y-18534936D02*
X19248753Y-18544460D01*
X19248753Y-18544460D02*
X19229706Y-18553984D01*
X19229706Y-18553984D02*
X19201134Y-18553984D01*
X19382087Y-18553984D02*
X19363039Y-18544460D01*
X19363039Y-18544460D02*
X19353515Y-18525412D01*
X19353515Y-18525412D02*
X19353515Y-18353984D01*
X19534468Y-18544460D02*
X19515420Y-18553984D01*
X19515420Y-18553984D02*
X19477325Y-18553984D01*
X19477325Y-18553984D02*
X19458277Y-18544460D01*
X19458277Y-18544460D02*
X19448753Y-18525412D01*
X19448753Y-18525412D02*
X19448753Y-18449222D01*
X19448753Y-18449222D02*
X19458277Y-18430174D01*
X19458277Y-18430174D02*
X19477325Y-18420650D01*
X19477325Y-18420650D02*
X19515420Y-18420650D01*
X19515420Y-18420650D02*
X19534468Y-18430174D01*
X19534468Y-18430174D02*
X19543992Y-18449222D01*
X19543992Y-18449222D02*
X19543992Y-18468270D01*
X19543992Y-18468270D02*
X19448753Y-18487317D01*
X19620182Y-18544460D02*
X19639230Y-18553984D01*
X19639230Y-18553984D02*
X19677325Y-18553984D01*
X19677325Y-18553984D02*
X19696373Y-18544460D01*
X19696373Y-18544460D02*
X19705896Y-18525412D01*
X19705896Y-18525412D02*
X19705896Y-18515889D01*
X19705896Y-18515889D02*
X19696373Y-18496841D01*
X19696373Y-18496841D02*
X19677325Y-18487317D01*
X19677325Y-18487317D02*
X19648753Y-18487317D01*
X19648753Y-18487317D02*
X19629706Y-18477793D01*
X19629706Y-18477793D02*
X19620182Y-18458746D01*
X19620182Y-18458746D02*
X19620182Y-18449222D01*
X19620182Y-18449222D02*
X19629706Y-18430174D01*
X19629706Y-18430174D02*
X19648753Y-18420650D01*
X19648753Y-18420650D02*
X19677325Y-18420650D01*
X19677325Y-18420650D02*
X19696373Y-18430174D01*
X19772563Y-18630174D02*
X19782087Y-18620650D01*
X19782087Y-18620650D02*
X19801134Y-18592079D01*
X19801134Y-18592079D02*
X19810658Y-18573031D01*
X19810658Y-18573031D02*
X19820182Y-18544460D01*
X19820182Y-18544460D02*
X19829706Y-18496841D01*
X19829706Y-18496841D02*
X19829706Y-18458746D01*
X19829706Y-18458746D02*
X19820182Y-18411127D01*
X19820182Y-18411127D02*
X19810658Y-18382555D01*
X19810658Y-18382555D02*
X19801134Y-18363508D01*
X19801134Y-18363508D02*
X19782087Y-18334936D01*
X19782087Y-18334936D02*
X19772563Y-18325412D01*
X20134468Y-18630174D02*
X20124944Y-18620650D01*
X20124944Y-18620650D02*
X20105896Y-18592079D01*
X20105896Y-18592079D02*
X20096373Y-18573031D01*
X20096373Y-18573031D02*
X20086849Y-18544460D01*
X20086849Y-18544460D02*
X20077325Y-18496841D01*
X20077325Y-18496841D02*
X20077325Y-18458746D01*
X20077325Y-18458746D02*
X20086849Y-18411127D01*
X20086849Y-18411127D02*
X20096373Y-18382555D01*
X20096373Y-18382555D02*
X20105896Y-18363508D01*
X20105896Y-18363508D02*
X20124944Y-18334936D01*
X20124944Y-18334936D02*
X20134468Y-18325412D01*
X20210658Y-18420650D02*
X20210658Y-18553984D01*
X20210658Y-18439698D02*
X20220182Y-18430174D01*
X20220182Y-18430174D02*
X20239230Y-18420650D01*
X20239230Y-18420650D02*
X20267801Y-18420650D01*
X20267801Y-18420650D02*
X20286849Y-18430174D01*
X20286849Y-18430174D02*
X20296373Y-18449222D01*
X20296373Y-18449222D02*
X20296373Y-18553984D01*
X20420182Y-18553984D02*
X20401134Y-18544460D01*
X20401134Y-18544460D02*
X20391611Y-18534936D01*
X20391611Y-18534936D02*
X20382087Y-18515889D01*
X20382087Y-18515889D02*
X20382087Y-18458746D01*
X20382087Y-18458746D02*
X20391611Y-18439698D01*
X20391611Y-18439698D02*
X20401134Y-18430174D01*
X20401134Y-18430174D02*
X20420182Y-18420650D01*
X20420182Y-18420650D02*
X20448754Y-18420650D01*
X20448754Y-18420650D02*
X20467801Y-18430174D01*
X20467801Y-18430174D02*
X20477325Y-18439698D01*
X20477325Y-18439698D02*
X20486849Y-18458746D01*
X20486849Y-18458746D02*
X20486849Y-18515889D01*
X20486849Y-18515889D02*
X20477325Y-18534936D01*
X20477325Y-18534936D02*
X20467801Y-18544460D01*
X20467801Y-18544460D02*
X20448754Y-18553984D01*
X20448754Y-18553984D02*
X20420182Y-18553984D01*
X20543992Y-18420650D02*
X20620182Y-18420650D01*
X20572563Y-18353984D02*
X20572563Y-18525412D01*
X20572563Y-18525412D02*
X20582087Y-18544460D01*
X20582087Y-18544460D02*
X20601134Y-18553984D01*
X20601134Y-18553984D02*
X20620182Y-18553984D01*
X20839230Y-18420650D02*
X20839230Y-18620650D01*
X20839230Y-18430174D02*
X20858277Y-18420650D01*
X20858277Y-18420650D02*
X20896373Y-18420650D01*
X20896373Y-18420650D02*
X20915420Y-18430174D01*
X20915420Y-18430174D02*
X20924944Y-18439698D01*
X20924944Y-18439698D02*
X20934468Y-18458746D01*
X20934468Y-18458746D02*
X20934468Y-18515889D01*
X20934468Y-18515889D02*
X20924944Y-18534936D01*
X20924944Y-18534936D02*
X20915420Y-18544460D01*
X20915420Y-18544460D02*
X20896373Y-18553984D01*
X20896373Y-18553984D02*
X20858277Y-18553984D01*
X20858277Y-18553984D02*
X20839230Y-18544460D01*
X21048754Y-18553984D02*
X21029706Y-18544460D01*
X21029706Y-18544460D02*
X21020182Y-18525412D01*
X21020182Y-18525412D02*
X21020182Y-18353984D01*
X21210658Y-18553984D02*
X21210658Y-18449222D01*
X21210658Y-18449222D02*
X21201135Y-18430174D01*
X21201135Y-18430174D02*
X21182087Y-18420650D01*
X21182087Y-18420650D02*
X21143992Y-18420650D01*
X21143992Y-18420650D02*
X21124944Y-18430174D01*
X21210658Y-18544460D02*
X21191611Y-18553984D01*
X21191611Y-18553984D02*
X21143992Y-18553984D01*
X21143992Y-18553984D02*
X21124944Y-18544460D01*
X21124944Y-18544460D02*
X21115420Y-18525412D01*
X21115420Y-18525412D02*
X21115420Y-18506365D01*
X21115420Y-18506365D02*
X21124944Y-18487317D01*
X21124944Y-18487317D02*
X21143992Y-18477793D01*
X21143992Y-18477793D02*
X21191611Y-18477793D01*
X21191611Y-18477793D02*
X21210658Y-18468270D01*
X21277325Y-18420650D02*
X21353515Y-18420650D01*
X21305896Y-18353984D02*
X21305896Y-18525412D01*
X21305896Y-18525412D02*
X21315420Y-18544460D01*
X21315420Y-18544460D02*
X21334468Y-18553984D01*
X21334468Y-18553984D02*
X21353515Y-18553984D01*
X21496373Y-18544460D02*
X21477325Y-18553984D01*
X21477325Y-18553984D02*
X21439230Y-18553984D01*
X21439230Y-18553984D02*
X21420182Y-18544460D01*
X21420182Y-18544460D02*
X21410658Y-18525412D01*
X21410658Y-18525412D02*
X21410658Y-18449222D01*
X21410658Y-18449222D02*
X21420182Y-18430174D01*
X21420182Y-18430174D02*
X21439230Y-18420650D01*
X21439230Y-18420650D02*
X21477325Y-18420650D01*
X21477325Y-18420650D02*
X21496373Y-18430174D01*
X21496373Y-18430174D02*
X21505896Y-18449222D01*
X21505896Y-18449222D02*
X21505896Y-18468270D01*
X21505896Y-18468270D02*
X21410658Y-18487317D01*
X21677325Y-18553984D02*
X21677325Y-18353984D01*
X21677325Y-18544460D02*
X21658277Y-18553984D01*
X21658277Y-18553984D02*
X21620182Y-18553984D01*
X21620182Y-18553984D02*
X21601135Y-18544460D01*
X21601135Y-18544460D02*
X21591611Y-18534936D01*
X21591611Y-18534936D02*
X21582087Y-18515889D01*
X21582087Y-18515889D02*
X21582087Y-18458746D01*
X21582087Y-18458746D02*
X21591611Y-18439698D01*
X21591611Y-18439698D02*
X21601135Y-18430174D01*
X21601135Y-18430174D02*
X21620182Y-18420650D01*
X21620182Y-18420650D02*
X21658277Y-18420650D01*
X21658277Y-18420650D02*
X21677325Y-18430174D01*
X21753516Y-18630174D02*
X21763039Y-18620650D01*
X21763039Y-18620650D02*
X21782087Y-18592079D01*
X21782087Y-18592079D02*
X21791611Y-18573031D01*
X21791611Y-18573031D02*
X21801135Y-18544460D01*
X21801135Y-18544460D02*
X21810658Y-18496841D01*
X21810658Y-18496841D02*
X21810658Y-18458746D01*
X21810658Y-18458746D02*
X21801135Y-18411127D01*
X21801135Y-18411127D02*
X21791611Y-18382555D01*
X21791611Y-18382555D02*
X21782087Y-18363508D01*
X21782087Y-18363508D02*
X21763039Y-18334936D01*
X21763039Y-18334936D02*
X21753516Y-18325412D01*
M02*
