%TF.GenerationSoftware,KiCad,Pcbnew,8.0.2*%
%TF.CreationDate,2025-02-23T04:32:52+01:00*%
%TF.ProjectId,meas,6d656173-2e6b-4696-9361-645f70636258,1.0.0*%
%TF.SameCoordinates,Original*%
%TF.FileFunction,Paste,Top*%
%TF.FilePolarity,Positive*%
%FSLAX46Y46*%
G04 Gerber Fmt 4.6, Leading zero omitted, Abs format (unit mm)*
G04 Created by KiCad (PCBNEW 8.0.2) date 2025-02-23 04:32:52*
%MOMM*%
%LPD*%
G01*
G04 APERTURE LIST*
G04 Aperture macros list*
%AMRoundRect*
0 Rectangle with rounded corners*
0 $1 Rounding radius*
0 $2 $3 $4 $5 $6 $7 $8 $9 X,Y pos of 4 corners*
0 Add a 4 corners polygon primitive as box body*
4,1,4,$2,$3,$4,$5,$6,$7,$8,$9,$2,$3,0*
0 Add four circle primitives for the rounded corners*
1,1,$1+$1,$2,$3*
1,1,$1+$1,$4,$5*
1,1,$1+$1,$6,$7*
1,1,$1+$1,$8,$9*
0 Add four rect primitives between the rounded corners*
20,1,$1+$1,$2,$3,$4,$5,0*
20,1,$1+$1,$4,$5,$6,$7,0*
20,1,$1+$1,$6,$7,$8,$9,0*
20,1,$1+$1,$8,$9,$2,$3,0*%
%AMFreePoly0*
4,1,19,0.500000,-0.750000,0.000000,-0.750000,0.000000,-0.744911,-0.071157,-0.744911,-0.207708,-0.704816,-0.327430,-0.627875,-0.420627,-0.520320,-0.479746,-0.390866,-0.500000,-0.250000,-0.500000,0.250000,-0.479746,0.390866,-0.420627,0.520320,-0.327430,0.627875,-0.207708,0.704816,-0.071157,0.744911,0.000000,0.744911,0.000000,0.750000,0.500000,0.750000,0.500000,-0.750000,0.500000,-0.750000,
$1*%
%AMFreePoly1*
4,1,19,0.000000,0.744911,0.071157,0.744911,0.207708,0.704816,0.327430,0.627875,0.420627,0.520320,0.479746,0.390866,0.500000,0.250000,0.500000,-0.250000,0.479746,-0.390866,0.420627,-0.520320,0.327430,-0.627875,0.207708,-0.704816,0.071157,-0.744911,0.000000,-0.744911,0.000000,-0.750000,-0.500000,-0.750000,-0.500000,0.750000,0.000000,0.750000,0.000000,0.744911,0.000000,0.744911,
$1*%
G04 Aperture macros list end*
%ADD10C,0.000000*%
%ADD11RoundRect,0.150000X0.875000X0.150000X-0.875000X0.150000X-0.875000X-0.150000X0.875000X-0.150000X0*%
%ADD12RoundRect,0.250000X0.412500X1.100000X-0.412500X1.100000X-0.412500X-1.100000X0.412500X-1.100000X0*%
%ADD13RoundRect,0.250000X-0.475000X0.337500X-0.475000X-0.337500X0.475000X-0.337500X0.475000X0.337500X0*%
%ADD14RoundRect,0.225000X-0.375000X0.225000X-0.375000X-0.225000X0.375000X-0.225000X0.375000X0.225000X0*%
%ADD15RoundRect,0.250000X-1.075000X0.400000X-1.075000X-0.400000X1.075000X-0.400000X1.075000X0.400000X0*%
%ADD16RoundRect,0.375000X0.625000X0.375000X-0.625000X0.375000X-0.625000X-0.375000X0.625000X-0.375000X0*%
%ADD17RoundRect,0.500000X0.500000X1.400000X-0.500000X1.400000X-0.500000X-1.400000X0.500000X-1.400000X0*%
%ADD18RoundRect,0.250000X0.337500X0.475000X-0.337500X0.475000X-0.337500X-0.475000X0.337500X-0.475000X0*%
%ADD19RoundRect,0.250000X0.400000X1.075000X-0.400000X1.075000X-0.400000X-1.075000X0.400000X-1.075000X0*%
%ADD20RoundRect,0.426829X0.448171X-0.823171X0.448171X0.823171X-0.448171X0.823171X-0.448171X-0.823171X0*%
%ADD21RoundRect,0.250000X1.075000X-0.400000X1.075000X0.400000X-1.075000X0.400000X-1.075000X-0.400000X0*%
%ADD22RoundRect,0.250000X-0.412500X-0.650000X0.412500X-0.650000X0.412500X0.650000X-0.412500X0.650000X0*%
%ADD23RoundRect,0.250000X0.475000X-0.337500X0.475000X0.337500X-0.475000X0.337500X-0.475000X-0.337500X0*%
%ADD24RoundRect,0.225000X-0.225000X-0.375000X0.225000X-0.375000X0.225000X0.375000X-0.225000X0.375000X0*%
%ADD25RoundRect,0.237500X0.300000X0.237500X-0.300000X0.237500X-0.300000X-0.237500X0.300000X-0.237500X0*%
%ADD26RoundRect,0.426829X-0.823171X-0.448171X0.823171X-0.448171X0.823171X0.448171X-0.823171X0.448171X0*%
%ADD27RoundRect,0.237500X-0.237500X0.300000X-0.237500X-0.300000X0.237500X-0.300000X0.237500X0.300000X0*%
%ADD28RoundRect,0.426829X0.823171X0.448171X-0.823171X0.448171X-0.823171X-0.448171X0.823171X-0.448171X0*%
%ADD29RoundRect,0.250000X-0.400000X-1.075000X0.400000X-1.075000X0.400000X1.075000X-0.400000X1.075000X0*%
%ADD30RoundRect,0.426829X-0.448171X0.823171X-0.448171X-0.823171X0.448171X-0.823171X0.448171X0.823171X0*%
%ADD31RoundRect,0.250000X0.250000X-0.250000X0.250000X0.250000X-0.250000X0.250000X-0.250000X-0.250000X0*%
%ADD32RoundRect,0.250000X-0.412500X-1.100000X0.412500X-1.100000X0.412500X1.100000X-0.412500X1.100000X0*%
%ADD33RoundRect,0.250000X-0.337500X-0.475000X0.337500X-0.475000X0.337500X0.475000X-0.337500X0.475000X0*%
%ADD34RoundRect,0.250000X0.325000X0.450000X-0.325000X0.450000X-0.325000X-0.450000X0.325000X-0.450000X0*%
%ADD35RoundRect,0.250000X0.250000X0.250000X-0.250000X0.250000X-0.250000X-0.250000X0.250000X-0.250000X0*%
%ADD36RoundRect,0.100000X0.637500X0.100000X-0.637500X0.100000X-0.637500X-0.100000X0.637500X-0.100000X0*%
%ADD37RoundRect,0.250000X-1.750000X-1.000000X1.750000X-1.000000X1.750000X1.000000X-1.750000X1.000000X0*%
%ADD38FreePoly0,90.000000*%
%ADD39FreePoly1,90.000000*%
%ADD40RoundRect,0.250000X-0.850000X-0.350000X0.850000X-0.350000X0.850000X0.350000X-0.850000X0.350000X0*%
%ADD41RoundRect,0.250000X-1.275000X-1.125000X1.275000X-1.125000X1.275000X1.125000X-1.275000X1.125000X0*%
%ADD42RoundRect,0.250000X1.100000X-0.412500X1.100000X0.412500X-1.100000X0.412500X-1.100000X-0.412500X0*%
%ADD43RoundRect,0.250000X-1.100000X0.412500X-1.100000X-0.412500X1.100000X-0.412500X1.100000X0.412500X0*%
%ADD44RoundRect,0.250000X-0.250000X-0.250000X0.250000X-0.250000X0.250000X0.250000X-0.250000X0.250000X0*%
%ADD45RoundRect,0.150000X0.150000X-0.875000X0.150000X0.875000X-0.150000X0.875000X-0.150000X-0.875000X0*%
%ADD46RoundRect,0.150000X-0.150000X0.875000X-0.150000X-0.875000X0.150000X-0.875000X0.150000X0.875000X0*%
G04 APERTURE END LIST*
D10*
%TO.C,JP802*%
G36*
X154649000Y-121854000D02*
G01*
X153149000Y-121854000D01*
X153149000Y-120554000D01*
X154649000Y-120554000D01*
X154649000Y-121854000D01*
G37*
%TO.C,JP702*%
G36*
X187034000Y-121854000D02*
G01*
X185534000Y-121854000D01*
X185534000Y-120554000D01*
X187034000Y-120554000D01*
X187034000Y-121854000D01*
G37*
%TO.C,JP602*%
G36*
X219419000Y-121854000D02*
G01*
X217919000Y-121854000D01*
X217919000Y-120554000D01*
X219419000Y-120554000D01*
X219419000Y-121854000D01*
G37*
%TD*%
D11*
%TO.C,U401*%
X172265000Y-143287000D03*
X172265000Y-142017000D03*
X172265000Y-140747000D03*
X172265000Y-139477000D03*
X172265000Y-138207000D03*
X172265000Y-136937000D03*
X172265000Y-135667000D03*
X172265000Y-134397000D03*
X162965000Y-134397000D03*
X162965000Y-135667000D03*
X162965000Y-136937000D03*
X162965000Y-138207000D03*
X162965000Y-139477000D03*
X162965000Y-140747000D03*
X162965000Y-142017000D03*
X162965000Y-143287000D03*
%TD*%
D12*
%TO.C,C1003*%
X228867500Y-97440000D03*
X225742500Y-97440000D03*
%TD*%
D13*
%TO.C,C1204*%
X207620000Y-157489500D03*
X207620000Y-159564500D03*
%TD*%
D11*
%TO.C,U1301*%
X172265000Y-162972000D03*
X172265000Y-161702000D03*
X172265000Y-160432000D03*
X172265000Y-159162000D03*
X172265000Y-157892000D03*
X172265000Y-156622000D03*
X172265000Y-155352000D03*
X172265000Y-154082000D03*
X162965000Y-154082000D03*
X162965000Y-155352000D03*
X162965000Y-156622000D03*
X162965000Y-157892000D03*
X162965000Y-159162000D03*
X162965000Y-160432000D03*
X162965000Y-161702000D03*
X162965000Y-162972000D03*
%TD*%
D14*
%TO.C,D1003*%
X222860000Y-90202000D03*
X222860000Y-93502000D03*
%TD*%
D15*
%TO.C,R502*%
X188570000Y-80777000D03*
X188570000Y-83877000D03*
%TD*%
D16*
%TO.C,Q1001*%
X213945000Y-94025000D03*
X213945000Y-91725000D03*
D17*
X207645000Y-91725000D03*
D16*
X213945000Y-89425000D03*
%TD*%
D18*
%TO.C,C204*%
X222754500Y-143668000D03*
X220679500Y-143668000D03*
%TD*%
D19*
%TO.C,R308*%
X191390000Y-135032000D03*
X188290000Y-135032000D03*
%TD*%
D11*
%TO.C,U201*%
X237035000Y-143287000D03*
X237035000Y-142017000D03*
X237035000Y-140747000D03*
X237035000Y-139477000D03*
X237035000Y-138207000D03*
X237035000Y-136937000D03*
X237035000Y-135667000D03*
X237035000Y-134397000D03*
X227735000Y-134397000D03*
X227735000Y-135667000D03*
X227735000Y-136937000D03*
X227735000Y-138207000D03*
X227735000Y-139477000D03*
X227735000Y-140747000D03*
X227735000Y-142017000D03*
X227735000Y-143287000D03*
%TD*%
D20*
%TO.C,TP1302*%
X156185000Y-165512000D03*
%TD*%
D21*
%TO.C,R104*%
X212065000Y-70415000D03*
X212065000Y-67315000D03*
%TD*%
D22*
%TO.C,C704*%
X197782500Y-115093000D03*
X200907500Y-115093000D03*
%TD*%
D23*
%TO.C,C501*%
X177648000Y-82878000D03*
X177648000Y-80803000D03*
%TD*%
D12*
%TO.C,C1303*%
X172352500Y-150907000D03*
X169227500Y-150907000D03*
%TD*%
D24*
%TO.C,D1002*%
X186920000Y-66960000D03*
X190220000Y-66960000D03*
%TD*%
D25*
%TO.C,C802*%
X163651500Y-122713000D03*
X161926500Y-122713000D03*
%TD*%
D19*
%TO.C,R201*%
X243460000Y-146462000D03*
X240360000Y-146462000D03*
%TD*%
D20*
%TO.C,TP303*%
X213335000Y-138842000D03*
%TD*%
D26*
%TO.C,TP508*%
X175235000Y-105822000D03*
%TD*%
D25*
%TO.C,C603*%
X233806300Y-120782600D03*
X232081300Y-120782600D03*
%TD*%
D27*
%TO.C,C601*%
X222606000Y-114738500D03*
X222606000Y-116463500D03*
%TD*%
D20*
%TO.C,TP403*%
X180950000Y-138842000D03*
%TD*%
D15*
%TO.C,R504*%
X180950000Y-80777000D03*
X180950000Y-83877000D03*
%TD*%
D20*
%TO.C,TP203*%
X245720000Y-138842000D03*
%TD*%
D28*
%TO.C,TP701*%
X189078000Y-120935000D03*
%TD*%
D20*
%TO.C,TP202*%
X245720000Y-142652000D03*
%TD*%
D12*
%TO.C,C1203*%
X204737500Y-150907000D03*
X201612500Y-150907000D03*
%TD*%
D28*
%TO.C,TP802*%
X171425000Y-123475000D03*
%TD*%
D12*
%TO.C,C607*%
X238773500Y-117125000D03*
X235648500Y-117125000D03*
%TD*%
D29*
%TO.C,R702*%
X188798000Y-123729000D03*
X191898000Y-123729000D03*
%TD*%
D18*
%TO.C,C306*%
X190369500Y-132238000D03*
X188294500Y-132238000D03*
%TD*%
D13*
%TO.C,C502*%
X191745000Y-87258500D03*
X191745000Y-89333500D03*
%TD*%
D19*
%TO.C,R403*%
X178690000Y-138842000D03*
X175590000Y-138842000D03*
%TD*%
D30*
%TO.C,TP308*%
X186030000Y-129317000D03*
%TD*%
D26*
%TO.C,TP1003*%
X218415000Y-83470000D03*
%TD*%
D30*
%TO.C,TP206*%
X218415000Y-140747000D03*
%TD*%
D11*
%TO.C,U1101*%
X237035000Y-162972000D03*
X237035000Y-161702000D03*
X237035000Y-160432000D03*
X237035000Y-159162000D03*
X237035000Y-157892000D03*
X237035000Y-156622000D03*
X237035000Y-155352000D03*
X237035000Y-154082000D03*
X227735000Y-154082000D03*
X227735000Y-155352000D03*
X227735000Y-156622000D03*
X227735000Y-157892000D03*
X227735000Y-159162000D03*
X227735000Y-160432000D03*
X227735000Y-161702000D03*
X227735000Y-162972000D03*
%TD*%
D18*
%TO.C,C206*%
X222754500Y-132238000D03*
X220679500Y-132238000D03*
%TD*%
D19*
%TO.C,R206*%
X223775000Y-146462000D03*
X220675000Y-146462000D03*
%TD*%
D25*
%TO.C,C803*%
X169036300Y-120782600D03*
X167311300Y-120782600D03*
%TD*%
D20*
%TO.C,TP401*%
X180950000Y-146462000D03*
%TD*%
D31*
%TO.C,D1201*%
X189840000Y-159777000D03*
X189840000Y-157277000D03*
%TD*%
D26*
%TO.C,TP507*%
X180950000Y-105822000D03*
%TD*%
D18*
%TO.C,C305*%
X190369500Y-137953000D03*
X188294500Y-137953000D03*
%TD*%
D19*
%TO.C,R301*%
X211075000Y-146462000D03*
X207975000Y-146462000D03*
%TD*%
D28*
%TO.C,TP601*%
X221463000Y-120935000D03*
%TD*%
D13*
%TO.C,C1304*%
X175235000Y-157489500D03*
X175235000Y-159564500D03*
%TD*%
D21*
%TO.C,R505*%
X175235000Y-103562000D03*
X175235000Y-100462000D03*
%TD*%
D26*
%TO.C,TP902*%
X230480000Y-70770000D03*
%TD*%
D29*
%TO.C,R1201*%
X190830000Y-165512000D03*
X193930000Y-165512000D03*
%TD*%
D19*
%TO.C,R402*%
X178690000Y-142652000D03*
X175590000Y-142652000D03*
%TD*%
D25*
%TO.C,C706*%
X201370500Y-118182000D03*
X199645500Y-118182000D03*
%TD*%
D32*
%TO.C,C1101*%
X227647500Y-150907000D03*
X230772500Y-150907000D03*
%TD*%
D12*
%TO.C,C705*%
X206388500Y-120681000D03*
X203263500Y-120681000D03*
%TD*%
D13*
%TO.C,C1302*%
X159995000Y-157489500D03*
X159995000Y-159564500D03*
%TD*%
D19*
%TO.C,R408*%
X159005000Y-135032000D03*
X155905000Y-135032000D03*
%TD*%
D30*
%TO.C,TP307*%
X186030000Y-135032000D03*
%TD*%
D13*
%TO.C,C1102*%
X224765000Y-157489500D03*
X224765000Y-159564500D03*
%TD*%
D18*
%TO.C,C405*%
X157984500Y-137953000D03*
X155909500Y-137953000D03*
%TD*%
D29*
%TO.C,R603*%
X235661000Y-113823000D03*
X238761000Y-113823000D03*
%TD*%
%TO.C,R703*%
X203276000Y-113823000D03*
X206376000Y-113823000D03*
%TD*%
D18*
%TO.C,C202*%
X236978500Y-145827000D03*
X234903500Y-145827000D03*
%TD*%
D15*
%TO.C,R506*%
X192380000Y-100462000D03*
X192380000Y-103562000D03*
%TD*%
D30*
%TO.C,TP305*%
X186030000Y-146462000D03*
%TD*%
D25*
%TO.C,C806*%
X168985500Y-118182000D03*
X167260500Y-118182000D03*
%TD*%
D26*
%TO.C,TP1402*%
X155550000Y-80422000D03*
%TD*%
D30*
%TO.C,TP408*%
X153645000Y-129317000D03*
%TD*%
D18*
%TO.C,C302*%
X204593500Y-145827000D03*
X202518500Y-145827000D03*
%TD*%
D26*
%TO.C,TP506*%
X186665000Y-105822000D03*
%TD*%
D23*
%TO.C,C503*%
X191745000Y-96445500D03*
X191745000Y-94370500D03*
%TD*%
D19*
%TO.C,R203*%
X243460000Y-138842000D03*
X240360000Y-138842000D03*
%TD*%
D13*
%TO.C,C505*%
X183871000Y-101482500D03*
X183871000Y-103557500D03*
%TD*%
D29*
%TO.C,R602*%
X221183000Y-123729000D03*
X224283000Y-123729000D03*
%TD*%
D18*
%TO.C,C205*%
X222754500Y-137953000D03*
X220679500Y-137953000D03*
%TD*%
D31*
%TO.C,D1301*%
X157455000Y-159777000D03*
X157455000Y-157277000D03*
%TD*%
D33*
%TO.C,C201*%
X241359000Y-131730000D03*
X243434000Y-131730000D03*
%TD*%
D28*
%TO.C,TP501*%
X192380000Y-78517000D03*
%TD*%
D30*
%TO.C,TP406*%
X153645000Y-140747000D03*
%TD*%
D21*
%TO.C,R103*%
X208255000Y-70415000D03*
X208255000Y-67315000D03*
%TD*%
D19*
%TO.C,R701*%
X193422000Y-112299000D03*
X190322000Y-112299000D03*
%TD*%
D34*
%TO.C,D701*%
X195922500Y-124491000D03*
X193872500Y-124491000D03*
%TD*%
D19*
%TO.C,R407*%
X159005000Y-140747000D03*
X155905000Y-140747000D03*
%TD*%
D35*
%TO.C,D1001*%
X199726000Y-64928000D03*
X197226000Y-64928000D03*
%TD*%
D29*
%TO.C,R1302*%
X166065000Y-165512000D03*
X169165000Y-165512000D03*
%TD*%
D20*
%TO.C,TP404*%
X180950000Y-135032000D03*
%TD*%
%TO.C,TP1101*%
X228575000Y-165512000D03*
%TD*%
D18*
%TO.C,C406*%
X157984500Y-132238000D03*
X155909500Y-132238000D03*
%TD*%
D20*
%TO.C,TP402*%
X180950000Y-142652000D03*
%TD*%
D18*
%TO.C,C404*%
X157984500Y-143668000D03*
X155909500Y-143668000D03*
%TD*%
D12*
%TO.C,C1103*%
X237122500Y-150907000D03*
X233997500Y-150907000D03*
%TD*%
D15*
%TO.C,R1401*%
X155550000Y-82682000D03*
X155550000Y-85782000D03*
%TD*%
D19*
%TO.C,R208*%
X223775000Y-135032000D03*
X220675000Y-135032000D03*
%TD*%
D36*
%TO.C,U701*%
X197782500Y-121432000D03*
X197782500Y-120782000D03*
X197782500Y-120132000D03*
X197782500Y-119482000D03*
X197782500Y-118832000D03*
X197782500Y-118182000D03*
X197782500Y-117532000D03*
X197782500Y-116882000D03*
X192057500Y-116882000D03*
X192057500Y-117532000D03*
X192057500Y-118182000D03*
X192057500Y-118832000D03*
X192057500Y-119482000D03*
X192057500Y-120132000D03*
X192057500Y-120782000D03*
X192057500Y-121432000D03*
%TD*%
D30*
%TO.C,TP306*%
X186030000Y-140747000D03*
%TD*%
D34*
%TO.C,D601*%
X228307500Y-124491000D03*
X226257500Y-124491000D03*
%TD*%
D27*
%TO.C,C801*%
X157836000Y-114738500D03*
X157836000Y-116463500D03*
%TD*%
D37*
%TO.C,C1001*%
X194095000Y-71532000D03*
X202095000Y-71532000D03*
%TD*%
D20*
%TO.C,TP302*%
X213335000Y-142652000D03*
%TD*%
D29*
%TO.C,R405*%
X155905000Y-129317000D03*
X159005000Y-129317000D03*
%TD*%
D20*
%TO.C,TP204*%
X245720000Y-135032000D03*
%TD*%
D38*
%TO.C,JP802*%
X153899000Y-121854000D03*
D39*
X153899000Y-120554000D03*
%TD*%
D26*
%TO.C,TP1002*%
X201905000Y-79660000D03*
%TD*%
D20*
%TO.C,TP1201*%
X196190000Y-165512000D03*
%TD*%
D28*
%TO.C,TP504*%
X180950000Y-78517000D03*
%TD*%
D20*
%TO.C,TP301*%
X213335000Y-146462000D03*
%TD*%
D30*
%TO.C,TP205*%
X218415000Y-146462000D03*
%TD*%
D18*
%TO.C,C1404*%
X163572500Y-99472000D03*
X161497500Y-99472000D03*
%TD*%
D20*
%TO.C,TP1301*%
X163805000Y-165512000D03*
%TD*%
D12*
%TO.C,C707*%
X206388500Y-117125000D03*
X203263500Y-117125000D03*
%TD*%
D29*
%TO.C,R1301*%
X158445000Y-165512000D03*
X161545000Y-165512000D03*
%TD*%
D26*
%TO.C,TP703*%
X220320000Y-70770000D03*
%TD*%
D28*
%TO.C,TP702*%
X203810000Y-123475000D03*
%TD*%
D29*
%TO.C,R1202*%
X198450000Y-165512000D03*
X201550000Y-165512000D03*
%TD*%
D38*
%TO.C,JP702*%
X186284000Y-121854000D03*
D39*
X186284000Y-120554000D03*
%TD*%
D20*
%TO.C,TP304*%
X213335000Y-135032000D03*
%TD*%
D36*
%TO.C,U601*%
X230167500Y-121432000D03*
X230167500Y-120782000D03*
X230167500Y-120132000D03*
X230167500Y-119482000D03*
X230167500Y-118832000D03*
X230167500Y-118182000D03*
X230167500Y-117532000D03*
X230167500Y-116882000D03*
X224442500Y-116882000D03*
X224442500Y-117532000D03*
X224442500Y-118182000D03*
X224442500Y-118832000D03*
X224442500Y-119482000D03*
X224442500Y-120132000D03*
X224442500Y-120782000D03*
X224442500Y-121432000D03*
%TD*%
D29*
%TO.C,R803*%
X170891000Y-113823000D03*
X173991000Y-113823000D03*
%TD*%
D15*
%TO.C,R501*%
X192380000Y-80777000D03*
X192380000Y-83877000D03*
%TD*%
D40*
%TO.C,U1001*%
X226075000Y-89572000D03*
D41*
X230700000Y-90327000D03*
X230700000Y-93377000D03*
X234050000Y-90327000D03*
X234050000Y-93377000D03*
D40*
X226075000Y-94132000D03*
%TD*%
D11*
%TO.C,U1201*%
X204650000Y-162972000D03*
X204650000Y-161702000D03*
X204650000Y-160432000D03*
X204650000Y-159162000D03*
X204650000Y-157892000D03*
X204650000Y-156622000D03*
X204650000Y-155352000D03*
X204650000Y-154082000D03*
X195350000Y-154082000D03*
X195350000Y-155352000D03*
X195350000Y-156622000D03*
X195350000Y-157892000D03*
X195350000Y-159162000D03*
X195350000Y-160432000D03*
X195350000Y-161702000D03*
X195350000Y-162972000D03*
%TD*%
D12*
%TO.C,C805*%
X174003500Y-120681000D03*
X170878500Y-120681000D03*
%TD*%
D22*
%TO.C,C604*%
X230167500Y-115093000D03*
X233292500Y-115093000D03*
%TD*%
D19*
%TO.C,R804*%
X168497500Y-112299000D03*
X165397500Y-112299000D03*
%TD*%
D26*
%TO.C,TP603*%
X243815000Y-72675000D03*
%TD*%
D42*
%TO.C,C1403*%
X170155000Y-96589500D03*
X170155000Y-93464500D03*
%TD*%
D13*
%TO.C,C1104*%
X240005000Y-157489500D03*
X240005000Y-159564500D03*
%TD*%
D25*
%TO.C,C703*%
X201421300Y-120782600D03*
X199696300Y-120782600D03*
%TD*%
D19*
%TO.C,R302*%
X211075000Y-142652000D03*
X207975000Y-142652000D03*
%TD*%
D12*
%TO.C,C605*%
X238773500Y-120681000D03*
X235648500Y-120681000D03*
%TD*%
D19*
%TO.C,R202*%
X243460000Y-142652000D03*
X240360000Y-142652000D03*
%TD*%
D20*
%TO.C,TP201*%
X245720000Y-146462000D03*
%TD*%
D19*
%TO.C,R303*%
X211075000Y-138842000D03*
X207975000Y-138842000D03*
%TD*%
D43*
%TO.C,C1401*%
X170155000Y-87114500D03*
X170155000Y-90239500D03*
%TD*%
D19*
%TO.C,R207*%
X223775000Y-140747000D03*
X220675000Y-140747000D03*
%TD*%
%TO.C,R601*%
X225807000Y-112299000D03*
X222707000Y-112299000D03*
%TD*%
%TO.C,R307*%
X191390000Y-140747000D03*
X188290000Y-140747000D03*
%TD*%
D28*
%TO.C,TP502*%
X188570000Y-78517000D03*
%TD*%
D30*
%TO.C,TP405*%
X153645000Y-146462000D03*
%TD*%
D28*
%TO.C,TP801*%
X156693000Y-120935000D03*
%TD*%
D30*
%TO.C,TP207*%
X218415000Y-135032000D03*
%TD*%
D36*
%TO.C,U801*%
X165397500Y-121432000D03*
X165397500Y-120782000D03*
X165397500Y-120132000D03*
X165397500Y-119482000D03*
X165397500Y-118832000D03*
X165397500Y-118182000D03*
X165397500Y-117532000D03*
X165397500Y-116882000D03*
X159672500Y-116882000D03*
X159672500Y-117532000D03*
X159672500Y-118182000D03*
X159672500Y-118832000D03*
X159672500Y-119482000D03*
X159672500Y-120132000D03*
X159672500Y-120782000D03*
X159672500Y-121432000D03*
%TD*%
D28*
%TO.C,TP503*%
X184760000Y-78517000D03*
%TD*%
D19*
%TO.C,R204*%
X243460000Y-135032000D03*
X240360000Y-135032000D03*
%TD*%
D31*
%TO.C,D1101*%
X222225000Y-159777000D03*
X222225000Y-157277000D03*
%TD*%
D29*
%TO.C,R802*%
X156413000Y-123729000D03*
X159513000Y-123729000D03*
%TD*%
D15*
%TO.C,R508*%
X180950000Y-100462000D03*
X180950000Y-103562000D03*
%TD*%
D25*
%TO.C,C1002*%
X228167500Y-87280000D03*
X226442500Y-87280000D03*
%TD*%
D19*
%TO.C,R401*%
X178690000Y-146462000D03*
X175590000Y-146462000D03*
%TD*%
D33*
%TO.C,C301*%
X208974000Y-131730000D03*
X211049000Y-131730000D03*
%TD*%
D32*
%TO.C,C1201*%
X195262500Y-150907000D03*
X198387500Y-150907000D03*
%TD*%
%TO.C,C1301*%
X162877500Y-150907000D03*
X166002500Y-150907000D03*
%TD*%
D20*
%TO.C,TP1202*%
X188570000Y-165512000D03*
%TD*%
D28*
%TO.C,TP1004*%
X207620000Y-96805000D03*
%TD*%
D33*
%TO.C,C303*%
X195406500Y-145827000D03*
X197481500Y-145827000D03*
%TD*%
D19*
%TO.C,R406*%
X159005000Y-146462000D03*
X155905000Y-146462000D03*
%TD*%
D35*
%TO.C,D102*%
X211410000Y-64928000D03*
X208910000Y-64928000D03*
%TD*%
D44*
%TO.C,D1401*%
X161285000Y-81692000D03*
X163785000Y-81692000D03*
%TD*%
D33*
%TO.C,C401*%
X176589000Y-131730000D03*
X178664000Y-131730000D03*
%TD*%
D18*
%TO.C,C304*%
X190369500Y-143668000D03*
X188294500Y-143668000D03*
%TD*%
D12*
%TO.C,C807*%
X174003500Y-117125000D03*
X170878500Y-117125000D03*
%TD*%
D29*
%TO.C,R205*%
X220675000Y-129317000D03*
X223775000Y-129317000D03*
%TD*%
D19*
%TO.C,R404*%
X178690000Y-135032000D03*
X175590000Y-135032000D03*
%TD*%
D18*
%TO.C,C1402*%
X163572500Y-84232000D03*
X161497500Y-84232000D03*
%TD*%
D15*
%TO.C,R102*%
X243815000Y-67315000D03*
X243815000Y-70415000D03*
%TD*%
D45*
%TO.C,U1401*%
X158090000Y-96502000D03*
X159360000Y-96502000D03*
X160630000Y-96502000D03*
X161900000Y-96502000D03*
X163170000Y-96502000D03*
X164440000Y-96502000D03*
X165710000Y-96502000D03*
X166980000Y-96502000D03*
X166980000Y-87202000D03*
X165710000Y-87202000D03*
X164440000Y-87202000D03*
X163170000Y-87202000D03*
X161900000Y-87202000D03*
X160630000Y-87202000D03*
X159360000Y-87202000D03*
X158090000Y-87202000D03*
%TD*%
D33*
%TO.C,C203*%
X227791500Y-145827000D03*
X229866500Y-145827000D03*
%TD*%
D19*
%TO.C,R306*%
X191390000Y-146462000D03*
X188290000Y-146462000D03*
%TD*%
D25*
%TO.C,C606*%
X233755500Y-118182000D03*
X232030500Y-118182000D03*
%TD*%
D29*
%TO.C,R305*%
X188290000Y-129317000D03*
X191390000Y-129317000D03*
%TD*%
D33*
%TO.C,C403*%
X163021500Y-145827000D03*
X165096500Y-145827000D03*
%TD*%
D15*
%TO.C,R503*%
X184760000Y-80777000D03*
X184760000Y-83877000D03*
%TD*%
D26*
%TO.C,TP1401*%
X155550000Y-88042000D03*
%TD*%
D29*
%TO.C,R1102*%
X230835000Y-165512000D03*
X233935000Y-165512000D03*
%TD*%
D19*
%TO.C,R304*%
X211075000Y-135032000D03*
X207975000Y-135032000D03*
%TD*%
D15*
%TO.C,R1001*%
X218415000Y-90175000D03*
X218415000Y-93275000D03*
%TD*%
%TO.C,R101*%
X240005000Y-67315000D03*
X240005000Y-70415000D03*
%TD*%
D19*
%TO.C,R604*%
X233267500Y-112299000D03*
X230167500Y-112299000D03*
%TD*%
D25*
%TO.C,C602*%
X228421500Y-122713000D03*
X226696500Y-122713000D03*
%TD*%
D18*
%TO.C,C402*%
X172208500Y-145827000D03*
X170133500Y-145827000D03*
%TD*%
D22*
%TO.C,C804*%
X165397500Y-115093000D03*
X168522500Y-115093000D03*
%TD*%
D15*
%TO.C,R1402*%
X155550000Y-90302000D03*
X155550000Y-93402000D03*
%TD*%
D27*
%TO.C,C701*%
X190221000Y-114738500D03*
X190221000Y-116463500D03*
%TD*%
D13*
%TO.C,C506*%
X178156000Y-101482500D03*
X178156000Y-103557500D03*
%TD*%
D26*
%TO.C,TP505*%
X192380000Y-105822000D03*
%TD*%
D34*
%TO.C,D801*%
X163537500Y-124491000D03*
X161487500Y-124491000D03*
%TD*%
D30*
%TO.C,TP208*%
X218415000Y-129317000D03*
%TD*%
D29*
%TO.C,R1101*%
X223215000Y-165512000D03*
X226315000Y-165512000D03*
%TD*%
D26*
%TO.C,TP803*%
X212065000Y-72675000D03*
%TD*%
D15*
%TO.C,R507*%
X186665000Y-100462000D03*
X186665000Y-103562000D03*
%TD*%
D30*
%TO.C,TP407*%
X153645000Y-135032000D03*
%TD*%
D19*
%TO.C,R801*%
X161037000Y-112299000D03*
X157937000Y-112299000D03*
%TD*%
D11*
%TO.C,U301*%
X204650000Y-143287000D03*
X204650000Y-142017000D03*
X204650000Y-140747000D03*
X204650000Y-139477000D03*
X204650000Y-138207000D03*
X204650000Y-136937000D03*
X204650000Y-135667000D03*
X204650000Y-134397000D03*
X195350000Y-134397000D03*
X195350000Y-135667000D03*
X195350000Y-136937000D03*
X195350000Y-138207000D03*
X195350000Y-139477000D03*
X195350000Y-140747000D03*
X195350000Y-142017000D03*
X195350000Y-143287000D03*
%TD*%
D13*
%TO.C,C504*%
X189586000Y-101482500D03*
X189586000Y-103557500D03*
%TD*%
D35*
%TO.C,D101*%
X243033000Y-64928000D03*
X240533000Y-64928000D03*
%TD*%
D38*
%TO.C,JP602*%
X218669000Y-121854000D03*
D39*
X218669000Y-120554000D03*
%TD*%
D25*
%TO.C,C702*%
X196036500Y-122713000D03*
X194311500Y-122713000D03*
%TD*%
D28*
%TO.C,TP602*%
X236195000Y-123475000D03*
%TD*%
D20*
%TO.C,TP1102*%
X220955000Y-165512000D03*
%TD*%
D19*
%TO.C,R704*%
X200882500Y-112299000D03*
X197782500Y-112299000D03*
%TD*%
D13*
%TO.C,C1202*%
X192380000Y-157489500D03*
X192380000Y-159564500D03*
%TD*%
D46*
%TO.C,U501*%
X189205000Y-87202000D03*
X187935000Y-87202000D03*
X186665000Y-87202000D03*
X185395000Y-87202000D03*
X184125000Y-87202000D03*
X182855000Y-87202000D03*
X181585000Y-87202000D03*
X180315000Y-87202000D03*
X180315000Y-96502000D03*
X181585000Y-96502000D03*
X182855000Y-96502000D03*
X184125000Y-96502000D03*
X185395000Y-96502000D03*
X186665000Y-96502000D03*
X187935000Y-96502000D03*
X189205000Y-96502000D03*
%TD*%
M02*
