%TF.GenerationSoftware,KiCad,Pcbnew,8.0.2*%
%TF.CreationDate,2025-02-23T04:32:52+01:00*%
%TF.ProjectId,meas,6d656173-2e6b-4696-9361-645f70636258,1.0.0*%
%TF.SameCoordinates,Original*%
%TF.FileFunction,Copper,L2,Bot*%
%TF.FilePolarity,Positive*%
%FSLAX46Y46*%
G04 Gerber Fmt 4.6, Leading zero omitted, Abs format (unit mm)*
G04 Created by KiCad (PCBNEW 8.0.2) date 2025-02-23 04:32:52*
%MOMM*%
%LPD*%
G01*
G04 APERTURE LIST*
G04 Aperture macros list*
%AMRoundRect*
0 Rectangle with rounded corners*
0 $1 Rounding radius*
0 $2 $3 $4 $5 $6 $7 $8 $9 X,Y pos of 4 corners*
0 Add a 4 corners polygon primitive as box body*
4,1,4,$2,$3,$4,$5,$6,$7,$8,$9,$2,$3,0*
0 Add four circle primitives for the rounded corners*
1,1,$1+$1,$2,$3*
1,1,$1+$1,$4,$5*
1,1,$1+$1,$6,$7*
1,1,$1+$1,$8,$9*
0 Add four rect primitives between the rounded corners*
20,1,$1+$1,$2,$3,$4,$5,0*
20,1,$1+$1,$4,$5,$6,$7,0*
20,1,$1+$1,$6,$7,$8,$9,0*
20,1,$1+$1,$8,$9,$2,$3,0*%
G04 Aperture macros list end*
%TA.AperFunction,ComponentPad*%
%ADD10C,2.200000*%
%TD*%
%TA.AperFunction,ComponentPad*%
%ADD11C,2.162000*%
%TD*%
%TA.AperFunction,SMDPad,CuDef*%
%ADD12RoundRect,0.150000X-0.150000X0.825000X-0.150000X-0.825000X0.150000X-0.825000X0.150000X0.825000X0*%
%TD*%
%TA.AperFunction,SMDPad,CuDef*%
%ADD13RoundRect,0.250000X0.475000X-0.337500X0.475000X0.337500X-0.475000X0.337500X-0.475000X-0.337500X0*%
%TD*%
%TA.AperFunction,SMDPad,CuDef*%
%ADD14RoundRect,0.250000X-0.337500X-0.475000X0.337500X-0.475000X0.337500X0.475000X-0.337500X0.475000X0*%
%TD*%
%TA.AperFunction,ViaPad*%
%ADD15C,0.500000*%
%TD*%
%TA.AperFunction,ViaPad*%
%ADD16C,0.450000*%
%TD*%
%TA.AperFunction,Conductor*%
%ADD17C,0.508000*%
%TD*%
%TA.AperFunction,Conductor*%
%ADD18C,1.270000*%
%TD*%
%TA.AperFunction,Conductor*%
%ADD19C,0.254000*%
%TD*%
G04 APERTURE END LIST*
D10*
%TO.P,F1002,1*%
%TO.N,+24V*%
X187250000Y-61400000D03*
X189750000Y-61400000D03*
X187250000Y-57900000D03*
X189750000Y-57900000D03*
%TO.P,F1002,2*%
%TO.N,/power/IN*%
X187250000Y-52100000D03*
X189750000Y-52100000D03*
X187250000Y-48600000D03*
X189750000Y-48600000D03*
%TD*%
%TO.P,F101,1*%
%TO.N,Net-(J104-Pin_2)*%
X221250000Y-48600000D03*
X218750000Y-48600000D03*
X221250000Y-52100000D03*
X218750000Y-52100000D03*
%TO.P,F101,2*%
%TO.N,/i-transduce/in*%
X221250000Y-57900000D03*
X218750000Y-57900000D03*
X221250000Y-61400000D03*
X218750000Y-61400000D03*
%TD*%
D11*
%TO.P,J105,1,Pin_1*%
%TO.N,/GND_ISO_T*%
X212750000Y-61200000D03*
X212750000Y-52500000D03*
%TO.P,J105,2,Pin_2*%
%TO.N,Net-(D102-A2)*%
X207670000Y-61200000D03*
X207670000Y-52500000D03*
%TD*%
%TO.P,J101,1,Pin_1*%
%TO.N,/digital-interface3/GND_MASTER*%
X181500000Y-61200000D03*
X181500000Y-52500000D03*
%TO.P,J101,2,Pin_2*%
%TO.N,/digital-interface3/~{CS_MASTER}*%
X176420000Y-61200000D03*
X176420000Y-52500000D03*
%TO.P,J101,3,Pin_3*%
%TO.N,/digital-interface3/SCKL_MASTER*%
X171340000Y-61200000D03*
X171340000Y-52500000D03*
%TO.P,J101,4,Pin_4*%
%TO.N,/digital-interface3/SDI_MASTER*%
X166260000Y-61200000D03*
X166260000Y-52500000D03*
%TO.P,J101,5,Pin_5*%
%TO.N,/digital-interface3/SDO_MASTER*%
X161180000Y-61200000D03*
X161180000Y-52500000D03*
%TO.P,J101,6,Pin_6*%
%TO.N,unconnected-(J101-Pin_6-Pad6)*%
X156100000Y-61200000D03*
X156100000Y-52500000D03*
%TD*%
%TO.P,J104,1,Pin_1*%
%TO.N,/i-transduce/out*%
X232500000Y-61200000D03*
X232500000Y-52500000D03*
%TO.P,J104,2,Pin_2*%
%TO.N,Net-(J104-Pin_2)*%
X227420000Y-61200000D03*
X227420000Y-52500000D03*
%TD*%
%TO.P,J103,1,Pin_1*%
%TO.N,/GND_ISO_U*%
X244250000Y-61200000D03*
X244250000Y-52500000D03*
%TO.P,J103,2,Pin_2*%
%TO.N,Net-(D101-A2)*%
X239170000Y-61200000D03*
X239170000Y-52500000D03*
%TD*%
%TO.P,J102,1,Pin_1*%
%TO.N,GND*%
X201000000Y-61200000D03*
X201000000Y-52500000D03*
%TO.P,J102,2,Pin_2*%
%TO.N,/power/IN*%
X195920000Y-61200000D03*
X195920000Y-52500000D03*
%TD*%
D12*
%TO.P,U901,1,IP+*%
%TO.N,/i-transduce/in*%
X222860000Y-64485000D03*
%TO.P,U901,2,IP+*%
X224130000Y-64485000D03*
%TO.P,U901,3,IP-*%
%TO.N,/i-transduce/out*%
X225400000Y-64485000D03*
%TO.P,U901,4,IP-*%
X226670000Y-64485000D03*
%TO.P,U901,5,GND*%
%TO.N,/GND_ISO_I*%
X226670000Y-69435000D03*
%TO.P,U901,6,VZCR*%
%TO.N,/i-transduce/vzcr*%
X225400000Y-69435000D03*
%TO.P,U901,7,VIOUT*%
%TO.N,/adc1/AIN_P*%
X224130000Y-69435000D03*
%TO.P,U901,8,VCC*%
%TO.N,/+5VA_ISO_I*%
X222860000Y-69435000D03*
%TD*%
D13*
%TO.P,C901,1*%
%TO.N,/GND_ISO_I*%
X229210000Y-69775500D03*
%TO.P,C901,2*%
%TO.N,/+5VA_ISO_I*%
X229210000Y-67700500D03*
%TD*%
D14*
%TO.P,C902,1*%
%TO.N,/i-transduce/vzcr*%
X225532500Y-72675000D03*
%TO.P,C902,2*%
%TO.N,/GND_ISO_I*%
X227607500Y-72675000D03*
%TD*%
D15*
%TO.N,/GND_ISO_U*%
X221463000Y-114712000D03*
D16*
X224130000Y-132238000D03*
X226035000Y-134397000D03*
D15*
X227432000Y-114712000D03*
D16*
X226035000Y-150907000D03*
X230480000Y-110267000D03*
X226162000Y-145827000D03*
X226035000Y-162337000D03*
X226035000Y-157257000D03*
X246990000Y-110267000D03*
D15*
%TO.N,/+5VA_ISO_U*%
X225527000Y-122713000D03*
X232030500Y-122713000D03*
D16*
%TO.N,GND*%
X158725000Y-98202000D03*
X236195000Y-88550000D03*
X159360000Y-105060000D03*
X188570000Y-112680000D03*
X212700000Y-105060000D03*
X235560000Y-107600000D03*
X234290000Y-96170000D03*
X169520000Y-105060000D03*
X209525000Y-142652000D03*
X173965000Y-157257000D03*
X236830000Y-90455000D03*
X177140000Y-112680000D03*
X206223000Y-145827000D03*
X184125000Y-115855000D03*
X209525000Y-138842000D03*
X178156000Y-100107000D03*
X238735000Y-134397000D03*
X173965000Y-150907000D03*
X238100000Y-41560000D03*
X236830000Y-92995000D03*
X173965000Y-162337000D03*
X206350000Y-157257000D03*
X232385000Y-95535000D03*
X207620000Y-102520000D03*
X180315000Y-98202000D03*
X156820000Y-105060000D03*
X177140000Y-122840000D03*
X236830000Y-94265000D03*
X236195000Y-92360000D03*
X231115000Y-95535000D03*
X206350000Y-150907000D03*
X241910000Y-146462000D03*
X218415000Y-124110000D03*
X243180000Y-107600000D03*
X161900000Y-105060000D03*
X240640000Y-107600000D03*
X234925000Y-87915000D03*
X236195000Y-89820000D03*
X177140000Y-138842000D03*
X191745000Y-98075000D03*
X238735000Y-150907000D03*
X177140000Y-110140000D03*
X163805000Y-98202000D03*
X236830000Y-91725000D03*
X238608000Y-145827000D03*
X177140000Y-120300000D03*
X233655000Y-87915000D03*
X232385000Y-87915000D03*
X164440000Y-105060000D03*
X241910000Y-142652000D03*
X166980000Y-105060000D03*
X212700000Y-102520000D03*
X240640000Y-112680000D03*
X233020000Y-96170000D03*
X245720000Y-41560000D03*
X234290000Y-87280000D03*
X177140000Y-146462000D03*
X206350000Y-162337000D03*
X236195000Y-91090000D03*
X231750000Y-87280000D03*
X233020000Y-87280000D03*
X238735000Y-157257000D03*
X238735000Y-162337000D03*
X238100000Y-107600000D03*
X177140000Y-117760000D03*
X173965000Y-134397000D03*
X207620000Y-99980000D03*
X170155000Y-98202000D03*
X207620000Y-105060000D03*
X173838000Y-145827000D03*
X243180000Y-112680000D03*
X236830000Y-89185000D03*
X206350000Y-134397000D03*
X240640000Y-41560000D03*
X236195000Y-94900000D03*
X231115000Y-87915000D03*
X234925000Y-95535000D03*
X231750000Y-96170000D03*
X209525000Y-146462000D03*
X212700000Y-99980000D03*
X177140000Y-115220000D03*
X241910000Y-138842000D03*
X236195000Y-93630000D03*
X233655000Y-95535000D03*
X243180000Y-41560000D03*
X245720000Y-112680000D03*
X177140000Y-142652000D03*
%TO.N,/SDIO1*%
X243460000Y-133000000D03*
X212680000Y-136937000D03*
%TO.N,+5VA*%
X209525000Y-91725000D03*
X170155000Y-126777000D03*
X210795000Y-91725000D03*
X202540000Y-126777000D03*
X209525000Y-126777000D03*
X168250000Y-126777000D03*
X212065000Y-91725000D03*
X233020000Y-126777000D03*
X193650000Y-94265000D03*
X212065000Y-126777000D03*
X193650000Y-92995000D03*
X234925000Y-126777000D03*
X210795000Y-126777000D03*
X201270000Y-126777000D03*
%TO.N,/adc/SDI*%
X216891000Y-117532000D03*
X216764000Y-119665000D03*
%TO.N,/+5VA_ISO_I*%
X222860000Y-72040000D03*
X198222000Y-86645000D03*
D15*
X193142000Y-122713000D03*
D16*
X222860000Y-86645000D03*
D15*
X199645500Y-122713000D03*
D16*
%TO.N,/GND_ISO_I*%
X191745000Y-132238000D03*
X185395000Y-123221000D03*
X223622000Y-74580000D03*
X197460000Y-85883000D03*
X193777000Y-145827000D03*
X185395000Y-116617000D03*
X223622000Y-85883000D03*
X193650000Y-134397000D03*
%TO.N,/SDIO2*%
X211075000Y-133000000D03*
X180295000Y-136937000D03*
%TO.N,/adc1/SDI*%
X184125000Y-117626800D03*
X184200086Y-119486086D03*
D15*
%TO.N,/+5VA_ISO_T*%
X167260500Y-122713000D03*
X160757000Y-122713000D03*
D16*
%TO.N,/GND_ISO_T*%
X161265000Y-134397000D03*
X208128000Y-124491000D03*
X214351000Y-84359000D03*
X199873000Y-84359000D03*
D15*
X156693000Y-114712000D03*
D16*
X159360000Y-132238000D03*
X165329000Y-124491000D03*
X161265000Y-150907000D03*
D15*
X162662000Y-114712000D03*
D16*
X161265000Y-162337000D03*
X161392000Y-145827000D03*
X161265000Y-157257000D03*
%TO.N,/adc2/CONVST{slash}~{CS}*%
X153010000Y-143668000D03*
X153010000Y-118649000D03*
%TO.N,/adc2/SCKL*%
X153772000Y-137953000D03*
X153772000Y-119030000D03*
%TO.N,/adc2/SDI*%
X154534000Y-117626800D03*
X154534000Y-132238000D03*
%TO.N,/digital-interface3/GND_MASTER*%
X170155000Y-85502000D03*
X163805000Y-85502000D03*
X184760000Y-82327000D03*
X188570000Y-82327000D03*
X158725000Y-85502000D03*
X180315000Y-85502000D03*
X192380000Y-82327000D03*
X191745000Y-85629000D03*
%TO.N,/~{CS}*%
X182474000Y-128936000D03*
X214732000Y-128936000D03*
X245085000Y-144557000D03*
%TO.N,/SCKL*%
X245065000Y-140747000D03*
X181712000Y-128047000D03*
X213970000Y-128047000D03*
%TO.N,/SDI*%
X180950000Y-125380000D03*
X246355000Y-136937000D03*
%TO.N,/i-transduce/vzcr*%
X225532500Y-71156500D03*
%TO.N,+24V*%
X196190000Y-87915000D03*
X213970000Y-87915000D03*
%TO.N,/i-transduce/in*%
X217780000Y-59340000D03*
X222860000Y-66325000D03*
X221590000Y-64420000D03*
X220955000Y-65055000D03*
X221590000Y-65055000D03*
X220320000Y-64420000D03*
X220955000Y-63785000D03*
X220955000Y-64420000D03*
X224130000Y-66325000D03*
X222860000Y-59340000D03*
X222860000Y-61880000D03*
X222225000Y-63150000D03*
X224130000Y-63150000D03*
X222860000Y-56800000D03*
X222860000Y-63150000D03*
X221590000Y-63150000D03*
X223495000Y-66325000D03*
X217780000Y-64420000D03*
X221590000Y-63785000D03*
%TO.N,Net-(J104-Pin_2)*%
X220320000Y-41560000D03*
X227940000Y-59340000D03*
X227940000Y-54260000D03*
X227940000Y-56800000D03*
X227940000Y-41560000D03*
X225400000Y-44100000D03*
X217780000Y-46640000D03*
X222860000Y-44100000D03*
X217780000Y-41560000D03*
X225400000Y-46640000D03*
X222860000Y-51720000D03*
X225400000Y-51720000D03*
X227940000Y-49180000D03*
X222860000Y-49180000D03*
X220320000Y-46640000D03*
X225400000Y-59340000D03*
X220320000Y-44100000D03*
X225400000Y-49180000D03*
X217780000Y-54260000D03*
X227940000Y-46640000D03*
X225400000Y-56800000D03*
X225400000Y-41560000D03*
X225400000Y-54260000D03*
X222860000Y-54260000D03*
X222860000Y-41560000D03*
X217780000Y-44100000D03*
X222860000Y-46640000D03*
X227940000Y-44100000D03*
%TO.N,/i-transduce/out*%
X230480000Y-64420000D03*
X233020000Y-41560000D03*
X227940000Y-65055000D03*
X227940000Y-63785000D03*
X227305000Y-63150000D03*
X230480000Y-41560000D03*
X228575000Y-63785000D03*
X233020000Y-49180000D03*
X233020000Y-64420000D03*
X230480000Y-51720000D03*
X230480000Y-56800000D03*
X230480000Y-59340000D03*
X225400000Y-63150000D03*
X228575000Y-65055000D03*
X226670000Y-63150000D03*
X233020000Y-59340000D03*
X225400000Y-66325000D03*
X228575000Y-64420000D03*
X226035000Y-66325000D03*
X227940000Y-63150000D03*
X230480000Y-49180000D03*
X230480000Y-61880000D03*
X227940000Y-64420000D03*
X230480000Y-54260000D03*
X230480000Y-44100000D03*
X229210000Y-64420000D03*
X233020000Y-46640000D03*
X233020000Y-44100000D03*
X233020000Y-56800000D03*
X230480000Y-46640000D03*
X226670000Y-66325000D03*
X233020000Y-54260000D03*
%TO.N,/adc/AIN_P*%
X238862000Y-111029000D03*
X246101000Y-111029000D03*
%TO.N,/adc2/AIN_P*%
X200635000Y-83597000D03*
X173965000Y-108362000D03*
X213589000Y-83597000D03*
X198984000Y-108362000D03*
%TO.N,/adc2/SDO-0*%
X155296000Y-119538000D03*
X155296000Y-126777000D03*
%TO.N,/adc1/AIN_P*%
X222098000Y-85121000D03*
X224130000Y-71405000D03*
X198984000Y-85121000D03*
%TO.N,/adc1/GND_ADC*%
X200000000Y-150907000D03*
X193650000Y-162337000D03*
X193650000Y-150907000D03*
X193650000Y-157257000D03*
D15*
X189078000Y-114712000D03*
X195047000Y-114712000D03*
%TD*%
D17*
%TO.N,/GND_ISO_U*%
X226035000Y-134397000D02*
X226035000Y-134143000D01*
X226035000Y-134397000D02*
X226035000Y-145700000D01*
X226035000Y-134143000D02*
X224130000Y-132238000D01*
X221463000Y-114712000D02*
X227432000Y-114712000D01*
X226035000Y-145700000D02*
X226162000Y-145827000D01*
X246990000Y-110267000D02*
X230480000Y-110267000D01*
%TO.N,/+5VA_ISO_U*%
X225527000Y-122713000D02*
X232030500Y-122713000D01*
%TO.N,GND*%
X241910000Y-146462000D02*
X241910000Y-142652000D01*
X241910000Y-138842000D02*
X241910000Y-142652000D01*
X209525000Y-146462000D02*
X209525000Y-142652000D01*
X180315000Y-98202000D02*
X180061000Y-98202000D01*
X209525000Y-137572000D02*
X206350000Y-134397000D01*
X209525000Y-138842000D02*
X209525000Y-142652000D01*
X177140000Y-138842000D02*
X177140000Y-137572000D01*
X191618000Y-98202000D02*
X191745000Y-98075000D01*
X177140000Y-137572000D02*
X173965000Y-134397000D01*
X241910000Y-138842000D02*
X241910000Y-137572000D01*
X177140000Y-138842000D02*
X177140000Y-142652000D01*
X209525000Y-138842000D02*
X209525000Y-137572000D01*
X177140000Y-146462000D02*
X177140000Y-142652000D01*
X241910000Y-137572000D02*
X238735000Y-134397000D01*
X180061000Y-98202000D02*
X178156000Y-100107000D01*
X180315000Y-98202000D02*
X191618000Y-98202000D01*
%TO.N,/SDIO1*%
X212680000Y-136937000D02*
X212680000Y-130480000D01*
X213462000Y-129698000D02*
X241656000Y-129698000D01*
X212680000Y-130480000D02*
X213462000Y-129698000D01*
X243460000Y-131502000D02*
X243460000Y-133000000D01*
X241656000Y-129698000D02*
X243460000Y-131502000D01*
D18*
%TO.N,+5VA*%
X194920000Y-91725000D02*
X193650000Y-92995000D01*
X209525000Y-126777000D02*
X202540000Y-126777000D01*
X205715000Y-91725000D02*
X194920000Y-91725000D01*
X212065000Y-91725000D02*
X205715000Y-91725000D01*
X170155000Y-126777000D02*
X168250000Y-126777000D01*
X212065000Y-126777000D02*
X210795000Y-126777000D01*
X193650000Y-92995000D02*
X193650000Y-94265000D01*
X234925000Y-126777000D02*
X233020000Y-126777000D01*
X202540000Y-126777000D02*
X201270000Y-126777000D01*
X233020000Y-126777000D02*
X212065000Y-126777000D01*
X210795000Y-126777000D02*
X209525000Y-126777000D01*
X201270000Y-126777000D02*
X170155000Y-126777000D01*
D19*
%TO.N,/adc/SDI*%
X216891000Y-117532000D02*
X216764000Y-117659000D01*
X216764000Y-117659000D02*
X216764000Y-119665000D01*
D17*
%TO.N,/+5VA_ISO_I*%
X193142000Y-122713000D02*
X199645500Y-122713000D01*
X223389500Y-67700500D02*
X229210000Y-67700500D01*
X222860000Y-68230000D02*
X223389500Y-67700500D01*
X222860000Y-72040000D02*
X222860000Y-69435000D01*
X198222000Y-86645000D02*
X222860000Y-86645000D01*
X222860000Y-69435000D02*
X222860000Y-68230000D01*
%TO.N,/GND_ISO_I*%
X226670000Y-69435000D02*
X227367000Y-69435000D01*
X226670000Y-69435000D02*
X226670000Y-70643000D01*
X227607500Y-72675000D02*
X227607500Y-74277500D01*
X227607500Y-71580500D02*
X227607500Y-72675000D01*
X226670000Y-70643000D02*
X227607500Y-71580500D01*
X185395000Y-116617000D02*
X185395000Y-123221000D01*
X227367000Y-69435000D02*
X227707500Y-69775500D01*
X223622000Y-85883000D02*
X197460000Y-85883000D01*
X193650000Y-134397000D02*
X193650000Y-145700000D01*
X227607500Y-74277500D02*
X227305000Y-74580000D01*
X193650000Y-134397000D02*
X193650000Y-134143000D01*
X193650000Y-145700000D02*
X193777000Y-145827000D01*
X227305000Y-74580000D02*
X223622000Y-74580000D01*
X227707500Y-69775500D02*
X229210000Y-69775500D01*
X193650000Y-134143000D02*
X191745000Y-132238000D01*
%TO.N,/SDIO2*%
X180295000Y-132639000D02*
X182982000Y-129952000D01*
X180295000Y-136937000D02*
X180295000Y-132639000D01*
X182982000Y-129952000D02*
X208027000Y-129952000D01*
X208027000Y-129952000D02*
X211075000Y-133000000D01*
D19*
%TO.N,/adc1/SDI*%
X184200086Y-117701886D02*
X184200086Y-119486086D01*
X184125000Y-117626800D02*
X184200086Y-117701886D01*
D17*
%TO.N,/+5VA_ISO_T*%
X160757000Y-122713000D02*
X167260500Y-122713000D01*
%TO.N,/GND_ISO_T*%
X166197396Y-126797604D02*
X166197396Y-127285000D01*
X168102396Y-125380000D02*
X166218000Y-125380000D01*
X180442000Y-124491000D02*
X179553000Y-125380000D01*
X161265000Y-145700000D02*
X161392000Y-145827000D01*
X161265000Y-134143000D02*
X159360000Y-132238000D01*
X161265000Y-134397000D02*
X161265000Y-145700000D01*
X166218000Y-125380000D02*
X165329000Y-124491000D01*
X179553000Y-125380000D02*
X168102396Y-125380000D01*
X167615000Y-125380000D02*
X166197396Y-126797604D01*
X168102396Y-125380000D02*
X167615000Y-125380000D01*
X208128000Y-124491000D02*
X180442000Y-124491000D01*
X214351000Y-84359000D02*
X199873000Y-84359000D01*
X161265000Y-134397000D02*
X161265000Y-134143000D01*
X156693000Y-114712000D02*
X162662000Y-114712000D01*
%TO.N,/adc2/CONVST{slash}~{CS}*%
X153010000Y-118649000D02*
X153010000Y-143668000D01*
%TO.N,/adc2/SCKL*%
X153772000Y-119030000D02*
X153772000Y-137953000D01*
%TO.N,/adc2/SDI*%
X154534000Y-117626800D02*
X154534000Y-132238000D01*
%TO.N,/digital-interface3/GND_MASTER*%
X192380000Y-82327000D02*
X188570000Y-82327000D01*
X183490000Y-82327000D02*
X180315000Y-85502000D01*
X184760000Y-82327000D02*
X188570000Y-82327000D01*
X184760000Y-82327000D02*
X183490000Y-82327000D01*
%TO.N,/~{CS}*%
X242418000Y-128936000D02*
X244196000Y-130714000D01*
X244196000Y-130714000D02*
X244196000Y-143668000D01*
X244196000Y-143668000D02*
X245085000Y-144557000D01*
X182474000Y-128936000D02*
X214732000Y-128936000D01*
X214732000Y-128936000D02*
X242418000Y-128936000D01*
%TO.N,/SCKL*%
X213970000Y-128047000D02*
X243053000Y-128047000D01*
X181712000Y-128047000D02*
X213970000Y-128047000D01*
X243053000Y-128047000D02*
X245065000Y-130059000D01*
X245065000Y-130059000D02*
X245065000Y-140747000D01*
%TO.N,/SDI*%
X246355000Y-129825000D02*
X246355000Y-136937000D01*
X235306000Y-125380000D02*
X236830000Y-126904000D01*
X180950000Y-125380000D02*
X235306000Y-125380000D01*
X243434000Y-126904000D02*
X246355000Y-129825000D01*
X236830000Y-126904000D02*
X243434000Y-126904000D01*
%TO.N,/i-transduce/vzcr*%
X225400000Y-71024000D02*
X225532500Y-71156500D01*
X225532500Y-71156500D02*
X225532500Y-72675000D01*
X225400000Y-69435000D02*
X225400000Y-71024000D01*
D18*
%TO.N,+24V*%
X196190000Y-87915000D02*
X213970000Y-87915000D01*
D17*
%TO.N,/adc/AIN_P*%
X246101000Y-111029000D02*
X238862000Y-111029000D01*
%TO.N,/adc2/AIN_P*%
X173965000Y-108362000D02*
X198984000Y-108362000D01*
X213589000Y-83597000D02*
X200635000Y-83597000D01*
%TO.N,/adc2/SDO-0*%
X155296000Y-119538000D02*
X155296000Y-126777000D01*
%TO.N,/adc1/AIN_P*%
X198984000Y-85121000D02*
X222098000Y-85121000D01*
X224130000Y-69435000D02*
X224130000Y-71405000D01*
%TO.N,/adc1/GND_ADC*%
X189078000Y-114712000D02*
X195047000Y-114712000D01*
X200000000Y-150907000D02*
X193650000Y-150907000D01*
%TD*%
%TA.AperFunction,Conductor*%
%TO.N,/digital-interface3/GND_MASTER*%
G36*
X172060000Y-91719500D02*
G01*
X153136000Y-91719500D01*
X153067879Y-91699498D01*
X153021386Y-91645842D01*
X153010000Y-91593500D01*
X153010000Y-77247000D01*
X172060000Y-77247000D01*
X172060000Y-91719500D01*
G37*
%TD.AperFunction*%
%TD*%
%TA.AperFunction,Conductor*%
%TO.N,/i-transduce/in*%
G36*
X218492164Y-55020002D02*
G01*
X218538657Y-55073658D01*
X218547912Y-55109395D01*
X218548726Y-55109267D01*
X218549500Y-55114153D01*
X218549500Y-55114157D01*
X218585216Y-55339660D01*
X218655769Y-55556799D01*
X218655770Y-55556800D01*
X218759423Y-55760231D01*
X218893622Y-55944939D01*
X219055060Y-56106377D01*
X219055063Y-56106379D01*
X219239772Y-56240579D01*
X219443201Y-56344231D01*
X219660340Y-56414784D01*
X219885843Y-56450500D01*
X219885846Y-56450500D01*
X220114154Y-56450500D01*
X220114157Y-56450500D01*
X220339660Y-56414784D01*
X220556799Y-56344231D01*
X220760228Y-56240579D01*
X220944937Y-56106379D01*
X221106379Y-55944937D01*
X221240579Y-55760228D01*
X221344231Y-55556799D01*
X221414784Y-55339660D01*
X221450500Y-55114157D01*
X221450500Y-55114153D01*
X221451274Y-55109267D01*
X221452862Y-55109518D01*
X221475621Y-55049785D01*
X221532754Y-55007638D01*
X221575957Y-55000000D01*
X222041058Y-55000000D01*
X222109179Y-55020002D01*
X222135628Y-55042739D01*
X222148958Y-55057879D01*
X224098570Y-57272302D01*
X224128572Y-57336646D01*
X224130000Y-57355561D01*
X224130000Y-62261001D01*
X224543961Y-62674962D01*
X224577987Y-62737274D01*
X224572922Y-62808089D01*
X224566515Y-62822457D01*
X224536015Y-62880766D01*
X224536013Y-62880770D01*
X224516011Y-62948891D01*
X224505500Y-63022000D01*
X224505500Y-63022002D01*
X224505500Y-63166179D01*
X224485498Y-63234300D01*
X224445335Y-63273611D01*
X224430000Y-63283008D01*
X224430000Y-65686989D01*
X224445334Y-65696386D01*
X224492966Y-65749033D01*
X224505500Y-65803819D01*
X224505500Y-66834000D01*
X224485498Y-66902121D01*
X224431842Y-66948614D01*
X224379500Y-66960000D01*
X219737190Y-66960000D01*
X219669069Y-66939998D01*
X219648095Y-66923095D01*
X218066792Y-65341792D01*
X222306001Y-65341792D01*
X222320983Y-65436397D01*
X222379082Y-65550423D01*
X222469575Y-65640917D01*
X222560000Y-65686990D01*
X222560000Y-64785000D01*
X222306001Y-64785000D01*
X222306001Y-65341792D01*
X218066792Y-65341792D01*
X216353208Y-63628208D01*
X222306000Y-63628208D01*
X222306000Y-64185000D01*
X222560000Y-64185000D01*
X222560000Y-63283009D01*
X223160000Y-63283009D01*
X223160000Y-65686989D01*
X223250424Y-65640917D01*
X223340917Y-65550423D01*
X223340918Y-65550421D01*
X223382733Y-65468356D01*
X223431481Y-65416740D01*
X223500396Y-65399674D01*
X223567597Y-65422574D01*
X223607267Y-65468356D01*
X223649081Y-65550421D01*
X223649082Y-65550423D01*
X223739575Y-65640917D01*
X223830000Y-65686990D01*
X223830000Y-63283009D01*
X223829999Y-63283009D01*
X223739575Y-63329082D01*
X223649082Y-63419576D01*
X223607267Y-63501644D01*
X223558519Y-63553259D01*
X223489604Y-63570325D01*
X223422402Y-63547424D01*
X223382733Y-63501644D01*
X223340917Y-63419576D01*
X223250424Y-63329082D01*
X223250425Y-63329082D01*
X223160000Y-63283009D01*
X222560000Y-63283009D01*
X222559999Y-63283009D01*
X222469575Y-63329082D01*
X222379082Y-63419576D01*
X222320984Y-63533599D01*
X222306000Y-63628208D01*
X216353208Y-63628208D01*
X216292905Y-63567905D01*
X216258879Y-63505593D01*
X216256000Y-63478810D01*
X216256000Y-61400000D01*
X217391360Y-61400000D01*
X217409891Y-61623632D01*
X217464973Y-61841146D01*
X217464976Y-61841153D01*
X217555109Y-62046636D01*
X217555113Y-62046644D01*
X217558837Y-62052344D01*
X218065303Y-61545878D01*
X218076901Y-61604182D01*
X218129668Y-61731574D01*
X218206274Y-61846224D01*
X218303776Y-61943726D01*
X218418426Y-62020332D01*
X218545818Y-62073099D01*
X218604117Y-62084695D01*
X218100663Y-62588150D01*
X218100663Y-62588152D01*
X218204237Y-62644204D01*
X218204244Y-62644207D01*
X218416474Y-62717065D01*
X218637808Y-62754000D01*
X218862192Y-62754000D01*
X219083525Y-62717065D01*
X219083526Y-62717065D01*
X219295755Y-62644207D01*
X219295768Y-62644201D01*
X219399335Y-62588152D01*
X219399335Y-62588151D01*
X218895880Y-62084696D01*
X218954182Y-62073099D01*
X219081574Y-62020332D01*
X219196224Y-61943726D01*
X219293726Y-61846224D01*
X219370332Y-61731574D01*
X219423099Y-61604182D01*
X219434696Y-61545880D01*
X219941160Y-62052344D01*
X219987018Y-62047590D01*
X220013017Y-62047591D01*
X220058837Y-62052345D01*
X220565303Y-61545879D01*
X220576901Y-61604182D01*
X220629668Y-61731574D01*
X220706274Y-61846224D01*
X220803776Y-61943726D01*
X220918426Y-62020332D01*
X221045818Y-62073099D01*
X221104117Y-62084695D01*
X220600663Y-62588150D01*
X220600663Y-62588152D01*
X220704237Y-62644204D01*
X220704244Y-62644207D01*
X220916474Y-62717065D01*
X221137808Y-62754000D01*
X221362192Y-62754000D01*
X221583525Y-62717065D01*
X221583526Y-62717065D01*
X221795755Y-62644207D01*
X221795768Y-62644201D01*
X221899335Y-62588152D01*
X221899335Y-62588151D01*
X221395880Y-62084696D01*
X221454182Y-62073099D01*
X221581574Y-62020332D01*
X221696224Y-61943726D01*
X221793726Y-61846224D01*
X221870332Y-61731574D01*
X221923099Y-61604182D01*
X221934696Y-61545880D01*
X222441160Y-62052345D01*
X222441161Y-62052344D01*
X222444886Y-62046643D01*
X222444888Y-62046639D01*
X222535023Y-61841153D01*
X222535026Y-61841146D01*
X222590108Y-61623632D01*
X222608639Y-61400000D01*
X222590108Y-61176367D01*
X222535026Y-60958853D01*
X222535023Y-60958846D01*
X222444887Y-60753359D01*
X222441160Y-60747654D01*
X222441159Y-60747654D01*
X221934695Y-61254117D01*
X221923099Y-61195818D01*
X221870332Y-61068426D01*
X221793726Y-60953776D01*
X221696224Y-60856274D01*
X221581574Y-60779668D01*
X221454182Y-60726901D01*
X221395879Y-60715303D01*
X221899335Y-60211847D01*
X221899335Y-60211846D01*
X221795758Y-60155794D01*
X221795755Y-60155792D01*
X221583525Y-60082934D01*
X221362192Y-60046000D01*
X221137808Y-60046000D01*
X220916474Y-60082934D01*
X220916473Y-60082934D01*
X220704244Y-60155792D01*
X220704241Y-60155794D01*
X220600663Y-60211846D01*
X220600663Y-60211848D01*
X221104118Y-60715303D01*
X221045818Y-60726901D01*
X220918426Y-60779668D01*
X220803776Y-60856274D01*
X220706274Y-60953776D01*
X220629668Y-61068426D01*
X220576901Y-61195818D01*
X220565303Y-61254118D01*
X220058838Y-60747653D01*
X220013020Y-60752409D01*
X219987014Y-60752410D01*
X219941159Y-60747654D01*
X219434695Y-61254117D01*
X219423099Y-61195818D01*
X219370332Y-61068426D01*
X219293726Y-60953776D01*
X219196224Y-60856274D01*
X219081574Y-60779668D01*
X218954182Y-60726901D01*
X218895879Y-60715303D01*
X219399335Y-60211847D01*
X219399335Y-60211846D01*
X219295758Y-60155794D01*
X219295755Y-60155792D01*
X219083525Y-60082934D01*
X218862192Y-60046000D01*
X218637808Y-60046000D01*
X218416474Y-60082934D01*
X218416473Y-60082934D01*
X218204244Y-60155792D01*
X218204241Y-60155794D01*
X218100663Y-60211846D01*
X218100663Y-60211848D01*
X218604118Y-60715303D01*
X218545818Y-60726901D01*
X218418426Y-60779668D01*
X218303776Y-60856274D01*
X218206274Y-60953776D01*
X218129668Y-61068426D01*
X218076901Y-61195818D01*
X218065303Y-61254118D01*
X217558838Y-60747653D01*
X217558837Y-60747654D01*
X217555111Y-60753359D01*
X217464976Y-60958846D01*
X217464973Y-60958853D01*
X217409891Y-61176367D01*
X217391360Y-61400000D01*
X216256000Y-61400000D01*
X216256000Y-57900000D01*
X217391360Y-57900000D01*
X217409891Y-58123632D01*
X217464973Y-58341146D01*
X217464976Y-58341153D01*
X217555109Y-58546636D01*
X217555113Y-58546644D01*
X217558837Y-58552344D01*
X218065303Y-58045878D01*
X218076901Y-58104182D01*
X218129668Y-58231574D01*
X218206274Y-58346224D01*
X218303776Y-58443726D01*
X218418426Y-58520332D01*
X218545818Y-58573099D01*
X218604117Y-58584695D01*
X218100663Y-59088150D01*
X218100663Y-59088152D01*
X218204237Y-59144204D01*
X218204244Y-59144207D01*
X218416474Y-59217065D01*
X218637808Y-59254000D01*
X218862192Y-59254000D01*
X219083525Y-59217065D01*
X219083526Y-59217065D01*
X219295755Y-59144207D01*
X219295768Y-59144201D01*
X219399335Y-59088152D01*
X219399335Y-59088151D01*
X218895880Y-58584696D01*
X218954182Y-58573099D01*
X219081574Y-58520332D01*
X219196224Y-58443726D01*
X219293726Y-58346224D01*
X219370332Y-58231574D01*
X219423099Y-58104182D01*
X219434696Y-58045880D01*
X219941160Y-58552344D01*
X219987018Y-58547590D01*
X220013017Y-58547591D01*
X220058837Y-58552345D01*
X220565303Y-58045879D01*
X220576901Y-58104182D01*
X220629668Y-58231574D01*
X220706274Y-58346224D01*
X220803776Y-58443726D01*
X220918426Y-58520332D01*
X221045818Y-58573099D01*
X221104117Y-58584695D01*
X220600663Y-59088150D01*
X220600663Y-59088152D01*
X220704237Y-59144204D01*
X220704244Y-59144207D01*
X220916474Y-59217065D01*
X221137808Y-59254000D01*
X221362192Y-59254000D01*
X221583525Y-59217065D01*
X221583526Y-59217065D01*
X221795755Y-59144207D01*
X221795768Y-59144201D01*
X221899335Y-59088152D01*
X221899335Y-59088151D01*
X221395880Y-58584696D01*
X221454182Y-58573099D01*
X221581574Y-58520332D01*
X221696224Y-58443726D01*
X221793726Y-58346224D01*
X221870332Y-58231574D01*
X221923099Y-58104182D01*
X221934696Y-58045880D01*
X222441160Y-58552345D01*
X222441161Y-58552344D01*
X222444886Y-58546643D01*
X222444888Y-58546639D01*
X222535023Y-58341153D01*
X222535026Y-58341146D01*
X222590108Y-58123632D01*
X222608639Y-57900000D01*
X222590108Y-57676367D01*
X222535026Y-57458853D01*
X222535023Y-57458846D01*
X222444887Y-57253359D01*
X222441160Y-57247654D01*
X222441159Y-57247654D01*
X221934695Y-57754117D01*
X221923099Y-57695818D01*
X221870332Y-57568426D01*
X221793726Y-57453776D01*
X221696224Y-57356274D01*
X221581574Y-57279668D01*
X221454182Y-57226901D01*
X221395879Y-57215303D01*
X221899335Y-56711847D01*
X221899335Y-56711846D01*
X221795758Y-56655794D01*
X221795755Y-56655792D01*
X221583525Y-56582934D01*
X221362192Y-56546000D01*
X221137808Y-56546000D01*
X220916474Y-56582934D01*
X220916473Y-56582934D01*
X220704244Y-56655792D01*
X220704241Y-56655794D01*
X220600663Y-56711846D01*
X220600663Y-56711848D01*
X221104118Y-57215303D01*
X221045818Y-57226901D01*
X220918426Y-57279668D01*
X220803776Y-57356274D01*
X220706274Y-57453776D01*
X220629668Y-57568426D01*
X220576901Y-57695818D01*
X220565303Y-57754118D01*
X220058838Y-57247653D01*
X220013020Y-57252409D01*
X219987014Y-57252410D01*
X219941159Y-57247654D01*
X219434695Y-57754117D01*
X219423099Y-57695818D01*
X219370332Y-57568426D01*
X219293726Y-57453776D01*
X219196224Y-57356274D01*
X219081574Y-57279668D01*
X218954182Y-57226901D01*
X218895879Y-57215303D01*
X219399335Y-56711847D01*
X219399335Y-56711846D01*
X219295758Y-56655794D01*
X219295755Y-56655792D01*
X219083525Y-56582934D01*
X218862192Y-56546000D01*
X218637808Y-56546000D01*
X218416474Y-56582934D01*
X218416473Y-56582934D01*
X218204244Y-56655792D01*
X218204241Y-56655794D01*
X218100663Y-56711846D01*
X218100663Y-56711848D01*
X218604118Y-57215303D01*
X218545818Y-57226901D01*
X218418426Y-57279668D01*
X218303776Y-57356274D01*
X218206274Y-57453776D01*
X218129668Y-57568426D01*
X218076901Y-57695818D01*
X218065303Y-57754118D01*
X217558838Y-57247653D01*
X217558837Y-57247654D01*
X217555111Y-57253359D01*
X217464976Y-57458846D01*
X217464973Y-57458853D01*
X217409891Y-57676367D01*
X217391360Y-57900000D01*
X216256000Y-57900000D01*
X216256000Y-55126000D01*
X216276002Y-55057879D01*
X216329658Y-55011386D01*
X216382000Y-55000000D01*
X218424043Y-55000000D01*
X218492164Y-55020002D01*
G37*
%TD.AperFunction*%
%TD*%
%TA.AperFunction,Conductor*%
%TO.N,/digital-interface3/GND_MASTER*%
G36*
X194917121Y-77272407D02*
G01*
X194920000Y-77299190D01*
X194920000Y-90714667D01*
X194899998Y-90782788D01*
X194846342Y-90829281D01*
X194818582Y-90838246D01*
X194660541Y-90869683D01*
X194660536Y-90869685D01*
X194498664Y-90936735D01*
X194352981Y-91034077D01*
X194352974Y-91034082D01*
X193698962Y-91688095D01*
X193636650Y-91722121D01*
X193609867Y-91725000D01*
X193448118Y-91725000D01*
X193423537Y-91722579D01*
X193408057Y-91719500D01*
X172060000Y-91719500D01*
X172060000Y-77247000D01*
X194903247Y-77247000D01*
X194917121Y-77272407D01*
G37*
%TD.AperFunction*%
%TD*%
%TA.AperFunction,Conductor*%
%TO.N,/GND_ISO_T*%
G36*
X167482500Y-167926000D02*
G01*
X167462498Y-167994121D01*
X167408842Y-168040614D01*
X167356500Y-168052000D01*
X159104191Y-168052000D01*
X159036070Y-168031998D01*
X159015096Y-168015095D01*
X159000001Y-168000000D01*
X159000000Y-168000000D01*
X153136000Y-168000000D01*
X153067879Y-167979998D01*
X153021386Y-167926342D01*
X153010000Y-167874000D01*
X153010000Y-149002000D01*
X167482500Y-149002000D01*
X167482500Y-167926000D01*
G37*
%TD.AperFunction*%
%TD*%
%TA.AperFunction,Conductor*%
%TO.N,/adc1/GND_ADC*%
G36*
X199809621Y-149281502D02*
G01*
X199856114Y-149335158D01*
X199867500Y-149387500D01*
X199867500Y-150414592D01*
X199869719Y-150448458D01*
X199870578Y-150452773D01*
X199873000Y-150477359D01*
X199873000Y-151359346D01*
X199870579Y-151383928D01*
X199867500Y-151399405D01*
X199867500Y-167926000D01*
X199847498Y-167994121D01*
X199793842Y-168040614D01*
X199741500Y-168052000D01*
X185521000Y-168052000D01*
X185452879Y-168031998D01*
X185406386Y-167978342D01*
X185395000Y-167926000D01*
X185395000Y-149387500D01*
X185415002Y-149319379D01*
X185468658Y-149272886D01*
X185521000Y-149261500D01*
X199741500Y-149261500D01*
X199809621Y-149281502D01*
G37*
%TD.AperFunction*%
%TD*%
%TA.AperFunction,Conductor*%
%TO.N,GND*%
G36*
X182220000Y-168045200D02*
G01*
X182194973Y-168045200D01*
X182187792Y-168049121D01*
X182161009Y-168052000D01*
X167800991Y-168052000D01*
X167777832Y-168045200D01*
X167742000Y-168045200D01*
X167742000Y-149002000D01*
X182220000Y-149002000D01*
X182220000Y-168045200D01*
G37*
%TD.AperFunction*%
%TD*%
%TA.AperFunction,Conductor*%
%TO.N,GND*%
G36*
X246990000Y-168000000D02*
G01*
X240999999Y-168000000D01*
X240984904Y-168015095D01*
X240922592Y-168049121D01*
X240895809Y-168052000D01*
X232643500Y-168052000D01*
X232575379Y-168031998D01*
X232528886Y-167978342D01*
X232517500Y-167926000D01*
X232517500Y-149042065D01*
X232517500Y-149042061D01*
X232516250Y-149016618D01*
X232514810Y-149002000D01*
X246990000Y-149002000D01*
X246990000Y-168000000D01*
G37*
%TD.AperFunction*%
%TD*%
%TA.AperFunction,Conductor*%
%TO.N,GND*%
G36*
X185077621Y-130480502D02*
G01*
X185124114Y-130534158D01*
X185135500Y-130586500D01*
X185135500Y-148876006D01*
X185141430Y-148931161D01*
X185145335Y-148949111D01*
X185152816Y-148983501D01*
X185157777Y-149001584D01*
X185160165Y-149010289D01*
X185160167Y-149010293D01*
X185193506Y-149068840D01*
X185209832Y-149137933D01*
X185195661Y-149189589D01*
X185166016Y-149246262D01*
X185166013Y-149246270D01*
X185146011Y-149314391D01*
X185135501Y-149387493D01*
X185135500Y-149387502D01*
X185135500Y-167919200D01*
X185115498Y-167987321D01*
X185061842Y-168033814D01*
X185009500Y-168045200D01*
X182220000Y-168045200D01*
X182220000Y-149002000D01*
X182220000Y-131433127D01*
X183155722Y-130497405D01*
X183218034Y-130463379D01*
X183244817Y-130460500D01*
X185009500Y-130460500D01*
X185077621Y-130480502D01*
G37*
%TD.AperFunction*%
%TA.AperFunction,Conductor*%
G36*
X217462621Y-130226502D02*
G01*
X217509114Y-130280158D01*
X217520500Y-130332500D01*
X217520500Y-167919200D01*
X217500498Y-167987321D01*
X217446842Y-168033814D01*
X217394500Y-168045200D01*
X214605000Y-168045200D01*
X214605000Y-149002000D01*
X214605000Y-130206500D01*
X217394500Y-130206500D01*
X217462621Y-130226502D01*
G37*
%TD.AperFunction*%
%TA.AperFunction,Conductor*%
G36*
X215943580Y-40520502D02*
G01*
X215990073Y-40574158D01*
X216000176Y-40644428D01*
X216000176Y-40644433D01*
X215996500Y-40669996D01*
X215996500Y-54614506D01*
X216001428Y-54660340D01*
X216002430Y-54669659D01*
X216013816Y-54722001D01*
X216018777Y-54740084D01*
X216021165Y-54748789D01*
X216021167Y-54748793D01*
X216054506Y-54807340D01*
X216070832Y-54876433D01*
X216056661Y-54928089D01*
X216027016Y-54984762D01*
X216027013Y-54984770D01*
X216007011Y-55052891D01*
X215998203Y-55114157D01*
X215996500Y-55126002D01*
X215996500Y-63478825D01*
X215997985Y-63506533D01*
X215997987Y-63506567D01*
X216000861Y-63533296D01*
X216000866Y-63533336D01*
X216031122Y-63629958D01*
X216031122Y-63629959D01*
X216065152Y-63692278D01*
X216095493Y-63732807D01*
X216109411Y-63751399D01*
X216177282Y-63819270D01*
X219464586Y-67106575D01*
X219464594Y-67106582D01*
X219464601Y-67106589D01*
X219485260Y-67125147D01*
X219504765Y-67140866D01*
X219506005Y-67141897D01*
X219506240Y-67142056D01*
X219595952Y-67188983D01*
X219595960Y-67188987D01*
X219664081Y-67208989D01*
X219737190Y-67219500D01*
X222847181Y-67219500D01*
X222915302Y-67239502D01*
X222961795Y-67293158D01*
X222971899Y-67363432D01*
X222942405Y-67428012D01*
X222936276Y-67434595D01*
X222453104Y-67917766D01*
X222453098Y-67917773D01*
X222398277Y-68012727D01*
X222398276Y-68012726D01*
X222386155Y-68033720D01*
X222386153Y-68033725D01*
X222386153Y-68033726D01*
X222355979Y-68146341D01*
X222351500Y-68163056D01*
X222351500Y-68392357D01*
X222337767Y-68449559D01*
X222320501Y-68483444D01*
X222305500Y-68578167D01*
X222305500Y-70291832D01*
X222320501Y-70386554D01*
X222329187Y-70403601D01*
X222337759Y-70420424D01*
X222337766Y-70420436D01*
X222351500Y-70477641D01*
X222351500Y-72106945D01*
X222386153Y-72236274D01*
X222386154Y-72236276D01*
X222386155Y-72236278D01*
X222453097Y-72352224D01*
X222453099Y-72352227D01*
X222547772Y-72446900D01*
X222547775Y-72446902D01*
X222639226Y-72499701D01*
X222663726Y-72513847D01*
X222793055Y-72548500D01*
X222793057Y-72548500D01*
X222926943Y-72548500D01*
X222926945Y-72548500D01*
X223056274Y-72513847D01*
X223172226Y-72446901D01*
X223266901Y-72352226D01*
X223333847Y-72236274D01*
X223368500Y-72106945D01*
X223368500Y-70477641D01*
X223382239Y-70420426D01*
X223382740Y-70419441D01*
X223431495Y-70367834D01*
X223500412Y-70350776D01*
X223567611Y-70373686D01*
X223607258Y-70419441D01*
X223607760Y-70420426D01*
X223621500Y-70477641D01*
X223621500Y-71471945D01*
X223656153Y-71601274D01*
X223656154Y-71601276D01*
X223656155Y-71601278D01*
X223723097Y-71717224D01*
X223723099Y-71717227D01*
X223817772Y-71811900D01*
X223817775Y-71811902D01*
X223865742Y-71839596D01*
X223933726Y-71878847D01*
X224063055Y-71913500D01*
X224063057Y-71913500D01*
X224196943Y-71913500D01*
X224196945Y-71913500D01*
X224326274Y-71878847D01*
X224442226Y-71811901D01*
X224536901Y-71717226D01*
X224603847Y-71601274D01*
X224638500Y-71471945D01*
X224638500Y-70477641D01*
X224652239Y-70420426D01*
X224652740Y-70419441D01*
X224701495Y-70367834D01*
X224770412Y-70350776D01*
X224837611Y-70373686D01*
X224877258Y-70419441D01*
X224877760Y-70420426D01*
X224891500Y-70477641D01*
X224891500Y-70957055D01*
X224891500Y-71090945D01*
X224926153Y-71220274D01*
X224993099Y-71336227D01*
X224993103Y-71336231D01*
X224997962Y-71342564D01*
X225023563Y-71408784D01*
X225024000Y-71419269D01*
X225024000Y-71637891D01*
X225003998Y-71706012D01*
X224958388Y-71748477D01*
X224950733Y-71752656D01*
X224834596Y-71839595D01*
X224747657Y-71955734D01*
X224696962Y-72091650D01*
X224696960Y-72091658D01*
X224690500Y-72151737D01*
X224690500Y-73198246D01*
X224690502Y-73198270D01*
X224696959Y-73258339D01*
X224696959Y-73258341D01*
X224747657Y-73394266D01*
X224747658Y-73394267D01*
X224834596Y-73510404D01*
X224950733Y-73597342D01*
X225086658Y-73648040D01*
X225146745Y-73654500D01*
X225918254Y-73654499D01*
X225978342Y-73648040D01*
X226114267Y-73597342D01*
X226230404Y-73510404D01*
X226317342Y-73394267D01*
X226368040Y-73258342D01*
X226374500Y-73198255D01*
X226374499Y-72151746D01*
X226368040Y-72091658D01*
X226317342Y-71955733D01*
X226230404Y-71839596D01*
X226230403Y-71839595D01*
X226114266Y-71752656D01*
X226106612Y-71748477D01*
X226056411Y-71698274D01*
X226041000Y-71637891D01*
X226041000Y-71089556D01*
X226041000Y-71089555D01*
X226029199Y-71045512D01*
X226030887Y-70974539D01*
X226070681Y-70915743D01*
X226135945Y-70887794D01*
X226205958Y-70899567D01*
X226258493Y-70947322D01*
X226260020Y-70949897D01*
X226263092Y-70955217D01*
X226263097Y-70955224D01*
X226263099Y-70955227D01*
X226942811Y-71634939D01*
X226976835Y-71697250D01*
X226971771Y-71768065D01*
X226929227Y-71824899D01*
X226909596Y-71839594D01*
X226822657Y-71955734D01*
X226771962Y-72091650D01*
X226771960Y-72091658D01*
X226765500Y-72151737D01*
X226765500Y-73198246D01*
X226765502Y-73198270D01*
X226771959Y-73258339D01*
X226771959Y-73258341D01*
X226822657Y-73394266D01*
X226822658Y-73394267D01*
X226909596Y-73510404D01*
X227002401Y-73579876D01*
X227025734Y-73597343D01*
X227033386Y-73601521D01*
X227083588Y-73651723D01*
X227099000Y-73712108D01*
X227099000Y-73945500D01*
X227078998Y-74013621D01*
X227025342Y-74060114D01*
X226973000Y-74071500D01*
X223555055Y-74071500D01*
X223425726Y-74106153D01*
X223425724Y-74106154D01*
X223425721Y-74106155D01*
X223309775Y-74173097D01*
X223309772Y-74173099D01*
X223215099Y-74267772D01*
X223215097Y-74267775D01*
X223148155Y-74383721D01*
X223148154Y-74383724D01*
X223148153Y-74383726D01*
X223113500Y-74513055D01*
X223113500Y-74646945D01*
X223148153Y-74776274D01*
X223148154Y-74776276D01*
X223148155Y-74776278D01*
X223215097Y-74892224D01*
X223215099Y-74892227D01*
X223309772Y-74986900D01*
X223309775Y-74986902D01*
X223309777Y-74986903D01*
X223425726Y-75053847D01*
X223555055Y-75088500D01*
X223555057Y-75088500D01*
X227371943Y-75088500D01*
X227371945Y-75088500D01*
X227501274Y-75053847D01*
X227617227Y-74986901D01*
X228014401Y-74589726D01*
X228020016Y-74580000D01*
X228081347Y-74473774D01*
X228116000Y-74344445D01*
X228116000Y-73712108D01*
X228136002Y-73643987D01*
X228181614Y-73601521D01*
X228189265Y-73597343D01*
X228189265Y-73597342D01*
X228189267Y-73597342D01*
X228305404Y-73510404D01*
X228392342Y-73394267D01*
X228443040Y-73258342D01*
X228449500Y-73198255D01*
X228449499Y-72151746D01*
X228443040Y-72091658D01*
X228392342Y-71955733D01*
X228305404Y-71839596D01*
X228305403Y-71839595D01*
X228189266Y-71752656D01*
X228181612Y-71748477D01*
X228131411Y-71698274D01*
X228116000Y-71637891D01*
X228116000Y-71513556D01*
X228116000Y-71513555D01*
X228081347Y-71384226D01*
X228063188Y-71352774D01*
X228014401Y-71268273D01*
X227244389Y-70498261D01*
X227210366Y-70435951D01*
X227209037Y-70389457D01*
X227209496Y-70386558D01*
X227209498Y-70386555D01*
X227224500Y-70291834D01*
X227224500Y-70291830D01*
X227225274Y-70286944D01*
X227226333Y-70287111D01*
X227249761Y-70225607D01*
X227306890Y-70183456D01*
X227377740Y-70178882D01*
X227413104Y-70192695D01*
X227511226Y-70249347D01*
X227640555Y-70284000D01*
X228172891Y-70284000D01*
X228241012Y-70304002D01*
X228283475Y-70349609D01*
X228287654Y-70357261D01*
X228287657Y-70357265D01*
X228287658Y-70357267D01*
X228374596Y-70473404D01*
X228490733Y-70560342D01*
X228626658Y-70611040D01*
X228686745Y-70617500D01*
X229733254Y-70617499D01*
X229793342Y-70611040D01*
X229929267Y-70560342D01*
X230045404Y-70473404D01*
X230132342Y-70357267D01*
X230183040Y-70221342D01*
X230189500Y-70161255D01*
X230189499Y-69389746D01*
X230183040Y-69329658D01*
X230132342Y-69193733D01*
X230045404Y-69077596D01*
X229929267Y-68990658D01*
X229929265Y-68990657D01*
X229929266Y-68990657D01*
X229793349Y-68939962D01*
X229793344Y-68939960D01*
X229793342Y-68939960D01*
X229763298Y-68936730D01*
X229733256Y-68933500D01*
X228686753Y-68933500D01*
X228686729Y-68933502D01*
X228626660Y-68939959D01*
X228626658Y-68939959D01*
X228490733Y-68990657D01*
X228374596Y-69077596D01*
X228287654Y-69193738D01*
X228283475Y-69201391D01*
X228233271Y-69251591D01*
X228172891Y-69267000D01*
X227970318Y-69267000D01*
X227902197Y-69246998D01*
X227881222Y-69230095D01*
X227679229Y-69028101D01*
X227679223Y-69028096D01*
X227563278Y-68961155D01*
X227563276Y-68961154D01*
X227563274Y-68961153D01*
X227433945Y-68926500D01*
X227433943Y-68926500D01*
X227350500Y-68926500D01*
X227282379Y-68906498D01*
X227235886Y-68852842D01*
X227224500Y-68800500D01*
X227224500Y-68578167D01*
X227217828Y-68536037D01*
X227209498Y-68483445D01*
X227178500Y-68422608D01*
X227163008Y-68392203D01*
X227149904Y-68322426D01*
X227176604Y-68256641D01*
X227234632Y-68215735D01*
X227275275Y-68209000D01*
X228172891Y-68209000D01*
X228241012Y-68229002D01*
X228283475Y-68274609D01*
X228287654Y-68282261D01*
X228287657Y-68282265D01*
X228287658Y-68282267D01*
X228374596Y-68398404D01*
X228490733Y-68485342D01*
X228626658Y-68536040D01*
X228686745Y-68542500D01*
X229733254Y-68542499D01*
X229793342Y-68536040D01*
X229929267Y-68485342D01*
X230045404Y-68398404D01*
X230132342Y-68282267D01*
X230183040Y-68146342D01*
X230189500Y-68086255D01*
X230189499Y-67345499D01*
X230209501Y-67277379D01*
X230263157Y-67230886D01*
X230315499Y-67219500D01*
X232586819Y-67219500D01*
X232586823Y-67219499D01*
X232614545Y-67218014D01*
X232614559Y-67218012D01*
X232614567Y-67218012D01*
X232626686Y-67216708D01*
X232641328Y-67215135D01*
X232641336Y-67215134D01*
X232737961Y-67184877D01*
X232800273Y-67150851D01*
X232859399Y-67106589D01*
X235960589Y-64005399D01*
X235979147Y-63984740D01*
X235994905Y-63965186D01*
X235995900Y-63963989D01*
X235996056Y-63963759D01*
X236042983Y-63874047D01*
X236042987Y-63874040D01*
X236062989Y-63805919D01*
X236073500Y-63732810D01*
X236073500Y-61200000D01*
X237829399Y-61200000D01*
X237849766Y-61432796D01*
X237910246Y-61658510D01*
X237910248Y-61658516D01*
X238009004Y-61870299D01*
X238009005Y-61870301D01*
X238143036Y-62061717D01*
X238143043Y-62061726D01*
X238308273Y-62226956D01*
X238308277Y-62226959D01*
X238308278Y-62226960D01*
X238499699Y-62360995D01*
X238711487Y-62459753D01*
X238903958Y-62511325D01*
X238935359Y-62519739D01*
X238937207Y-62520234D01*
X239170000Y-62540601D01*
X239402793Y-62520234D01*
X239628513Y-62459753D01*
X239840301Y-62360995D01*
X240031722Y-62226960D01*
X240196960Y-62061722D01*
X240330995Y-61870301D01*
X240429753Y-61658513D01*
X240490234Y-61432793D01*
X240510601Y-61200000D01*
X242909399Y-61200000D01*
X242929766Y-61432796D01*
X242990246Y-61658510D01*
X242990248Y-61658516D01*
X243089004Y-61870299D01*
X243089005Y-61870301D01*
X243223036Y-62061717D01*
X243223043Y-62061726D01*
X243388273Y-62226956D01*
X243388277Y-62226959D01*
X243388278Y-62226960D01*
X243579699Y-62360995D01*
X243791487Y-62459753D01*
X243983958Y-62511325D01*
X244015359Y-62519739D01*
X244017207Y-62520234D01*
X244250000Y-62540601D01*
X244482793Y-62520234D01*
X244708513Y-62459753D01*
X244920301Y-62360995D01*
X245111722Y-62226960D01*
X245276960Y-62061722D01*
X245410995Y-61870301D01*
X245509753Y-61658513D01*
X245570234Y-61432793D01*
X245590601Y-61200000D01*
X245570234Y-60967207D01*
X245509753Y-60741487D01*
X245410995Y-60529700D01*
X245276960Y-60338278D01*
X245111722Y-60173040D01*
X245111721Y-60173039D01*
X245111720Y-60173038D01*
X245111717Y-60173036D01*
X244920301Y-60039005D01*
X244920299Y-60039004D01*
X244708516Y-59940248D01*
X244708510Y-59940246D01*
X244482796Y-59879766D01*
X244250000Y-59859399D01*
X244017203Y-59879766D01*
X243791489Y-59940246D01*
X243791484Y-59940248D01*
X243579699Y-60039005D01*
X243388281Y-60173037D01*
X243388275Y-60173042D01*
X243223042Y-60338275D01*
X243223037Y-60338281D01*
X243089005Y-60529699D01*
X242990248Y-60741484D01*
X242990246Y-60741489D01*
X242929766Y-60967203D01*
X242909399Y-61200000D01*
X240510601Y-61200000D01*
X240490234Y-60967207D01*
X240429753Y-60741487D01*
X240330995Y-60529700D01*
X240196960Y-60338278D01*
X240031722Y-60173040D01*
X240031721Y-60173039D01*
X240031720Y-60173038D01*
X240031717Y-60173036D01*
X239840301Y-60039005D01*
X239840299Y-60039004D01*
X239628516Y-59940248D01*
X239628510Y-59940246D01*
X239402796Y-59879766D01*
X239170000Y-59859399D01*
X238937203Y-59879766D01*
X238711489Y-59940246D01*
X238711484Y-59940248D01*
X238499699Y-60039005D01*
X238308281Y-60173037D01*
X238308275Y-60173042D01*
X238143042Y-60338275D01*
X238143037Y-60338281D01*
X238009005Y-60529699D01*
X237910248Y-60741484D01*
X237910246Y-60741489D01*
X237849766Y-60967203D01*
X237829399Y-61200000D01*
X236073500Y-61200000D01*
X236073500Y-52500000D01*
X237829399Y-52500000D01*
X237849766Y-52732796D01*
X237910246Y-52958510D01*
X237910248Y-52958516D01*
X238009004Y-53170299D01*
X238009005Y-53170301D01*
X238143036Y-53361717D01*
X238143043Y-53361726D01*
X238308273Y-53526956D01*
X238308277Y-53526959D01*
X238308278Y-53526960D01*
X238499699Y-53660995D01*
X238711487Y-53759753D01*
X238910538Y-53813088D01*
X238935359Y-53819739D01*
X238937207Y-53820234D01*
X239170000Y-53840601D01*
X239402793Y-53820234D01*
X239628513Y-53759753D01*
X239840301Y-53660995D01*
X240031722Y-53526960D01*
X240196960Y-53361722D01*
X240330995Y-53170301D01*
X240429753Y-52958513D01*
X240490234Y-52732793D01*
X240510601Y-52500000D01*
X242909399Y-52500000D01*
X242929766Y-52732796D01*
X242990246Y-52958510D01*
X242990248Y-52958516D01*
X243089004Y-53170299D01*
X243089005Y-53170301D01*
X243223036Y-53361717D01*
X243223043Y-53361726D01*
X243388273Y-53526956D01*
X243388277Y-53526959D01*
X243388278Y-53526960D01*
X243579699Y-53660995D01*
X243791487Y-53759753D01*
X243990538Y-53813088D01*
X244015359Y-53819739D01*
X244017207Y-53820234D01*
X244250000Y-53840601D01*
X244482793Y-53820234D01*
X244708513Y-53759753D01*
X244920301Y-53660995D01*
X245111722Y-53526960D01*
X245276960Y-53361722D01*
X245410995Y-53170301D01*
X245509753Y-52958513D01*
X245570234Y-52732793D01*
X245590601Y-52500000D01*
X245570234Y-52267207D01*
X245509753Y-52041487D01*
X245410995Y-51829700D01*
X245276960Y-51638278D01*
X245111722Y-51473040D01*
X245111721Y-51473039D01*
X245111720Y-51473038D01*
X245111717Y-51473036D01*
X244920301Y-51339005D01*
X244920299Y-51339004D01*
X244708516Y-51240248D01*
X244708510Y-51240246D01*
X244482796Y-51179766D01*
X244250000Y-51159399D01*
X244017203Y-51179766D01*
X243791489Y-51240246D01*
X243791484Y-51240248D01*
X243579699Y-51339005D01*
X243388281Y-51473037D01*
X243388275Y-51473042D01*
X243223042Y-51638275D01*
X243223037Y-51638281D01*
X243089005Y-51829699D01*
X242990248Y-52041484D01*
X242990246Y-52041489D01*
X242929766Y-52267203D01*
X242909399Y-52500000D01*
X240510601Y-52500000D01*
X240490234Y-52267207D01*
X240429753Y-52041487D01*
X240330995Y-51829700D01*
X240196960Y-51638278D01*
X240031722Y-51473040D01*
X240031721Y-51473039D01*
X240031720Y-51473038D01*
X240031717Y-51473036D01*
X239840301Y-51339005D01*
X239840299Y-51339004D01*
X239628516Y-51240248D01*
X239628510Y-51240246D01*
X239402796Y-51179766D01*
X239170000Y-51159399D01*
X238937203Y-51179766D01*
X238711489Y-51240246D01*
X238711484Y-51240248D01*
X238499699Y-51339005D01*
X238308281Y-51473037D01*
X238308275Y-51473042D01*
X238143042Y-51638275D01*
X238143037Y-51638281D01*
X238009005Y-51829699D01*
X237910248Y-52041484D01*
X237910246Y-52041489D01*
X237849766Y-52267203D01*
X237829399Y-52500000D01*
X236073500Y-52500000D01*
X236073500Y-40670000D01*
X236070271Y-40639968D01*
X236082876Y-40570102D01*
X236131253Y-40518139D01*
X236195549Y-40500500D01*
X247374000Y-40500500D01*
X247442121Y-40520502D01*
X247488614Y-40574158D01*
X247500000Y-40626500D01*
X247500000Y-109756352D01*
X247479998Y-109824473D01*
X247426342Y-109870966D01*
X247356068Y-109881070D01*
X247310686Y-109861963D01*
X247309379Y-109864228D01*
X247186278Y-109793155D01*
X247186276Y-109793154D01*
X247186274Y-109793153D01*
X247056945Y-109758500D01*
X230413055Y-109758500D01*
X230283726Y-109793153D01*
X230283724Y-109793154D01*
X230283721Y-109793155D01*
X230167775Y-109860097D01*
X230167772Y-109860099D01*
X230073099Y-109954772D01*
X230073097Y-109954775D01*
X230006155Y-110070721D01*
X230006154Y-110070724D01*
X230006153Y-110070726D01*
X229971500Y-110200055D01*
X229971500Y-110333945D01*
X230006153Y-110463274D01*
X230006154Y-110463276D01*
X230006155Y-110463278D01*
X230073097Y-110579224D01*
X230073099Y-110579227D01*
X230167772Y-110673900D01*
X230167775Y-110673902D01*
X230240592Y-110715943D01*
X230283726Y-110740847D01*
X230413055Y-110775500D01*
X238239281Y-110775500D01*
X238307402Y-110795502D01*
X238353895Y-110849158D01*
X238363999Y-110919432D01*
X238360989Y-110934102D01*
X238353500Y-110962055D01*
X238353500Y-111095945D01*
X238388153Y-111225274D01*
X238388154Y-111225276D01*
X238388155Y-111225278D01*
X238455097Y-111341224D01*
X238455099Y-111341227D01*
X238549772Y-111435900D01*
X238549775Y-111435902D01*
X238641226Y-111488701D01*
X238665726Y-111502847D01*
X238795055Y-111537500D01*
X238795057Y-111537500D01*
X246167943Y-111537500D01*
X246167945Y-111537500D01*
X246297274Y-111502847D01*
X246413226Y-111435901D01*
X246507901Y-111341226D01*
X246574847Y-111225274D01*
X246609500Y-111095945D01*
X246609500Y-110962055D01*
X246602012Y-110934109D01*
X246603702Y-110863135D01*
X246643496Y-110804339D01*
X246708760Y-110776391D01*
X246723719Y-110775500D01*
X247056943Y-110775500D01*
X247056945Y-110775500D01*
X247186274Y-110740847D01*
X247241344Y-110709051D01*
X247309379Y-110669772D01*
X247310909Y-110672422D01*
X247363508Y-110652085D01*
X247433058Y-110666345D01*
X247483857Y-110715943D01*
X247500000Y-110777647D01*
X247500000Y-167874000D01*
X247479998Y-167942121D01*
X247426342Y-167988614D01*
X247374000Y-168000000D01*
X246990000Y-168000000D01*
X246990000Y-149002000D01*
X246990000Y-126142000D01*
X236787128Y-126142000D01*
X235618233Y-124973104D01*
X235618223Y-124973096D01*
X235502278Y-124906155D01*
X235502276Y-124906154D01*
X235502274Y-124906153D01*
X235372945Y-124871500D01*
X235372943Y-124871500D01*
X208713722Y-124871500D01*
X208645601Y-124851498D01*
X208599108Y-124797842D01*
X208589004Y-124727568D01*
X208600106Y-124695491D01*
X208598686Y-124694903D01*
X208601839Y-124687287D01*
X208601847Y-124687274D01*
X208636500Y-124557945D01*
X208636500Y-124424055D01*
X208601847Y-124294726D01*
X208587701Y-124270226D01*
X208534902Y-124178775D01*
X208534900Y-124178772D01*
X208440227Y-124084099D01*
X208440224Y-124084097D01*
X208324278Y-124017155D01*
X208324276Y-124017154D01*
X208324274Y-124017153D01*
X208194945Y-123982500D01*
X180508945Y-123982500D01*
X180375055Y-123982500D01*
X180245726Y-124017153D01*
X180245724Y-124017154D01*
X180245721Y-124017155D01*
X180129775Y-124084097D01*
X179379276Y-124834596D01*
X179316964Y-124868621D01*
X179290181Y-124871500D01*
X166480818Y-124871500D01*
X166412697Y-124851498D01*
X166391722Y-124834595D01*
X165641229Y-124084101D01*
X165641223Y-124084096D01*
X165525278Y-124017155D01*
X165525276Y-124017154D01*
X165525274Y-124017153D01*
X165395945Y-123982500D01*
X165262055Y-123982500D01*
X165132726Y-124017153D01*
X165132724Y-124017154D01*
X165132721Y-124017155D01*
X165016776Y-124084096D01*
X165016766Y-124084104D01*
X164922104Y-124178766D01*
X164922096Y-124178776D01*
X164855155Y-124294721D01*
X164855154Y-124294724D01*
X164855153Y-124294726D01*
X164820500Y-124424055D01*
X164820500Y-124557945D01*
X164855153Y-124687274D01*
X164855154Y-124687276D01*
X164855155Y-124687278D01*
X164922096Y-124803223D01*
X164922098Y-124803225D01*
X164922098Y-124803226D01*
X164922101Y-124803229D01*
X165786277Y-125667404D01*
X165820302Y-125729717D01*
X165815238Y-125800532D01*
X165772691Y-125857368D01*
X165706171Y-125882179D01*
X165697182Y-125882500D01*
X155930500Y-125882500D01*
X155862379Y-125862498D01*
X155815886Y-125808842D01*
X155804500Y-125756500D01*
X155804500Y-122712336D01*
X160247312Y-122712336D01*
X160247312Y-122713664D01*
X160248500Y-122730273D01*
X160248500Y-122779947D01*
X160264765Y-122840652D01*
X160267774Y-122855322D01*
X160267957Y-122856595D01*
X160269618Y-122862255D01*
X160273290Y-122872469D01*
X160283153Y-122909274D01*
X160322554Y-122977517D01*
X160328048Y-122988175D01*
X160328222Y-122988557D01*
X160333091Y-122996133D01*
X160332749Y-122996352D01*
X160336346Y-123001407D01*
X160350098Y-123025225D01*
X160350101Y-123025229D01*
X160444772Y-123119900D01*
X160444775Y-123119902D01*
X160536226Y-123172701D01*
X160560726Y-123186847D01*
X160690055Y-123221500D01*
X160690057Y-123221500D01*
X167327443Y-123221500D01*
X167327445Y-123221500D01*
X167456774Y-123186847D01*
X167572726Y-123119901D01*
X167667401Y-123025226D01*
X167681148Y-123001414D01*
X167684751Y-122996369D01*
X167684401Y-122996144D01*
X167689270Y-122988565D01*
X167689277Y-122988558D01*
X167689452Y-122988175D01*
X167694945Y-122977517D01*
X167734347Y-122909274D01*
X167744206Y-122872478D01*
X167747875Y-122862274D01*
X167749540Y-122856603D01*
X167749540Y-122856599D01*
X167749542Y-122856596D01*
X167749723Y-122855329D01*
X167752729Y-122840664D01*
X167769000Y-122779945D01*
X167769000Y-122730273D01*
X167770188Y-122713664D01*
X167770188Y-122712336D01*
X167769000Y-122695724D01*
X167769000Y-122646055D01*
X167752735Y-122585353D01*
X167749723Y-122570662D01*
X167749670Y-122570296D01*
X167749542Y-122569404D01*
X167749541Y-122569401D01*
X167747879Y-122563738D01*
X167744205Y-122553519D01*
X167734347Y-122516726D01*
X167694944Y-122448479D01*
X167689446Y-122437813D01*
X167689276Y-122437440D01*
X167684406Y-122429862D01*
X167684751Y-122429639D01*
X167681152Y-122424592D01*
X167667401Y-122400774D01*
X167667396Y-122400769D01*
X167667394Y-122400766D01*
X167572727Y-122306099D01*
X167572724Y-122306097D01*
X167456778Y-122239155D01*
X167456776Y-122239154D01*
X167456774Y-122239153D01*
X167327445Y-122204500D01*
X160690055Y-122204500D01*
X160560726Y-122239153D01*
X160560724Y-122239154D01*
X160560721Y-122239155D01*
X160444775Y-122306097D01*
X160444772Y-122306099D01*
X160350102Y-122400769D01*
X160350097Y-122400776D01*
X160336340Y-122424602D01*
X160332755Y-122429657D01*
X160333088Y-122429871D01*
X160328219Y-122437448D01*
X160328035Y-122437852D01*
X160322554Y-122448479D01*
X160283152Y-122516726D01*
X160273291Y-122553527D01*
X160269617Y-122563748D01*
X160267958Y-122569402D01*
X160267775Y-122570677D01*
X160264765Y-122585349D01*
X160248500Y-122646052D01*
X160248500Y-122695724D01*
X160247312Y-122712336D01*
X155804500Y-122712336D01*
X155804500Y-119471056D01*
X155804500Y-119471055D01*
X155769847Y-119341726D01*
X155702901Y-119225774D01*
X155702900Y-119225772D01*
X155608227Y-119131099D01*
X155608224Y-119131097D01*
X155492278Y-119064155D01*
X155492276Y-119064154D01*
X155492274Y-119064153D01*
X155362945Y-119029500D01*
X155229055Y-119029500D01*
X155209905Y-119034630D01*
X155201108Y-119036988D01*
X155130132Y-119035296D01*
X155071337Y-118995500D01*
X155043391Y-118930235D01*
X155042500Y-118915280D01*
X155042500Y-117626796D01*
X183640569Y-117626796D01*
X183640569Y-117626803D01*
X183660190Y-117763273D01*
X183660192Y-117763280D01*
X183680931Y-117808693D01*
X183717471Y-117888703D01*
X183787811Y-117969881D01*
X183817304Y-118034461D01*
X183818586Y-118052392D01*
X183818586Y-119147147D01*
X183798584Y-119215268D01*
X183796473Y-119218088D01*
X183792560Y-119224177D01*
X183792557Y-119224182D01*
X183792557Y-119224183D01*
X183791830Y-119225775D01*
X183735277Y-119349608D01*
X183735276Y-119349612D01*
X183715655Y-119486082D01*
X183715655Y-119486089D01*
X183735276Y-119622559D01*
X183735278Y-119622566D01*
X183792557Y-119747989D01*
X183838901Y-119801473D01*
X183882852Y-119852196D01*
X183940848Y-119889467D01*
X183998846Y-119926740D01*
X184131144Y-119965586D01*
X184131147Y-119965586D01*
X184269025Y-119965586D01*
X184269028Y-119965586D01*
X184401326Y-119926740D01*
X184517321Y-119852195D01*
X184607615Y-119747989D01*
X184645887Y-119664184D01*
X184692379Y-119610530D01*
X184760499Y-119590528D01*
X184828620Y-119610530D01*
X184875113Y-119664185D01*
X184886500Y-119716528D01*
X184886500Y-123287945D01*
X184921153Y-123417274D01*
X184921154Y-123417276D01*
X184921155Y-123417278D01*
X184988097Y-123533224D01*
X184988099Y-123533227D01*
X185082772Y-123627900D01*
X185082775Y-123627902D01*
X185174226Y-123680701D01*
X185198726Y-123694847D01*
X185328055Y-123729500D01*
X185328057Y-123729500D01*
X185461943Y-123729500D01*
X185461945Y-123729500D01*
X185591274Y-123694847D01*
X185707226Y-123627901D01*
X185801901Y-123533226D01*
X185868847Y-123417274D01*
X185903500Y-123287945D01*
X185903500Y-122712336D01*
X192632312Y-122712336D01*
X192632312Y-122713664D01*
X192633500Y-122730273D01*
X192633500Y-122779947D01*
X192649765Y-122840652D01*
X192652774Y-122855322D01*
X192652957Y-122856595D01*
X192654618Y-122862255D01*
X192658290Y-122872469D01*
X192668153Y-122909274D01*
X192707554Y-122977517D01*
X192713048Y-122988175D01*
X192713222Y-122988557D01*
X192718091Y-122996133D01*
X192717749Y-122996352D01*
X192721346Y-123001407D01*
X192735098Y-123025225D01*
X192735101Y-123025229D01*
X192829772Y-123119900D01*
X192829775Y-123119902D01*
X192921226Y-123172701D01*
X192945726Y-123186847D01*
X193075055Y-123221500D01*
X193075057Y-123221500D01*
X199712443Y-123221500D01*
X199712445Y-123221500D01*
X199841774Y-123186847D01*
X199957726Y-123119901D01*
X200052401Y-123025226D01*
X200066148Y-123001414D01*
X200069751Y-122996369D01*
X200069401Y-122996144D01*
X200074270Y-122988565D01*
X200074277Y-122988558D01*
X200074452Y-122988175D01*
X200079945Y-122977517D01*
X200119347Y-122909274D01*
X200129206Y-122872478D01*
X200132875Y-122862274D01*
X200134540Y-122856603D01*
X200134540Y-122856599D01*
X200134542Y-122856596D01*
X200134723Y-122855329D01*
X200137729Y-122840664D01*
X200154000Y-122779945D01*
X200154000Y-122730273D01*
X200155188Y-122713664D01*
X200155188Y-122712336D01*
X225017312Y-122712336D01*
X225017312Y-122713664D01*
X225018500Y-122730273D01*
X225018500Y-122779947D01*
X225034765Y-122840652D01*
X225037774Y-122855322D01*
X225037957Y-122856595D01*
X225039618Y-122862255D01*
X225043290Y-122872469D01*
X225053153Y-122909274D01*
X225092554Y-122977517D01*
X225098048Y-122988175D01*
X225098222Y-122988557D01*
X225103091Y-122996133D01*
X225102749Y-122996352D01*
X225106346Y-123001407D01*
X225120098Y-123025225D01*
X225120101Y-123025229D01*
X225214772Y-123119900D01*
X225214775Y-123119902D01*
X225306226Y-123172701D01*
X225330726Y-123186847D01*
X225460055Y-123221500D01*
X225460057Y-123221500D01*
X232097443Y-123221500D01*
X232097445Y-123221500D01*
X232226774Y-123186847D01*
X232342726Y-123119901D01*
X232437401Y-123025226D01*
X232451148Y-123001414D01*
X232454751Y-122996369D01*
X232454401Y-122996144D01*
X232459270Y-122988565D01*
X232459277Y-122988558D01*
X232459452Y-122988175D01*
X232464945Y-122977517D01*
X232504347Y-122909274D01*
X232514206Y-122872478D01*
X232517875Y-122862274D01*
X232519540Y-122856603D01*
X232519540Y-122856599D01*
X232519542Y-122856596D01*
X232519723Y-122855329D01*
X232522729Y-122840664D01*
X232539000Y-122779945D01*
X232539000Y-122730273D01*
X232540188Y-122713664D01*
X232540188Y-122712336D01*
X232539000Y-122695724D01*
X232539000Y-122646055D01*
X232522735Y-122585353D01*
X232519723Y-122570662D01*
X232519670Y-122570296D01*
X232519542Y-122569404D01*
X232519541Y-122569401D01*
X232517879Y-122563738D01*
X232514205Y-122553519D01*
X232504347Y-122516726D01*
X232464944Y-122448479D01*
X232459446Y-122437813D01*
X232459276Y-122437440D01*
X232454406Y-122429862D01*
X232454751Y-122429639D01*
X232451152Y-122424592D01*
X232437401Y-122400774D01*
X232437396Y-122400769D01*
X232437394Y-122400766D01*
X232342727Y-122306099D01*
X232342724Y-122306097D01*
X232226778Y-122239155D01*
X232226776Y-122239154D01*
X232226774Y-122239153D01*
X232097445Y-122204500D01*
X225460055Y-122204500D01*
X225330726Y-122239153D01*
X225330724Y-122239154D01*
X225330721Y-122239155D01*
X225214775Y-122306097D01*
X225214772Y-122306099D01*
X225120102Y-122400769D01*
X225120097Y-122400776D01*
X225106340Y-122424602D01*
X225102755Y-122429657D01*
X225103088Y-122429871D01*
X225098219Y-122437448D01*
X225098035Y-122437852D01*
X225092554Y-122448479D01*
X225053152Y-122516726D01*
X225043291Y-122553527D01*
X225039617Y-122563748D01*
X225037958Y-122569402D01*
X225037775Y-122570677D01*
X225034765Y-122585349D01*
X225018500Y-122646052D01*
X225018500Y-122695724D01*
X225017312Y-122712336D01*
X200155188Y-122712336D01*
X200154000Y-122695724D01*
X200154000Y-122646055D01*
X200137735Y-122585353D01*
X200134723Y-122570662D01*
X200134670Y-122570296D01*
X200134542Y-122569404D01*
X200134541Y-122569401D01*
X200132879Y-122563738D01*
X200129205Y-122553519D01*
X200119347Y-122516726D01*
X200079944Y-122448479D01*
X200074446Y-122437813D01*
X200074276Y-122437440D01*
X200069406Y-122429862D01*
X200069751Y-122429639D01*
X200066152Y-122424592D01*
X200052401Y-122400774D01*
X200052396Y-122400769D01*
X200052394Y-122400766D01*
X199957727Y-122306099D01*
X199957724Y-122306097D01*
X199841778Y-122239155D01*
X199841776Y-122239154D01*
X199841774Y-122239153D01*
X199712445Y-122204500D01*
X193075055Y-122204500D01*
X192945726Y-122239153D01*
X192945724Y-122239154D01*
X192945721Y-122239155D01*
X192829775Y-122306097D01*
X192829772Y-122306099D01*
X192735102Y-122400769D01*
X192735097Y-122400776D01*
X192721340Y-122424602D01*
X192717755Y-122429657D01*
X192718088Y-122429871D01*
X192713219Y-122437448D01*
X192713035Y-122437852D01*
X192707554Y-122448479D01*
X192668152Y-122516726D01*
X192658291Y-122553527D01*
X192654617Y-122563748D01*
X192652958Y-122569402D01*
X192652775Y-122570677D01*
X192649765Y-122585349D01*
X192633500Y-122646052D01*
X192633500Y-122695724D01*
X192632312Y-122712336D01*
X185903500Y-122712336D01*
X185903500Y-119664996D01*
X216279569Y-119664996D01*
X216279569Y-119665003D01*
X216299190Y-119801473D01*
X216299192Y-119801480D01*
X216356396Y-119926740D01*
X216356471Y-119926903D01*
X216389988Y-119965584D01*
X216446766Y-120031110D01*
X216504762Y-120068381D01*
X216562760Y-120105654D01*
X216695058Y-120144500D01*
X216695061Y-120144500D01*
X216832939Y-120144500D01*
X216832942Y-120144500D01*
X216965240Y-120105654D01*
X217081235Y-120031109D01*
X217171529Y-119926903D01*
X217228808Y-119801480D01*
X217236499Y-119747987D01*
X217248431Y-119665003D01*
X217248431Y-119664996D01*
X217228809Y-119528526D01*
X217228808Y-119528522D01*
X217228808Y-119528520D01*
X217171529Y-119403097D01*
X217171526Y-119403093D01*
X217171525Y-119403091D01*
X217166655Y-119395512D01*
X217169475Y-119393699D01*
X217146776Y-119343951D01*
X217145500Y-119326061D01*
X217145500Y-118007227D01*
X217165502Y-117939106D01*
X217203382Y-117901227D01*
X217208235Y-117898109D01*
X217298529Y-117793903D01*
X217355808Y-117668480D01*
X217361801Y-117626796D01*
X217375431Y-117532003D01*
X217375431Y-117531996D01*
X217355809Y-117395526D01*
X217355808Y-117395523D01*
X217355808Y-117395520D01*
X217298529Y-117270097D01*
X217208235Y-117165891D01*
X217208234Y-117165890D01*
X217208233Y-117165889D01*
X217092240Y-117091346D01*
X216959947Y-117052501D01*
X216959944Y-117052500D01*
X216959942Y-117052500D01*
X216822058Y-117052500D01*
X216822056Y-117052500D01*
X216822052Y-117052501D01*
X216689759Y-117091346D01*
X216573766Y-117165889D01*
X216483470Y-117270098D01*
X216426190Y-117395523D01*
X216411685Y-117496409D01*
X216408675Y-117511086D01*
X216382500Y-117608774D01*
X216382500Y-119326061D01*
X216362498Y-119394182D01*
X216360387Y-119397002D01*
X216356474Y-119403091D01*
X216356471Y-119403096D01*
X216356471Y-119403097D01*
X216325435Y-119471056D01*
X216299191Y-119528522D01*
X216299190Y-119528526D01*
X216279569Y-119664996D01*
X185903500Y-119664996D01*
X185903500Y-116550055D01*
X185868847Y-116420726D01*
X185801901Y-116304774D01*
X185801900Y-116304772D01*
X185707227Y-116210099D01*
X185707224Y-116210097D01*
X185591278Y-116143155D01*
X185591276Y-116143154D01*
X185591274Y-116143153D01*
X185461945Y-116108500D01*
X185328055Y-116108500D01*
X185198726Y-116143153D01*
X185198724Y-116143154D01*
X185198721Y-116143155D01*
X185082775Y-116210097D01*
X185082772Y-116210099D01*
X184988099Y-116304772D01*
X184988097Y-116304775D01*
X184921155Y-116420721D01*
X184921154Y-116420724D01*
X184921153Y-116420726D01*
X184886500Y-116550055D01*
X184886500Y-116550056D01*
X184886500Y-119255643D01*
X184866498Y-119323764D01*
X184812842Y-119370257D01*
X184742568Y-119380361D01*
X184677988Y-119350867D01*
X184645887Y-119307986D01*
X184608342Y-119225775D01*
X184607615Y-119224183D01*
X184607613Y-119224181D01*
X184602741Y-119216598D01*
X184605561Y-119214785D01*
X184582862Y-119165037D01*
X184581586Y-119147147D01*
X184581586Y-117808693D01*
X184589448Y-117772568D01*
X184587269Y-117771928D01*
X184589806Y-117763283D01*
X184589808Y-117763280D01*
X184609431Y-117626800D01*
X184609431Y-117626796D01*
X184589809Y-117490326D01*
X184589808Y-117490325D01*
X184589808Y-117490320D01*
X184532529Y-117364897D01*
X184442235Y-117260691D01*
X184442234Y-117260690D01*
X184442233Y-117260689D01*
X184326240Y-117186146D01*
X184193947Y-117147301D01*
X184193944Y-117147300D01*
X184193942Y-117147300D01*
X184056058Y-117147300D01*
X184056056Y-117147300D01*
X184056052Y-117147301D01*
X183923759Y-117186146D01*
X183807766Y-117260689D01*
X183717470Y-117364898D01*
X183660192Y-117490319D01*
X183660190Y-117490326D01*
X183640569Y-117626796D01*
X155042500Y-117626796D01*
X155042500Y-117559856D01*
X155029609Y-117511746D01*
X155007847Y-117430526D01*
X154969956Y-117364898D01*
X154940902Y-117314575D01*
X154940900Y-117314572D01*
X154846227Y-117219899D01*
X154846224Y-117219897D01*
X154730278Y-117152955D01*
X154730276Y-117152954D01*
X154730274Y-117152953D01*
X154600945Y-117118300D01*
X154467055Y-117118300D01*
X154337726Y-117152953D01*
X154337724Y-117152954D01*
X154337721Y-117152955D01*
X154221775Y-117219897D01*
X154221772Y-117219899D01*
X154127099Y-117314572D01*
X154127097Y-117314575D01*
X154060155Y-117430521D01*
X154060154Y-117430524D01*
X154060153Y-117430526D01*
X154038391Y-117511746D01*
X154025500Y-117559856D01*
X154025500Y-118407280D01*
X154005498Y-118475401D01*
X153951842Y-118521894D01*
X153881568Y-118531998D01*
X153866892Y-118528988D01*
X153858094Y-118526630D01*
X153838945Y-118521500D01*
X153705055Y-118521500D01*
X153705054Y-118521500D01*
X153637563Y-118539584D01*
X153566587Y-118537894D01*
X153507791Y-118498099D01*
X153488102Y-118459903D01*
X153487007Y-118460357D01*
X153483848Y-118452732D01*
X153483847Y-118452726D01*
X153416901Y-118336774D01*
X153416900Y-118336772D01*
X153322227Y-118242099D01*
X153322224Y-118242097D01*
X153206278Y-118175155D01*
X153206276Y-118175154D01*
X153206274Y-118175153D01*
X153076945Y-118140500D01*
X152943055Y-118140500D01*
X152813726Y-118175153D01*
X152813724Y-118175154D01*
X152813721Y-118175155D01*
X152690621Y-118246228D01*
X152689093Y-118243583D01*
X152636443Y-118263919D01*
X152566899Y-118249631D01*
X152516119Y-118200013D01*
X152500000Y-118138352D01*
X152500000Y-114711336D01*
X156183312Y-114711336D01*
X156183312Y-114712664D01*
X156184500Y-114729273D01*
X156184500Y-114778947D01*
X156200765Y-114839652D01*
X156203774Y-114854322D01*
X156203957Y-114855595D01*
X156205618Y-114861255D01*
X156209290Y-114871469D01*
X156219153Y-114908274D01*
X156258554Y-114976517D01*
X156264048Y-114987175D01*
X156264222Y-114987557D01*
X156269091Y-114995133D01*
X156268749Y-114995352D01*
X156272346Y-115000407D01*
X156286098Y-115024225D01*
X156286101Y-115024229D01*
X156380772Y-115118900D01*
X156380775Y-115118902D01*
X156472226Y-115171701D01*
X156496726Y-115185847D01*
X156626055Y-115220500D01*
X156626057Y-115220500D01*
X162728943Y-115220500D01*
X162728945Y-115220500D01*
X162858274Y-115185847D01*
X162974226Y-115118901D01*
X163068901Y-115024226D01*
X163082648Y-115000414D01*
X163086251Y-114995369D01*
X163085901Y-114995144D01*
X163090770Y-114987565D01*
X163090777Y-114987558D01*
X163090952Y-114987175D01*
X163096445Y-114976517D01*
X163135847Y-114908274D01*
X163145706Y-114871478D01*
X163149375Y-114861274D01*
X163151040Y-114855603D01*
X163151040Y-114855599D01*
X163151042Y-114855596D01*
X163151223Y-114854329D01*
X163154229Y-114839664D01*
X163170500Y-114778945D01*
X163170500Y-114729273D01*
X163171688Y-114712664D01*
X163171688Y-114711336D01*
X188568312Y-114711336D01*
X188568312Y-114712664D01*
X188569500Y-114729273D01*
X188569500Y-114778947D01*
X188585765Y-114839652D01*
X188588774Y-114854322D01*
X188588957Y-114855595D01*
X188590618Y-114861255D01*
X188594290Y-114871469D01*
X188604153Y-114908274D01*
X188643554Y-114976517D01*
X188649048Y-114987175D01*
X188649222Y-114987557D01*
X188654091Y-114995133D01*
X188653749Y-114995352D01*
X188657346Y-115000407D01*
X188671098Y-115024225D01*
X188671101Y-115024229D01*
X188765772Y-115118900D01*
X188765775Y-115118902D01*
X188857226Y-115171701D01*
X188881726Y-115185847D01*
X189011055Y-115220500D01*
X189011057Y-115220500D01*
X195113943Y-115220500D01*
X195113945Y-115220500D01*
X195243274Y-115185847D01*
X195359226Y-115118901D01*
X195453901Y-115024226D01*
X195467648Y-115000414D01*
X195471251Y-114995369D01*
X195470901Y-114995144D01*
X195475770Y-114987565D01*
X195475777Y-114987558D01*
X195475952Y-114987175D01*
X195481445Y-114976517D01*
X195520847Y-114908274D01*
X195530706Y-114871478D01*
X195534375Y-114861274D01*
X195536040Y-114855603D01*
X195536040Y-114855599D01*
X195536042Y-114855596D01*
X195536223Y-114854329D01*
X195539229Y-114839664D01*
X195555500Y-114778945D01*
X195555500Y-114729273D01*
X195556688Y-114712664D01*
X195556688Y-114711336D01*
X220953312Y-114711336D01*
X220953312Y-114712664D01*
X220954500Y-114729273D01*
X220954500Y-114778947D01*
X220970765Y-114839652D01*
X220973774Y-114854322D01*
X220973957Y-114855595D01*
X220975618Y-114861255D01*
X220979290Y-114871469D01*
X220989153Y-114908274D01*
X221028554Y-114976517D01*
X221034048Y-114987175D01*
X221034222Y-114987557D01*
X221039091Y-114995133D01*
X221038749Y-114995352D01*
X221042346Y-115000407D01*
X221056098Y-115024225D01*
X221056101Y-115024229D01*
X221150772Y-115118900D01*
X221150775Y-115118902D01*
X221242226Y-115171701D01*
X221266726Y-115185847D01*
X221396055Y-115220500D01*
X221396057Y-115220500D01*
X227498943Y-115220500D01*
X227498945Y-115220500D01*
X227628274Y-115185847D01*
X227744226Y-115118901D01*
X227838901Y-115024226D01*
X227852648Y-115000414D01*
X227856251Y-114995369D01*
X227855901Y-114995144D01*
X227860770Y-114987565D01*
X227860777Y-114987558D01*
X227860952Y-114987175D01*
X227866445Y-114976517D01*
X227905847Y-114908274D01*
X227915706Y-114871478D01*
X227919375Y-114861274D01*
X227921040Y-114855603D01*
X227921040Y-114855599D01*
X227921042Y-114855596D01*
X227921223Y-114854329D01*
X227924229Y-114839664D01*
X227940500Y-114778945D01*
X227940500Y-114729273D01*
X227941688Y-114712664D01*
X227941688Y-114711336D01*
X227940500Y-114694724D01*
X227940500Y-114645055D01*
X227924235Y-114584353D01*
X227921223Y-114569662D01*
X227921170Y-114569296D01*
X227921042Y-114568404D01*
X227921041Y-114568401D01*
X227919379Y-114562738D01*
X227915705Y-114552519D01*
X227905847Y-114515726D01*
X227866444Y-114447479D01*
X227860946Y-114436813D01*
X227860776Y-114436440D01*
X227855906Y-114428862D01*
X227856251Y-114428639D01*
X227852652Y-114423592D01*
X227838901Y-114399774D01*
X227838896Y-114399769D01*
X227838894Y-114399766D01*
X227744227Y-114305099D01*
X227744224Y-114305097D01*
X227628278Y-114238155D01*
X227628276Y-114238154D01*
X227628274Y-114238153D01*
X227498945Y-114203500D01*
X221396055Y-114203500D01*
X221266726Y-114238153D01*
X221266724Y-114238154D01*
X221266721Y-114238155D01*
X221150775Y-114305097D01*
X221150772Y-114305099D01*
X221056102Y-114399769D01*
X221056097Y-114399776D01*
X221042340Y-114423602D01*
X221038755Y-114428657D01*
X221039088Y-114428871D01*
X221034219Y-114436448D01*
X221034035Y-114436852D01*
X221028554Y-114447479D01*
X220989152Y-114515726D01*
X220979291Y-114552527D01*
X220975617Y-114562748D01*
X220973958Y-114568402D01*
X220973775Y-114569677D01*
X220970765Y-114584349D01*
X220954500Y-114645052D01*
X220954500Y-114694724D01*
X220953312Y-114711336D01*
X195556688Y-114711336D01*
X195555500Y-114694724D01*
X195555500Y-114645055D01*
X195539235Y-114584353D01*
X195536223Y-114569662D01*
X195536170Y-114569296D01*
X195536042Y-114568404D01*
X195536041Y-114568401D01*
X195534379Y-114562738D01*
X195530705Y-114552519D01*
X195520847Y-114515726D01*
X195481444Y-114447479D01*
X195475946Y-114436813D01*
X195475776Y-114436440D01*
X195470906Y-114428862D01*
X195471251Y-114428639D01*
X195467652Y-114423592D01*
X195453901Y-114399774D01*
X195453896Y-114399769D01*
X195453894Y-114399766D01*
X195359227Y-114305099D01*
X195359224Y-114305097D01*
X195243278Y-114238155D01*
X195243276Y-114238154D01*
X195243274Y-114238153D01*
X195113945Y-114203500D01*
X189011055Y-114203500D01*
X188881726Y-114238153D01*
X188881724Y-114238154D01*
X188881721Y-114238155D01*
X188765775Y-114305097D01*
X188765772Y-114305099D01*
X188671102Y-114399769D01*
X188671097Y-114399776D01*
X188657340Y-114423602D01*
X188653755Y-114428657D01*
X188654088Y-114428871D01*
X188649219Y-114436448D01*
X188649035Y-114436852D01*
X188643554Y-114447479D01*
X188604152Y-114515726D01*
X188594291Y-114552527D01*
X188590617Y-114562748D01*
X188588958Y-114568402D01*
X188588775Y-114569677D01*
X188585765Y-114584349D01*
X188569500Y-114645052D01*
X188569500Y-114694724D01*
X188568312Y-114711336D01*
X163171688Y-114711336D01*
X163170500Y-114694724D01*
X163170500Y-114645055D01*
X163154235Y-114584353D01*
X163151223Y-114569662D01*
X163151170Y-114569296D01*
X163151042Y-114568404D01*
X163151041Y-114568401D01*
X163149379Y-114562738D01*
X163145705Y-114552519D01*
X163135847Y-114515726D01*
X163096444Y-114447479D01*
X163090946Y-114436813D01*
X163090776Y-114436440D01*
X163085906Y-114428862D01*
X163086251Y-114428639D01*
X163082652Y-114423592D01*
X163068901Y-114399774D01*
X163068896Y-114399769D01*
X163068894Y-114399766D01*
X162974227Y-114305099D01*
X162974224Y-114305097D01*
X162858278Y-114238155D01*
X162858276Y-114238154D01*
X162858274Y-114238153D01*
X162728945Y-114203500D01*
X156626055Y-114203500D01*
X156496726Y-114238153D01*
X156496724Y-114238154D01*
X156496721Y-114238155D01*
X156380775Y-114305097D01*
X156380772Y-114305099D01*
X156286102Y-114399769D01*
X156286097Y-114399776D01*
X156272340Y-114423602D01*
X156268755Y-114428657D01*
X156269088Y-114428871D01*
X156264219Y-114436448D01*
X156264035Y-114436852D01*
X156258554Y-114447479D01*
X156219152Y-114515726D01*
X156209291Y-114552527D01*
X156205617Y-114562748D01*
X156203958Y-114568402D01*
X156203775Y-114569677D01*
X156200765Y-114584349D01*
X156184500Y-114645052D01*
X156184500Y-114694724D01*
X156183312Y-114711336D01*
X152500000Y-114711336D01*
X152500000Y-108295055D01*
X173456500Y-108295055D01*
X173456500Y-108428945D01*
X173491153Y-108558274D01*
X173491154Y-108558276D01*
X173491155Y-108558278D01*
X173558097Y-108674224D01*
X173558099Y-108674227D01*
X173652772Y-108768900D01*
X173652775Y-108768902D01*
X173744226Y-108821701D01*
X173768726Y-108835847D01*
X173898055Y-108870500D01*
X173898057Y-108870500D01*
X199050943Y-108870500D01*
X199050945Y-108870500D01*
X199180274Y-108835847D01*
X199296226Y-108768901D01*
X199390901Y-108674226D01*
X199457847Y-108558274D01*
X199492500Y-108428945D01*
X199492500Y-108295055D01*
X199457847Y-108165726D01*
X199390901Y-108049774D01*
X199390900Y-108049772D01*
X199296227Y-107955099D01*
X199296224Y-107955097D01*
X199180278Y-107888155D01*
X199180276Y-107888154D01*
X199180274Y-107888153D01*
X199050945Y-107853500D01*
X173898055Y-107853500D01*
X173768726Y-107888153D01*
X173768724Y-107888154D01*
X173768721Y-107888155D01*
X173652775Y-107955097D01*
X173652772Y-107955099D01*
X173558099Y-108049772D01*
X173558097Y-108049775D01*
X173491155Y-108165721D01*
X173491154Y-108165724D01*
X173491153Y-108165726D01*
X173456500Y-108295055D01*
X152500000Y-108295055D01*
X152500000Y-91614206D01*
X152520002Y-91546085D01*
X152573658Y-91499592D01*
X152643932Y-91489488D01*
X152708512Y-91518982D01*
X152746896Y-91578708D01*
X152751278Y-91600737D01*
X152756430Y-91648659D01*
X152767816Y-91701001D01*
X152772777Y-91719084D01*
X152775165Y-91727789D01*
X152825270Y-91815779D01*
X152825275Y-91815786D01*
X152871752Y-91869423D01*
X152871762Y-91869434D01*
X152905051Y-91901556D01*
X152994770Y-91948487D01*
X153062891Y-91968489D01*
X153136000Y-91979000D01*
X153010000Y-91979000D01*
X153010000Y-106457000D01*
X172060000Y-106457000D01*
X194920000Y-106457000D01*
X194920000Y-92982943D01*
X195251538Y-92651405D01*
X195313850Y-92617379D01*
X195340633Y-92614500D01*
X212152607Y-92614500D01*
X212152608Y-92614500D01*
X212324458Y-92580317D01*
X212486336Y-92513265D01*
X212632023Y-92415920D01*
X212755920Y-92292023D01*
X212853265Y-92146336D01*
X212920317Y-91984458D01*
X212954500Y-91812608D01*
X212954500Y-91637392D01*
X212920317Y-91465542D01*
X212853265Y-91303664D01*
X212755920Y-91157977D01*
X212632023Y-91034080D01*
X212486336Y-90936735D01*
X212324458Y-90869683D01*
X212152610Y-90835500D01*
X212152608Y-90835500D01*
X205802608Y-90835500D01*
X195305500Y-90835500D01*
X195237379Y-90815498D01*
X195190886Y-90761842D01*
X195179500Y-90709500D01*
X195179500Y-88419103D01*
X195199502Y-88350982D01*
X195253158Y-88304489D01*
X195323432Y-88294385D01*
X195388012Y-88323879D01*
X195410265Y-88349102D01*
X195499073Y-88482014D01*
X195499078Y-88482020D01*
X195499080Y-88482023D01*
X195622977Y-88605920D01*
X195768664Y-88703265D01*
X195930542Y-88770317D01*
X196102392Y-88804500D01*
X196102393Y-88804500D01*
X214057607Y-88804500D01*
X214057608Y-88804500D01*
X214229458Y-88770317D01*
X214391336Y-88703265D01*
X214537023Y-88605920D01*
X214660920Y-88482023D01*
X214758265Y-88336336D01*
X214825317Y-88174458D01*
X214859500Y-88002608D01*
X214859500Y-87827392D01*
X214825317Y-87655542D01*
X214758265Y-87493664D01*
X214661939Y-87349502D01*
X214640724Y-87281749D01*
X214659507Y-87213282D01*
X214712324Y-87165839D01*
X214766704Y-87153500D01*
X222926943Y-87153500D01*
X222926945Y-87153500D01*
X223056274Y-87118847D01*
X223172226Y-87051901D01*
X223266901Y-86957226D01*
X223333847Y-86841274D01*
X223368500Y-86711945D01*
X223368500Y-86578055D01*
X223361012Y-86550109D01*
X223362702Y-86479135D01*
X223402496Y-86420339D01*
X223467760Y-86392391D01*
X223482719Y-86391500D01*
X223688943Y-86391500D01*
X223688945Y-86391500D01*
X223818274Y-86356847D01*
X223934226Y-86289901D01*
X224028901Y-86195226D01*
X224095847Y-86079274D01*
X224130500Y-85949945D01*
X224130500Y-85816055D01*
X224095847Y-85686726D01*
X224028901Y-85570774D01*
X224028900Y-85570772D01*
X223934227Y-85476099D01*
X223934224Y-85476097D01*
X223818278Y-85409155D01*
X223818276Y-85409154D01*
X223818274Y-85409153D01*
X223688945Y-85374500D01*
X223688943Y-85374500D01*
X222720719Y-85374500D01*
X222652598Y-85354498D01*
X222606105Y-85300842D01*
X222596001Y-85230568D01*
X222599010Y-85215897D01*
X222606500Y-85187945D01*
X222606500Y-85054055D01*
X222571847Y-84924726D01*
X222504901Y-84808774D01*
X222504900Y-84808772D01*
X222410227Y-84714099D01*
X222410224Y-84714097D01*
X222294278Y-84647155D01*
X222294276Y-84647154D01*
X222294274Y-84647153D01*
X222164945Y-84612500D01*
X222164943Y-84612500D01*
X214973719Y-84612500D01*
X214905598Y-84592498D01*
X214859105Y-84538842D01*
X214849001Y-84468568D01*
X214852010Y-84453897D01*
X214859500Y-84425945D01*
X214859500Y-84292055D01*
X214824847Y-84162726D01*
X214757901Y-84046774D01*
X214757900Y-84046772D01*
X214663227Y-83952099D01*
X214663224Y-83952097D01*
X214547278Y-83885155D01*
X214547276Y-83885154D01*
X214547274Y-83885153D01*
X214417945Y-83850500D01*
X214417943Y-83850500D01*
X214211719Y-83850500D01*
X214143598Y-83830498D01*
X214097105Y-83776842D01*
X214087001Y-83706568D01*
X214090010Y-83691897D01*
X214097500Y-83663945D01*
X214097500Y-83530055D01*
X214062847Y-83400726D01*
X213995901Y-83284774D01*
X213995900Y-83284772D01*
X213901227Y-83190099D01*
X213901224Y-83190097D01*
X213785278Y-83123155D01*
X213785276Y-83123154D01*
X213785274Y-83123153D01*
X213655945Y-83088500D01*
X200568055Y-83088500D01*
X200438726Y-83123153D01*
X200438724Y-83123154D01*
X200438721Y-83123155D01*
X200322775Y-83190097D01*
X200322772Y-83190099D01*
X200228099Y-83284772D01*
X200228097Y-83284775D01*
X200161155Y-83400721D01*
X200161154Y-83400724D01*
X200161153Y-83400726D01*
X200126500Y-83530055D01*
X200126500Y-83663945D01*
X200133987Y-83691890D01*
X200132298Y-83762865D01*
X200092504Y-83821661D01*
X200027240Y-83849609D01*
X200012281Y-83850500D01*
X199806055Y-83850500D01*
X199676726Y-83885153D01*
X199676724Y-83885154D01*
X199676721Y-83885155D01*
X199560775Y-83952097D01*
X199560772Y-83952099D01*
X199466099Y-84046772D01*
X199466097Y-84046775D01*
X199399155Y-84162721D01*
X199399154Y-84162724D01*
X199399153Y-84162726D01*
X199364500Y-84292055D01*
X199364500Y-84425945D01*
X199371987Y-84453890D01*
X199370298Y-84524865D01*
X199330504Y-84583661D01*
X199265240Y-84611609D01*
X199250281Y-84612500D01*
X198917055Y-84612500D01*
X198787726Y-84647153D01*
X198787724Y-84647154D01*
X198787721Y-84647155D01*
X198671775Y-84714097D01*
X198671772Y-84714099D01*
X198577099Y-84808772D01*
X198577097Y-84808775D01*
X198510155Y-84924721D01*
X198510154Y-84924724D01*
X198510153Y-84924726D01*
X198475500Y-85054055D01*
X198475500Y-85187945D01*
X198482987Y-85215890D01*
X198481298Y-85286865D01*
X198441504Y-85345661D01*
X198376240Y-85373609D01*
X198361281Y-85374500D01*
X197393055Y-85374500D01*
X197263726Y-85409153D01*
X197263724Y-85409154D01*
X197263721Y-85409155D01*
X197147775Y-85476097D01*
X197147772Y-85476099D01*
X197053099Y-85570772D01*
X197053097Y-85570775D01*
X196986155Y-85686721D01*
X196986154Y-85686724D01*
X196986153Y-85686726D01*
X196951500Y-85816055D01*
X196951500Y-85949945D01*
X196986153Y-86079274D01*
X196986154Y-86079276D01*
X196986155Y-86079278D01*
X197053097Y-86195224D01*
X197053099Y-86195227D01*
X197147772Y-86289900D01*
X197147775Y-86289902D01*
X197239226Y-86342701D01*
X197263726Y-86356847D01*
X197393055Y-86391500D01*
X197599281Y-86391500D01*
X197667402Y-86411502D01*
X197713895Y-86465158D01*
X197723999Y-86535432D01*
X197720989Y-86550102D01*
X197713500Y-86578055D01*
X197713500Y-86711945D01*
X197748153Y-86841274D01*
X197748157Y-86841281D01*
X197751314Y-86848903D01*
X197748671Y-86849997D01*
X197762135Y-86905493D01*
X197738916Y-86972585D01*
X197683110Y-87016473D01*
X197636278Y-87025500D01*
X196102389Y-87025500D01*
X195930541Y-87059683D01*
X195930536Y-87059685D01*
X195768664Y-87126735D01*
X195622981Y-87224077D01*
X195622974Y-87224082D01*
X195499082Y-87347974D01*
X195499077Y-87347981D01*
X195410265Y-87480898D01*
X195355788Y-87526426D01*
X195285345Y-87535274D01*
X195221301Y-87504633D01*
X195183990Y-87444231D01*
X195179500Y-87410896D01*
X195179500Y-77299181D01*
X195179499Y-77299174D01*
X195178014Y-77271455D01*
X195175153Y-77244847D01*
X195175136Y-77244676D01*
X195175134Y-77244671D01*
X195175134Y-77244662D01*
X195144876Y-77148037D01*
X195131002Y-77122630D01*
X195110852Y-77085728D01*
X195066589Y-77026601D01*
X195066582Y-77026593D01*
X185183405Y-67143416D01*
X185149379Y-67081104D01*
X185146500Y-67054321D01*
X185146500Y-61400000D01*
X185890858Y-61400000D01*
X185909396Y-61623714D01*
X185964498Y-61841309D01*
X185964501Y-61841316D01*
X186010979Y-61947274D01*
X186054670Y-62046880D01*
X186069116Y-62068991D01*
X186177447Y-62234804D01*
X186329471Y-62399947D01*
X186329476Y-62399951D01*
X186329478Y-62399953D01*
X186506620Y-62537828D01*
X186704039Y-62644666D01*
X186916350Y-62717553D01*
X187137763Y-62754500D01*
X187137767Y-62754500D01*
X187362233Y-62754500D01*
X187362237Y-62754500D01*
X187583650Y-62717553D01*
X187795961Y-62644666D01*
X187993380Y-62537828D01*
X188170522Y-62399953D01*
X188206386Y-62360995D01*
X188322554Y-62234802D01*
X188394517Y-62124655D01*
X188448521Y-62078566D01*
X188518868Y-62068991D01*
X188583226Y-62098968D01*
X188605483Y-62124655D01*
X188677445Y-62234802D01*
X188829471Y-62399947D01*
X188829476Y-62399951D01*
X188829478Y-62399953D01*
X189006620Y-62537828D01*
X189204039Y-62644666D01*
X189416350Y-62717553D01*
X189637763Y-62754500D01*
X189637767Y-62754500D01*
X189862233Y-62754500D01*
X189862237Y-62754500D01*
X190083650Y-62717553D01*
X190295961Y-62644666D01*
X190493380Y-62537828D01*
X190670522Y-62399953D01*
X190706386Y-62360995D01*
X190822552Y-62234804D01*
X190822551Y-62234804D01*
X190822554Y-62234802D01*
X190945330Y-62046880D01*
X191035500Y-61841313D01*
X191090605Y-61623707D01*
X191109142Y-61400000D01*
X191092569Y-61200000D01*
X194579399Y-61200000D01*
X194599766Y-61432796D01*
X194660246Y-61658510D01*
X194660248Y-61658516D01*
X194759004Y-61870299D01*
X194759005Y-61870301D01*
X194893036Y-62061717D01*
X194893043Y-62061726D01*
X195058273Y-62226956D01*
X195058277Y-62226959D01*
X195058278Y-62226960D01*
X195249699Y-62360995D01*
X195461487Y-62459753D01*
X195653958Y-62511325D01*
X195685359Y-62519739D01*
X195687207Y-62520234D01*
X195920000Y-62540601D01*
X196152793Y-62520234D01*
X196378513Y-62459753D01*
X196590301Y-62360995D01*
X196781722Y-62226960D01*
X196946960Y-62061722D01*
X197080995Y-61870301D01*
X197179753Y-61658513D01*
X197240234Y-61432793D01*
X197260601Y-61200000D01*
X199659901Y-61200000D01*
X199680260Y-61432704D01*
X199740718Y-61658339D01*
X199740720Y-61658344D01*
X199839439Y-61870049D01*
X199893514Y-61947274D01*
X200359032Y-61481755D01*
X200379668Y-61531574D01*
X200456274Y-61646224D01*
X200553776Y-61743726D01*
X200668426Y-61820332D01*
X200718242Y-61840966D01*
X200252724Y-62306484D01*
X200252724Y-62306485D01*
X200329951Y-62360560D01*
X200329950Y-62360560D01*
X200541655Y-62459279D01*
X200541660Y-62459281D01*
X200767295Y-62519739D01*
X201000000Y-62540098D01*
X201232704Y-62519739D01*
X201458339Y-62459281D01*
X201458344Y-62459279D01*
X201670049Y-62360560D01*
X201670050Y-62360559D01*
X201747274Y-62306485D01*
X201747274Y-62306483D01*
X201281757Y-61840966D01*
X201331574Y-61820332D01*
X201446224Y-61743726D01*
X201543726Y-61646224D01*
X201620332Y-61531574D01*
X201640966Y-61481757D01*
X202106483Y-61947274D01*
X202106485Y-61947274D01*
X202160559Y-61870050D01*
X202160560Y-61870049D01*
X202259279Y-61658344D01*
X202259281Y-61658339D01*
X202319739Y-61432704D01*
X202340098Y-61200000D01*
X206329399Y-61200000D01*
X206349766Y-61432796D01*
X206410246Y-61658510D01*
X206410248Y-61658516D01*
X206509004Y-61870299D01*
X206509005Y-61870301D01*
X206643036Y-62061717D01*
X206643043Y-62061726D01*
X206808273Y-62226956D01*
X206808277Y-62226959D01*
X206808278Y-62226960D01*
X206999699Y-62360995D01*
X207211487Y-62459753D01*
X207403958Y-62511325D01*
X207435359Y-62519739D01*
X207437207Y-62520234D01*
X207670000Y-62540601D01*
X207902793Y-62520234D01*
X208128513Y-62459753D01*
X208340301Y-62360995D01*
X208531722Y-62226960D01*
X208696960Y-62061722D01*
X208830995Y-61870301D01*
X208929753Y-61658513D01*
X208990234Y-61432793D01*
X209010601Y-61200000D01*
X211409399Y-61200000D01*
X211429766Y-61432796D01*
X211490246Y-61658510D01*
X211490248Y-61658516D01*
X211589004Y-61870299D01*
X211589005Y-61870301D01*
X211723036Y-62061717D01*
X211723043Y-62061726D01*
X211888273Y-62226956D01*
X211888277Y-62226959D01*
X211888278Y-62226960D01*
X212079699Y-62360995D01*
X212291487Y-62459753D01*
X212483958Y-62511325D01*
X212515359Y-62519739D01*
X212517207Y-62520234D01*
X212750000Y-62540601D01*
X212982793Y-62520234D01*
X213208513Y-62459753D01*
X213420301Y-62360995D01*
X213611722Y-62226960D01*
X213776960Y-62061722D01*
X213910995Y-61870301D01*
X214009753Y-61658513D01*
X214070234Y-61432793D01*
X214090601Y-61200000D01*
X214070234Y-60967207D01*
X214009753Y-60741487D01*
X213910995Y-60529700D01*
X213776960Y-60338278D01*
X213611722Y-60173040D01*
X213611721Y-60173039D01*
X213611720Y-60173038D01*
X213611717Y-60173036D01*
X213420301Y-60039005D01*
X213420299Y-60039004D01*
X213208516Y-59940248D01*
X213208510Y-59940246D01*
X212982796Y-59879766D01*
X212750000Y-59859399D01*
X212517203Y-59879766D01*
X212291489Y-59940246D01*
X212291484Y-59940248D01*
X212079699Y-60039005D01*
X211888281Y-60173037D01*
X211888275Y-60173042D01*
X211723042Y-60338275D01*
X211723037Y-60338281D01*
X211589005Y-60529699D01*
X211490248Y-60741484D01*
X211490246Y-60741489D01*
X211429766Y-60967203D01*
X211409399Y-61200000D01*
X209010601Y-61200000D01*
X208990234Y-60967207D01*
X208929753Y-60741487D01*
X208830995Y-60529700D01*
X208696960Y-60338278D01*
X208531722Y-60173040D01*
X208531721Y-60173039D01*
X208531720Y-60173038D01*
X208531717Y-60173036D01*
X208340301Y-60039005D01*
X208340299Y-60039004D01*
X208128516Y-59940248D01*
X208128510Y-59940246D01*
X207902796Y-59879766D01*
X207670000Y-59859399D01*
X207437203Y-59879766D01*
X207211489Y-59940246D01*
X207211484Y-59940248D01*
X206999699Y-60039005D01*
X206808281Y-60173037D01*
X206808275Y-60173042D01*
X206643042Y-60338275D01*
X206643037Y-60338281D01*
X206509005Y-60529699D01*
X206410248Y-60741484D01*
X206410246Y-60741489D01*
X206349766Y-60967203D01*
X206329399Y-61200000D01*
X202340098Y-61200000D01*
X202319739Y-60967295D01*
X202259281Y-60741660D01*
X202259279Y-60741655D01*
X202160559Y-60529950D01*
X202106485Y-60452724D01*
X202106484Y-60452724D01*
X201640966Y-60918242D01*
X201620332Y-60868426D01*
X201543726Y-60753776D01*
X201446224Y-60656274D01*
X201331574Y-60579668D01*
X201281756Y-60559033D01*
X201747274Y-60093514D01*
X201747274Y-60093513D01*
X201670048Y-60039439D01*
X201670049Y-60039439D01*
X201458344Y-59940720D01*
X201458339Y-59940718D01*
X201232704Y-59880260D01*
X201000000Y-59859901D01*
X200767295Y-59880260D01*
X200541660Y-59940718D01*
X200541655Y-59940720D01*
X200329951Y-60039439D01*
X200252723Y-60093514D01*
X200718242Y-60559033D01*
X200668426Y-60579668D01*
X200553776Y-60656274D01*
X200456274Y-60753776D01*
X200379668Y-60868426D01*
X200359033Y-60918242D01*
X199893514Y-60452723D01*
X199839439Y-60529951D01*
X199740720Y-60741655D01*
X199740718Y-60741660D01*
X199680260Y-60967295D01*
X199659901Y-61200000D01*
X197260601Y-61200000D01*
X197240234Y-60967207D01*
X197179753Y-60741487D01*
X197080995Y-60529700D01*
X196946960Y-60338278D01*
X196781722Y-60173040D01*
X196781721Y-60173039D01*
X196781720Y-60173038D01*
X196781717Y-60173036D01*
X196590301Y-60039005D01*
X196590299Y-60039004D01*
X196378516Y-59940248D01*
X196378510Y-59940246D01*
X196152796Y-59879766D01*
X195920000Y-59859399D01*
X195687203Y-59879766D01*
X195461489Y-59940246D01*
X195461484Y-59940248D01*
X195249699Y-60039005D01*
X195058281Y-60173037D01*
X195058275Y-60173042D01*
X194893042Y-60338275D01*
X194893037Y-60338281D01*
X194759005Y-60529699D01*
X194660248Y-60741484D01*
X194660246Y-60741489D01*
X194599766Y-60967203D01*
X194579399Y-61200000D01*
X191092569Y-61200000D01*
X191090605Y-61176293D01*
X191035500Y-60958687D01*
X190945330Y-60753120D01*
X190822554Y-60565198D01*
X190822553Y-60565197D01*
X190822552Y-60565195D01*
X190670528Y-60400052D01*
X190493380Y-60262172D01*
X190493379Y-60262171D01*
X190295960Y-60155333D01*
X190295957Y-60155332D01*
X190083654Y-60082448D01*
X190083645Y-60082446D01*
X190039620Y-60075099D01*
X189862237Y-60045500D01*
X189637763Y-60045500D01*
X189489979Y-60070160D01*
X189416354Y-60082446D01*
X189416345Y-60082448D01*
X189204042Y-60155332D01*
X189204039Y-60155333D01*
X189006620Y-60262171D01*
X189006619Y-60262172D01*
X188829471Y-60400052D01*
X188677447Y-60565195D01*
X188605483Y-60675345D01*
X188551479Y-60721433D01*
X188481131Y-60731008D01*
X188416774Y-60701030D01*
X188394517Y-60675345D01*
X188322552Y-60565195D01*
X188170528Y-60400052D01*
X187993380Y-60262172D01*
X187993379Y-60262171D01*
X187795960Y-60155333D01*
X187795957Y-60155332D01*
X187583654Y-60082448D01*
X187583645Y-60082446D01*
X187539620Y-60075099D01*
X187362237Y-60045500D01*
X187137763Y-60045500D01*
X186989979Y-60070160D01*
X186916354Y-60082446D01*
X186916345Y-60082448D01*
X186704042Y-60155332D01*
X186704039Y-60155333D01*
X186506620Y-60262171D01*
X186506619Y-60262172D01*
X186329471Y-60400052D01*
X186177447Y-60565195D01*
X186054668Y-60753123D01*
X185964501Y-60958683D01*
X185964498Y-60958690D01*
X185909396Y-61176285D01*
X185909395Y-61176291D01*
X185909395Y-61176293D01*
X185901718Y-61268944D01*
X185890858Y-61400000D01*
X185146500Y-61400000D01*
X185146500Y-57900000D01*
X185890858Y-57900000D01*
X185909396Y-58123714D01*
X185964498Y-58341309D01*
X185964501Y-58341316D01*
X186054668Y-58546876D01*
X186054670Y-58546880D01*
X186069116Y-58568991D01*
X186177447Y-58734804D01*
X186329471Y-58899947D01*
X186329476Y-58899951D01*
X186329478Y-58899953D01*
X186506620Y-59037828D01*
X186704039Y-59144666D01*
X186916350Y-59217553D01*
X187137763Y-59254500D01*
X187137767Y-59254500D01*
X187362233Y-59254500D01*
X187362237Y-59254500D01*
X187583650Y-59217553D01*
X187795961Y-59144666D01*
X187993380Y-59037828D01*
X188170522Y-58899953D01*
X188322554Y-58734802D01*
X188394517Y-58624655D01*
X188448521Y-58578566D01*
X188518868Y-58568991D01*
X188583226Y-58598968D01*
X188605483Y-58624655D01*
X188677445Y-58734802D01*
X188829471Y-58899947D01*
X188829476Y-58899951D01*
X188829478Y-58899953D01*
X189006620Y-59037828D01*
X189204039Y-59144666D01*
X189416350Y-59217553D01*
X189637763Y-59254500D01*
X189637767Y-59254500D01*
X189862233Y-59254500D01*
X189862237Y-59254500D01*
X190083650Y-59217553D01*
X190295961Y-59144666D01*
X190493380Y-59037828D01*
X190670522Y-58899953D01*
X190822554Y-58734802D01*
X190945330Y-58546880D01*
X191035500Y-58341313D01*
X191090605Y-58123707D01*
X191109142Y-57900000D01*
X191090605Y-57676293D01*
X191035500Y-57458687D01*
X190945330Y-57253120D01*
X190822554Y-57065198D01*
X190822553Y-57065197D01*
X190822552Y-57065195D01*
X190670528Y-56900052D01*
X190493380Y-56762172D01*
X190493379Y-56762171D01*
X190295960Y-56655333D01*
X190295957Y-56655332D01*
X190083654Y-56582448D01*
X190083645Y-56582446D01*
X190039620Y-56575099D01*
X189862237Y-56545500D01*
X189637763Y-56545500D01*
X189489979Y-56570160D01*
X189416354Y-56582446D01*
X189416345Y-56582448D01*
X189204042Y-56655332D01*
X189204039Y-56655333D01*
X189006620Y-56762171D01*
X189006619Y-56762172D01*
X188829471Y-56900052D01*
X188677447Y-57065195D01*
X188605483Y-57175345D01*
X188551479Y-57221433D01*
X188481131Y-57231008D01*
X188416774Y-57201030D01*
X188394517Y-57175345D01*
X188322552Y-57065195D01*
X188170528Y-56900052D01*
X187993380Y-56762172D01*
X187993379Y-56762171D01*
X187795960Y-56655333D01*
X187795957Y-56655332D01*
X187583654Y-56582448D01*
X187583645Y-56582446D01*
X187539620Y-56575099D01*
X187362237Y-56545500D01*
X187137763Y-56545500D01*
X186989979Y-56570160D01*
X186916354Y-56582446D01*
X186916345Y-56582448D01*
X186704042Y-56655332D01*
X186704039Y-56655333D01*
X186506620Y-56762171D01*
X186506619Y-56762172D01*
X186329471Y-56900052D01*
X186177447Y-57065195D01*
X186054668Y-57253123D01*
X185964501Y-57458683D01*
X185964498Y-57458690D01*
X185909396Y-57676285D01*
X185890858Y-57900000D01*
X185146500Y-57900000D01*
X185146500Y-54885843D01*
X187049500Y-54885843D01*
X187049500Y-55114157D01*
X187085216Y-55339660D01*
X187155769Y-55556799D01*
X187155770Y-55556800D01*
X187259423Y-55760231D01*
X187393622Y-55944939D01*
X187555060Y-56106377D01*
X187555063Y-56106379D01*
X187739772Y-56240579D01*
X187943201Y-56344231D01*
X188160340Y-56414784D01*
X188385843Y-56450500D01*
X188385846Y-56450500D01*
X188614154Y-56450500D01*
X188614157Y-56450500D01*
X188839660Y-56414784D01*
X189056799Y-56344231D01*
X189260228Y-56240579D01*
X189444937Y-56106379D01*
X189606379Y-55944937D01*
X189740579Y-55760228D01*
X189844231Y-55556799D01*
X189914784Y-55339660D01*
X189950500Y-55114157D01*
X189950500Y-54885843D01*
X189914784Y-54660340D01*
X189844231Y-54443201D01*
X189740579Y-54239772D01*
X189606379Y-54055063D01*
X189606377Y-54055060D01*
X189444939Y-53893622D01*
X189260231Y-53759423D01*
X189260230Y-53759422D01*
X189260228Y-53759421D01*
X189056799Y-53655769D01*
X188839660Y-53585216D01*
X188614157Y-53549500D01*
X188385843Y-53549500D01*
X188160340Y-53585216D01*
X188160337Y-53585216D01*
X188160336Y-53585217D01*
X187943201Y-53655769D01*
X187943199Y-53655770D01*
X187739768Y-53759423D01*
X187555060Y-53893622D01*
X187393622Y-54055060D01*
X187259423Y-54239768D01*
X187259421Y-54239772D01*
X187155769Y-54443201D01*
X187085216Y-54660340D01*
X187049500Y-54885843D01*
X185146500Y-54885843D01*
X185146500Y-52100000D01*
X185890858Y-52100000D01*
X185904713Y-52267207D01*
X185909396Y-52323714D01*
X185964498Y-52541309D01*
X185964501Y-52541316D01*
X186035941Y-52704182D01*
X186054670Y-52746880D01*
X186069116Y-52768991D01*
X186177447Y-52934804D01*
X186329471Y-53099947D01*
X186329476Y-53099951D01*
X186329478Y-53099953D01*
X186506620Y-53237828D01*
X186704039Y-53344666D01*
X186916350Y-53417553D01*
X187137763Y-53454500D01*
X187137767Y-53454500D01*
X187362233Y-53454500D01*
X187362237Y-53454500D01*
X187583650Y-53417553D01*
X187795961Y-53344666D01*
X187993380Y-53237828D01*
X188170522Y-53099953D01*
X188322554Y-52934802D01*
X188371941Y-52859210D01*
X188394517Y-52824655D01*
X188448521Y-52778566D01*
X188518868Y-52768991D01*
X188583226Y-52798968D01*
X188605483Y-52824655D01*
X188677445Y-52934802D01*
X188829471Y-53099947D01*
X188829476Y-53099951D01*
X188829478Y-53099953D01*
X189006620Y-53237828D01*
X189204039Y-53344666D01*
X189416350Y-53417553D01*
X189637763Y-53454500D01*
X189637767Y-53454500D01*
X189862233Y-53454500D01*
X189862237Y-53454500D01*
X190083650Y-53417553D01*
X190295961Y-53344666D01*
X190493380Y-53237828D01*
X190670522Y-53099953D01*
X190822554Y-52934802D01*
X190945330Y-52746880D01*
X191035500Y-52541313D01*
X191045962Y-52500000D01*
X194579399Y-52500000D01*
X194599766Y-52732796D01*
X194660246Y-52958510D01*
X194660248Y-52958516D01*
X194759004Y-53170299D01*
X194759005Y-53170301D01*
X194893036Y-53361717D01*
X194893043Y-53361726D01*
X195058273Y-53526956D01*
X195058277Y-53526959D01*
X195058278Y-53526960D01*
X195249699Y-53660995D01*
X195461487Y-53759753D01*
X195660538Y-53813088D01*
X195685359Y-53819739D01*
X195687207Y-53820234D01*
X195920000Y-53840601D01*
X196152793Y-53820234D01*
X196378513Y-53759753D01*
X196590301Y-53660995D01*
X196781722Y-53526960D01*
X196946960Y-53361722D01*
X197080995Y-53170301D01*
X197179753Y-52958513D01*
X197240234Y-52732793D01*
X197260601Y-52500000D01*
X199659901Y-52500000D01*
X199680260Y-52732704D01*
X199740718Y-52958339D01*
X199740720Y-52958344D01*
X199839439Y-53170049D01*
X199893514Y-53247274D01*
X200359032Y-52781755D01*
X200379668Y-52831574D01*
X200456274Y-52946224D01*
X200553776Y-53043726D01*
X200668426Y-53120332D01*
X200718242Y-53140966D01*
X200252724Y-53606484D01*
X200252724Y-53606485D01*
X200329951Y-53660560D01*
X200329950Y-53660560D01*
X200541655Y-53759279D01*
X200541660Y-53759281D01*
X200767295Y-53819739D01*
X201000000Y-53840098D01*
X201232704Y-53819739D01*
X201458339Y-53759281D01*
X201458344Y-53759279D01*
X201670049Y-53660560D01*
X201670050Y-53660559D01*
X201747274Y-53606485D01*
X201747274Y-53606483D01*
X201281757Y-53140966D01*
X201331574Y-53120332D01*
X201446224Y-53043726D01*
X201543726Y-52946224D01*
X201620332Y-52831574D01*
X201640966Y-52781757D01*
X202106483Y-53247274D01*
X202106485Y-53247274D01*
X202160559Y-53170050D01*
X202160560Y-53170049D01*
X202259279Y-52958344D01*
X202259281Y-52958339D01*
X202319739Y-52732704D01*
X202340098Y-52500000D01*
X206329399Y-52500000D01*
X206349766Y-52732796D01*
X206410246Y-52958510D01*
X206410248Y-52958516D01*
X206509004Y-53170299D01*
X206509005Y-53170301D01*
X206643036Y-53361717D01*
X206643043Y-53361726D01*
X206808273Y-53526956D01*
X206808277Y-53526959D01*
X206808278Y-53526960D01*
X206999699Y-53660995D01*
X207211487Y-53759753D01*
X207410538Y-53813088D01*
X207435359Y-53819739D01*
X207437207Y-53820234D01*
X207670000Y-53840601D01*
X207902793Y-53820234D01*
X208128513Y-53759753D01*
X208340301Y-53660995D01*
X208531722Y-53526960D01*
X208696960Y-53361722D01*
X208830995Y-53170301D01*
X208929753Y-52958513D01*
X208990234Y-52732793D01*
X209010601Y-52500000D01*
X211409399Y-52500000D01*
X211429766Y-52732796D01*
X211490246Y-52958510D01*
X211490248Y-52958516D01*
X211589004Y-53170299D01*
X211589005Y-53170301D01*
X211723036Y-53361717D01*
X211723043Y-53361726D01*
X211888273Y-53526956D01*
X211888277Y-53526959D01*
X211888278Y-53526960D01*
X212079699Y-53660995D01*
X212291487Y-53759753D01*
X212490538Y-53813088D01*
X212515359Y-53819739D01*
X212517207Y-53820234D01*
X212750000Y-53840601D01*
X212982793Y-53820234D01*
X213208513Y-53759753D01*
X213420301Y-53660995D01*
X213611722Y-53526960D01*
X213776960Y-53361722D01*
X213910995Y-53170301D01*
X214009753Y-52958513D01*
X214070234Y-52732793D01*
X214090601Y-52500000D01*
X214070234Y-52267207D01*
X214009753Y-52041487D01*
X213910995Y-51829700D01*
X213776960Y-51638278D01*
X213611722Y-51473040D01*
X213611721Y-51473039D01*
X213611720Y-51473038D01*
X213611717Y-51473036D01*
X213420301Y-51339005D01*
X213420299Y-51339004D01*
X213208516Y-51240248D01*
X213208510Y-51240246D01*
X212982796Y-51179766D01*
X212750000Y-51159399D01*
X212517203Y-51179766D01*
X212291489Y-51240246D01*
X212291484Y-51240248D01*
X212079699Y-51339005D01*
X211888281Y-51473037D01*
X211888275Y-51473042D01*
X211723042Y-51638275D01*
X211723037Y-51638281D01*
X211589005Y-51829699D01*
X211490248Y-52041484D01*
X211490246Y-52041489D01*
X211429766Y-52267203D01*
X211409399Y-52500000D01*
X209010601Y-52500000D01*
X208990234Y-52267207D01*
X208929753Y-52041487D01*
X208830995Y-51829700D01*
X208696960Y-51638278D01*
X208531722Y-51473040D01*
X208531721Y-51473039D01*
X208531720Y-51473038D01*
X208531717Y-51473036D01*
X208340301Y-51339005D01*
X208340299Y-51339004D01*
X208128516Y-51240248D01*
X208128510Y-51240246D01*
X207902796Y-51179766D01*
X207670000Y-51159399D01*
X207437203Y-51179766D01*
X207211489Y-51240246D01*
X207211484Y-51240248D01*
X206999699Y-51339005D01*
X206808281Y-51473037D01*
X206808275Y-51473042D01*
X206643042Y-51638275D01*
X206643037Y-51638281D01*
X206509005Y-51829699D01*
X206410248Y-52041484D01*
X206410246Y-52041489D01*
X206349766Y-52267203D01*
X206329399Y-52500000D01*
X202340098Y-52500000D01*
X202319739Y-52267295D01*
X202259281Y-52041660D01*
X202259279Y-52041655D01*
X202160559Y-51829950D01*
X202106485Y-51752724D01*
X202106484Y-51752724D01*
X201640966Y-52218242D01*
X201620332Y-52168426D01*
X201543726Y-52053776D01*
X201446224Y-51956274D01*
X201331574Y-51879668D01*
X201281756Y-51859033D01*
X201747274Y-51393514D01*
X201747274Y-51393513D01*
X201670048Y-51339439D01*
X201670049Y-51339439D01*
X201458344Y-51240720D01*
X201458339Y-51240718D01*
X201232704Y-51180260D01*
X201000000Y-51159901D01*
X200767295Y-51180260D01*
X200541660Y-51240718D01*
X200541655Y-51240720D01*
X200329951Y-51339439D01*
X200252723Y-51393514D01*
X200718242Y-51859033D01*
X200668426Y-51879668D01*
X200553776Y-51956274D01*
X200456274Y-52053776D01*
X200379668Y-52168426D01*
X200359033Y-52218242D01*
X199893514Y-51752723D01*
X199839439Y-51829951D01*
X199740720Y-52041655D01*
X199740718Y-52041660D01*
X199680260Y-52267295D01*
X199659901Y-52500000D01*
X197260601Y-52500000D01*
X197240234Y-52267207D01*
X197179753Y-52041487D01*
X197080995Y-51829700D01*
X196946960Y-51638278D01*
X196781722Y-51473040D01*
X196781721Y-51473039D01*
X196781720Y-51473038D01*
X196781717Y-51473036D01*
X196590301Y-51339005D01*
X196590299Y-51339004D01*
X196378516Y-51240248D01*
X196378510Y-51240246D01*
X196152796Y-51179766D01*
X195920000Y-51159399D01*
X195687203Y-51179766D01*
X195461489Y-51240246D01*
X195461484Y-51240248D01*
X195249699Y-51339005D01*
X195058281Y-51473037D01*
X195058275Y-51473042D01*
X194893042Y-51638275D01*
X194893037Y-51638281D01*
X194759005Y-51829699D01*
X194660248Y-52041484D01*
X194660246Y-52041489D01*
X194599766Y-52267203D01*
X194579399Y-52500000D01*
X191045962Y-52500000D01*
X191090605Y-52323707D01*
X191109142Y-52100000D01*
X191090605Y-51876293D01*
X191035500Y-51658687D01*
X190945330Y-51453120D01*
X190822554Y-51265198D01*
X190822553Y-51265197D01*
X190822552Y-51265195D01*
X190670528Y-51100052D01*
X190493380Y-50962172D01*
X190493379Y-50962171D01*
X190295960Y-50855333D01*
X190295957Y-50855332D01*
X190083654Y-50782448D01*
X190083645Y-50782446D01*
X190039620Y-50775099D01*
X189862237Y-50745500D01*
X189637763Y-50745500D01*
X189489979Y-50770160D01*
X189416354Y-50782446D01*
X189416345Y-50782448D01*
X189204042Y-50855332D01*
X189204039Y-50855333D01*
X189006620Y-50962171D01*
X189006619Y-50962172D01*
X188829471Y-51100052D01*
X188677447Y-51265195D01*
X188605483Y-51375345D01*
X188551479Y-51421433D01*
X188481131Y-51431008D01*
X188416774Y-51401030D01*
X188394517Y-51375345D01*
X188322552Y-51265195D01*
X188170528Y-51100052D01*
X187993380Y-50962172D01*
X187993379Y-50962171D01*
X187795960Y-50855333D01*
X187795957Y-50855332D01*
X187583654Y-50782448D01*
X187583645Y-50782446D01*
X187539620Y-50775099D01*
X187362237Y-50745500D01*
X187137763Y-50745500D01*
X186989979Y-50770160D01*
X186916354Y-50782446D01*
X186916345Y-50782448D01*
X186704042Y-50855332D01*
X186704039Y-50855333D01*
X186506620Y-50962171D01*
X186506619Y-50962172D01*
X186329471Y-51100052D01*
X186177447Y-51265195D01*
X186054668Y-51453123D01*
X185964501Y-51658683D01*
X185964498Y-51658690D01*
X185909396Y-51876285D01*
X185909395Y-51876291D01*
X185909395Y-51876293D01*
X185890858Y-52100000D01*
X185146500Y-52100000D01*
X185146500Y-48600000D01*
X185890858Y-48600000D01*
X185909396Y-48823714D01*
X185964498Y-49041309D01*
X185964501Y-49041316D01*
X186054668Y-49246876D01*
X186054670Y-49246880D01*
X186069116Y-49268991D01*
X186177447Y-49434804D01*
X186329471Y-49599947D01*
X186329476Y-49599951D01*
X186329478Y-49599953D01*
X186506620Y-49737828D01*
X186704039Y-49844666D01*
X186916350Y-49917553D01*
X187137763Y-49954500D01*
X187137767Y-49954500D01*
X187362233Y-49954500D01*
X187362237Y-49954500D01*
X187583650Y-49917553D01*
X187795961Y-49844666D01*
X187993380Y-49737828D01*
X188170522Y-49599953D01*
X188322554Y-49434802D01*
X188394517Y-49324655D01*
X188448521Y-49278566D01*
X188518868Y-49268991D01*
X188583226Y-49298968D01*
X188605483Y-49324655D01*
X188677445Y-49434802D01*
X188829471Y-49599947D01*
X188829476Y-49599951D01*
X188829478Y-49599953D01*
X189006620Y-49737828D01*
X189204039Y-49844666D01*
X189416350Y-49917553D01*
X189637763Y-49954500D01*
X189637767Y-49954500D01*
X189862233Y-49954500D01*
X189862237Y-49954500D01*
X190083650Y-49917553D01*
X190295961Y-49844666D01*
X190493380Y-49737828D01*
X190670522Y-49599953D01*
X190822554Y-49434802D01*
X190945330Y-49246880D01*
X191035500Y-49041313D01*
X191090605Y-48823707D01*
X191109142Y-48600000D01*
X191090605Y-48376293D01*
X191035500Y-48158687D01*
X190945330Y-47953120D01*
X190822554Y-47765198D01*
X190822553Y-47765197D01*
X190822552Y-47765195D01*
X190670528Y-47600052D01*
X190493380Y-47462172D01*
X190493379Y-47462171D01*
X190295960Y-47355333D01*
X190295957Y-47355332D01*
X190083654Y-47282448D01*
X190083645Y-47282446D01*
X190039620Y-47275099D01*
X189862237Y-47245500D01*
X189637763Y-47245500D01*
X189489979Y-47270160D01*
X189416354Y-47282446D01*
X189416345Y-47282448D01*
X189204042Y-47355332D01*
X189204039Y-47355333D01*
X189006620Y-47462171D01*
X189006619Y-47462172D01*
X188829471Y-47600052D01*
X188677447Y-47765195D01*
X188605483Y-47875345D01*
X188551479Y-47921433D01*
X188481131Y-47931008D01*
X188416774Y-47901030D01*
X188394517Y-47875345D01*
X188322552Y-47765195D01*
X188170528Y-47600052D01*
X187993380Y-47462172D01*
X187993379Y-47462171D01*
X187795960Y-47355333D01*
X187795957Y-47355332D01*
X187583654Y-47282448D01*
X187583645Y-47282446D01*
X187539620Y-47275099D01*
X187362237Y-47245500D01*
X187137763Y-47245500D01*
X186989979Y-47270160D01*
X186916354Y-47282446D01*
X186916345Y-47282448D01*
X186704042Y-47355332D01*
X186704039Y-47355333D01*
X186506620Y-47462171D01*
X186506619Y-47462172D01*
X186329471Y-47600052D01*
X186177447Y-47765195D01*
X186054668Y-47953123D01*
X185964501Y-48158683D01*
X185964498Y-48158690D01*
X185909396Y-48376285D01*
X185890858Y-48600000D01*
X185146500Y-48600000D01*
X185146500Y-40670005D01*
X185146499Y-40669996D01*
X185143271Y-40639968D01*
X185155876Y-40570102D01*
X185204253Y-40518139D01*
X185268549Y-40500500D01*
X215875459Y-40500500D01*
X215943580Y-40520502D01*
G37*
%TD.AperFunction*%
%TA.AperFunction,Conductor*%
G36*
X200127000Y-149002000D02*
G01*
X200127000Y-149387502D01*
X200126999Y-149387493D01*
X200121070Y-149332341D01*
X200109684Y-149279999D01*
X200102334Y-149253209D01*
X200068993Y-149194659D01*
X200052667Y-149125566D01*
X200066839Y-149073908D01*
X200069490Y-149068840D01*
X200096487Y-149017230D01*
X200116489Y-148949109D01*
X200127000Y-148876000D01*
X200127000Y-149002000D01*
G37*
%TD.AperFunction*%
%TA.AperFunction,Conductor*%
G36*
X182253226Y-129395701D02*
G01*
X182277726Y-129409847D01*
X182407055Y-129444500D01*
X182466182Y-129444500D01*
X182534303Y-129464502D01*
X182580796Y-129518158D01*
X182590900Y-129588432D01*
X182561406Y-129653012D01*
X182555277Y-129659595D01*
X182220000Y-129994871D01*
X182220000Y-129376518D01*
X182253226Y-129395701D01*
G37*
%TD.AperFunction*%
%TD*%
%TA.AperFunction,Conductor*%
%TO.N,/GND_ISO_T*%
G36*
X167430121Y-126162002D02*
G01*
X167476614Y-126215658D01*
X167488000Y-126268000D01*
X167488000Y-126278133D01*
X167467998Y-126346254D01*
X167466767Y-126348132D01*
X167461735Y-126355661D01*
X167394685Y-126517536D01*
X167394683Y-126517541D01*
X167360500Y-126689389D01*
X167360500Y-126864610D01*
X167394683Y-127036458D01*
X167394685Y-127036463D01*
X167461734Y-127198335D01*
X167461735Y-127198336D01*
X167466763Y-127205861D01*
X167487980Y-127273613D01*
X167488000Y-127275865D01*
X167488000Y-127467295D01*
X167485579Y-127491877D01*
X167482500Y-127507354D01*
X167482500Y-149002000D01*
X153010000Y-149002000D01*
X153010000Y-144291121D01*
X153030002Y-144223000D01*
X153083658Y-144176507D01*
X153103383Y-144169415D01*
X153206274Y-144141847D01*
X153322226Y-144074901D01*
X153416901Y-143980226D01*
X153483847Y-143864274D01*
X153518500Y-143734945D01*
X153518500Y-138575719D01*
X153538502Y-138507598D01*
X153592158Y-138461105D01*
X153662432Y-138451001D01*
X153677102Y-138454010D01*
X153705055Y-138461500D01*
X153705057Y-138461500D01*
X153838943Y-138461500D01*
X153838945Y-138461500D01*
X153968274Y-138426847D01*
X154084226Y-138359901D01*
X154178901Y-138265226D01*
X154245847Y-138149274D01*
X154280500Y-138019945D01*
X154280500Y-132860719D01*
X154300502Y-132792598D01*
X154354158Y-132746105D01*
X154424432Y-132736001D01*
X154439102Y-132739010D01*
X154467055Y-132746500D01*
X154467057Y-132746500D01*
X154600943Y-132746500D01*
X154600945Y-132746500D01*
X154730274Y-132711847D01*
X154846226Y-132644901D01*
X154940901Y-132550226D01*
X155007847Y-132434274D01*
X155042500Y-132304945D01*
X155042500Y-127399719D01*
X155062502Y-127331598D01*
X155116158Y-127285105D01*
X155186432Y-127275001D01*
X155201102Y-127278010D01*
X155229055Y-127285500D01*
X155229057Y-127285500D01*
X155362943Y-127285500D01*
X155362945Y-127285500D01*
X155492274Y-127250847D01*
X155608226Y-127183901D01*
X155702901Y-127089226D01*
X155769847Y-126973274D01*
X155804500Y-126843945D01*
X155804500Y-126268000D01*
X155824502Y-126199879D01*
X155878158Y-126153386D01*
X155930500Y-126142000D01*
X167362000Y-126142000D01*
X167430121Y-126162002D01*
G37*
%TD.AperFunction*%
%TD*%
%TA.AperFunction,Conductor*%
%TO.N,/GND_ISO_U*%
G36*
X232194621Y-130226502D02*
G01*
X232241114Y-130280158D01*
X232252500Y-130332500D01*
X232252500Y-149002000D01*
X217780000Y-149002000D01*
X217780000Y-130332500D01*
X217800002Y-130264379D01*
X217853658Y-130217886D01*
X217906000Y-130206500D01*
X232126500Y-130206500D01*
X232194621Y-130226502D01*
G37*
%TD.AperFunction*%
%TD*%
%TA.AperFunction,Conductor*%
%TO.N,/i-transduce/out*%
G36*
X235756121Y-40564002D02*
G01*
X235802614Y-40617658D01*
X235814000Y-40670000D01*
X235814000Y-63732810D01*
X235793998Y-63800931D01*
X235777095Y-63821905D01*
X232675905Y-66923095D01*
X232613593Y-66957121D01*
X232586810Y-66960000D01*
X230030438Y-66960000D01*
X229962317Y-66939998D01*
X229954930Y-66934869D01*
X229929267Y-66915658D01*
X229929265Y-66915657D01*
X229929266Y-66915657D01*
X229793349Y-66864962D01*
X229793344Y-66864960D01*
X229793342Y-66864960D01*
X229763298Y-66861730D01*
X229733256Y-66858500D01*
X228686753Y-66858500D01*
X228686729Y-66858502D01*
X228626660Y-66864959D01*
X228626658Y-66864959D01*
X228490733Y-66915657D01*
X228465070Y-66934869D01*
X228398550Y-66959679D01*
X228389562Y-66960000D01*
X224891000Y-66960000D01*
X224822879Y-66939998D01*
X224776386Y-66886342D01*
X224765000Y-66834000D01*
X224765000Y-65700532D01*
X224785002Y-65632411D01*
X224838658Y-65585918D01*
X224908932Y-65575814D01*
X224973512Y-65605308D01*
X224980097Y-65611438D01*
X225009575Y-65640917D01*
X225100000Y-65686990D01*
X225100000Y-63283009D01*
X225700000Y-63283009D01*
X225700000Y-65686989D01*
X225790424Y-65640917D01*
X225880917Y-65550423D01*
X225880918Y-65550421D01*
X225922733Y-65468356D01*
X225971481Y-65416740D01*
X226040396Y-65399674D01*
X226107597Y-65422574D01*
X226147267Y-65468356D01*
X226189081Y-65550421D01*
X226189082Y-65550423D01*
X226279575Y-65640917D01*
X226370000Y-65686990D01*
X226370000Y-65686989D01*
X226970000Y-65686989D01*
X227060424Y-65640917D01*
X227150917Y-65550423D01*
X227209015Y-65436400D01*
X227224000Y-65341791D01*
X227224000Y-64785000D01*
X226970000Y-64785000D01*
X226970000Y-65686989D01*
X226370000Y-65686989D01*
X226370000Y-64185000D01*
X226970000Y-64185000D01*
X227223999Y-64185000D01*
X227223999Y-63628207D01*
X227209016Y-63533602D01*
X227150917Y-63419576D01*
X227060424Y-63329082D01*
X227060425Y-63329082D01*
X226970000Y-63283009D01*
X226970000Y-64185000D01*
X226370000Y-64185000D01*
X226370000Y-63283009D01*
X226369999Y-63283009D01*
X226279575Y-63329082D01*
X226189082Y-63419576D01*
X226147267Y-63501644D01*
X226098519Y-63553259D01*
X226029604Y-63570325D01*
X225962402Y-63547424D01*
X225922733Y-63501644D01*
X225880917Y-63419576D01*
X225790424Y-63329082D01*
X225790425Y-63329082D01*
X225700000Y-63283009D01*
X225100000Y-63283009D01*
X225099999Y-63283009D01*
X225009574Y-63329082D01*
X225009572Y-63329084D01*
X224980095Y-63358562D01*
X224917783Y-63392588D01*
X224846968Y-63387523D01*
X224790132Y-63344976D01*
X224765321Y-63278456D01*
X224765000Y-63269467D01*
X224765000Y-63022000D01*
X224785002Y-62953879D01*
X224838658Y-62907386D01*
X224891000Y-62896000D01*
X228702000Y-62896000D01*
X229464000Y-62134000D01*
X229464000Y-61200000D01*
X231159901Y-61200000D01*
X231180260Y-61432704D01*
X231240718Y-61658339D01*
X231240720Y-61658344D01*
X231324078Y-61837106D01*
X231815303Y-61345880D01*
X231826901Y-61404182D01*
X231879668Y-61531574D01*
X231956274Y-61646224D01*
X232053776Y-61743726D01*
X232168426Y-61820332D01*
X232295818Y-61873099D01*
X232354118Y-61884695D01*
X231862893Y-62375921D01*
X232041655Y-62459279D01*
X232041660Y-62459281D01*
X232267295Y-62519739D01*
X232500000Y-62540098D01*
X232732704Y-62519739D01*
X232958339Y-62459281D01*
X232958343Y-62459279D01*
X233137106Y-62375920D01*
X232645881Y-61884695D01*
X232704182Y-61873099D01*
X232831574Y-61820332D01*
X232946224Y-61743726D01*
X233043726Y-61646224D01*
X233120332Y-61531574D01*
X233173099Y-61404182D01*
X233184695Y-61345881D01*
X233675920Y-61837106D01*
X233759279Y-61658343D01*
X233759281Y-61658339D01*
X233819739Y-61432704D01*
X233840098Y-61200000D01*
X233819739Y-60967295D01*
X233759281Y-60741660D01*
X233759279Y-60741656D01*
X233675920Y-60562893D01*
X233184695Y-61054117D01*
X233173099Y-60995818D01*
X233120332Y-60868426D01*
X233043726Y-60753776D01*
X232946224Y-60656274D01*
X232831574Y-60579668D01*
X232704182Y-60526901D01*
X232645880Y-60515303D01*
X233137106Y-60024078D01*
X232958344Y-59940720D01*
X232958339Y-59940718D01*
X232732704Y-59880260D01*
X232500000Y-59859901D01*
X232267295Y-59880260D01*
X232041660Y-59940718D01*
X232041655Y-59940720D01*
X231862893Y-60024078D01*
X232354118Y-60515303D01*
X232295818Y-60526901D01*
X232168426Y-60579668D01*
X232053776Y-60656274D01*
X231956274Y-60753776D01*
X231879668Y-60868426D01*
X231826901Y-60995818D01*
X231815303Y-61054118D01*
X231324078Y-60562893D01*
X231240720Y-60741655D01*
X231240718Y-60741660D01*
X231180260Y-60967295D01*
X231159901Y-61200000D01*
X229464000Y-61200000D01*
X229464000Y-52500000D01*
X231159901Y-52500000D01*
X231180260Y-52732704D01*
X231240718Y-52958339D01*
X231240720Y-52958344D01*
X231324078Y-53137106D01*
X231815303Y-52645880D01*
X231826901Y-52704182D01*
X231879668Y-52831574D01*
X231956274Y-52946224D01*
X232053776Y-53043726D01*
X232168426Y-53120332D01*
X232295818Y-53173099D01*
X232354118Y-53184695D01*
X231862893Y-53675921D01*
X232041655Y-53759279D01*
X232041660Y-53759281D01*
X232267295Y-53819739D01*
X232500000Y-53840098D01*
X232732704Y-53819739D01*
X232958339Y-53759281D01*
X232958343Y-53759279D01*
X233137106Y-53675920D01*
X232645881Y-53184695D01*
X232704182Y-53173099D01*
X232831574Y-53120332D01*
X232946224Y-53043726D01*
X233043726Y-52946224D01*
X233120332Y-52831574D01*
X233173099Y-52704182D01*
X233184695Y-52645881D01*
X233675920Y-53137106D01*
X233759279Y-52958343D01*
X233759281Y-52958339D01*
X233819739Y-52732704D01*
X233840098Y-52500000D01*
X233819739Y-52267295D01*
X233759281Y-52041660D01*
X233759279Y-52041656D01*
X233675920Y-51862893D01*
X233184695Y-52354117D01*
X233173099Y-52295818D01*
X233120332Y-52168426D01*
X233043726Y-52053776D01*
X232946224Y-51956274D01*
X232831574Y-51879668D01*
X232704182Y-51826901D01*
X232645880Y-51815303D01*
X233137106Y-51324078D01*
X232958344Y-51240720D01*
X232958339Y-51240718D01*
X232732704Y-51180260D01*
X232500000Y-51159901D01*
X232267295Y-51180260D01*
X232041660Y-51240718D01*
X232041655Y-51240720D01*
X231862893Y-51324078D01*
X232354118Y-51815303D01*
X232295818Y-51826901D01*
X232168426Y-51879668D01*
X232053776Y-51956274D01*
X231956274Y-52053776D01*
X231879668Y-52168426D01*
X231826901Y-52295818D01*
X231815303Y-52354118D01*
X231324078Y-51862893D01*
X231240720Y-52041655D01*
X231240718Y-52041660D01*
X231180260Y-52267295D01*
X231159901Y-52500000D01*
X229464000Y-52500000D01*
X229464000Y-40670000D01*
X229484002Y-40601879D01*
X229537658Y-40555386D01*
X229590000Y-40544000D01*
X235688000Y-40544000D01*
X235756121Y-40564002D01*
G37*
%TD.AperFunction*%
%TD*%
%TA.AperFunction,Conductor*%
%TO.N,GND*%
G36*
X192959082Y-92427974D02*
G01*
X192959077Y-92427981D01*
X192861735Y-92573664D01*
X192794685Y-92735536D01*
X192794683Y-92735541D01*
X192760500Y-92907389D01*
X192760500Y-92907392D01*
X192760500Y-94352608D01*
X192794683Y-94524458D01*
X192861735Y-94686336D01*
X192959080Y-94832023D01*
X193082977Y-94955920D01*
X193228664Y-95053265D01*
X193390542Y-95120317D01*
X193562392Y-95154500D01*
X193562393Y-95154500D01*
X193737607Y-95154500D01*
X193737608Y-95154500D01*
X193909458Y-95120317D01*
X194071336Y-95053265D01*
X194217023Y-94955920D01*
X194340920Y-94832023D01*
X194438265Y-94686336D01*
X194505317Y-94524458D01*
X194539500Y-94352608D01*
X194539500Y-93415633D01*
X194559502Y-93347512D01*
X194576405Y-93326538D01*
X194920000Y-92982943D01*
X194920000Y-106457000D01*
X172060000Y-106457000D01*
X172060000Y-91979000D01*
X193408057Y-91979000D01*
X192959082Y-92427974D01*
G37*
%TD.AperFunction*%
%TD*%
%TA.AperFunction,Conductor*%
%TO.N,/digital-interface3/GND_MASTER*%
G36*
X184829121Y-40564002D02*
G01*
X184875614Y-40617658D01*
X184887000Y-40670000D01*
X184887000Y-67214001D01*
X194883095Y-77210095D01*
X194903247Y-77247000D01*
X152628000Y-77247000D01*
X152559879Y-77226998D01*
X152513386Y-77173342D01*
X152502000Y-77121000D01*
X152502000Y-61200000D01*
X154759399Y-61200000D01*
X154779766Y-61432796D01*
X154840246Y-61658510D01*
X154840248Y-61658516D01*
X154939004Y-61870299D01*
X154939005Y-61870301D01*
X155073036Y-62061717D01*
X155073043Y-62061726D01*
X155238273Y-62226956D01*
X155238277Y-62226959D01*
X155238278Y-62226960D01*
X155429699Y-62360995D01*
X155641487Y-62459753D01*
X155840538Y-62513088D01*
X155865359Y-62519739D01*
X155867207Y-62520234D01*
X156100000Y-62540601D01*
X156332793Y-62520234D01*
X156558513Y-62459753D01*
X156770301Y-62360995D01*
X156961722Y-62226960D01*
X157126960Y-62061722D01*
X157260995Y-61870301D01*
X157359753Y-61658513D01*
X157420234Y-61432793D01*
X157440601Y-61200000D01*
X159839399Y-61200000D01*
X159859766Y-61432796D01*
X159920246Y-61658510D01*
X159920248Y-61658516D01*
X160019004Y-61870299D01*
X160019005Y-61870301D01*
X160153036Y-62061717D01*
X160153043Y-62061726D01*
X160318273Y-62226956D01*
X160318277Y-62226959D01*
X160318278Y-62226960D01*
X160509699Y-62360995D01*
X160721487Y-62459753D01*
X160920538Y-62513088D01*
X160945359Y-62519739D01*
X160947207Y-62520234D01*
X161180000Y-62540601D01*
X161412793Y-62520234D01*
X161638513Y-62459753D01*
X161850301Y-62360995D01*
X162041722Y-62226960D01*
X162206960Y-62061722D01*
X162340995Y-61870301D01*
X162439753Y-61658513D01*
X162500234Y-61432793D01*
X162520601Y-61200000D01*
X164919399Y-61200000D01*
X164939766Y-61432796D01*
X165000246Y-61658510D01*
X165000248Y-61658516D01*
X165099004Y-61870299D01*
X165099005Y-61870301D01*
X165233036Y-62061717D01*
X165233043Y-62061726D01*
X165398273Y-62226956D01*
X165398277Y-62226959D01*
X165398278Y-62226960D01*
X165589699Y-62360995D01*
X165801487Y-62459753D01*
X166000538Y-62513088D01*
X166025359Y-62519739D01*
X166027207Y-62520234D01*
X166260000Y-62540601D01*
X166492793Y-62520234D01*
X166718513Y-62459753D01*
X166930301Y-62360995D01*
X167121722Y-62226960D01*
X167286960Y-62061722D01*
X167420995Y-61870301D01*
X167519753Y-61658513D01*
X167580234Y-61432793D01*
X167600601Y-61200000D01*
X169999399Y-61200000D01*
X170019766Y-61432796D01*
X170080246Y-61658510D01*
X170080248Y-61658516D01*
X170179004Y-61870299D01*
X170179005Y-61870301D01*
X170313036Y-62061717D01*
X170313043Y-62061726D01*
X170478273Y-62226956D01*
X170478277Y-62226959D01*
X170478278Y-62226960D01*
X170669699Y-62360995D01*
X170881487Y-62459753D01*
X171080538Y-62513088D01*
X171105359Y-62519739D01*
X171107207Y-62520234D01*
X171340000Y-62540601D01*
X171572793Y-62520234D01*
X171798513Y-62459753D01*
X172010301Y-62360995D01*
X172201722Y-62226960D01*
X172366960Y-62061722D01*
X172500995Y-61870301D01*
X172599753Y-61658513D01*
X172660234Y-61432793D01*
X172680601Y-61200000D01*
X175079399Y-61200000D01*
X175099766Y-61432796D01*
X175160246Y-61658510D01*
X175160248Y-61658516D01*
X175259004Y-61870299D01*
X175259005Y-61870301D01*
X175393036Y-62061717D01*
X175393043Y-62061726D01*
X175558273Y-62226956D01*
X175558277Y-62226959D01*
X175558278Y-62226960D01*
X175749699Y-62360995D01*
X175961487Y-62459753D01*
X176160538Y-62513088D01*
X176185359Y-62519739D01*
X176187207Y-62520234D01*
X176420000Y-62540601D01*
X176652793Y-62520234D01*
X176878513Y-62459753D01*
X177090301Y-62360995D01*
X177281722Y-62226960D01*
X177446960Y-62061722D01*
X177580995Y-61870301D01*
X177679753Y-61658513D01*
X177740234Y-61432793D01*
X177760601Y-61200000D01*
X180159901Y-61200000D01*
X180180260Y-61432704D01*
X180240718Y-61658339D01*
X180240720Y-61658344D01*
X180339439Y-61870049D01*
X180393514Y-61947274D01*
X180859032Y-61481755D01*
X180879668Y-61531574D01*
X180956274Y-61646224D01*
X181053776Y-61743726D01*
X181168426Y-61820332D01*
X181218242Y-61840966D01*
X180752724Y-62306484D01*
X180752724Y-62306485D01*
X180829951Y-62360560D01*
X180829950Y-62360560D01*
X181041655Y-62459279D01*
X181041660Y-62459281D01*
X181267295Y-62519739D01*
X181500000Y-62540098D01*
X181732704Y-62519739D01*
X181958339Y-62459281D01*
X181958344Y-62459279D01*
X182170049Y-62360560D01*
X182170050Y-62360559D01*
X182247274Y-62306485D01*
X182247274Y-62306483D01*
X181781757Y-61840966D01*
X181831574Y-61820332D01*
X181946224Y-61743726D01*
X182043726Y-61646224D01*
X182120332Y-61531574D01*
X182140966Y-61481757D01*
X182606483Y-61947274D01*
X182606485Y-61947274D01*
X182660559Y-61870050D01*
X182660560Y-61870049D01*
X182759279Y-61658344D01*
X182759281Y-61658339D01*
X182819739Y-61432704D01*
X182840098Y-61200000D01*
X182819739Y-60967295D01*
X182759281Y-60741660D01*
X182759279Y-60741655D01*
X182660559Y-60529950D01*
X182606485Y-60452724D01*
X182606484Y-60452724D01*
X182140966Y-60918242D01*
X182120332Y-60868426D01*
X182043726Y-60753776D01*
X181946224Y-60656274D01*
X181831574Y-60579668D01*
X181781756Y-60559033D01*
X182247274Y-60093514D01*
X182247274Y-60093513D01*
X182170048Y-60039439D01*
X182170049Y-60039439D01*
X181958344Y-59940720D01*
X181958339Y-59940718D01*
X181732704Y-59880260D01*
X181500000Y-59859901D01*
X181267295Y-59880260D01*
X181041660Y-59940718D01*
X181041655Y-59940720D01*
X180829951Y-60039439D01*
X180752723Y-60093514D01*
X181218242Y-60559033D01*
X181168426Y-60579668D01*
X181053776Y-60656274D01*
X180956274Y-60753776D01*
X180879668Y-60868426D01*
X180859033Y-60918242D01*
X180393514Y-60452723D01*
X180339439Y-60529951D01*
X180240720Y-60741655D01*
X180240718Y-60741660D01*
X180180260Y-60967295D01*
X180159901Y-61200000D01*
X177760601Y-61200000D01*
X177740234Y-60967207D01*
X177679753Y-60741487D01*
X177580995Y-60529700D01*
X177446960Y-60338278D01*
X177281722Y-60173040D01*
X177281721Y-60173039D01*
X177281720Y-60173038D01*
X177281717Y-60173036D01*
X177090301Y-60039005D01*
X177090299Y-60039004D01*
X176878516Y-59940248D01*
X176878510Y-59940246D01*
X176652796Y-59879766D01*
X176420000Y-59859399D01*
X176187203Y-59879766D01*
X175961489Y-59940246D01*
X175961484Y-59940248D01*
X175749699Y-60039005D01*
X175558281Y-60173037D01*
X175558275Y-60173042D01*
X175393042Y-60338275D01*
X175393037Y-60338281D01*
X175259005Y-60529699D01*
X175160248Y-60741484D01*
X175160246Y-60741489D01*
X175099766Y-60967203D01*
X175079399Y-61200000D01*
X172680601Y-61200000D01*
X172660234Y-60967207D01*
X172599753Y-60741487D01*
X172500995Y-60529700D01*
X172366960Y-60338278D01*
X172201722Y-60173040D01*
X172201721Y-60173039D01*
X172201720Y-60173038D01*
X172201717Y-60173036D01*
X172010301Y-60039005D01*
X172010299Y-60039004D01*
X171798516Y-59940248D01*
X171798510Y-59940246D01*
X171572796Y-59879766D01*
X171340000Y-59859399D01*
X171107203Y-59879766D01*
X170881489Y-59940246D01*
X170881484Y-59940248D01*
X170669699Y-60039005D01*
X170478281Y-60173037D01*
X170478275Y-60173042D01*
X170313042Y-60338275D01*
X170313037Y-60338281D01*
X170179005Y-60529699D01*
X170080248Y-60741484D01*
X170080246Y-60741489D01*
X170019766Y-60967203D01*
X169999399Y-61200000D01*
X167600601Y-61200000D01*
X167580234Y-60967207D01*
X167519753Y-60741487D01*
X167420995Y-60529700D01*
X167286960Y-60338278D01*
X167121722Y-60173040D01*
X167121721Y-60173039D01*
X167121720Y-60173038D01*
X167121717Y-60173036D01*
X166930301Y-60039005D01*
X166930299Y-60039004D01*
X166718516Y-59940248D01*
X166718510Y-59940246D01*
X166492796Y-59879766D01*
X166260000Y-59859399D01*
X166027203Y-59879766D01*
X165801489Y-59940246D01*
X165801484Y-59940248D01*
X165589699Y-60039005D01*
X165398281Y-60173037D01*
X165398275Y-60173042D01*
X165233042Y-60338275D01*
X165233037Y-60338281D01*
X165099005Y-60529699D01*
X165000248Y-60741484D01*
X165000246Y-60741489D01*
X164939766Y-60967203D01*
X164919399Y-61200000D01*
X162520601Y-61200000D01*
X162500234Y-60967207D01*
X162439753Y-60741487D01*
X162340995Y-60529700D01*
X162206960Y-60338278D01*
X162041722Y-60173040D01*
X162041721Y-60173039D01*
X162041720Y-60173038D01*
X162041717Y-60173036D01*
X161850301Y-60039005D01*
X161850299Y-60039004D01*
X161638516Y-59940248D01*
X161638510Y-59940246D01*
X161412796Y-59879766D01*
X161180000Y-59859399D01*
X160947203Y-59879766D01*
X160721489Y-59940246D01*
X160721484Y-59940248D01*
X160509699Y-60039005D01*
X160318281Y-60173037D01*
X160318275Y-60173042D01*
X160153042Y-60338275D01*
X160153037Y-60338281D01*
X160019005Y-60529699D01*
X159920248Y-60741484D01*
X159920246Y-60741489D01*
X159859766Y-60967203D01*
X159839399Y-61200000D01*
X157440601Y-61200000D01*
X157420234Y-60967207D01*
X157359753Y-60741487D01*
X157260995Y-60529700D01*
X157126960Y-60338278D01*
X156961722Y-60173040D01*
X156961721Y-60173039D01*
X156961720Y-60173038D01*
X156961717Y-60173036D01*
X156770301Y-60039005D01*
X156770299Y-60039004D01*
X156558516Y-59940248D01*
X156558510Y-59940246D01*
X156332796Y-59879766D01*
X156100000Y-59859399D01*
X155867203Y-59879766D01*
X155641489Y-59940246D01*
X155641484Y-59940248D01*
X155429699Y-60039005D01*
X155238281Y-60173037D01*
X155238275Y-60173042D01*
X155073042Y-60338275D01*
X155073037Y-60338281D01*
X154939005Y-60529699D01*
X154840248Y-60741484D01*
X154840246Y-60741489D01*
X154779766Y-60967203D01*
X154759399Y-61200000D01*
X152502000Y-61200000D01*
X152502000Y-52500000D01*
X154759399Y-52500000D01*
X154779766Y-52732796D01*
X154840246Y-52958510D01*
X154840248Y-52958516D01*
X154939004Y-53170299D01*
X154939005Y-53170301D01*
X155073036Y-53361717D01*
X155073043Y-53361726D01*
X155238273Y-53526956D01*
X155238277Y-53526959D01*
X155238278Y-53526960D01*
X155429699Y-53660995D01*
X155641487Y-53759753D01*
X155840538Y-53813088D01*
X155865359Y-53819739D01*
X155867207Y-53820234D01*
X156100000Y-53840601D01*
X156332793Y-53820234D01*
X156558513Y-53759753D01*
X156770301Y-53660995D01*
X156961722Y-53526960D01*
X157126960Y-53361722D01*
X157260995Y-53170301D01*
X157359753Y-52958513D01*
X157420234Y-52732793D01*
X157440601Y-52500000D01*
X159839399Y-52500000D01*
X159859766Y-52732796D01*
X159920246Y-52958510D01*
X159920248Y-52958516D01*
X160019004Y-53170299D01*
X160019005Y-53170301D01*
X160153036Y-53361717D01*
X160153043Y-53361726D01*
X160318273Y-53526956D01*
X160318277Y-53526959D01*
X160318278Y-53526960D01*
X160509699Y-53660995D01*
X160721487Y-53759753D01*
X160920538Y-53813088D01*
X160945359Y-53819739D01*
X160947207Y-53820234D01*
X161180000Y-53840601D01*
X161412793Y-53820234D01*
X161638513Y-53759753D01*
X161850301Y-53660995D01*
X162041722Y-53526960D01*
X162206960Y-53361722D01*
X162340995Y-53170301D01*
X162439753Y-52958513D01*
X162500234Y-52732793D01*
X162520601Y-52500000D01*
X164919399Y-52500000D01*
X164939766Y-52732796D01*
X165000246Y-52958510D01*
X165000248Y-52958516D01*
X165099004Y-53170299D01*
X165099005Y-53170301D01*
X165233036Y-53361717D01*
X165233043Y-53361726D01*
X165398273Y-53526956D01*
X165398277Y-53526959D01*
X165398278Y-53526960D01*
X165589699Y-53660995D01*
X165801487Y-53759753D01*
X166000538Y-53813088D01*
X166025359Y-53819739D01*
X166027207Y-53820234D01*
X166260000Y-53840601D01*
X166492793Y-53820234D01*
X166718513Y-53759753D01*
X166930301Y-53660995D01*
X167121722Y-53526960D01*
X167286960Y-53361722D01*
X167420995Y-53170301D01*
X167519753Y-52958513D01*
X167580234Y-52732793D01*
X167600601Y-52500000D01*
X169999399Y-52500000D01*
X170019766Y-52732796D01*
X170080246Y-52958510D01*
X170080248Y-52958516D01*
X170179004Y-53170299D01*
X170179005Y-53170301D01*
X170313036Y-53361717D01*
X170313043Y-53361726D01*
X170478273Y-53526956D01*
X170478277Y-53526959D01*
X170478278Y-53526960D01*
X170669699Y-53660995D01*
X170881487Y-53759753D01*
X171080538Y-53813088D01*
X171105359Y-53819739D01*
X171107207Y-53820234D01*
X171340000Y-53840601D01*
X171572793Y-53820234D01*
X171798513Y-53759753D01*
X172010301Y-53660995D01*
X172201722Y-53526960D01*
X172366960Y-53361722D01*
X172500995Y-53170301D01*
X172599753Y-52958513D01*
X172660234Y-52732793D01*
X172680601Y-52500000D01*
X175079399Y-52500000D01*
X175099766Y-52732796D01*
X175160246Y-52958510D01*
X175160248Y-52958516D01*
X175259004Y-53170299D01*
X175259005Y-53170301D01*
X175393036Y-53361717D01*
X175393043Y-53361726D01*
X175558273Y-53526956D01*
X175558277Y-53526959D01*
X175558278Y-53526960D01*
X175749699Y-53660995D01*
X175961487Y-53759753D01*
X176160538Y-53813088D01*
X176185359Y-53819739D01*
X176187207Y-53820234D01*
X176420000Y-53840601D01*
X176652793Y-53820234D01*
X176878513Y-53759753D01*
X177090301Y-53660995D01*
X177281722Y-53526960D01*
X177446960Y-53361722D01*
X177580995Y-53170301D01*
X177679753Y-52958513D01*
X177740234Y-52732793D01*
X177760601Y-52500000D01*
X180159901Y-52500000D01*
X180180260Y-52732704D01*
X180240718Y-52958339D01*
X180240720Y-52958344D01*
X180339439Y-53170049D01*
X180393514Y-53247274D01*
X180859032Y-52781755D01*
X180879668Y-52831574D01*
X180956274Y-52946224D01*
X181053776Y-53043726D01*
X181168426Y-53120332D01*
X181218242Y-53140966D01*
X180752724Y-53606484D01*
X180752724Y-53606485D01*
X180829951Y-53660560D01*
X180829950Y-53660560D01*
X181041655Y-53759279D01*
X181041660Y-53759281D01*
X181267295Y-53819739D01*
X181500000Y-53840098D01*
X181732704Y-53819739D01*
X181958339Y-53759281D01*
X181958344Y-53759279D01*
X182170049Y-53660560D01*
X182170050Y-53660559D01*
X182247274Y-53606485D01*
X182247274Y-53606483D01*
X181781757Y-53140966D01*
X181831574Y-53120332D01*
X181946224Y-53043726D01*
X182043726Y-52946224D01*
X182120332Y-52831574D01*
X182140966Y-52781757D01*
X182606483Y-53247274D01*
X182606485Y-53247274D01*
X182660559Y-53170050D01*
X182660560Y-53170049D01*
X182759279Y-52958344D01*
X182759281Y-52958339D01*
X182819739Y-52732704D01*
X182840098Y-52500000D01*
X182819739Y-52267295D01*
X182759281Y-52041660D01*
X182759279Y-52041655D01*
X182660559Y-51829950D01*
X182606485Y-51752724D01*
X182606484Y-51752724D01*
X182140966Y-52218242D01*
X182120332Y-52168426D01*
X182043726Y-52053776D01*
X181946224Y-51956274D01*
X181831574Y-51879668D01*
X181781756Y-51859033D01*
X182247274Y-51393514D01*
X182247274Y-51393513D01*
X182170048Y-51339439D01*
X182170049Y-51339439D01*
X181958344Y-51240720D01*
X181958339Y-51240718D01*
X181732704Y-51180260D01*
X181500000Y-51159901D01*
X181267295Y-51180260D01*
X181041660Y-51240718D01*
X181041655Y-51240720D01*
X180829951Y-51339439D01*
X180752723Y-51393514D01*
X181218242Y-51859033D01*
X181168426Y-51879668D01*
X181053776Y-51956274D01*
X180956274Y-52053776D01*
X180879668Y-52168426D01*
X180859033Y-52218242D01*
X180393514Y-51752723D01*
X180339439Y-51829951D01*
X180240720Y-52041655D01*
X180240718Y-52041660D01*
X180180260Y-52267295D01*
X180159901Y-52500000D01*
X177760601Y-52500000D01*
X177740234Y-52267207D01*
X177679753Y-52041487D01*
X177580995Y-51829700D01*
X177446960Y-51638278D01*
X177281722Y-51473040D01*
X177281721Y-51473039D01*
X177281720Y-51473038D01*
X177281717Y-51473036D01*
X177090301Y-51339005D01*
X177090299Y-51339004D01*
X176878516Y-51240248D01*
X176878510Y-51240246D01*
X176652796Y-51179766D01*
X176420000Y-51159399D01*
X176187203Y-51179766D01*
X175961489Y-51240246D01*
X175961484Y-51240248D01*
X175749699Y-51339005D01*
X175558281Y-51473037D01*
X175558275Y-51473042D01*
X175393042Y-51638275D01*
X175393037Y-51638281D01*
X175259005Y-51829699D01*
X175160248Y-52041484D01*
X175160246Y-52041489D01*
X175099766Y-52267203D01*
X175079399Y-52500000D01*
X172680601Y-52500000D01*
X172660234Y-52267207D01*
X172599753Y-52041487D01*
X172500995Y-51829700D01*
X172366960Y-51638278D01*
X172201722Y-51473040D01*
X172201721Y-51473039D01*
X172201720Y-51473038D01*
X172201717Y-51473036D01*
X172010301Y-51339005D01*
X172010299Y-51339004D01*
X171798516Y-51240248D01*
X171798510Y-51240246D01*
X171572796Y-51179766D01*
X171340000Y-51159399D01*
X171107203Y-51179766D01*
X170881489Y-51240246D01*
X170881484Y-51240248D01*
X170669699Y-51339005D01*
X170478281Y-51473037D01*
X170478275Y-51473042D01*
X170313042Y-51638275D01*
X170313037Y-51638281D01*
X170179005Y-51829699D01*
X170080248Y-52041484D01*
X170080246Y-52041489D01*
X170019766Y-52267203D01*
X169999399Y-52500000D01*
X167600601Y-52500000D01*
X167580234Y-52267207D01*
X167519753Y-52041487D01*
X167420995Y-51829700D01*
X167286960Y-51638278D01*
X167121722Y-51473040D01*
X167121721Y-51473039D01*
X167121720Y-51473038D01*
X167121717Y-51473036D01*
X166930301Y-51339005D01*
X166930299Y-51339004D01*
X166718516Y-51240248D01*
X166718510Y-51240246D01*
X166492796Y-51179766D01*
X166260000Y-51159399D01*
X166027203Y-51179766D01*
X165801489Y-51240246D01*
X165801484Y-51240248D01*
X165589699Y-51339005D01*
X165398281Y-51473037D01*
X165398275Y-51473042D01*
X165233042Y-51638275D01*
X165233037Y-51638281D01*
X165099005Y-51829699D01*
X165000248Y-52041484D01*
X165000246Y-52041489D01*
X164939766Y-52267203D01*
X164919399Y-52500000D01*
X162520601Y-52500000D01*
X162500234Y-52267207D01*
X162439753Y-52041487D01*
X162340995Y-51829700D01*
X162206960Y-51638278D01*
X162041722Y-51473040D01*
X162041721Y-51473039D01*
X162041720Y-51473038D01*
X162041717Y-51473036D01*
X161850301Y-51339005D01*
X161850299Y-51339004D01*
X161638516Y-51240248D01*
X161638510Y-51240246D01*
X161412796Y-51179766D01*
X161180000Y-51159399D01*
X160947203Y-51179766D01*
X160721489Y-51240246D01*
X160721484Y-51240248D01*
X160509699Y-51339005D01*
X160318281Y-51473037D01*
X160318275Y-51473042D01*
X160153042Y-51638275D01*
X160153037Y-51638281D01*
X160019005Y-51829699D01*
X159920248Y-52041484D01*
X159920246Y-52041489D01*
X159859766Y-52267203D01*
X159839399Y-52500000D01*
X157440601Y-52500000D01*
X157420234Y-52267207D01*
X157359753Y-52041487D01*
X157260995Y-51829700D01*
X157126960Y-51638278D01*
X156961722Y-51473040D01*
X156961721Y-51473039D01*
X156961720Y-51473038D01*
X156961717Y-51473036D01*
X156770301Y-51339005D01*
X156770299Y-51339004D01*
X156558516Y-51240248D01*
X156558510Y-51240246D01*
X156332796Y-51179766D01*
X156100000Y-51159399D01*
X155867203Y-51179766D01*
X155641489Y-51240246D01*
X155641484Y-51240248D01*
X155429699Y-51339005D01*
X155238281Y-51473037D01*
X155238275Y-51473042D01*
X155073042Y-51638275D01*
X155073037Y-51638281D01*
X154939005Y-51829699D01*
X154840248Y-52041484D01*
X154840246Y-52041489D01*
X154779766Y-52267203D01*
X154759399Y-52500000D01*
X152502000Y-52500000D01*
X152502000Y-40670000D01*
X152522002Y-40601879D01*
X152575658Y-40555386D01*
X152628000Y-40544000D01*
X184761000Y-40544000D01*
X184829121Y-40564002D01*
G37*
%TD.AperFunction*%
%TD*%
%TA.AperFunction,Conductor*%
%TO.N,GND*%
G36*
X172060000Y-106457000D02*
G01*
X153010000Y-106457000D01*
X153010000Y-91979000D01*
X172060000Y-91979000D01*
X172060000Y-106457000D01*
G37*
%TD.AperFunction*%
%TD*%
%TA.AperFunction,Conductor*%
%TO.N,/GND_ISO_U*%
G36*
X232252500Y-149002008D02*
G01*
X232255578Y-149017477D01*
X232258000Y-149042061D01*
X232258000Y-167926000D01*
X232237998Y-167994121D01*
X232184342Y-168040614D01*
X232132000Y-168052000D01*
X217906000Y-168052000D01*
X217837879Y-168031998D01*
X217791386Y-167978342D01*
X217780000Y-167926000D01*
X217780000Y-149002000D01*
X232252500Y-149002000D01*
X232252500Y-149002008D01*
G37*
%TD.AperFunction*%
%TD*%
%TA.AperFunction,Conductor*%
%TO.N,/GND_ISO_I*%
G36*
X199809621Y-130480502D02*
G01*
X199856114Y-130534158D01*
X199867500Y-130586500D01*
X199867500Y-148876000D01*
X199847498Y-148944121D01*
X199793842Y-148990614D01*
X199741500Y-149002000D01*
X185521000Y-149002000D01*
X185452879Y-148981998D01*
X185406386Y-148928342D01*
X185395000Y-148876000D01*
X185395000Y-130586500D01*
X185415002Y-130518379D01*
X185468658Y-130471886D01*
X185521000Y-130460500D01*
X199741500Y-130460500D01*
X199809621Y-130480502D01*
G37*
%TD.AperFunction*%
%TD*%
%TA.AperFunction,Conductor*%
%TO.N,Net-(J104-Pin_2)*%
G36*
X229146621Y-40564002D02*
G01*
X229193114Y-40617658D01*
X229204500Y-40670000D01*
X229204500Y-61974322D01*
X229184498Y-62042443D01*
X229167595Y-62063417D01*
X228631417Y-62599595D01*
X228569105Y-62633621D01*
X228542322Y-62636500D01*
X228066642Y-62636500D01*
X227998521Y-62616498D01*
X227952028Y-62562842D01*
X227941924Y-62492568D01*
X227971418Y-62427988D01*
X228013391Y-62396306D01*
X228057105Y-62375921D01*
X228057106Y-62375920D01*
X227565881Y-61884695D01*
X227624182Y-61873099D01*
X227751574Y-61820332D01*
X227866224Y-61743726D01*
X227963726Y-61646224D01*
X228040332Y-61531574D01*
X228093099Y-61404182D01*
X228104695Y-61345881D01*
X228595920Y-61837106D01*
X228679279Y-61658343D01*
X228679281Y-61658339D01*
X228739739Y-61432704D01*
X228760098Y-61200000D01*
X228739739Y-60967295D01*
X228679281Y-60741660D01*
X228679279Y-60741656D01*
X228595920Y-60562893D01*
X228104695Y-61054117D01*
X228093099Y-60995818D01*
X228040332Y-60868426D01*
X227963726Y-60753776D01*
X227866224Y-60656274D01*
X227751574Y-60579668D01*
X227624182Y-60526901D01*
X227565880Y-60515303D01*
X228057106Y-60024078D01*
X227878344Y-59940720D01*
X227878339Y-59940718D01*
X227652704Y-59880260D01*
X227420000Y-59859901D01*
X227187295Y-59880260D01*
X226961660Y-59940718D01*
X226961655Y-59940720D01*
X226782893Y-60024078D01*
X227274118Y-60515303D01*
X227215818Y-60526901D01*
X227088426Y-60579668D01*
X226973776Y-60656274D01*
X226876274Y-60753776D01*
X226799668Y-60868426D01*
X226746901Y-60995818D01*
X226735303Y-61054118D01*
X226244078Y-60562893D01*
X226160720Y-60741655D01*
X226160718Y-60741660D01*
X226100260Y-60967295D01*
X226079901Y-61200000D01*
X226100260Y-61432704D01*
X226160718Y-61658339D01*
X226160720Y-61658344D01*
X226244078Y-61837106D01*
X226735303Y-61345880D01*
X226746901Y-61404182D01*
X226799668Y-61531574D01*
X226876274Y-61646224D01*
X226973776Y-61743726D01*
X227088426Y-61820332D01*
X227215818Y-61873099D01*
X227274118Y-61884695D01*
X226782893Y-62375921D01*
X226826606Y-62396305D01*
X226879891Y-62443222D01*
X226899352Y-62511500D01*
X226878810Y-62579460D01*
X226824787Y-62625525D01*
X226773356Y-62636500D01*
X224893385Y-62636500D01*
X224825264Y-62616498D01*
X224782799Y-62570888D01*
X224771715Y-62550590D01*
X224727458Y-62491472D01*
X224727448Y-62491460D01*
X224426405Y-62190417D01*
X224392379Y-62128105D01*
X224389500Y-62101322D01*
X224389500Y-57355571D01*
X224389500Y-57355561D01*
X224388764Y-57336025D01*
X224387336Y-57317110D01*
X224363762Y-57226983D01*
X224333760Y-57162639D01*
X224293340Y-57100823D01*
X224293337Y-57100820D01*
X224293332Y-57100813D01*
X222342420Y-54884914D01*
X222342406Y-54884899D01*
X222330395Y-54871257D01*
X222304792Y-54845955D01*
X222278395Y-54823262D01*
X222278364Y-54823236D01*
X222278344Y-54823219D01*
X222272007Y-54817944D01*
X222272005Y-54817943D01*
X222272004Y-54817942D01*
X222182290Y-54771014D01*
X222182289Y-54771013D01*
X222182288Y-54771013D01*
X222114167Y-54751011D01*
X222041058Y-54740500D01*
X221575957Y-54740500D01*
X221575951Y-54740500D01*
X221575938Y-54740501D01*
X221544436Y-54743264D01*
X221474828Y-54729290D01*
X221423826Y-54679901D01*
X221413595Y-54656682D01*
X221399889Y-54614500D01*
X221344231Y-54443201D01*
X221240579Y-54239772D01*
X221106379Y-54055063D01*
X221106377Y-54055060D01*
X220944939Y-53893622D01*
X220760231Y-53759423D01*
X220760230Y-53759422D01*
X220760228Y-53759421D01*
X220556799Y-53655769D01*
X220339660Y-53585216D01*
X220114157Y-53549500D01*
X219885843Y-53549500D01*
X219660340Y-53585216D01*
X219660337Y-53585216D01*
X219660336Y-53585217D01*
X219443201Y-53655769D01*
X219443199Y-53655770D01*
X219239768Y-53759423D01*
X219055060Y-53893622D01*
X218893622Y-54055060D01*
X218759423Y-54239768D01*
X218655770Y-54443199D01*
X218655769Y-54443202D01*
X218585916Y-54658185D01*
X218545842Y-54716790D01*
X218480445Y-54744427D01*
X218448154Y-54743966D01*
X218424043Y-54740500D01*
X216382000Y-54740500D01*
X216313879Y-54720498D01*
X216267386Y-54666842D01*
X216256000Y-54614500D01*
X216256000Y-52100000D01*
X217391360Y-52100000D01*
X217409891Y-52323632D01*
X217464973Y-52541146D01*
X217464976Y-52541153D01*
X217555109Y-52746636D01*
X217555113Y-52746644D01*
X217558837Y-52752344D01*
X218065303Y-52245878D01*
X218076901Y-52304182D01*
X218129668Y-52431574D01*
X218206274Y-52546224D01*
X218303776Y-52643726D01*
X218418426Y-52720332D01*
X218545818Y-52773099D01*
X218604117Y-52784695D01*
X218100663Y-53288150D01*
X218100663Y-53288152D01*
X218204237Y-53344204D01*
X218204244Y-53344207D01*
X218416474Y-53417065D01*
X218637808Y-53454000D01*
X218862192Y-53454000D01*
X219083525Y-53417065D01*
X219083526Y-53417065D01*
X219295755Y-53344207D01*
X219295768Y-53344201D01*
X219399335Y-53288152D01*
X219399335Y-53288151D01*
X218895880Y-52784696D01*
X218954182Y-52773099D01*
X219081574Y-52720332D01*
X219196224Y-52643726D01*
X219293726Y-52546224D01*
X219370332Y-52431574D01*
X219423099Y-52304182D01*
X219434696Y-52245880D01*
X219941160Y-52752344D01*
X219987018Y-52747590D01*
X220013017Y-52747591D01*
X220058837Y-52752345D01*
X220565303Y-52245879D01*
X220576901Y-52304182D01*
X220629668Y-52431574D01*
X220706274Y-52546224D01*
X220803776Y-52643726D01*
X220918426Y-52720332D01*
X221045818Y-52773099D01*
X221104117Y-52784695D01*
X220600663Y-53288150D01*
X220600663Y-53288152D01*
X220704237Y-53344204D01*
X220704244Y-53344207D01*
X220916474Y-53417065D01*
X221137808Y-53454000D01*
X221362192Y-53454000D01*
X221583525Y-53417065D01*
X221583526Y-53417065D01*
X221795755Y-53344207D01*
X221795768Y-53344201D01*
X221899335Y-53288152D01*
X221899335Y-53288151D01*
X221395880Y-52784696D01*
X221454182Y-52773099D01*
X221581574Y-52720332D01*
X221696224Y-52643726D01*
X221793726Y-52546224D01*
X221870332Y-52431574D01*
X221923099Y-52304182D01*
X221934696Y-52245880D01*
X222441160Y-52752345D01*
X222441161Y-52752344D01*
X222444886Y-52746643D01*
X222444888Y-52746639D01*
X222535023Y-52541153D01*
X222535026Y-52541146D01*
X222545446Y-52500000D01*
X226079901Y-52500000D01*
X226100260Y-52732704D01*
X226160718Y-52958339D01*
X226160720Y-52958344D01*
X226244078Y-53137106D01*
X226735303Y-52645880D01*
X226746901Y-52704182D01*
X226799668Y-52831574D01*
X226876274Y-52946224D01*
X226973776Y-53043726D01*
X227088426Y-53120332D01*
X227215818Y-53173099D01*
X227274118Y-53184695D01*
X226782893Y-53675921D01*
X226961655Y-53759279D01*
X226961660Y-53759281D01*
X227187295Y-53819739D01*
X227420000Y-53840098D01*
X227652704Y-53819739D01*
X227878339Y-53759281D01*
X227878343Y-53759279D01*
X228057106Y-53675920D01*
X227565881Y-53184695D01*
X227624182Y-53173099D01*
X227751574Y-53120332D01*
X227866224Y-53043726D01*
X227963726Y-52946224D01*
X228040332Y-52831574D01*
X228093099Y-52704182D01*
X228104695Y-52645881D01*
X228595920Y-53137106D01*
X228679279Y-52958343D01*
X228679281Y-52958339D01*
X228739739Y-52732704D01*
X228760098Y-52500000D01*
X228739739Y-52267295D01*
X228679281Y-52041660D01*
X228679279Y-52041656D01*
X228595920Y-51862893D01*
X228104695Y-52354117D01*
X228093099Y-52295818D01*
X228040332Y-52168426D01*
X227963726Y-52053776D01*
X227866224Y-51956274D01*
X227751574Y-51879668D01*
X227624182Y-51826901D01*
X227565880Y-51815303D01*
X228057106Y-51324078D01*
X227878344Y-51240720D01*
X227878339Y-51240718D01*
X227652704Y-51180260D01*
X227420000Y-51159901D01*
X227187295Y-51180260D01*
X226961660Y-51240718D01*
X226961655Y-51240720D01*
X226782893Y-51324078D01*
X227274118Y-51815303D01*
X227215818Y-51826901D01*
X227088426Y-51879668D01*
X226973776Y-51956274D01*
X226876274Y-52053776D01*
X226799668Y-52168426D01*
X226746901Y-52295818D01*
X226735303Y-52354118D01*
X226244078Y-51862893D01*
X226160720Y-52041655D01*
X226160718Y-52041660D01*
X226100260Y-52267295D01*
X226079901Y-52500000D01*
X222545446Y-52500000D01*
X222590108Y-52323632D01*
X222608639Y-52100000D01*
X222590108Y-51876367D01*
X222535026Y-51658853D01*
X222535023Y-51658846D01*
X222444887Y-51453359D01*
X222441160Y-51447654D01*
X222441159Y-51447654D01*
X221934695Y-51954117D01*
X221923099Y-51895818D01*
X221870332Y-51768426D01*
X221793726Y-51653776D01*
X221696224Y-51556274D01*
X221581574Y-51479668D01*
X221454182Y-51426901D01*
X221395879Y-51415303D01*
X221899335Y-50911847D01*
X221899335Y-50911846D01*
X221795758Y-50855794D01*
X221795755Y-50855792D01*
X221583525Y-50782934D01*
X221362192Y-50746000D01*
X221137808Y-50746000D01*
X220916474Y-50782934D01*
X220916473Y-50782934D01*
X220704244Y-50855792D01*
X220704241Y-50855794D01*
X220600663Y-50911846D01*
X220600663Y-50911848D01*
X221104118Y-51415303D01*
X221045818Y-51426901D01*
X220918426Y-51479668D01*
X220803776Y-51556274D01*
X220706274Y-51653776D01*
X220629668Y-51768426D01*
X220576901Y-51895818D01*
X220565303Y-51954118D01*
X220058838Y-51447653D01*
X220013020Y-51452409D01*
X219987014Y-51452410D01*
X219941159Y-51447654D01*
X219434695Y-51954117D01*
X219423099Y-51895818D01*
X219370332Y-51768426D01*
X219293726Y-51653776D01*
X219196224Y-51556274D01*
X219081574Y-51479668D01*
X218954182Y-51426901D01*
X218895879Y-51415303D01*
X219399335Y-50911847D01*
X219399335Y-50911846D01*
X219295758Y-50855794D01*
X219295755Y-50855792D01*
X219083525Y-50782934D01*
X218862192Y-50746000D01*
X218637808Y-50746000D01*
X218416474Y-50782934D01*
X218416473Y-50782934D01*
X218204244Y-50855792D01*
X218204241Y-50855794D01*
X218100663Y-50911846D01*
X218100663Y-50911848D01*
X218604118Y-51415303D01*
X218545818Y-51426901D01*
X218418426Y-51479668D01*
X218303776Y-51556274D01*
X218206274Y-51653776D01*
X218129668Y-51768426D01*
X218076901Y-51895818D01*
X218065303Y-51954118D01*
X217558838Y-51447653D01*
X217558837Y-51447654D01*
X217555111Y-51453359D01*
X217464976Y-51658846D01*
X217464973Y-51658853D01*
X217409891Y-51876367D01*
X217391360Y-52100000D01*
X216256000Y-52100000D01*
X216256000Y-48600000D01*
X217391360Y-48600000D01*
X217409891Y-48823632D01*
X217464973Y-49041146D01*
X217464976Y-49041153D01*
X217555109Y-49246636D01*
X217555113Y-49246644D01*
X217558837Y-49252344D01*
X218065303Y-48745878D01*
X218076901Y-48804182D01*
X218129668Y-48931574D01*
X218206274Y-49046224D01*
X218303776Y-49143726D01*
X218418426Y-49220332D01*
X218545818Y-49273099D01*
X218604117Y-49284695D01*
X218100663Y-49788150D01*
X218100663Y-49788152D01*
X218204237Y-49844204D01*
X218204244Y-49844207D01*
X218416474Y-49917065D01*
X218637808Y-49954000D01*
X218862192Y-49954000D01*
X219083525Y-49917065D01*
X219083526Y-49917065D01*
X219295755Y-49844207D01*
X219295768Y-49844201D01*
X219399335Y-49788152D01*
X219399335Y-49788151D01*
X218895880Y-49284696D01*
X218954182Y-49273099D01*
X219081574Y-49220332D01*
X219196224Y-49143726D01*
X219293726Y-49046224D01*
X219370332Y-48931574D01*
X219423099Y-48804182D01*
X219434696Y-48745880D01*
X219941160Y-49252344D01*
X219987018Y-49247590D01*
X220013017Y-49247591D01*
X220058837Y-49252345D01*
X220565303Y-48745879D01*
X220576901Y-48804182D01*
X220629668Y-48931574D01*
X220706274Y-49046224D01*
X220803776Y-49143726D01*
X220918426Y-49220332D01*
X221045818Y-49273099D01*
X221104117Y-49284695D01*
X220600663Y-49788150D01*
X220600663Y-49788152D01*
X220704237Y-49844204D01*
X220704244Y-49844207D01*
X220916474Y-49917065D01*
X221137808Y-49954000D01*
X221362192Y-49954000D01*
X221583525Y-49917065D01*
X221583526Y-49917065D01*
X221795755Y-49844207D01*
X221795768Y-49844201D01*
X221899335Y-49788152D01*
X221899335Y-49788151D01*
X221395880Y-49284696D01*
X221454182Y-49273099D01*
X221581574Y-49220332D01*
X221696224Y-49143726D01*
X221793726Y-49046224D01*
X221870332Y-48931574D01*
X221923099Y-48804182D01*
X221934696Y-48745880D01*
X222441160Y-49252345D01*
X222441161Y-49252344D01*
X222444886Y-49246643D01*
X222444888Y-49246639D01*
X222535023Y-49041153D01*
X222535026Y-49041146D01*
X222590108Y-48823632D01*
X222608639Y-48600000D01*
X222590108Y-48376367D01*
X222535026Y-48158853D01*
X222535023Y-48158846D01*
X222444887Y-47953359D01*
X222441160Y-47947654D01*
X222441159Y-47947654D01*
X221934695Y-48454117D01*
X221923099Y-48395818D01*
X221870332Y-48268426D01*
X221793726Y-48153776D01*
X221696224Y-48056274D01*
X221581574Y-47979668D01*
X221454182Y-47926901D01*
X221395879Y-47915303D01*
X221899335Y-47411847D01*
X221899335Y-47411846D01*
X221795758Y-47355794D01*
X221795755Y-47355792D01*
X221583525Y-47282934D01*
X221362192Y-47246000D01*
X221137808Y-47246000D01*
X220916474Y-47282934D01*
X220916473Y-47282934D01*
X220704244Y-47355792D01*
X220704241Y-47355794D01*
X220600663Y-47411846D01*
X220600663Y-47411848D01*
X221104118Y-47915303D01*
X221045818Y-47926901D01*
X220918426Y-47979668D01*
X220803776Y-48056274D01*
X220706274Y-48153776D01*
X220629668Y-48268426D01*
X220576901Y-48395818D01*
X220565303Y-48454118D01*
X220058838Y-47947653D01*
X220013020Y-47952409D01*
X219987014Y-47952410D01*
X219941159Y-47947654D01*
X219434695Y-48454117D01*
X219423099Y-48395818D01*
X219370332Y-48268426D01*
X219293726Y-48153776D01*
X219196224Y-48056274D01*
X219081574Y-47979668D01*
X218954182Y-47926901D01*
X218895879Y-47915303D01*
X219399335Y-47411847D01*
X219399335Y-47411846D01*
X219295758Y-47355794D01*
X219295755Y-47355792D01*
X219083525Y-47282934D01*
X218862192Y-47246000D01*
X218637808Y-47246000D01*
X218416474Y-47282934D01*
X218416473Y-47282934D01*
X218204244Y-47355792D01*
X218204241Y-47355794D01*
X218100663Y-47411846D01*
X218100663Y-47411848D01*
X218604118Y-47915303D01*
X218545818Y-47926901D01*
X218418426Y-47979668D01*
X218303776Y-48056274D01*
X218206274Y-48153776D01*
X218129668Y-48268426D01*
X218076901Y-48395818D01*
X218065303Y-48454118D01*
X217558838Y-47947653D01*
X217558837Y-47947654D01*
X217555111Y-47953359D01*
X217464976Y-48158846D01*
X217464973Y-48158853D01*
X217409891Y-48376367D01*
X217391360Y-48600000D01*
X216256000Y-48600000D01*
X216256000Y-40670000D01*
X216276002Y-40601879D01*
X216329658Y-40555386D01*
X216382000Y-40544000D01*
X229078500Y-40544000D01*
X229146621Y-40564002D01*
G37*
%TD.AperFunction*%
%TD*%
%TA.AperFunction,Conductor*%
%TO.N,GND*%
G36*
X167828664Y-127565265D02*
G01*
X167990542Y-127632317D01*
X168162392Y-127666500D01*
X170067392Y-127666500D01*
X181126278Y-127666500D01*
X181194399Y-127686502D01*
X181240892Y-127740158D01*
X181250996Y-127810432D01*
X181239893Y-127842508D01*
X181241314Y-127843097D01*
X181238155Y-127850720D01*
X181238153Y-127850726D01*
X181203500Y-127980055D01*
X181203500Y-128113945D01*
X181238153Y-128243274D01*
X181238154Y-128243276D01*
X181238155Y-128243278D01*
X181305097Y-128359224D01*
X181305099Y-128359227D01*
X181399772Y-128453900D01*
X181399775Y-128453902D01*
X181491226Y-128506701D01*
X181515726Y-128520847D01*
X181645055Y-128555500D01*
X181888278Y-128555500D01*
X181956399Y-128575502D01*
X182002892Y-128629158D01*
X182012996Y-128699432D01*
X182001893Y-128731508D01*
X182003314Y-128732097D01*
X182000155Y-128739720D01*
X182000153Y-128739726D01*
X181965500Y-128869055D01*
X181965500Y-129002945D01*
X182000153Y-129132274D01*
X182000154Y-129132276D01*
X182000155Y-129132278D01*
X182067097Y-129248224D01*
X182067099Y-129248227D01*
X182161772Y-129342900D01*
X182161775Y-129342902D01*
X182194046Y-129361533D01*
X182220000Y-129376518D01*
X182220000Y-129994870D01*
X179888104Y-132326766D01*
X179888096Y-132326776D01*
X179821155Y-132442721D01*
X179821154Y-132442724D01*
X179821153Y-132442726D01*
X179786500Y-132572055D01*
X179786500Y-137003945D01*
X179821153Y-137133274D01*
X179821154Y-137133276D01*
X179821155Y-137133278D01*
X179888097Y-137249224D01*
X179888099Y-137249227D01*
X179982772Y-137343900D01*
X179982775Y-137343902D01*
X180074226Y-137396701D01*
X180098726Y-137410847D01*
X180228055Y-137445500D01*
X180228057Y-137445500D01*
X180361943Y-137445500D01*
X180361945Y-137445500D01*
X180491274Y-137410847D01*
X180607226Y-137343901D01*
X180701901Y-137249226D01*
X180768847Y-137133274D01*
X180803500Y-137003945D01*
X180803500Y-132901817D01*
X180823502Y-132833696D01*
X180840405Y-132812722D01*
X182220000Y-131433127D01*
X182220000Y-149002000D01*
X167742000Y-149002000D01*
X167742000Y-127507357D01*
X167828664Y-127565265D01*
G37*
%TD.AperFunction*%
%TD*%
%TA.AperFunction,Conductor*%
%TO.N,GND*%
G36*
X246990000Y-149002000D02*
G01*
X232512000Y-149002000D01*
X232512000Y-130206500D01*
X241393182Y-130206500D01*
X241461303Y-130226502D01*
X241482277Y-130243405D01*
X242914595Y-131675723D01*
X242948621Y-131738035D01*
X242951500Y-131764818D01*
X242951500Y-133066945D01*
X242986153Y-133196274D01*
X242986154Y-133196276D01*
X242986155Y-133196278D01*
X243053097Y-133312224D01*
X243053099Y-133312227D01*
X243147772Y-133406900D01*
X243147775Y-133406902D01*
X243232499Y-133455818D01*
X243263726Y-133473847D01*
X243393055Y-133508500D01*
X243393057Y-133508500D01*
X243526941Y-133508500D01*
X243526945Y-133508500D01*
X243528885Y-133507980D01*
X243530586Y-133508020D01*
X243535132Y-133507422D01*
X243535225Y-133508130D01*
X243599858Y-133509665D01*
X243658656Y-133549456D01*
X243686608Y-133614718D01*
X243687500Y-133629685D01*
X243687500Y-143601055D01*
X243687500Y-143734945D01*
X243722153Y-143864274D01*
X243722154Y-143864276D01*
X243722155Y-143864278D01*
X243789096Y-143980223D01*
X243789104Y-143980233D01*
X244772772Y-144963900D01*
X244772775Y-144963902D01*
X244772777Y-144963903D01*
X244888726Y-145030847D01*
X245018055Y-145065500D01*
X245018057Y-145065500D01*
X245151943Y-145065500D01*
X245151945Y-145065500D01*
X245281274Y-145030847D01*
X245397227Y-144963901D01*
X245491901Y-144869227D01*
X245558847Y-144753274D01*
X245593500Y-144623945D01*
X245593500Y-144490055D01*
X245558847Y-144360726D01*
X245491901Y-144244774D01*
X245227350Y-143980223D01*
X244741404Y-143494276D01*
X244707379Y-143431964D01*
X244704500Y-143405181D01*
X244704500Y-141341048D01*
X244724502Y-141272927D01*
X244778158Y-141226434D01*
X244848432Y-141216330D01*
X244863112Y-141219341D01*
X244868720Y-141220843D01*
X244868726Y-141220847D01*
X244998055Y-141255500D01*
X244998058Y-141255500D01*
X245131943Y-141255500D01*
X245131945Y-141255500D01*
X245261274Y-141220847D01*
X245377226Y-141153901D01*
X245471901Y-141059226D01*
X245538847Y-140943274D01*
X245573500Y-140813945D01*
X245573500Y-130066817D01*
X245593502Y-129998696D01*
X245647158Y-129952203D01*
X245717432Y-129942099D01*
X245782012Y-129971593D01*
X245788595Y-129977722D01*
X245809595Y-129998722D01*
X245843621Y-130061034D01*
X245846500Y-130087817D01*
X245846500Y-137003945D01*
X245881153Y-137133274D01*
X245881154Y-137133276D01*
X245881155Y-137133278D01*
X245948097Y-137249224D01*
X245948099Y-137249227D01*
X246042772Y-137343900D01*
X246042775Y-137343902D01*
X246134226Y-137396701D01*
X246158726Y-137410847D01*
X246288055Y-137445500D01*
X246288057Y-137445500D01*
X246421943Y-137445500D01*
X246421945Y-137445500D01*
X246551274Y-137410847D01*
X246667226Y-137343901D01*
X246761901Y-137249226D01*
X246828847Y-137133274D01*
X246863500Y-137003945D01*
X246863500Y-129758055D01*
X246828847Y-129628726D01*
X246761901Y-129512774D01*
X246667226Y-129418099D01*
X245988853Y-128739726D01*
X243746233Y-126497104D01*
X243746223Y-126497096D01*
X243630278Y-126430155D01*
X243630276Y-126430154D01*
X243630274Y-126430153D01*
X243500945Y-126395500D01*
X243500943Y-126395500D01*
X237092818Y-126395500D01*
X237024697Y-126375498D01*
X237003723Y-126358595D01*
X236787128Y-126142000D01*
X246990000Y-126142000D01*
X246990000Y-149002000D01*
G37*
%TD.AperFunction*%
%TD*%
%TA.AperFunction,Conductor*%
%TO.N,GND*%
G36*
X214605000Y-168045200D02*
G01*
X214579973Y-168045200D01*
X214572792Y-168049121D01*
X214546009Y-168052000D01*
X200185991Y-168052000D01*
X200162832Y-168045200D01*
X200127000Y-168045200D01*
X200127000Y-151399408D01*
X200196274Y-151380847D01*
X200312226Y-151313901D01*
X200406901Y-151219226D01*
X200473847Y-151103274D01*
X200508500Y-150973945D01*
X200508500Y-150840055D01*
X200473847Y-150710726D01*
X200406901Y-150594774D01*
X200406900Y-150594772D01*
X200312227Y-150500099D01*
X200312224Y-150500097D01*
X200196278Y-150433155D01*
X200196276Y-150433154D01*
X200196274Y-150433153D01*
X200127000Y-150414591D01*
X200127000Y-149002000D01*
X214605000Y-149002000D01*
X214605000Y-168045200D01*
G37*
%TD.AperFunction*%
%TD*%
%TA.AperFunction,Conductor*%
%TO.N,GND*%
G36*
X212760303Y-129464502D02*
G01*
X212806796Y-129518158D01*
X212816900Y-129588432D01*
X212787406Y-129653012D01*
X212781290Y-129659581D01*
X212555817Y-129885055D01*
X212273101Y-130167770D01*
X212273096Y-130167776D01*
X212217411Y-130264226D01*
X212206155Y-130283720D01*
X212206153Y-130283725D01*
X212206153Y-130283726D01*
X212171500Y-130413055D01*
X212171500Y-137003945D01*
X212206153Y-137133274D01*
X212206154Y-137133276D01*
X212206155Y-137133278D01*
X212273097Y-137249224D01*
X212273099Y-137249227D01*
X212367772Y-137343900D01*
X212367775Y-137343902D01*
X212459226Y-137396701D01*
X212483726Y-137410847D01*
X212613055Y-137445500D01*
X212613057Y-137445500D01*
X212746943Y-137445500D01*
X212746945Y-137445500D01*
X212876274Y-137410847D01*
X212992226Y-137343901D01*
X213086901Y-137249226D01*
X213153847Y-137133274D01*
X213188500Y-137003945D01*
X213188500Y-130742818D01*
X213208502Y-130674697D01*
X213225405Y-130653723D01*
X213635723Y-130243405D01*
X213698035Y-130209379D01*
X213724818Y-130206500D01*
X214605000Y-130206500D01*
X214605000Y-149002000D01*
X200127000Y-149002000D01*
X200127000Y-130460500D01*
X207764182Y-130460500D01*
X207832303Y-130480502D01*
X207853277Y-130497405D01*
X210762772Y-133406900D01*
X210762775Y-133406902D01*
X210762777Y-133406903D01*
X210878726Y-133473847D01*
X211008055Y-133508500D01*
X211008057Y-133508500D01*
X211141943Y-133508500D01*
X211141945Y-133508500D01*
X211271274Y-133473847D01*
X211387227Y-133406901D01*
X211481901Y-133312227D01*
X211548847Y-133196274D01*
X211583500Y-133066945D01*
X211583500Y-132933055D01*
X211548847Y-132803726D01*
X211481901Y-132687774D01*
X211481900Y-132687772D01*
X208453724Y-129659595D01*
X208419698Y-129597283D01*
X208424763Y-129526467D01*
X208467310Y-129469632D01*
X208533830Y-129444821D01*
X208542819Y-129444500D01*
X212692182Y-129444500D01*
X212760303Y-129464502D01*
G37*
%TD.AperFunction*%
%TD*%
M02*
