M48
; DRILL file {KiCad 8.0.2} date 2025-03-06T23:30:26+0100
; FORMAT={-:-/ absolute / metric / decimal}
; #@! TF.CreationDate,2025-03-06T23:30:26+01:00
; #@! TF.GenerationSoftware,Kicad,Pcbnew,8.0.2
; #@! TF.FileFunction,Plated,1,2,PTH
FMAT,2
METRIC
; #@! TA.AperFunction,Plated,PTH,ViaDrill
T1C0.300
; #@! TA.AperFunction,Plated,PTH,ComponentDrill
T2C1.400
%
G90
G05
T1
X153.01Y-118.649
X153.01Y-143.668
X153.772Y-119.03
X153.772Y-137.953
X154.534Y-117.627
X154.534Y-132.238
X155.296Y-119.538
X155.296Y-126.777
X156.693Y-114.712
X156.82Y-105.06
X158.725Y-85.502
X158.725Y-98.202
X159.36Y-105.06
X159.36Y-132.238
X160.757Y-122.713
X161.265Y-134.397
X161.265Y-150.907
X161.265Y-157.257
X161.265Y-162.337
X161.392Y-145.827
X161.9Y-105.06
X162.662Y-114.712
X163.805Y-85.502
X163.805Y-98.202
X164.44Y-105.06
X165.329Y-124.491
X166.98Y-105.06
X167.26Y-122.713
X168.25Y-126.777
X169.52Y-105.06
X170.155Y-85.502
X170.155Y-98.202
X170.155Y-126.777
X173.838Y-145.827
X173.965Y-108.362
X173.965Y-134.397
X173.965Y-150.907
X173.965Y-157.257
X173.965Y-162.337
X177.14Y-110.14
X177.14Y-112.68
X177.14Y-115.22
X177.14Y-117.76
X177.14Y-120.3
X177.14Y-122.84
X177.14Y-138.842
X177.14Y-142.652
X177.14Y-146.462
X178.156Y-100.107
X180.295Y-136.937
X180.315Y-85.502
X180.315Y-98.202
X180.95Y-125.38
X181.712Y-128.047
X182.474Y-128.936
X184.125Y-115.855
X184.125Y-117.627
X184.2Y-119.486
X184.76Y-82.327
X185.395Y-116.617
X185.395Y-123.221
X188.57Y-82.327
X188.57Y-112.68
X189.078Y-114.712
X191.745Y-85.629
X191.745Y-98.075
X191.745Y-132.238
X192.38Y-82.327
X193.142Y-122.713
X193.65Y-92.995
X193.65Y-94.265
X193.65Y-134.397
X193.65Y-150.907
X193.65Y-157.257
X193.65Y-162.337
X193.777Y-145.827
X195.047Y-114.712
X196.19Y-87.915
X197.46Y-85.883
X198.222Y-86.645
X198.984Y-85.121
X198.984Y-108.362
X199.645Y-122.713
X199.873Y-84.359
X200.0Y-150.907
X200.635Y-83.597
X201.27Y-126.777
X202.54Y-126.777
X206.223Y-145.827
X206.35Y-134.397
X206.35Y-150.907
X206.35Y-157.257
X206.35Y-162.337
X207.62Y-99.98
X207.62Y-102.52
X207.62Y-105.06
X208.128Y-124.491
X209.525Y-91.725
X209.525Y-126.777
X209.525Y-138.842
X209.525Y-142.652
X209.525Y-146.462
X210.795Y-91.725
X210.795Y-126.777
X211.075Y-133.0
X212.065Y-91.725
X212.065Y-126.777
X212.68Y-136.937
X212.7Y-99.98
X212.7Y-102.52
X212.7Y-105.06
X213.589Y-83.597
X213.97Y-87.915
X213.97Y-128.047
X214.351Y-84.359
X214.732Y-128.936
X216.764Y-119.665
X216.891Y-117.532
X217.78Y-41.56
X217.78Y-44.1
X217.78Y-46.64
X217.78Y-54.26
X217.78Y-59.34
X217.78Y-64.42
X218.415Y-124.11
X220.32Y-41.56
X220.32Y-44.1
X220.32Y-46.64
X220.32Y-64.42
X220.955Y-63.785
X220.955Y-64.42
X220.955Y-65.055
X221.463Y-114.712
X221.59Y-63.15
X221.59Y-63.785
X221.59Y-64.42
X221.59Y-65.055
X222.098Y-85.121
X222.225Y-63.15
X222.86Y-41.56
X222.86Y-44.1
X222.86Y-46.64
X222.86Y-49.18
X222.86Y-51.72
X222.86Y-54.26
X222.86Y-56.8
X222.86Y-59.34
X222.86Y-61.88
X222.86Y-63.15
X222.86Y-66.325
X222.86Y-72.04
X222.86Y-86.645
X223.495Y-66.325
X223.622Y-74.58
X223.622Y-85.883
X224.13Y-63.15
X224.13Y-66.325
X224.13Y-71.405
X224.13Y-132.238
X225.4Y-41.56
X225.4Y-44.1
X225.4Y-46.64
X225.4Y-49.18
X225.4Y-51.72
X225.4Y-54.26
X225.4Y-56.8
X225.4Y-59.34
X225.4Y-63.15
X225.4Y-66.325
X225.527Y-122.713
X225.532Y-71.156
X226.035Y-66.325
X226.035Y-134.397
X226.035Y-150.907
X226.035Y-157.257
X226.035Y-162.337
X226.162Y-145.827
X226.67Y-63.15
X226.67Y-66.325
X227.305Y-63.15
X227.432Y-114.712
X227.94Y-41.56
X227.94Y-44.1
X227.94Y-46.64
X227.94Y-49.18
X227.94Y-54.26
X227.94Y-56.8
X227.94Y-59.34
X227.94Y-63.15
X227.94Y-63.785
X227.94Y-64.42
X227.94Y-65.055
X228.575Y-63.785
X228.575Y-64.42
X228.575Y-65.055
X229.21Y-64.42
X230.48Y-41.56
X230.48Y-44.1
X230.48Y-46.64
X230.48Y-49.18
X230.48Y-51.72
X230.48Y-54.26
X230.48Y-56.8
X230.48Y-59.34
X230.48Y-61.88
X230.48Y-64.42
X230.48Y-110.267
X231.115Y-87.915
X231.115Y-95.535
X231.75Y-87.28
X231.75Y-96.17
X232.03Y-122.713
X232.385Y-87.915
X232.385Y-95.535
X233.02Y-41.56
X233.02Y-44.1
X233.02Y-46.64
X233.02Y-49.18
X233.02Y-54.26
X233.02Y-56.8
X233.02Y-59.34
X233.02Y-64.42
X233.02Y-87.28
X233.02Y-96.17
X233.02Y-126.777
X233.655Y-87.915
X233.655Y-95.535
X234.29Y-87.28
X234.29Y-96.17
X234.925Y-87.915
X234.925Y-95.535
X234.925Y-126.777
X235.56Y-107.6
X236.195Y-88.55
X236.195Y-89.82
X236.195Y-91.09
X236.195Y-92.36
X236.195Y-93.63
X236.195Y-94.9
X236.83Y-89.185
X236.83Y-90.455
X236.83Y-91.725
X236.83Y-92.995
X236.83Y-94.265
X238.1Y-41.56
X238.1Y-107.6
X238.608Y-145.827
X238.735Y-134.397
X238.735Y-150.907
X238.735Y-157.257
X238.735Y-162.337
X238.862Y-111.029
X240.64Y-41.56
X240.64Y-107.6
X240.64Y-112.68
X241.91Y-138.842
X241.91Y-142.652
X241.91Y-146.462
X243.18Y-41.56
X243.18Y-107.6
X243.18Y-112.68
X243.46Y-133.0
X245.065Y-140.747
X245.085Y-144.557
X245.72Y-41.56
X245.72Y-112.68
X246.101Y-111.029
X246.355Y-136.937
X246.99Y-110.267
T2
X156.1Y-52.5
X156.1Y-61.2
X161.18Y-52.5
X161.18Y-61.2
X166.26Y-52.5
X166.26Y-61.2
X171.34Y-52.5
X171.34Y-61.2
X176.42Y-52.5
X176.42Y-61.2
X181.5Y-52.5
X181.5Y-61.2
X187.25Y-48.6
X187.25Y-52.1
X187.25Y-57.9
X187.25Y-61.4
X189.75Y-48.6
X189.75Y-52.1
X189.75Y-57.9
X189.75Y-61.4
X195.92Y-52.5
X195.92Y-61.2
X201.0Y-52.5
X201.0Y-61.2
X207.67Y-52.5
X207.67Y-61.2
X212.75Y-52.5
X212.75Y-61.2
X218.75Y-48.6
X218.75Y-52.1
X218.75Y-57.9
X218.75Y-61.4
X221.25Y-48.6
X221.25Y-52.1
X221.25Y-57.9
X221.25Y-61.4
X227.42Y-52.5
X227.42Y-61.2
X232.5Y-52.5
X232.5Y-61.2
X239.17Y-52.5
X239.17Y-61.2
X244.25Y-52.5
X244.25Y-61.2
M30
