%TF.GenerationSoftware,KiCad,Pcbnew,8.0.2*%
%TF.CreationDate,2025-02-23T04:32:52+01:00*%
%TF.ProjectId,meas,6d656173-2e6b-4696-9361-645f70636258,1.0.0*%
%TF.SameCoordinates,Original*%
%TF.FileFunction,Legend,Bot*%
%TF.FilePolarity,Positive*%
%FSLAX46Y46*%
G04 Gerber Fmt 4.6, Leading zero omitted, Abs format (unit mm)*
G04 Created by KiCad (PCBNEW 8.0.2) date 2025-02-23 04:32:52*
%MOMM*%
%LPD*%
G01*
G04 APERTURE LIST*
%ADD10C,0.150000*%
%ADD11C,0.120000*%
G04 APERTURE END LIST*
D10*
X220819819Y-65245714D02*
X221629342Y-65245714D01*
X221629342Y-65245714D02*
X221724580Y-65293333D01*
X221724580Y-65293333D02*
X221772200Y-65340952D01*
X221772200Y-65340952D02*
X221819819Y-65436190D01*
X221819819Y-65436190D02*
X221819819Y-65626666D01*
X221819819Y-65626666D02*
X221772200Y-65721904D01*
X221772200Y-65721904D02*
X221724580Y-65769523D01*
X221724580Y-65769523D02*
X221629342Y-65817142D01*
X221629342Y-65817142D02*
X220819819Y-65817142D01*
X221819819Y-66340952D02*
X221819819Y-66531428D01*
X221819819Y-66531428D02*
X221772200Y-66626666D01*
X221772200Y-66626666D02*
X221724580Y-66674285D01*
X221724580Y-66674285D02*
X221581723Y-66769523D01*
X221581723Y-66769523D02*
X221391247Y-66817142D01*
X221391247Y-66817142D02*
X221010295Y-66817142D01*
X221010295Y-66817142D02*
X220915057Y-66769523D01*
X220915057Y-66769523D02*
X220867438Y-66721904D01*
X220867438Y-66721904D02*
X220819819Y-66626666D01*
X220819819Y-66626666D02*
X220819819Y-66436190D01*
X220819819Y-66436190D02*
X220867438Y-66340952D01*
X220867438Y-66340952D02*
X220915057Y-66293333D01*
X220915057Y-66293333D02*
X221010295Y-66245714D01*
X221010295Y-66245714D02*
X221248390Y-66245714D01*
X221248390Y-66245714D02*
X221343628Y-66293333D01*
X221343628Y-66293333D02*
X221391247Y-66340952D01*
X221391247Y-66340952D02*
X221438866Y-66436190D01*
X221438866Y-66436190D02*
X221438866Y-66626666D01*
X221438866Y-66626666D02*
X221391247Y-66721904D01*
X221391247Y-66721904D02*
X221343628Y-66769523D01*
X221343628Y-66769523D02*
X221248390Y-66817142D01*
X220819819Y-67436190D02*
X220819819Y-67531428D01*
X220819819Y-67531428D02*
X220867438Y-67626666D01*
X220867438Y-67626666D02*
X220915057Y-67674285D01*
X220915057Y-67674285D02*
X221010295Y-67721904D01*
X221010295Y-67721904D02*
X221200771Y-67769523D01*
X221200771Y-67769523D02*
X221438866Y-67769523D01*
X221438866Y-67769523D02*
X221629342Y-67721904D01*
X221629342Y-67721904D02*
X221724580Y-67674285D01*
X221724580Y-67674285D02*
X221772200Y-67626666D01*
X221772200Y-67626666D02*
X221819819Y-67531428D01*
X221819819Y-67531428D02*
X221819819Y-67436190D01*
X221819819Y-67436190D02*
X221772200Y-67340952D01*
X221772200Y-67340952D02*
X221724580Y-67293333D01*
X221724580Y-67293333D02*
X221629342Y-67245714D01*
X221629342Y-67245714D02*
X221438866Y-67198095D01*
X221438866Y-67198095D02*
X221200771Y-67198095D01*
X221200771Y-67198095D02*
X221010295Y-67245714D01*
X221010295Y-67245714D02*
X220915057Y-67293333D01*
X220915057Y-67293333D02*
X220867438Y-67340952D01*
X220867438Y-67340952D02*
X220819819Y-67436190D01*
X221819819Y-68721904D02*
X221819819Y-68150476D01*
X221819819Y-68436190D02*
X220819819Y-68436190D01*
X220819819Y-68436190D02*
X220962676Y-68340952D01*
X220962676Y-68340952D02*
X221057914Y-68245714D01*
X221057914Y-68245714D02*
X221105533Y-68150476D01*
X231474580Y-67618952D02*
X231522200Y-67571333D01*
X231522200Y-67571333D02*
X231569819Y-67428476D01*
X231569819Y-67428476D02*
X231569819Y-67333238D01*
X231569819Y-67333238D02*
X231522200Y-67190381D01*
X231522200Y-67190381D02*
X231426961Y-67095143D01*
X231426961Y-67095143D02*
X231331723Y-67047524D01*
X231331723Y-67047524D02*
X231141247Y-66999905D01*
X231141247Y-66999905D02*
X230998390Y-66999905D01*
X230998390Y-66999905D02*
X230807914Y-67047524D01*
X230807914Y-67047524D02*
X230712676Y-67095143D01*
X230712676Y-67095143D02*
X230617438Y-67190381D01*
X230617438Y-67190381D02*
X230569819Y-67333238D01*
X230569819Y-67333238D02*
X230569819Y-67428476D01*
X230569819Y-67428476D02*
X230617438Y-67571333D01*
X230617438Y-67571333D02*
X230665057Y-67618952D01*
X231569819Y-68095143D02*
X231569819Y-68285619D01*
X231569819Y-68285619D02*
X231522200Y-68380857D01*
X231522200Y-68380857D02*
X231474580Y-68428476D01*
X231474580Y-68428476D02*
X231331723Y-68523714D01*
X231331723Y-68523714D02*
X231141247Y-68571333D01*
X231141247Y-68571333D02*
X230760295Y-68571333D01*
X230760295Y-68571333D02*
X230665057Y-68523714D01*
X230665057Y-68523714D02*
X230617438Y-68476095D01*
X230617438Y-68476095D02*
X230569819Y-68380857D01*
X230569819Y-68380857D02*
X230569819Y-68190381D01*
X230569819Y-68190381D02*
X230617438Y-68095143D01*
X230617438Y-68095143D02*
X230665057Y-68047524D01*
X230665057Y-68047524D02*
X230760295Y-67999905D01*
X230760295Y-67999905D02*
X230998390Y-67999905D01*
X230998390Y-67999905D02*
X231093628Y-68047524D01*
X231093628Y-68047524D02*
X231141247Y-68095143D01*
X231141247Y-68095143D02*
X231188866Y-68190381D01*
X231188866Y-68190381D02*
X231188866Y-68380857D01*
X231188866Y-68380857D02*
X231141247Y-68476095D01*
X231141247Y-68476095D02*
X231093628Y-68523714D01*
X231093628Y-68523714D02*
X230998390Y-68571333D01*
X230569819Y-69190381D02*
X230569819Y-69285619D01*
X230569819Y-69285619D02*
X230617438Y-69380857D01*
X230617438Y-69380857D02*
X230665057Y-69428476D01*
X230665057Y-69428476D02*
X230760295Y-69476095D01*
X230760295Y-69476095D02*
X230950771Y-69523714D01*
X230950771Y-69523714D02*
X231188866Y-69523714D01*
X231188866Y-69523714D02*
X231379342Y-69476095D01*
X231379342Y-69476095D02*
X231474580Y-69428476D01*
X231474580Y-69428476D02*
X231522200Y-69380857D01*
X231522200Y-69380857D02*
X231569819Y-69285619D01*
X231569819Y-69285619D02*
X231569819Y-69190381D01*
X231569819Y-69190381D02*
X231522200Y-69095143D01*
X231522200Y-69095143D02*
X231474580Y-69047524D01*
X231474580Y-69047524D02*
X231379342Y-68999905D01*
X231379342Y-68999905D02*
X231188866Y-68952286D01*
X231188866Y-68952286D02*
X230950771Y-68952286D01*
X230950771Y-68952286D02*
X230760295Y-68999905D01*
X230760295Y-68999905D02*
X230665057Y-69047524D01*
X230665057Y-69047524D02*
X230617438Y-69095143D01*
X230617438Y-69095143D02*
X230569819Y-69190381D01*
X231569819Y-70476095D02*
X231569819Y-69904667D01*
X231569819Y-70190381D02*
X230569819Y-70190381D01*
X230569819Y-70190381D02*
X230712676Y-70095143D01*
X230712676Y-70095143D02*
X230807914Y-69999905D01*
X230807914Y-69999905D02*
X230855533Y-69904667D01*
X227662047Y-74902580D02*
X227709666Y-74950200D01*
X227709666Y-74950200D02*
X227852523Y-74997819D01*
X227852523Y-74997819D02*
X227947761Y-74997819D01*
X227947761Y-74997819D02*
X228090618Y-74950200D01*
X228090618Y-74950200D02*
X228185856Y-74854961D01*
X228185856Y-74854961D02*
X228233475Y-74759723D01*
X228233475Y-74759723D02*
X228281094Y-74569247D01*
X228281094Y-74569247D02*
X228281094Y-74426390D01*
X228281094Y-74426390D02*
X228233475Y-74235914D01*
X228233475Y-74235914D02*
X228185856Y-74140676D01*
X228185856Y-74140676D02*
X228090618Y-74045438D01*
X228090618Y-74045438D02*
X227947761Y-73997819D01*
X227947761Y-73997819D02*
X227852523Y-73997819D01*
X227852523Y-73997819D02*
X227709666Y-74045438D01*
X227709666Y-74045438D02*
X227662047Y-74093057D01*
X227185856Y-74997819D02*
X226995380Y-74997819D01*
X226995380Y-74997819D02*
X226900142Y-74950200D01*
X226900142Y-74950200D02*
X226852523Y-74902580D01*
X226852523Y-74902580D02*
X226757285Y-74759723D01*
X226757285Y-74759723D02*
X226709666Y-74569247D01*
X226709666Y-74569247D02*
X226709666Y-74188295D01*
X226709666Y-74188295D02*
X226757285Y-74093057D01*
X226757285Y-74093057D02*
X226804904Y-74045438D01*
X226804904Y-74045438D02*
X226900142Y-73997819D01*
X226900142Y-73997819D02*
X227090618Y-73997819D01*
X227090618Y-73997819D02*
X227185856Y-74045438D01*
X227185856Y-74045438D02*
X227233475Y-74093057D01*
X227233475Y-74093057D02*
X227281094Y-74188295D01*
X227281094Y-74188295D02*
X227281094Y-74426390D01*
X227281094Y-74426390D02*
X227233475Y-74521628D01*
X227233475Y-74521628D02*
X227185856Y-74569247D01*
X227185856Y-74569247D02*
X227090618Y-74616866D01*
X227090618Y-74616866D02*
X226900142Y-74616866D01*
X226900142Y-74616866D02*
X226804904Y-74569247D01*
X226804904Y-74569247D02*
X226757285Y-74521628D01*
X226757285Y-74521628D02*
X226709666Y-74426390D01*
X226090618Y-73997819D02*
X225995380Y-73997819D01*
X225995380Y-73997819D02*
X225900142Y-74045438D01*
X225900142Y-74045438D02*
X225852523Y-74093057D01*
X225852523Y-74093057D02*
X225804904Y-74188295D01*
X225804904Y-74188295D02*
X225757285Y-74378771D01*
X225757285Y-74378771D02*
X225757285Y-74616866D01*
X225757285Y-74616866D02*
X225804904Y-74807342D01*
X225804904Y-74807342D02*
X225852523Y-74902580D01*
X225852523Y-74902580D02*
X225900142Y-74950200D01*
X225900142Y-74950200D02*
X225995380Y-74997819D01*
X225995380Y-74997819D02*
X226090618Y-74997819D01*
X226090618Y-74997819D02*
X226185856Y-74950200D01*
X226185856Y-74950200D02*
X226233475Y-74902580D01*
X226233475Y-74902580D02*
X226281094Y-74807342D01*
X226281094Y-74807342D02*
X226328713Y-74616866D01*
X226328713Y-74616866D02*
X226328713Y-74378771D01*
X226328713Y-74378771D02*
X226281094Y-74188295D01*
X226281094Y-74188295D02*
X226233475Y-74093057D01*
X226233475Y-74093057D02*
X226185856Y-74045438D01*
X226185856Y-74045438D02*
X226090618Y-73997819D01*
X225376332Y-74093057D02*
X225328713Y-74045438D01*
X225328713Y-74045438D02*
X225233475Y-73997819D01*
X225233475Y-73997819D02*
X224995380Y-73997819D01*
X224995380Y-73997819D02*
X224900142Y-74045438D01*
X224900142Y-74045438D02*
X224852523Y-74093057D01*
X224852523Y-74093057D02*
X224804904Y-74188295D01*
X224804904Y-74188295D02*
X224804904Y-74283533D01*
X224804904Y-74283533D02*
X224852523Y-74426390D01*
X224852523Y-74426390D02*
X225423951Y-74997819D01*
X225423951Y-74997819D02*
X224804904Y-74997819D01*
D11*
%TO.C,U901*%
X222205000Y-65010000D02*
X222205000Y-66960000D01*
X222205000Y-68910000D02*
X222205000Y-66960000D01*
X227325000Y-65010000D02*
X227325000Y-66960000D01*
X227325000Y-68910000D02*
X227325000Y-66960000D01*
X222300000Y-64260000D02*
X221970000Y-64500000D01*
X221970000Y-64020000D01*
X222300000Y-64260000D01*
G36*
X222300000Y-64260000D02*
G01*
X221970000Y-64500000D01*
X221970000Y-64020000D01*
X222300000Y-64260000D01*
G37*
%TO.C,C901*%
X228475000Y-68476748D02*
X228475000Y-68999252D01*
X229945000Y-68476748D02*
X229945000Y-68999252D01*
%TO.C,C902*%
X226831252Y-71940000D02*
X226308748Y-71940000D01*
X226831252Y-73410000D02*
X226308748Y-73410000D01*
%TD*%
M02*
